<?xml version="1.0" encoding="utf-8"?>
<!-- Generator: Adobe Illustrator 17.0.0, SVG Export Plug-In . SVG Version: 6.00 Build 0)  -->
<!DOCTYPE svg PUBLIC "-//W3C//DTD SVG 1.1//EN" "http://www.w3.org/Graphics/SVG/1.1/DTD/svg11.dtd">
<svg version="1.1" id="Ebene_1" xmlns="http://www.w3.org/2000/svg" xmlns:xlink="http://www.w3.org/1999/xlink" x="0px" y="0px"
	 width="1000px" height="500px" viewBox="0 0 1000 500" enable-background="new 0 0 1000 500" xml:space="preserve">
<rect x="0.5" y="0.5" fill="#3FA9F5" stroke="#000000" stroke-miterlimit="10" width="499" height="499"/>
<rect x="499.5" y="0.5" fill="#FF931E" stroke="#000000" stroke-miterlimit="10" width="500" height="251"/>
<rect x="499.5" y="250.5" fill="#3FA9F5" stroke="#000000" stroke-miterlimit="10" width="250" height="249"/>
<rect x="749.5" y="250.5" fill="#FF931E" stroke="#000000" stroke-miterlimit="10" width="250" height="125"/>
<rect x="749.5" y="374.5" fill="#3FA9F5" stroke="#000000" stroke-miterlimit="10" width="125" height="125"/>
<rect x="874.5" y="374.5" fill="#FF931E" stroke="#000000" stroke-miterlimit="10" width="125" height="63"/>
<rect x="874.5" y="437.5" fill="#3FA9F5" stroke="#000000" stroke-miterlimit="10" width="62" height="62"/>
<rect x="936.5" y="437.5" fill="#FF931E" stroke="#000000" stroke-miterlimit="10" width="63" height="31"/>
<rect x="936.5" y="468.5" fill="#3FA9F5" stroke="#000000" stroke-miterlimit="10" width="31" height="31"/>
<rect x="967.5" y="468.5" fill="#FF931E" stroke="#000000" stroke-miterlimit="10" width="32" height="16"/>
<rect x="967.5" y="484.5" fill="#3FA9F5" stroke="#000000" stroke-miterlimit="10" width="16" height="15"/>
<rect x="983.5" y="484.5" fill="#FF931E" stroke="#000000" stroke-miterlimit="10" width="16" height="8"/>
<rect x="983.5" y="492.5" fill="#3FA9F5" stroke="#000000" stroke-miterlimit="10" width="7" height="7"/>
<rect x="990.5" y="492.5" fill="#FF931E" stroke="#000000" stroke-miterlimit="10" width="9" height="4"/>
<rect x="990.5" y="496.5" fill="#3FA9F5" stroke="#000000" stroke-miterlimit="10" width="4" height="3"/>
<text transform="matrix(1 0 0 1 245 252.9998)" font-family="'MyriadPro-Regular'" font-size="25">1</text>
<text transform="matrix(1 0 0 1 732.8882 132.0002)" font-family="'MyriadPro-Regular'" font-size="25">1/2</text>
<text transform="matrix(1 0 0 1 607.8877 382)" font-family="'MyriadPro-Regular'" font-size="25">1/4</text>
<text transform="matrix(1 0 0 1 857.8877 318.5)" font-family="'MyriadPro-Regular'" font-size="25">1/8</text>
<text transform="matrix(1 0 0 1 788.9753 444.5003)" font-family="'MyriadPro-Regular'" font-size="25">1/16</text>
<text transform="matrix(1 0 0 1 913.9756 414.5)" font-family="'MyriadPro-Regular'" font-size="25">1/32</text>
<rect x="994.5" y="496.5" fill="#FF931E" stroke="#000000" stroke-miterlimit="10" width="5" height="2"/>
<rect x="994.5" y="498.5" fill="#3FA9F5" stroke="#000000" stroke-miterlimit="10" width="2" height="1"/>
<rect x="996.5" y="498.5" fill="#3FA9F5" stroke="#000000" stroke-miterlimit="10" width="3" height="1"/>
</svg>
