<?xml version="1.0" encoding="UTF-8" standalone="no"?>
<svg xmlns="http://www.w3.org/2000/svg"
     xmlns:xlink="http://www.w3.org/1999/xlink"
     width="576px" height="432px" viewBox="0 0 576 432">
<title>gl2ps_renderer figure</title>
<desc>
Creator: GL2PS 1.4.0, (C) 1999-2017 C. Geuzaine
For: Octave
CreationDate: Thu Dec  5 01:29:12 2019
</desc>
<defs>
</defs>
<polygon fill="#ffffff" points="0,0 576,0 576,432 0,432"/>
<g>
<polygon fill="#ffffff" points="0,432 576,432 576,0 0,0" shape-rendering="crispEdges"/>
<clipPath id="cp00576432">
  <polygon points="0,432 576,432 576,0 0,0"/>
</clipPath>
<g clip-path="url(#cp00576432)">
<polygon fill="#ffffff" shape-rendering="crispEdges" points="74.8799,384.48 521.28,384.48 521.28,32.3999"/>
<polygon fill="#ffffff" shape-rendering="crispEdges" points="74.8799,384.48 521.28,32.3999 74.8799,32.3999"/>
<polyline fill="none" stroke="#262626" stroke-width="0.5" stroke-linecap="butt" stroke-linejoin="miter" stroke-opacity="0.15" stroke-dasharray="16,0" points="74.8799,384.48 74.8799,32.3999"/>
<polyline fill="none" stroke="#262626" stroke-width="0.5" stroke-linecap="butt" stroke-linejoin="miter" stroke-opacity="0.15" stroke-dasharray="16,0" points="186.48,384.48 186.48,32.3999"/>
<polyline fill="none" stroke="#262626" stroke-width="0.5" stroke-linecap="butt" stroke-linejoin="miter" stroke-opacity="0.15" stroke-dasharray="16,0" points="298.08,384.48 298.08,32.3999"/>
<polyline fill="none" stroke="#262626" stroke-width="0.5" stroke-linecap="butt" stroke-linejoin="miter" stroke-opacity="0.15" stroke-dasharray="16,0" points="409.68,384.48 409.68,32.3999"/>
<polyline fill="none" stroke="#262626" stroke-width="0.5" stroke-linecap="butt" stroke-linejoin="miter" stroke-opacity="0.15" stroke-dasharray="16,0" points="521.28,384.48 521.28,32.3999"/>
<polyline fill="none" stroke="#262626" stroke-width="0.5" stroke-linecap="butt" stroke-linejoin="miter" points="74.8799,384.48 74.8799,380.015"/>
<polyline fill="none" stroke="#262626" stroke-width="0.5" stroke-linecap="butt" stroke-linejoin="miter" points="186.48,384.48 186.48,380.015"/>
<polyline fill="none" stroke="#262626" stroke-width="0.5" stroke-linecap="butt" stroke-linejoin="miter" points="298.08,384.48 298.08,380.015"/>
<polyline fill="none" stroke="#262626" stroke-width="0.5" stroke-linecap="butt" stroke-linejoin="miter" points="409.68,384.48 409.68,380.015"/>
<polyline fill="none" stroke="#262626" stroke-width="0.5" stroke-linecap="butt" stroke-linejoin="miter" points="521.28,384.48 521.28,380.015"/>
<text fill="#262626" x="74.8799" y="389.481" font-size="10" text-anchor="middle" dy="10" font-family="Helvetica">0</text>
<text fill="#262626" x="186.48" y="389.481" font-size="10" text-anchor="middle" dy="10" font-family="Helvetica">0.5</text>
<text fill="#262626" x="298.08" y="389.481" font-size="10" text-anchor="middle" dy="10" font-family="Helvetica">1</text>
<text fill="#262626" x="409.68" y="389.481" font-size="10" text-anchor="middle" dy="10" font-family="Helvetica">1.5</text>
<text fill="#262626" x="521.28" y="389.481" font-size="10" text-anchor="middle" dy="10" font-family="Helvetica">2</text>
<polyline fill="none" stroke="#262626" stroke-width="0.5" stroke-linecap="butt" stroke-linejoin="miter" stroke-opacity="0.15" stroke-dasharray="16,0" points="74.8799,384.48 521.28,384.48"/>
<polyline fill="none" stroke="#262626" stroke-width="0.5" stroke-linecap="butt" stroke-linejoin="miter" stroke-opacity="0.15" stroke-dasharray="16,0" points="74.8799,296.46 521.28,296.46"/>
<polyline fill="none" stroke="#262626" stroke-width="0.5" stroke-linecap="butt" stroke-linejoin="miter" stroke-opacity="0.15" stroke-dasharray="16,0" points="74.8799,208.44 521.28,208.44"/>
<polyline fill="none" stroke="#262626" stroke-width="0.5" stroke-linecap="butt" stroke-linejoin="miter" stroke-opacity="0.15" stroke-dasharray="16,0" points="74.8799,120.42 521.28,120.42"/>
<polyline fill="none" stroke="#262626" stroke-width="0.5" stroke-linecap="butt" stroke-linejoin="miter" stroke-opacity="0.15" stroke-dasharray="16,0" points="74.8799,32.3999 521.28,32.3999"/>
<polyline fill="none" stroke="#262626" stroke-width="0.5" stroke-linecap="butt" stroke-linejoin="miter" points="74.8799,384.48 79.3481,384.48"/>
<polyline fill="none" stroke="#262626" stroke-width="0.5" stroke-linecap="butt" stroke-linejoin="miter" points="74.8799,296.46 79.3481,296.46"/>
<polyline fill="none" stroke="#262626" stroke-width="0.5" stroke-linecap="butt" stroke-linejoin="miter" points="74.8799,208.44 79.3481,208.44"/>
<polyline fill="none" stroke="#262626" stroke-width="0.5" stroke-linecap="butt" stroke-linejoin="miter" points="74.8799,120.42 79.3481,120.42"/>
<polyline fill="none" stroke="#262626" stroke-width="0.5" stroke-linecap="butt" stroke-linejoin="miter" points="74.8799,32.3999 79.3481,32.3999"/>
<text fill="#262626" x="69.8755" y="384.48" font-size="10" text-anchor="end" dy="5" font-family="Helvetica">-0.5</text>
<text fill="#262626" x="69.8755" y="296.46" font-size="10" text-anchor="end" dy="5" font-family="Helvetica">0</text>
<text fill="#262626" x="69.8755" y="208.44" font-size="10" text-anchor="end" dy="5" font-family="Helvetica">0.5</text>
<text fill="#262626" x="69.8755" y="120.42" font-size="10" text-anchor="end" dy="5" font-family="Helvetica">1</text>
<text fill="#262626" x="69.8755" y="32.3999" font-size="10" text-anchor="end" dy="5" font-family="Helvetica">1.5</text>
<polyline fill="none" stroke="#262626" stroke-width="0.5" stroke-linecap="butt" stroke-linejoin="miter" stroke-dasharray="16,0" points="74.8799,384.48 521.28,384.48"/>
<polyline fill="none" stroke="#262626" stroke-width="0.5" stroke-linecap="butt" stroke-linejoin="miter" stroke-dasharray="16,0" points="74.8799,384.48 74.8799,32.3999"/>
<polyline fill="none" stroke="#ff0000" stroke-width="4" stroke-linecap="butt" stroke-linejoin="miter" points="74.8799,296.46 77.1118,294.7 79.3438,292.939 81.5762,291.18 83.8081,289.42 86.04,287.662 88.272,285.904 90.5039,284.147 92.7358,282.392 94.9678,280.638 97.2002,278.885 99.4321,277.135 101.664,275.386 103.896,273.639 106.128,271.895 108.36,270.153 110.592,268.414 112.824,266.677 115.056,264.944 117.288,263.213 119.52,261.486 121.752,259.763 123.984,258.043 126.216,256.327 128.448,254.615 130.68,252.907 132.912,251.204 135.144,249.504 137.376,247.811 139.608,246.121 141.84,244.437 144.072,242.757 146.304,241.083 148.536,239.416 150.768,237.753 153,236.096 155.232,234.446 157.464,232.801 159.696,231.163 161.928,229.532 164.16,227.907 166.392,226.289 168.624,224.678 170.856,223.074 173.088,221.478 175.32,219.889 177.552,218.308 179.784,216.734 182.016,215.168 184.248,213.611 186.48,212.062 188.712,210.521 190.944,208.989 193.176,207.466 195.408,205.952 197.64,204.446 199.872,202.95 202.104,201.463 204.336,199.986 206.568,198.518 208.8,197.061 211.032,195.612 213.264,194.175 215.496,192.747 217.728,191.33 219.96,189.923 222.192,188.527 224.424,187.142 226.656,185.767 228.888,184.404 231.12,183.052 233.352,181.711 235.584,180.382 237.816,179.064 240.048,177.758 242.28,176.464 244.512,175.182 246.744,173.913 248.976,172.655 251.208,171.41 253.44,170.177 255.672,168.957 257.904,167.749 260.136,166.555 262.368,165.373 264.6,164.205 266.832,163.049 269.064,161.908 271.296,160.779 273.528,159.664 275.76,158.563 277.992,157.476 280.224,156.402 282.456,155.343 284.688,154.297 286.92,153.266 289.152,152.25 291.384,151.247 293.616,150.259 295.848,149.286 298.08,148.328 300.312,147.384 302.544,146.455 304.776,145.541 307.008,144.643 309.24,143.759 311.472,142.891 313.704,142.038 315.936,141.2 318.168,140.378 320.4,139.572 322.632,138.781 324.864,138.006 327.096,137.247 329.328,136.504 331.56,135.777 333.792,135.066 336.024,134.371 338.256,133.692 340.488,133.03 342.72,132.384 344.952,131.754 347.184,131.141 349.416,130.544 351.648,129.964 353.88,129.401 356.112,128.854 358.344,128.324 360.576,127.811 362.808,127.314 365.04,126.835 367.272,126.373 369.504,125.927 371.736,125.499 373.968,125.088 376.2,124.694 378.432,124.317 380.664,123.957 382.896,123.615 385.128,123.29 387.36,122.981 389.592,122.691 391.824,122.418 394.056,122.162 396.288,121.924 398.52,121.703 400.752,121.5 402.984,121.313 405.216,121.145 407.448,120.994 409.68,120.861 411.912,120.745 414.144,120.647 416.376,120.566 418.608,120.503 420.84,120.458 423.072,120.43 425.304,120.42 427.536,120.427 429.768,120.453 432,120.495 434.232,120.555 436.464,120.633 438.696,120.729 440.928,120.841 443.16,120.972 445.392,121.12 447.624,121.286 449.856,121.469 452.088,121.669 454.32,121.887 456.552,122.123 458.784,122.376 461.016,122.646 463.248,122.934 465.48,123.239 467.712,123.562 469.944,123.901 472.176,124.258 474.408,124.632 476.64,125.024 478.872,125.433 481.104,125.858 483.336,126.301 485.568,126.76 487.8,127.237 490.032,127.731 492.264,128.241 494.496,128.769 496.728,129.312 498.96,129.874 501.192,130.451 503.424,131.045 505.656,131.655 507.888,132.282 510.12,132.926 512.352,133.586 514.584,134.262 516.816,134.954 519.048,135.663 521.28,136.387"/>
<polyline fill="none" stroke="#00ff00" stroke-width="2" stroke-linecap="butt" stroke-linejoin="miter" points="74.8799,296.46 77.1118,298.823 79.3438,300.73 81.5762,302.176 83.8081,303.16 86.04,303.683 88.272,303.75 90.5039,303.371 92.7358,302.556 94.9678,301.323 97.2002,299.689 99.4321,297.678 101.664,295.311 103.896,292.618 106.128,289.625 108.36,286.367 110.592,282.875 112.824,279.184 115.056,275.329 117.288,271.346 119.52,267.274 121.752,263.149 123.984,259.007 126.216,254.887 128.448,250.822 130.68,246.849 132.912,242.999 135.144,239.304 137.376,235.794 139.608,232.497 141.84,229.436 144.072,226.632 146.304,224.107 148.536,221.875 150.768,219.95 153,218.34 155.232,217.052 157.464,216.088 159.696,215.449 161.928,215.128 164.16,215.121 166.392,215.413 168.624,215.993 170.856,216.843 173.088,217.943 175.32,219.27 177.552,220.798 179.784,222.502 182.016,224.35 184.248,226.312 186.48,228.355 188.712,230.446 190.944,232.549 193.176,234.631 195.408,236.655 197.64,238.586 199.872,240.392 202.104,242.036 204.336,243.487 206.568,244.714 208.8,245.688 211.032,246.38 213.264,246.766 215.496,246.824 217.728,246.533 219.96,245.877 222.192,244.841 224.424,243.417 226.656,241.595 228.888,239.372 231.12,236.749 233.352,233.728 235.584,230.316 237.816,226.524 240.048,222.365 242.28,217.856 244.512,213.017 246.744,207.871 248.976,202.445 251.208,196.766 253.44,190.866 255.672,184.777 257.904,178.535 260.136,172.175 262.368,165.737 264.6,159.257 266.832,152.776 269.064,146.333 271.296,139.967 273.528,133.718 275.76,127.624 277.992,121.722 280.224,116.047 282.456,110.636 284.688,105.519 286.92,100.727 289.152,96.2866 291.384,92.2246 293.616,88.5625 295.848,85.3184 298.08,82.5088 300.312,80.146 302.544,78.2388 304.776,76.7925 307.008,75.8086 309.24,75.2861 311.472,75.2188 313.704,75.5986 315.936,76.4126 318.168,77.646 320.4,79.2793 322.632,81.2915 324.864,83.6577 327.096,86.3516 329.328,89.3433 331.56,92.6016 333.792,96.0942 336.024,99.7856 338.256,103.641 340.488,107.623 342.72,111.695 344.952,115.82 347.184,119.961 349.416,124.082 351.648,128.146 353.88,132.12 356.112,135.97 358.344,139.665 360.576,143.174 362.808,146.472 365.04,149.534 367.272,152.336 369.504,154.862 371.736,157.094 373.968,159.019 376.2,160.629 378.432,161.917 380.664,162.88 382.896,163.52 385.128,163.84 387.36,163.849 389.592,163.556 391.824,162.976 394.056,162.126 396.288,161.026 398.52,159.699 400.752,158.17 402.984,156.467 405.216,154.619 407.448,152.657 409.68,150.614 411.912,148.523 414.144,146.419 416.376,144.338 418.608,142.314 420.84,140.382 423.072,138.577 425.304,136.933 427.536,135.482 429.768,134.255 432,133.282 434.232,132.589 436.464,132.203 438.696,132.145 440.928,132.436 443.16,133.092 445.392,134.127 447.624,135.553 449.856,137.375 452.088,139.597 454.32,142.22 456.552,145.241 458.784,148.652 461.016,152.445 463.248,156.604 465.48,161.113 467.712,165.952 469.944,171.098 472.176,176.524 474.408,182.203 476.64,188.104 478.872,194.192 481.104,200.434 483.336,206.793 485.568,213.232 487.8,219.712 490.032,226.193 492.264,232.636 494.496,239.001 496.728,245.25 498.96,251.345 501.192,257.248 503.424,262.921 505.656,268.333 507.888,273.45 510.12,278.243 512.352,282.682 514.584,286.744 516.816,290.407 519.048,293.65 521.28,296.46"/>
<polyline fill="none" stroke="#0000ff" stroke-width="2" stroke-linecap="butt" stroke-linejoin="miter" points="74.8799,314.064 77.1118,316.427 79.3438,318.334 81.5762,319.781 83.8081,320.764 86.04,321.287 88.272,321.354 90.5039,320.975 92.7358,320.16 94.9678,318.927 97.2002,317.293 99.4321,315.282 101.664,312.915 103.896,310.222 106.128,307.229 108.36,303.971 110.592,300.479 112.824,296.788 115.056,292.933 117.288,288.95 119.52,284.878 121.752,280.753 123.984,276.611 126.216,272.491 128.448,268.426 130.68,264.453 132.912,260.603 135.144,256.908 137.376,253.398 139.608,250.101 141.84,247.04 144.072,244.236 146.304,241.711 148.536,239.479 150.768,237.554 153,235.944 155.232,234.656 157.464,233.692 159.696,233.053 161.928,232.732 164.16,232.725 166.392,233.017 168.624,233.597 170.856,234.447 173.088,235.547 175.32,236.874 177.552,238.402 179.784,240.106 182.016,241.954 184.248,243.916 186.48,245.959 188.712,248.05 190.944,250.153 193.176,252.235 195.408,254.259 197.64,256.19 199.872,257.996 202.104,259.64 204.336,261.091 206.568,262.318 208.8,263.292 211.032,263.984 213.264,264.37 215.496,264.428 217.728,264.137 219.96,263.481 222.192,262.445 224.424,261.021 226.656,259.199 228.888,256.976 231.12,254.353 233.352,251.332 235.584,247.92 237.816,244.128 240.048,239.969 242.28,235.46 244.512,230.621 246.744,225.475 248.976,220.049 251.208,214.37 253.44,208.47 255.672,202.381 257.904,196.139 260.136,189.779 262.368,183.341 264.6,176.861 266.832,170.38 269.064,163.937 271.296,157.571 273.528,151.322 275.76,145.228 277.992,139.326 280.224,133.651 282.456,128.24 284.688,123.123 286.92,118.331 289.152,113.891 291.384,109.829 293.616,106.167 295.848,102.922 298.08,100.113 300.312,97.75 302.544,95.8428 304.776,94.3965 307.008,93.4126 309.24,92.8901 311.472,92.8228 313.704,93.2026 315.936,94.0166 318.168,95.25 320.4,96.8833 322.632,98.8955 324.864,101.262 327.096,103.956 329.328,106.947 331.56,110.206 333.792,113.698 336.024,117.39 338.256,121.245 340.488,125.227 342.72,129.299 344.952,133.424 347.184,137.565 349.416,141.686 351.648,145.75 353.88,149.724 356.112,153.574 358.344,157.269 360.576,160.778 362.808,164.076 365.04,167.138 367.272,169.94 369.504,172.466 371.736,174.698 373.968,176.623 376.2,178.233 378.432,179.521 380.664,180.484 382.896,181.124 385.128,181.444 387.36,181.453 389.592,181.16 391.824,180.58 394.056,179.73 396.288,178.63 398.52,177.303 400.752,175.774 402.984,174.071 405.216,172.223 407.448,170.261 409.68,168.218 411.912,166.127 414.144,164.023 416.376,161.942 418.608,159.918 420.84,157.986 423.072,156.181 425.304,154.537 427.536,153.086 429.768,151.859 432,150.885 434.232,150.193 436.464,149.807 438.696,149.749 440.928,150.04 443.16,150.696 445.392,151.731 447.624,153.157 449.856,154.979 452.088,157.201 454.32,159.824 456.552,162.845 458.784,166.256 461.016,170.049 463.248,174.208 465.48,178.717 467.712,183.556 469.944,188.702 472.176,194.128 474.408,199.807 476.64,205.708 478.872,211.796 481.104,218.038 483.336,224.397 485.568,230.836 487.8,237.316 490.032,243.797 492.264,250.24 494.496,256.605 496.728,262.854 498.96,268.949 501.192,274.852 503.424,280.525 505.656,285.938 507.888,291.054 510.12,295.847 512.352,300.286 514.584,304.348 516.816,308.011 519.048,311.254 521.28,314.064"/>
<polyline fill="none" stroke="#ff00ff" stroke-width="2" stroke-linecap="butt" stroke-linejoin="miter" points="74.8799,287.206 77.1118,291.824 79.3438,295.809 81.5762,299.144 83.8081,301.817 86.04,303.826 88.272,305.175 90.5039,305.874 92.7358,305.939 94.9678,305.395 97.2002,304.271 99.4321,302.603 101.664,300.429 103.896,297.793 106.128,294.745 108.36,291.334 110.592,287.615 112.824,283.64 115.056,279.466 117.288,275.148 119.52,270.741 121.752,266.297 123.984,261.87 126.216,257.505 128.448,253.25 130.68,249.145 132.912,245.228 135.144,241.529 137.376,238.078 139.608,234.896 141.84,231.999 144.072,229.399 146.304,227.103 148.536,225.108 150.768,223.412 153,222.004 155.232,220.871 157.464,219.993 159.696,219.348 161.928,218.911 164.16,218.652 166.392,218.542 168.624,218.548 170.856,218.636 173.088,218.773 175.32,218.925 177.552,219.059 179.784,219.144 182.016,219.149 184.248,219.047 186.48,218.814 188.712,218.428 190.944,217.871 193.176,217.126 195.408,216.186 197.64,215.042 199.872,213.691 202.104,212.137 204.336,210.382 206.568,208.438 208.8,206.314 211.032,204.03 213.264,201.603 215.496,199.053 217.728,196.406 219.96,193.685 222.192,190.918 224.424,188.131 226.656,185.353 228.888,182.61 231.12,179.928 233.352,177.333 235.584,174.848 237.816,172.495 240.048,170.292 242.28,168.256 244.512,166.4 246.744,164.734 248.976,163.265 251.208,161.994 253.44,160.922 255.672,160.045 257.904,159.356 260.136,158.843 262.368,158.493 264.6,158.29 266.832,158.213 269.064,158.244 271.296,158.358 273.528,158.532 275.76,158.74 277.992,158.958 280.224,159.16 282.456,159.322 284.688,159.421 286.92,159.433 289.152,159.339 291.384,159.121 293.616,158.763 295.848,158.253 298.08,157.582 300.312,156.742 302.544,155.732 304.776,154.552 307.008,153.207 309.24,151.704 311.472,150.053 313.704,148.271 315.936,146.372 318.168,144.377 320.4,142.309 322.632,140.189 324.864,138.045 327.096,135.902 329.328,133.787 331.56,131.727 333.792,129.748 336.024,127.875 338.256,126.134 340.488,124.545 342.72,123.129 344.952,121.904 347.184,120.883 349.416,120.077 351.648,119.494 353.88,119.137 356.112,119.006 358.344,119.097 360.576,119.4 362.808,119.906 365.04,120.597 367.272,121.455 369.504,122.457 371.736,123.577 373.968,124.789 376.2,126.062 378.432,127.366 380.664,128.667 382.896,129.935 385.128,131.135 387.36,132.236 389.592,133.208 391.824,134.021 394.056,134.651 396.288,135.073 398.52,135.267 400.752,135.218 402.984,134.914 405.216,134.347 407.448,133.515 409.68,132.421 411.912,131.073 414.144,129.483 416.376,127.67 418.608,125.658 420.84,123.473 423.072,121.148 425.304,118.721 427.536,116.231 429.768,113.722 432,111.241 434.232,108.835 436.464,106.555 438.696,104.451 440.928,102.574 443.16,100.973 445.392,99.6973 447.624,98.7935 449.856,98.3042 452.088,98.2705 454.32,98.728 456.552,99.7075 458.784,101.235 461.016,103.332 463.248,106.01 465.48,109.279 467.712,113.14 469.944,117.586 472.176,122.605 474.408,128.178 476.64,134.278 478.872,140.874 481.104,147.925 483.336,155.389 485.568,163.216 487.8,171.35 490.032,179.734 492.264,188.306 494.496,197.001 496.728,205.753 498.96,214.494 501.192,223.156 503.424,231.672 505.656,239.975 507.888,248.001 510.12,255.69 512.352,262.983 514.584,269.827 516.816,276.173 519.048,281.979 521.28,287.206"/>
<polyline fill="none" stroke="#000000" stroke-width="2" stroke-linecap="butt" stroke-linejoin="miter" points="74.8799,292.146 77.1118,301.363 79.3438,307.872 81.5762,311.647 83.8081,312.797 86.04,311.551 88.272,308.24 90.5039,303.277 92.7358,297.127 94.9678,290.275 97.2002,283.199 99.4321,276.34 101.664,270.077 103.896,264.709 106.128,260.438 108.36,257.367 110.592,255.498 112.824,254.741 115.056,254.928 117.288,255.828 119.52,257.172 121.752,258.676 123.984,260.062 126.216,261.079 128.448,261.523 130.68,261.25 132.912,260.182 135.144,258.311 137.376,255.696 139.608,252.455 141.84,248.75 144.072,244.777 146.304,240.744 148.536,236.853 150.768,233.286 153,230.194 155.232,227.677 157.464,225.788 159.696,224.522 161.928,223.824 164.16,223.593 166.392,223.694 168.624,223.968 170.856,224.248 173.088,224.371 175.32,224.197 177.552,223.613 179.784,222.545 182.016,220.965 184.248,218.889 186.48,216.375 188.712,213.52 190.944,210.445 193.176,207.291 195.408,204.199 197.64,201.305 199.872,198.727 202.104,196.549 204.336,194.825 206.568,193.567 208.8,192.747 211.032,192.301 213.264,192.138 215.496,192.14 217.728,192.181 219.96,192.134 222.192,191.882 224.424,191.33 226.656,190.41 228.888,189.088 231.12,187.366 233.352,185.281 235.584,182.905 237.816,180.331 240.048,177.671 242.28,175.046 244.512,172.571 246.744,170.349 248.976,168.461 251.208,166.959 253.44,165.863 255.672,165.158 257.904,164.795 260.136,164.7 262.368,164.774 264.6,164.908 266.832,164.985 269.064,164.9 271.296,164.561 273.528,163.899 275.76,162.877 277.992,161.488 280.224,159.759 282.456,157.75 284.688,155.544 286.92,153.243 289.152,150.958 291.384,148.802 293.616,146.875 295.848,145.259 298.08,144.014 300.312,143.163 302.544,142.701 304.776,142.587 307.008,142.752 309.24,143.104 311.472,143.535 313.704,143.931 315.936,144.183 318.168,144.192 320.4,143.886 322.632,143.216 324.864,142.17 327.096,140.77 329.328,139.066 331.56,137.144 333.792,135.103 336.024,133.062 338.256,131.138 340.488,129.443 342.72,128.07 344.952,127.087 347.184,126.531 349.416,126.402 351.648,126.664 353.88,127.249 356.112,128.06 358.344,128.98 360.576,129.884 362.808,130.645 365.04,131.149 367.272,131.304 369.504,131.049 371.736,130.358 373.968,129.246 376.2,127.764 378.432,126.001 380.664,124.073 382.896,122.114 385.128,120.267 387.36,118.668 389.592,117.438 391.824,116.67 394.056,116.421 396.288,116.703 398.52,117.486 400.752,118.695 402.984,120.219 405.216,121.914 407.448,123.621 409.68,125.175 411.912,126.419 414.144,127.221 416.376,127.483 418.608,127.154 420.84,126.231 423.072,124.769 425.304,122.87 427.536,120.681 429.768,118.385 432,116.181 434.232,114.274 436.464,112.852 438.696,112.073 440.928,112.05 443.16,112.836 445.392,114.42 447.624,116.721 449.856,119.594 452.088,122.836 454.32,126.201 456.552,129.416 458.784,132.203 461.016,134.303 463.248,135.497 465.48,135.624 467.712,134.604 469.944,132.448 472.176,129.262 474.408,125.251 476.64,120.71 478.872,116.01 481.104,111.577 483.336,107.87 485.568,105.35 487.8,104.451 490.032,105.553 492.264,108.949 494.496,114.831 496.728,123.264 498.96,134.187 501.192,147.403 503.424,162.591 505.656,179.318 507.888,197.064 510.12,215.247 512.352,233.256 514.584,250.483 516.816,266.358 519.048,280.381 521.28,292.146"/>
</g>
<clipPath id="cp00576432">
  <polygon points="0,432 576,432 576,0 0,0"/>
</clipPath>
<g clip-path="url(#cp00576432)">
<polygon fill="#ffffff" shape-rendering="crispEdges" points="235.328,381.735 360.833,381.735 360.833,301.155"/>
<polygon fill="#ffffff" shape-rendering="crispEdges" points="235.328,381.735 360.833,301.155 235.328,301.155"/>
<polyline fill="none" stroke="#262626" stroke-width="0.5" stroke-linecap="butt" stroke-linejoin="miter" stroke-dasharray="16,0" points="235.328,381.735 360.833,381.735"/>
<polyline fill="none" stroke="#262626" stroke-width="0.5" stroke-linecap="butt" stroke-linejoin="miter" stroke-dasharray="16,0" points="235.328,301.155 360.833,301.155"/>
<polyline fill="none" stroke="#262626" stroke-width="0.5" stroke-linecap="butt" stroke-linejoin="miter" stroke-dasharray="16,0" points="235.328,381.735 235.328,301.155"/>
<polyline fill="none" stroke="#262626" stroke-width="0.5" stroke-linecap="butt" stroke-linejoin="miter" stroke-dasharray="16,0" points="360.833,381.735 360.833,301.155"/>
<text fill="#000000" x="261.402" y="309.213" font-size="10" text-anchor="start" dy="5" font-family="Helvetica">f(t) = sin(t)</text>
<text fill="#000000" x="261.402" y="325.329" font-size="10" text-anchor="start" dy="5" font-family="Helvetica">DFT(f(t), N = 3)</text>
<text fill="#000000" x="261.402" y="341.445" font-size="10" text-anchor="start" dy="5" font-family="Helvetica">FFT(f(t), N = 3)-0.1</text>
<text fill="#000000" x="261.402" y="357.561" font-size="10" text-anchor="start" dy="5" font-family="Helvetica">FFT(f(t), N = 5)</text>
<text fill="#000000" x="261.402" y="373.677" font-size="10" text-anchor="start" dy="5" font-family="Helvetica">FFT(f(t), N = 10)</text>
<polyline fill="none" stroke="#ff0000" stroke-width="4" stroke-linecap="butt" stroke-linejoin="miter" points="238.072,309.213 258.657,309.213"/>
<polyline fill="none" stroke="#00ff00" stroke-width="2" stroke-linecap="butt" stroke-linejoin="miter" points="238.072,325.329 258.657,325.329"/>
<polyline fill="none" stroke="#0000ff" stroke-width="2" stroke-linecap="butt" stroke-linejoin="miter" points="238.072,341.445 258.657,341.445"/>
<polyline fill="none" stroke="#ff00ff" stroke-width="2" stroke-linecap="butt" stroke-linejoin="miter" points="238.072,357.561 258.657,357.561"/>
<polyline fill="none" stroke="#000000" stroke-width="2" stroke-linecap="butt" stroke-linejoin="miter" points="238.072,373.677 258.657,373.677"/>
</g>
</g>
</svg>
