<?xml version="1.0" encoding="UTF-8" standalone="no"?>
<svg xmlns="http://www.w3.org/2000/svg"
     xmlns:xlink="http://www.w3.org/1999/xlink"
     width="576px" height="432px" viewBox="0 0 576 432">
<title>gl2ps_renderer figure</title>
<desc>
Creator: GL2PS 1.4.0, (C) 1999-2017 C. Geuzaine
For: Octave
CreationDate: Tue Dec  3 20:30:49 2019
</desc>
<defs>
</defs>
<polygon fill="#ffffff" points="0,0 576,0 576,432 0,432"/>
<g>
<polygon fill="#ffffff" points="0,432 576,432 576,0 0,0" shape-rendering="crispEdges"/>
<clipPath id="cp00576432">
  <polygon points="0,432 576,432 576,0 0,0"/>
</clipPath>
<g clip-path="url(#cp00576432)">
<polygon fill="#ffffff" shape-rendering="crispEdges" points="74.8799,384.48 434.863,384.48 434.863,32.3999"/>
<polygon fill="#ffffff" shape-rendering="crispEdges" points="74.8799,384.48 434.863,32.3999 74.8799,32.3999"/>
<polygon fill="#ffff00" shape-rendering="crispEdges" points="218.873,139.887 290.87,208.44 218.873,82.1567"/>
<polygon fill="#ffff00" shape-rendering="crispEdges" points="218.873,82.1567 290.87,208.44 290.87,82.1567"/>
<polygon fill="#ffff00" shape-rendering="crispEdges" points="362.866,44.3638 362.866,208.44 434.863,208.44"/>
<polygon fill="#ffff00" shape-rendering="crispEdges" points="362.866,44.3638 434.863,208.44 362.866,32.4751"/>
<polygon fill="#ffff00" shape-rendering="crispEdges" points="362.866,32.4751 434.863,208.44 434.863,32.4751"/>
<polygon fill="#ffff00" shape-rendering="crispEdges" points="434.863,32.4751 434.863,208.44 434.863,48.3672"/>
<polygon fill="#ff00ff" shape-rendering="crispEdges" points="218.873,208.44 146.876,41.0161 146.876,208.44"/>
<polygon fill="#ff00ff" shape-rendering="crispEdges" points="146.876,41.0161 218.873,208.44 218.873,41.0161"/>
<polygon fill="#ff00ff" shape-rendering="crispEdges" points="218.873,41.0161 218.873,208.44 218.873,104.966"/>
<polygon fill="#ff00ff" shape-rendering="crispEdges" points="434.863,375.864 362.866,311.914 362.866,375.864"/>
<polygon fill="#ff00ff" shape-rendering="crispEdges" points="362.866,311.914 434.863,375.864 362.866,208.44"/>
<polygon fill="#ff00ff" shape-rendering="crispEdges" points="362.866,208.44 434.863,375.864 434.863,208.44"/>
<polygon fill="#ff00ff" shape-rendering="crispEdges" points="434.863,208.44 434.863,375.864 434.863,208.44"/>
<polygon fill="#ff00ff" shape-rendering="crispEdges" points="362.866,311.914 290.87,208.44 290.87,311.914"/>
<polygon fill="#ff00ff" shape-rendering="crispEdges" points="290.87,208.44 362.866,311.914 362.866,208.44"/>
<polygon fill="#ff00ff" shape-rendering="crispEdges" points="290.87,208.44 218.873,104.966 218.873,208.44"/>
<polygon fill="#ff00ff" shape-rendering="crispEdges" points="218.873,104.966 290.87,208.44 290.87,104.966"/>
<polygon fill="#ff0000" shape-rendering="crispEdges" points="218.873,104.966 146.876,208.44 146.876,104.966"/>
<polygon fill="#ff0000" shape-rendering="crispEdges" points="146.876,208.44 218.873,104.966 218.873,208.44"/>
<polygon fill="#ff0000" shape-rendering="crispEdges" points="362.866,41.0161 290.87,208.44 290.87,41.0161"/>
<polygon fill="#ff0000" shape-rendering="crispEdges" points="290.87,208.44 362.866,41.0161 362.866,208.44"/>
<polygon fill="#ff0000" shape-rendering="crispEdges" points="434.863,208.44 362.866,311.914 362.866,208.44"/>
<polygon fill="#ff0000" shape-rendering="crispEdges" points="362.866,311.914 434.863,208.44 434.863,311.914"/>
<polygon fill="#ff0000" shape-rendering="crispEdges" points="434.863,311.914 434.863,208.44 434.863,208.44"/>
<polygon fill="#ff0000" shape-rendering="crispEdges" points="290.87,208.44 218.873,375.864 218.873,208.44"/>
<polygon fill="#ff0000" shape-rendering="crispEdges" points="218.873,375.864 290.87,208.44 290.87,375.864"/>
<polyline fill="none" stroke="#262626" stroke-width="0.5" stroke-linecap="butt" stroke-linejoin="miter" stroke-opacity="0.15" stroke-dasharray="16,0" points="74.8799,384.48 74.8799,32.3999"/>
<polyline fill="none" stroke="#262626" stroke-width="0.5" stroke-linecap="butt" stroke-linejoin="miter" stroke-opacity="0.15" stroke-dasharray="16,0" points="164.876,384.48 164.876,32.3999"/>
<polyline fill="none" stroke="#262626" stroke-width="0.5" stroke-linecap="butt" stroke-linejoin="miter" stroke-opacity="0.15" stroke-dasharray="16,0" points="254.872,384.48 254.872,32.3999"/>
<polyline fill="none" stroke="#262626" stroke-width="0.5" stroke-linecap="butt" stroke-linejoin="miter" stroke-opacity="0.15" stroke-dasharray="16,0" points="344.867,384.48 344.867,32.3999"/>
<polyline fill="none" stroke="#262626" stroke-width="0.5" stroke-linecap="butt" stroke-linejoin="miter" stroke-opacity="0.15" stroke-dasharray="16,0" points="434.863,384.48 434.863,32.3999"/>
<polyline fill="none" stroke="#262626" stroke-width="0.5" stroke-linecap="butt" stroke-linejoin="miter" points="74.8799,384.48 74.8799,380.879"/>
<polyline fill="none" stroke="#262626" stroke-width="0.5" stroke-linecap="butt" stroke-linejoin="miter" points="164.876,384.48 164.876,380.879"/>
<polyline fill="none" stroke="#262626" stroke-width="0.5" stroke-linecap="butt" stroke-linejoin="miter" points="254.872,384.48 254.872,380.879"/>
<polyline fill="none" stroke="#262626" stroke-width="0.5" stroke-linecap="butt" stroke-linejoin="miter" points="344.867,384.48 344.867,380.879"/>
<polyline fill="none" stroke="#262626" stroke-width="0.5" stroke-linecap="butt" stroke-linejoin="miter" points="434.863,384.48 434.863,380.879"/>
<text fill="#262626" x="74.8799" y="389.481" font-size="10" text-anchor="middle" dy="10" font-family="Helvetica">0</text>
<text fill="#262626" x="164.876" y="389.481" font-size="10" text-anchor="middle" dy="10" font-family="Helvetica">0.5</text>
<text fill="#262626" x="254.872" y="389.481" font-size="10" text-anchor="middle" dy="10" font-family="Helvetica">1</text>
<text fill="#262626" x="344.867" y="389.481" font-size="10" text-anchor="middle" dy="10" font-family="Helvetica">1.5</text>
<text fill="#262626" x="434.863" y="389.481" font-size="10" text-anchor="middle" dy="10" font-family="Helvetica">2</text>
<polyline fill="none" stroke="#262626" stroke-width="0.5" stroke-linecap="butt" stroke-linejoin="miter" stroke-opacity="0.15" stroke-dasharray="16,0" points="74.8799,384.48 434.863,384.48"/>
<polyline fill="none" stroke="#262626" stroke-width="0.5" stroke-linecap="butt" stroke-linejoin="miter" stroke-opacity="0.15" stroke-dasharray="16,0" points="74.8799,296.46 434.863,296.46"/>
<polyline fill="none" stroke="#262626" stroke-width="0.5" stroke-linecap="butt" stroke-linejoin="miter" stroke-opacity="0.15" stroke-dasharray="16,0" points="74.8799,208.44 434.863,208.44"/>
<polyline fill="none" stroke="#262626" stroke-width="0.5" stroke-linecap="butt" stroke-linejoin="miter" stroke-opacity="0.15" stroke-dasharray="16,0" points="74.8799,120.42 434.863,120.42"/>
<polyline fill="none" stroke="#262626" stroke-width="0.5" stroke-linecap="butt" stroke-linejoin="miter" stroke-opacity="0.15" stroke-dasharray="16,0" points="74.8799,32.3999 434.863,32.3999"/>
<polyline fill="none" stroke="#262626" stroke-width="0.5" stroke-linecap="butt" stroke-linejoin="miter" points="74.8799,384.48 78.4795,384.48"/>
<polyline fill="none" stroke="#262626" stroke-width="0.5" stroke-linecap="butt" stroke-linejoin="miter" points="74.8799,296.46 78.4795,296.46"/>
<polyline fill="none" stroke="#262626" stroke-width="0.5" stroke-linecap="butt" stroke-linejoin="miter" points="74.8799,208.44 78.4795,208.44"/>
<polyline fill="none" stroke="#262626" stroke-width="0.5" stroke-linecap="butt" stroke-linejoin="miter" points="74.8799,120.42 78.4795,120.42"/>
<polyline fill="none" stroke="#262626" stroke-width="0.5" stroke-linecap="butt" stroke-linejoin="miter" points="74.8799,32.3999 78.4795,32.3999"/>
<text fill="#262626" x="69.8804" y="384.48" font-size="10" text-anchor="end" dy="5" font-family="Helvetica">-1</text>
<text fill="#262626" x="69.8804" y="296.46" font-size="10" text-anchor="end" dy="5" font-family="Helvetica">-0.5</text>
<text fill="#262626" x="69.8804" y="208.44" font-size="10" text-anchor="end" dy="5" font-family="Helvetica">0</text>
<text fill="#262626" x="69.8804" y="120.42" font-size="10" text-anchor="end" dy="5" font-family="Helvetica">0.5</text>
<text fill="#262626" x="69.8804" y="32.3999" font-size="10" text-anchor="end" dy="5" font-family="Helvetica">1</text>
<polyline fill="none" stroke="#262626" stroke-width="0.5" stroke-linecap="butt" stroke-linejoin="miter" stroke-dasharray="16,0" points="74.8799,384.48 434.863,384.48"/>
<polyline fill="none" stroke="#262626" stroke-width="0.5" stroke-linecap="butt" stroke-linejoin="miter" stroke-dasharray="16,0" points="74.8799,384.48 74.8799,32.3999"/>
<text fill="#262626" x="254.872" y="402.481" font-size="11" text-anchor="middle" dy="11" font-family="Helvetica">Czas [s]</text>
<text fill="#262626" x="46.8804" y="208.44" font-size="11" transform="rotate(-90, 46.8804, 208.44)" text-anchor="middle" dy="0" font-family="Helvetica">Wartości [V]</text>
<polyline fill="none" stroke="#000000" stroke-width="2" stroke-linecap="butt" stroke-linejoin="miter" stroke-dasharray="8,8,8,8" points="434.863,32.4751 362.866,32.4751 362.866,44.3638 290.87,44.3638 290.87,82.1567 218.873,82.1567 218.873,139.887 146.876,139.887 146.876,208.44 218.873,208.44 290.87,208.44 362.866,208.44 434.863,208.44 434.863,48.3672 434.863,32.4751"/>
<polyline fill="none" stroke="#ff0000" stroke-width="4" stroke-linecap="butt" stroke-linejoin="miter" points="74.8799,208.44 76.6797,206.68 78.48,204.919 80.2798,203.16 82.0796,201.4 83.8794,199.642 85.6797,197.884 87.4795,196.127 89.2793,194.372 91.0791,192.618 92.8789,190.865 94.6792,189.115 96.479,187.366 98.2788,185.619 100.079,183.875 101.879,182.133 103.679,180.394 105.479,178.657 107.278,176.924 109.079,175.193 110.878,173.466 112.678,171.743 114.478,170.023 116.278,168.307 118.078,166.595 119.878,164.887 121.678,163.184 123.478,161.484 125.278,159.791 127.078,158.101 128.877,156.417 130.677,154.737 132.478,153.063 134.277,151.396 136.077,149.733 137.877,148.076 139.677,146.426 141.477,144.781 143.277,143.143 145.077,141.512 146.876,139.887 148.677,138.269 150.477,136.658 152.276,135.054 154.076,133.458 155.876,131.869 157.676,130.288 159.476,128.714 161.276,127.148 163.076,125.591 164.876,124.042 166.676,122.501 168.476,120.969 170.275,119.446 172.075,117.932 173.875,116.426 175.675,114.93 177.475,113.443 179.275,111.966 181.075,110.498 182.875,109.041 184.675,107.592 186.475,106.155 188.274,104.727 190.075,103.31 191.875,101.903 193.674,100.507 195.474,99.1216 197.274,97.7471 199.074,96.3838 200.874,95.0317 202.674,93.6914 204.474,92.3618 206.274,91.0444 208.074,89.7383 209.874,88.4443 211.673,87.1621 213.474,85.8926 215.273,84.6348 217.073,83.3896 218.873,82.1567 220.673,80.9365 222.473,79.729 224.273,78.5347 226.073,77.353 227.873,76.1846 229.673,75.0293 231.473,73.8877 233.272,72.7593 235.072,71.6445 236.873,70.543 238.672,69.4556 240.472,68.3823 242.272,67.3228 244.072,66.2773 245.872,65.2466 247.672,64.2295 249.472,63.2271 251.271,62.2393 253.072,61.2661 254.872,60.3076 256.671,59.3638 258.471,58.4351 260.271,57.521 262.071,56.6226 263.871,55.7388 265.671,54.8706 267.471,54.0176 269.271,53.1802 271.071,52.3584 272.871,51.5518 274.67,50.7612 276.471,49.9863 278.271,49.2271 280.07,48.4844 281.87,47.7568 283.67,47.0459 285.47,46.3511 287.27,45.6724 289.07,45.0098 290.87,44.3638 292.67,43.7344 294.47,43.1211 296.27,42.5244 298.069,41.9443 299.869,41.3809 301.669,40.834 303.469,40.3042 305.269,39.791 307.069,39.2944 308.869,38.8154 310.669,38.353 312.469,37.9072 314.269,37.479 316.069,37.0679 317.869,36.6738 319.668,36.2969 321.468,35.937 323.268,35.5947 325.068,35.2695 326.868,34.9614 328.668,34.6709 330.468,34.3979 332.268,34.1421 334.068,33.9038 335.868,33.6826 337.667,33.4795 339.467,33.2935 341.268,33.125 343.067,32.9741 344.867,32.8408 346.667,32.7251 348.467,32.627 350.267,32.5464 352.067,32.4834 353.867,32.438 355.667,32.4102 357.467,32.3999 359.267,32.4072 361.066,32.4326 362.866,32.4751 364.667,32.5352 366.466,32.6133 368.266,32.7085 370.066,32.8213 371.866,32.9517 373.666,33.1001 375.466,33.2656 377.266,33.4487 379.065,33.6494 380.866,33.8672 382.666,34.103 384.465,34.356 386.265,34.6265 388.065,34.9141 389.865,35.2192 391.665,35.5415 393.465,35.8813 395.265,36.2383 397.065,36.6123 398.865,37.0039 400.665,37.4126 402.464,37.8379 404.265,38.2808 406.064,38.7402 407.864,39.2173 409.664,39.7109 411.464,40.2212 413.264,40.7485 415.064,41.2925 416.864,41.8535 418.664,42.4307 420.464,43.0249 422.264,43.6353 424.063,44.2627 425.863,44.9058 427.663,45.5659 429.463,46.2417 431.263,46.9341 433.063,47.6426 434.863,48.3672"/>
<polyline fill="none" stroke="#ff00ff" stroke-width="2" stroke-linecap="butt" stroke-linejoin="miter" points="74.8799,208.44 76.6797,202.911 78.48,197.386 80.2798,191.873 82.0796,186.376 83.8794,180.901 85.6797,175.454 87.4795,170.038 89.2793,164.661 91.0791,159.327 92.8789,154.041 94.6792,148.809 96.479,143.635 98.2788,138.526 100.079,133.486 101.879,128.52 103.679,123.632 105.479,118.828 107.278,114.113 109.079,109.491 110.878,104.966 112.678,100.544 114.478,96.228 116.278,92.0225 118.078,87.9321 119.878,83.9609 121.678,80.1123 123.478,76.3906 125.278,72.7988 127.078,69.3413 128.877,66.0205 130.677,62.8408 132.478,59.8047 134.277,56.915 136.077,54.1748 137.877,51.5874 139.677,49.1543 141.477,46.8784 143.277,44.7622 145.077,42.8071 146.876,41.0161 148.677,39.3901 150.477,37.9307 152.276,36.6396 154.076,35.5181 155.876,34.5674 157.676,33.7881 159.476,33.1812 161.276,32.7476 163.076,32.4868 164.876,32.3999 166.676,32.4868 168.476,32.7476 170.275,33.1812 172.075,33.7881 173.875,34.5674 175.675,35.5181 177.475,36.6396 179.275,37.9307 181.075,39.3901 182.875,41.0161 184.675,42.8071 186.475,44.7622 188.274,46.8784 190.075,49.1543 191.875,51.5874 193.674,54.1748 195.474,56.915 197.274,59.8047 199.074,62.8408 200.874,66.0205 202.674,69.3413 204.474,72.7988 206.274,76.3906 208.074,80.1123 209.874,83.9609 211.673,87.9321 213.474,92.0225 215.273,96.228 217.073,100.544 218.873,104.966 220.673,109.491 222.473,114.113 224.273,118.828 226.073,123.632 227.873,128.52 229.673,133.486 231.473,138.526 233.272,143.635 235.072,148.809 236.873,154.041 238.672,159.327 240.472,164.661 242.272,170.038 244.072,175.454 245.872,180.901 247.672,186.376 249.472,191.873 251.271,197.386 253.072,202.911 254.872,208.44 256.671,213.97 258.471,219.494 260.271,225.007 262.071,230.504 263.871,235.979 265.671,241.427 267.471,246.842 269.271,252.219 271.071,257.554 272.871,262.839 274.67,268.071 276.471,273.245 278.271,278.354 280.07,283.394 281.87,288.36 283.67,293.248 285.47,298.052 287.27,302.767 289.07,307.389 290.87,311.914 292.67,316.336 294.47,320.652 296.27,324.857 298.069,328.948 299.869,332.919 301.669,336.768 303.469,340.49 305.269,344.081 307.069,347.539 308.869,350.859 310.669,354.039 312.469,357.076 314.269,359.965 316.069,362.705 317.869,365.293 319.668,367.726 321.468,370.001 323.268,372.118 325.068,374.073 326.868,375.864 328.668,377.49 330.468,378.949 332.268,380.24 334.068,381.362 335.868,382.312 337.667,383.092 339.467,383.699 341.268,384.133 343.067,384.393 344.867,384.48 346.667,384.393 348.467,384.133 350.267,383.699 352.067,383.092 353.867,382.312 355.667,381.362 357.467,380.24 359.267,378.949 361.066,377.49 362.866,375.864 364.667,374.073 366.466,372.118 368.266,370.001 370.066,367.726 371.866,365.293 373.666,362.705 375.466,359.965 377.266,357.076 379.065,354.039 380.866,350.859 382.666,347.539 384.465,344.081 386.265,340.49 388.065,336.768 389.865,332.919 391.665,328.948 393.465,324.857 395.265,320.652 397.065,316.336 398.865,311.914 400.665,307.389 402.464,302.767 404.265,298.052 406.064,293.248 407.864,288.36 409.664,283.394 411.464,278.354 413.264,273.245 415.064,268.071 416.864,262.839 418.664,257.554 420.464,252.219 422.264,246.842 424.063,241.427 425.863,235.979 427.663,230.504 429.463,225.007 431.263,219.494 433.063,213.97 434.863,208.44"/>
<polyline fill="none" stroke="#ff0000" stroke-width="2" stroke-linecap="butt" stroke-linejoin="miter" points="74.8799,208.44 76.6797,197.386 78.48,186.376 80.2798,175.454 82.0796,164.661 83.8794,154.041 85.6797,143.635 87.4795,133.486 89.2793,123.632 91.0791,114.113 92.8789,104.966 94.6792,96.228 96.479,87.9321 98.2788,80.1123 100.079,72.7988 101.879,66.0205 103.679,59.8047 105.479,54.1748 107.278,49.1543 109.079,44.7622 110.878,41.0161 112.678,37.9307 114.478,35.5181 116.278,33.7881 118.078,32.7476 119.878,32.3999 121.678,32.7476 123.478,33.7881 125.278,35.5181 127.078,37.9307 128.877,41.0161 130.677,44.7622 132.478,49.1543 134.277,54.1748 136.077,59.8047 137.877,66.0205 139.677,72.7988 141.477,80.1123 143.277,87.9321 145.077,96.228 146.876,104.966 148.677,114.113 150.477,123.632 152.276,133.486 154.076,143.635 155.876,154.041 157.676,164.661 159.476,175.454 161.276,186.376 163.076,197.386 164.876,208.44 166.676,219.494 168.476,230.504 170.275,241.427 172.075,252.219 173.875,262.839 175.675,273.245 177.475,283.394 179.275,293.248 181.075,302.767 182.875,311.914 184.675,320.652 186.475,328.948 188.274,336.768 190.075,344.081 191.875,350.859 193.674,357.076 195.474,362.705 197.274,367.726 199.074,372.118 200.874,375.864 202.674,378.949 204.474,381.362 206.274,383.092 208.074,384.133 209.874,384.48 211.673,384.133 213.474,383.092 215.273,381.362 217.073,378.949 218.873,375.864 220.673,372.118 222.473,367.726 224.273,362.705 226.073,357.076 227.873,350.859 229.673,344.081 231.473,336.768 233.272,328.948 235.072,320.652 236.873,311.914 238.672,302.767 240.472,293.248 242.272,283.394 244.072,273.245 245.872,262.839 247.672,252.219 249.472,241.427 251.271,230.504 253.072,219.494 254.872,208.44 256.671,197.386 258.471,186.376 260.271,175.454 262.071,164.661 263.871,154.041 265.671,143.635 267.471,133.486 269.271,123.632 271.071,114.113 272.871,104.966 274.67,96.228 276.471,87.9321 278.271,80.1123 280.07,72.7988 281.87,66.0205 283.67,59.8047 285.47,54.1748 287.27,49.1543 289.07,44.7622 290.87,41.0161 292.67,37.9307 294.47,35.5181 296.27,33.7881 298.069,32.7476 299.869,32.3999 301.669,32.7476 303.469,33.7881 305.269,35.5181 307.069,37.9307 308.869,41.0161 310.669,44.7622 312.469,49.1543 314.269,54.1748 316.069,59.8047 317.869,66.0205 319.668,72.7988 321.468,80.1123 323.268,87.9321 325.068,96.228 326.868,104.966 328.668,114.113 330.468,123.632 332.268,133.486 334.068,143.635 335.868,154.041 337.667,164.661 339.467,175.454 341.268,186.376 343.067,197.386 344.867,208.44 346.667,219.494 348.467,230.504 350.267,241.427 352.067,252.219 353.867,262.839 355.667,273.245 357.467,283.394 359.267,293.248 361.066,302.767 362.866,311.914 364.667,320.652 366.466,328.948 368.266,336.768 370.066,344.081 371.866,350.859 373.666,357.076 375.466,362.705 377.266,367.726 379.065,372.118 380.866,375.864 382.666,378.949 384.465,381.362 386.265,383.092 388.065,384.133 389.865,384.48 391.665,384.133 393.465,383.092 395.265,381.362 397.065,378.949 398.865,375.864 400.665,372.118 402.464,367.726 404.265,362.705 406.064,357.076 407.864,350.859 409.664,344.081 411.464,336.768 413.264,328.948 415.064,320.652 416.864,311.914 418.664,302.767 420.464,293.248 422.264,283.394 424.063,273.245 425.863,262.839 427.663,252.219 429.463,241.427 431.263,230.504 433.063,219.494 434.863,208.44"/>
<polyline fill="none" stroke="#00ff00" stroke-width="2" stroke-linecap="butt" stroke-linejoin="miter" points="74.8799,208.44 76.6797,225.007 78.48,241.427 80.2798,257.554 82.0796,273.245 83.8794,288.36 85.6797,302.767 87.4795,316.336 89.2793,328.948 91.0791,340.49 92.8789,350.859 94.6792,359.965 96.479,367.726 98.2788,374.073 100.079,378.949 101.879,382.312 103.679,384.133 105.479,384.393 107.278,383.092 109.079,380.24 110.878,375.864 112.678,370.001 114.478,362.705 116.278,354.039 118.078,344.081 119.878,332.919 121.678,320.652 123.478,307.389 125.278,293.248 127.078,278.354 128.877,262.839 130.677,246.842 132.478,230.504 134.277,213.97 136.077,197.386 137.877,180.901 139.677,164.661 141.477,148.809 143.277,133.486 145.077,118.828 146.876,104.966 148.677,92.0225 150.477,80.1123 152.276,69.3413 154.076,59.8047 155.876,51.5874 157.676,44.7622 159.476,39.3901 161.276,35.5181 163.076,33.1812 164.876,32.3999 166.676,33.1812 168.476,35.5181 170.275,39.3901 172.075,44.7622 173.875,51.5874 175.675,59.8047 177.475,69.3413 179.275,80.1123 181.075,92.0225 182.875,104.966 184.675,118.828 186.475,133.486 188.274,148.809 190.075,164.661 191.875,180.901 193.674,197.386 195.474,213.97 197.274,230.504 199.074,246.842 200.874,262.839 202.674,278.354 204.474,293.248 206.274,307.389 208.074,320.652 209.874,332.919 211.673,344.081 213.474,354.039 215.273,362.705 217.073,370.001 218.873,375.864 220.673,380.24 222.473,383.092 224.273,384.393 226.073,384.133 227.873,382.312 229.673,378.949 231.473,374.073 233.272,367.726 235.072,359.965 236.873,350.859 238.672,340.49 240.472,328.948 242.272,316.336 244.072,302.767 245.872,288.36 247.672,273.245 249.472,257.554 251.271,241.427 253.072,225.007 254.872,208.44 256.671,191.873 258.471,175.454 260.271,159.327 262.071,143.635 263.871,128.52 265.671,114.113 267.471,100.544 269.271,87.9321 271.071,76.3906 272.871,66.0205 274.67,56.915 276.471,49.1543 278.271,42.8071 280.07,37.9307 281.87,34.5674 283.67,32.7476 285.47,32.4868 287.27,33.7881 289.07,36.6396 290.87,41.0161 292.67,46.8784 294.47,54.1748 296.27,62.8408 298.069,72.7988 299.869,83.9609 301.669,96.228 303.469,109.491 305.269,123.632 307.069,138.526 308.869,154.041 310.669,170.038 312.469,186.376 314.269,202.911 316.069,219.494 317.869,235.979 319.668,252.219 321.468,268.071 323.268,283.394 325.068,298.052 326.868,311.914 328.668,324.857 330.468,336.768 332.268,347.539 334.068,357.076 335.868,365.293 337.667,372.118 339.467,377.49 341.268,381.362 343.067,383.699 344.867,384.48 346.667,383.699 348.467,381.362 350.267,377.49 352.067,372.118 353.867,365.293 355.667,357.076 357.467,347.539 359.267,336.768 361.066,324.857 362.866,311.914 364.667,298.052 366.466,283.394 368.266,268.071 370.066,252.219 371.866,235.979 373.666,219.494 375.466,202.911 377.266,186.376 379.065,170.038 380.866,154.041 382.666,138.526 384.465,123.632 386.265,109.491 388.065,96.228 389.865,83.9609 391.665,72.7988 393.465,62.8408 395.265,54.1748 397.065,46.8784 398.865,41.0161 400.665,36.6396 402.464,33.7881 404.265,32.4868 406.064,32.7476 407.864,34.5674 409.664,37.9307 411.464,42.8071 413.264,49.1543 415.064,56.915 416.864,66.0205 418.664,76.3906 420.464,87.9321 422.264,100.544 424.063,114.113 425.863,128.52 427.663,143.635 429.463,159.327 431.263,175.454 433.063,191.873 434.863,208.44"/>
<polyline fill="none" stroke="#0000ff" stroke-width="2" stroke-linecap="butt" stroke-linejoin="miter" points="74.8799,208.44 76.6797,230.504 78.48,252.219 80.2798,273.245 82.0796,293.248 83.8794,311.914 85.6797,328.948 87.4795,344.081 89.2793,357.076 91.0791,367.726 92.8789,375.864 94.6792,381.362 96.479,384.133 98.2788,384.133 100.079,381.362 101.879,375.864 103.679,367.726 105.479,357.076 107.278,344.081 109.079,328.948 110.878,311.914 112.678,293.248 114.478,273.245 116.278,252.219 118.078,230.504 119.878,208.44 121.678,186.376 123.478,164.661 125.278,143.635 127.078,123.632 128.877,104.966 130.677,87.9321 132.478,72.7988 134.277,59.8047 136.077,49.1543 137.877,41.0161 139.677,35.5181 141.477,32.7476 143.277,32.7476 145.077,35.5181 146.876,41.0161 148.677,49.1543 150.477,59.8047 152.276,72.7988 154.076,87.9321 155.876,104.966 157.676,123.632 159.476,143.635 161.276,164.661 163.076,186.376 164.876,208.44 166.676,230.504 168.476,252.219 170.275,273.245 172.075,293.248 173.875,311.914 175.675,328.948 177.475,344.081 179.275,357.076 181.075,367.726 182.875,375.864 184.675,381.362 186.475,384.133 188.274,384.133 190.075,381.362 191.875,375.864 193.674,367.726 195.474,357.076 197.274,344.081 199.074,328.948 200.874,311.914 202.674,293.248 204.474,273.245 206.274,252.219 208.074,230.504 209.874,208.44 211.673,186.376 213.474,164.661 215.273,143.635 217.073,123.632 218.873,104.966 220.673,87.9321 222.473,72.7988 224.273,59.8047 226.073,49.1543 227.873,41.0161 229.673,35.5181 231.473,32.7476 233.272,32.7476 235.072,35.5181 236.873,41.0161 238.672,49.1543 240.472,59.8047 242.272,72.7988 244.072,87.9321 245.872,104.966 247.672,123.632 249.472,143.635 251.271,164.661 253.072,186.376 254.872,208.44 256.671,230.504 258.471,252.219 260.271,273.245 262.071,293.248 263.871,311.914 265.671,328.948 267.471,344.081 269.271,357.076 271.071,367.726 272.871,375.864 274.67,381.362 276.471,384.133 278.271,384.133 280.07,381.362 281.87,375.864 283.67,367.726 285.47,357.076 287.27,344.081 289.07,328.948 290.87,311.914 292.67,293.248 294.47,273.245 296.27,252.219 298.069,230.504 299.869,208.44 301.669,186.376 303.469,164.661 305.269,143.635 307.069,123.632 308.869,104.966 310.669,87.9321 312.469,72.7988 314.269,59.8047 316.069,49.1543 317.869,41.0161 319.668,35.5181 321.468,32.7476 323.268,32.7476 325.068,35.5181 326.868,41.0161 328.668,49.1543 330.468,59.8047 332.268,72.7988 334.068,87.9321 335.868,104.966 337.667,123.632 339.467,143.635 341.268,164.661 343.067,186.376 344.867,208.44 346.667,230.504 348.467,252.219 350.267,273.245 352.067,293.248 353.867,311.914 355.667,328.948 357.467,344.081 359.267,357.076 361.066,367.726 362.866,375.864 364.667,381.362 366.466,384.133 368.266,384.133 370.066,381.362 371.866,375.864 373.666,367.726 375.466,357.076 377.266,344.081 379.065,328.948 380.866,311.914 382.666,293.248 384.465,273.245 386.265,252.219 388.065,230.504 389.865,208.44 391.665,186.376 393.465,164.661 395.265,143.635 397.065,123.632 398.865,104.966 400.665,87.9321 402.464,72.7988 404.265,59.8047 406.064,49.1543 407.864,41.0161 409.664,35.5181 411.464,32.7476 413.264,32.7476 415.064,35.5181 416.864,41.0161 418.664,49.1543 420.464,59.8047 422.264,72.7988 424.063,87.9321 425.863,104.966 427.663,123.632 429.463,143.635 431.263,164.661 433.063,186.376 434.863,208.44"/>
<polyline fill="none" stroke="#000000" stroke-width="2" stroke-linecap="butt" stroke-linejoin="miter" points="218.873,104.966 218.873,41.0161 146.876,41.0161 146.876,208.44 218.873,208.44 290.87,208.44 290.87,104.966 218.873,104.966"/>
<polyline fill="none" stroke="#000000" stroke-width="2" stroke-linecap="butt" stroke-linejoin="miter" points="362.866,208.44 290.87,208.44 290.87,311.914 362.866,311.914 362.866,375.864 434.863,375.864 434.863,208.44 434.863,208.44 362.866,208.44"/>
<polyline fill="none" stroke="#000000" stroke-width="2" stroke-linecap="butt" stroke-linejoin="miter" points="290.87,375.864 218.873,375.864 218.873,208.44 290.87,208.44 290.87,375.864"/>
<polyline fill="none" stroke="#000000" stroke-width="2" stroke-linecap="butt" stroke-linejoin="miter" points="434.863,311.914 362.866,311.914 362.866,208.44 434.863,208.44 434.863,208.44 434.863,311.914"/>
<polyline fill="none" stroke="#000000" stroke-width="2" stroke-linecap="butt" stroke-linejoin="miter" points="362.866,208.44 290.87,208.44 290.87,41.0161 362.866,41.0161 362.866,208.44"/>
<polyline fill="none" stroke="#000000" stroke-width="2" stroke-linecap="butt" stroke-linejoin="miter" points="218.873,208.44 146.876,208.44 146.876,104.966 218.873,104.966 218.873,208.44"/>
<polyline fill="none" stroke="#00ff00" stroke-width="2" stroke-linecap="butt" stroke-linejoin="miter" points="74.8799,208.44 146.876,208.44 146.876,104.966 218.873,104.966 218.873,375.864 290.87,375.864 290.87,41.0161 362.866,41.0161 362.866,311.914 434.863,311.914 434.863,208.44"/>
<polyline fill="none" stroke="#0000ff" stroke-width="2" stroke-linecap="butt" stroke-linejoin="miter" points="74.8799,208.44 146.876,208.44 146.876,41.0161 218.873,41.0161 218.873,104.966 290.87,104.966 290.87,311.914 362.866,311.914 362.866,375.864 434.863,375.864 434.863,208.44"/>
</g>
<clipPath id="cp00576432">
  <polygon points="0,432 576,432 576,0 0,0"/>
</clipPath>
<g clip-path="url(#cp00576432)">
<polygon fill="#ffffff" shape-rendering="crispEdges" points="438.706,275.406 574.079,275.406 574.079,141.474"/>
<polygon fill="#ffffff" shape-rendering="crispEdges" points="438.706,275.406 574.079,141.474 438.706,141.474"/>
<polyline fill="none" stroke="#262626" stroke-width="0.5" stroke-linecap="butt" stroke-linejoin="miter" stroke-dasharray="16,0" points="438.706,275.406 574.079,275.406"/>
<polyline fill="none" stroke="#262626" stroke-width="0.5" stroke-linecap="butt" stroke-linejoin="miter" stroke-dasharray="16,0" points="438.706,141.474 574.079,141.474"/>
<polyline fill="none" stroke="#262626" stroke-width="0.5" stroke-linecap="butt" stroke-linejoin="miter" stroke-dasharray="16,0" points="438.706,275.406 438.706,141.474"/>
<polyline fill="none" stroke="#262626" stroke-width="0.5" stroke-linecap="butt" stroke-linejoin="miter" stroke-dasharray="16,0" points="574.079,275.406 574.079,141.474"/>
<polygon fill="#ffff00" shape-rendering="crispEdges" points="455.036,159.332 440.627,145.938 440.627,159.332"/>
<polygon fill="#ffff00" shape-rendering="crispEdges" points="440.627,145.938 455.036,159.332 455.036,145.938"/>
<text fill="#000000" x="456.958" y="154.635" font-size="10" text-anchor="start" dy="0" font-family="Helvetica">f</text>
<text fill="#000000" x="460.958" y="160.635" font-size="8" text-anchor="start" dy="0" font-family="Helvetica">3</text>
<text fill="#000000" x="465.958" y="154.635" font-size="10" text-anchor="start" dy="0" font-family="Helvetica">(t) w punktach dt = 2/5</text>
<text fill="#000000" x="456.958" y="176.957" font-size="10" text-anchor="start" dy="0" font-family="Helvetica">f</text>
<text fill="#000000" x="460.958" y="182.957" font-size="8" text-anchor="start" dy="0" font-family="Helvetica">3</text>
<text fill="#000000" x="465.958" y="176.957" font-size="10" text-anchor="start" dy="0" font-family="Helvetica">(t) = sin(t), T = [0, 2]</text>
<text fill="#000000" x="456.958" y="199.279" font-size="10" text-anchor="start" dy="0" font-family="Helvetica">e</text>
<text fill="#000000" x="462.958" y="205.279" font-size="8" text-anchor="start" dy="0" font-family="Helvetica">1</text>
<text fill="#000000" x="467.958" y="199.279" font-size="10" text-anchor="start" dy="0" font-family="Helvetica">(t) = sin(t*pi),    T = [0, 2]</text>
<text fill="#000000" x="456.958" y="221.601" font-size="10" text-anchor="start" dy="0" font-family="Helvetica">e</text>
<text fill="#000000" x="462.958" y="227.601" font-size="8" text-anchor="start" dy="0" font-family="Helvetica">2</text>
<text fill="#000000" x="467.958" y="221.601" font-size="10" text-anchor="start" dy="0" font-family="Helvetica">(t) = sin(t*pi*2),  T = [0, 1]</text>
<text fill="#000000" x="456.958" y="243.923" font-size="10" text-anchor="start" dy="0" font-family="Helvetica">-e</text>
<text fill="#000000" x="466.958" y="249.923" font-size="8" text-anchor="start" dy="0" font-family="Helvetica">3</text>
<text fill="#000000" x="471.958" y="243.923" font-size="10" text-anchor="start" dy="0" font-family="Helvetica">(t) = -sin(t*pi*3),  T = [0, 2/3]</text>
<text fill="#000000" x="456.958" y="266.245" font-size="10" text-anchor="start" dy="0" font-family="Helvetica">-e</text>
<text fill="#000000" x="466.958" y="272.245" font-size="8" text-anchor="start" dy="0" font-family="Helvetica">4</text>
<text fill="#000000" x="471.958" y="266.245" font-size="10" text-anchor="start" dy="0" font-family="Helvetica">(t) = -sin(t*pi*4),  T = [0, 1/2]</text>
<polyline fill="none" stroke="#000000" stroke-width="0.5" stroke-linecap="butt" stroke-linejoin="miter" points="455.036,145.938 440.627,145.938 440.627,159.332 455.036,159.332 455.036,145.938"/>
<polyline fill="none" stroke="#ff0000" stroke-width="4" stroke-linecap="butt" stroke-linejoin="miter" points="440.627,174.957 455.036,174.957"/>
<polyline fill="none" stroke="#ff00ff" stroke-width="2" stroke-linecap="butt" stroke-linejoin="miter" points="440.627,197.279 455.036,197.279"/>
<polyline fill="none" stroke="#ff0000" stroke-width="2" stroke-linecap="butt" stroke-linejoin="miter" points="440.627,219.601 455.036,219.601"/>
<polyline fill="none" stroke="#00ff00" stroke-width="2" stroke-linecap="butt" stroke-linejoin="miter" points="440.627,241.923 455.036,241.923"/>
<polyline fill="none" stroke="#0000ff" stroke-width="2" stroke-linecap="butt" stroke-linejoin="miter" points="440.627,264.245 455.036,264.245"/>
</g>
</g>
</svg>
