<?xml version="1.0" encoding="UTF-8" standalone="no"?>
<svg xmlns="http://www.w3.org/2000/svg"
     xmlns:xlink="http://www.w3.org/1999/xlink"
     width="576px" height="432px" viewBox="0 0 576 432">
<title>gl2ps_renderer figure</title>
<desc>
Creator: GL2PS 1.4.0, (C) 1999-2017 C. Geuzaine
For: Octave
CreationDate: Tue Dec  3 00:07:33 2019
</desc>
<defs>
</defs>
<polygon fill="#ffffff" points="0,0 576,0 576,432 0,432"/>
<g>
<polygon fill="#ffffff" points="0,432 576,432 576,0 0,0" shape-rendering="crispEdges"/>
<clipPath id="cp00576432">
  <polygon points="0,432 576,432 576,0 0,0"/>
</clipPath>
<g clip-path="url(#cp00576432)">
<polygon fill="#ffffff" shape-rendering="crispEdges" points="74.8799,320.211 521.28,320.211 521.28,53.1675"/>
<polygon fill="#ffffff" shape-rendering="crispEdges" points="74.8799,320.211 521.28,53.1675 74.8799,53.1675"/>
<polyline fill="none" stroke="#262626" stroke-width="0.5" stroke-linecap="butt" stroke-linejoin="miter" stroke-opacity="0.15" stroke-dasharray="16,0" points="74.8799,320.211 74.8799,53.1675"/>
<polyline fill="none" stroke="#262626" stroke-width="0.5" stroke-linecap="butt" stroke-linejoin="miter" stroke-opacity="0.15" stroke-dasharray="16,0" points="186.48,320.211 186.48,53.1675"/>
<polyline fill="none" stroke="#262626" stroke-width="0.5" stroke-linecap="butt" stroke-linejoin="miter" stroke-opacity="0.15" stroke-dasharray="16,0" points="298.08,320.211 298.08,53.1675"/>
<polyline fill="none" stroke="#262626" stroke-width="0.5" stroke-linecap="butt" stroke-linejoin="miter" stroke-opacity="0.15" stroke-dasharray="16,0" points="409.68,320.211 409.68,53.1675"/>
<polyline fill="none" stroke="#262626" stroke-width="0.5" stroke-linecap="butt" stroke-linejoin="miter" stroke-opacity="0.15" stroke-dasharray="16,0" points="521.28,320.211 521.28,53.1675"/>
<polyline fill="none" stroke="#262626" stroke-width="0.5" stroke-linecap="butt" stroke-linejoin="miter" points="74.8799,320.211 74.8799,315.747"/>
<polyline fill="none" stroke="#262626" stroke-width="0.5" stroke-linecap="butt" stroke-linejoin="miter" points="186.48,320.211 186.48,315.747"/>
<polyline fill="none" stroke="#262626" stroke-width="0.5" stroke-linecap="butt" stroke-linejoin="miter" points="298.08,320.211 298.08,315.747"/>
<polyline fill="none" stroke="#262626" stroke-width="0.5" stroke-linecap="butt" stroke-linejoin="miter" points="409.68,320.211 409.68,315.747"/>
<polyline fill="none" stroke="#262626" stroke-width="0.5" stroke-linecap="butt" stroke-linejoin="miter" points="521.28,320.211 521.28,315.747"/>
<text fill="#262626" x="74.8799" y="325.212" font-size="10" text-anchor="middle" dy="10" font-family="Helvetica">0</text>
<text fill="#262626" x="186.48" y="325.212" font-size="10" text-anchor="middle" dy="10" font-family="Helvetica">0.5</text>
<text fill="#262626" x="298.08" y="325.212" font-size="10" text-anchor="middle" dy="10" font-family="Helvetica">1</text>
<text fill="#262626" x="409.68" y="325.212" font-size="10" text-anchor="middle" dy="10" font-family="Helvetica">1.5</text>
<text fill="#262626" x="521.28" y="325.212" font-size="10" text-anchor="middle" dy="10" font-family="Helvetica">2</text>
<polyline fill="none" stroke="#262626" stroke-width="0.5" stroke-linecap="butt" stroke-linejoin="miter" stroke-opacity="0.15" stroke-dasharray="16,0" points="74.8799,320.211 521.28,320.211"/>
<polyline fill="none" stroke="#262626" stroke-width="0.5" stroke-linecap="butt" stroke-linejoin="miter" stroke-opacity="0.15" stroke-dasharray="16,0" points="74.8799,275.704 521.28,275.704"/>
<polyline fill="none" stroke="#262626" stroke-width="0.5" stroke-linecap="butt" stroke-linejoin="miter" stroke-opacity="0.15" stroke-dasharray="16,0" points="74.8799,231.197 521.28,231.197"/>
<polyline fill="none" stroke="#262626" stroke-width="0.5" stroke-linecap="butt" stroke-linejoin="miter" stroke-opacity="0.15" stroke-dasharray="16,0" points="74.8799,186.689 521.28,186.689"/>
<polyline fill="none" stroke="#262626" stroke-width="0.5" stroke-linecap="butt" stroke-linejoin="miter" stroke-opacity="0.15" stroke-dasharray="16,0" points="74.8799,142.182 521.28,142.182"/>
<polyline fill="none" stroke="#262626" stroke-width="0.5" stroke-linecap="butt" stroke-linejoin="miter" stroke-opacity="0.15" stroke-dasharray="16,0" points="74.8799,97.6748 521.28,97.6748"/>
<polyline fill="none" stroke="#262626" stroke-width="0.5" stroke-linecap="butt" stroke-linejoin="miter" stroke-opacity="0.15" stroke-dasharray="16,0" points="74.8799,53.1675 521.28,53.1675"/>
<polyline fill="none" stroke="#262626" stroke-width="0.5" stroke-linecap="butt" stroke-linejoin="miter" points="74.8799,320.211 79.3481,320.211"/>
<polyline fill="none" stroke="#262626" stroke-width="0.5" stroke-linecap="butt" stroke-linejoin="miter" points="74.8799,275.704 79.3481,275.704"/>
<polyline fill="none" stroke="#262626" stroke-width="0.5" stroke-linecap="butt" stroke-linejoin="miter" points="74.8799,231.197 79.3481,231.197"/>
<polyline fill="none" stroke="#262626" stroke-width="0.5" stroke-linecap="butt" stroke-linejoin="miter" points="74.8799,186.689 79.3481,186.689"/>
<polyline fill="none" stroke="#262626" stroke-width="0.5" stroke-linecap="butt" stroke-linejoin="miter" points="74.8799,142.182 79.3481,142.182"/>
<polyline fill="none" stroke="#262626" stroke-width="0.5" stroke-linecap="butt" stroke-linejoin="miter" points="74.8799,97.6748 79.3481,97.6748"/>
<polyline fill="none" stroke="#262626" stroke-width="0.5" stroke-linecap="butt" stroke-linejoin="miter" points="74.8799,53.1675 79.3481,53.1675"/>
<text fill="#262626" x="69.8755" y="320.211" font-size="10" text-anchor="end" dy="5" font-family="Helvetica">-1</text>
<text fill="#262626" x="69.8755" y="275.704" font-size="10" text-anchor="end" dy="5" font-family="Helvetica">-0.5</text>
<text fill="#262626" x="69.8755" y="231.197" font-size="10" text-anchor="end" dy="5" font-family="Helvetica">0</text>
<text fill="#262626" x="69.8755" y="186.689" font-size="10" text-anchor="end" dy="5" font-family="Helvetica">0.5</text>
<text fill="#262626" x="69.8755" y="142.182" font-size="10" text-anchor="end" dy="5" font-family="Helvetica">1</text>
<text fill="#262626" x="69.8755" y="97.6748" font-size="10" text-anchor="end" dy="5" font-family="Helvetica">1.5</text>
<text fill="#262626" x="69.8755" y="53.1675" font-size="10" text-anchor="end" dy="5" font-family="Helvetica">2</text>
<polyline fill="none" stroke="#262626" stroke-width="0.5" stroke-linecap="butt" stroke-linejoin="miter" stroke-dasharray="16,0" points="74.8799,320.211 521.28,320.211"/>
<polyline fill="none" stroke="#262626" stroke-width="0.5" stroke-linecap="butt" stroke-linejoin="miter" stroke-dasharray="16,0" points="74.8799,320.211 74.8799,53.1675"/>
<polyline fill="none" stroke="#ff0000" stroke-width="2" stroke-linecap="butt" stroke-linejoin="miter" points="74.8799,53.1675 77.1118,53.1675 79.3438,53.1675 81.5762,53.1675 83.8081,53.1675 86.04,53.1675 88.272,53.1675 90.5039,53.1675 92.7358,53.1675 94.9678,53.1675 97.2002,53.1675 99.4321,53.1675 101.664,53.1675 103.896,53.1675 106.128,53.1675 108.36,53.1675 110.592,53.1675 112.824,53.1675 115.056,53.1675 117.288,53.1675 119.52,53.1675 121.752,53.1675 123.984,53.1675 126.216,53.1675 128.448,53.1675 130.68,53.1675 132.912,53.1675 135.144,53.1675 137.376,53.1675 139.608,53.1675 141.84,53.1675 144.072,53.1675 146.304,53.1675 148.536,53.1675 150.768,53.1675 153,53.1675 155.232,53.1675 157.464,53.1675 159.696,53.1675 161.928,53.1675 164.16,53.1675 166.392,53.1675 168.624,53.1675 170.856,53.1675 173.088,53.1675 175.32,53.1675 177.552,53.1675 179.784,53.1675 182.016,53.1675 184.248,53.1675 186.48,53.1675 188.712,53.1675 190.944,53.1675 193.176,53.1675 195.408,53.1675 197.64,53.1675 199.872,53.1675 202.104,53.1675 204.336,53.1675 206.568,53.1675 208.8,53.1675 211.032,53.1675 213.264,53.1675 215.496,53.1675 217.728,53.1675 219.96,53.1675 222.192,53.1675 224.424,53.1675 226.656,53.1675 228.888,53.1675 231.12,53.1675 233.352,53.1675 235.584,53.1675 237.816,53.1675 240.048,53.1675 242.28,53.1675 244.512,53.1675 246.744,53.1675 248.976,53.1675 251.208,53.1675 253.44,53.1675 255.672,53.1675 257.904,53.1675 260.136,53.1675 262.368,53.1675 264.6,53.1675 266.832,53.1675 269.064,53.1675 271.296,53.1675 273.528,53.1675 275.76,53.1675 277.992,53.1675 280.224,53.1675 282.456,53.1675 284.688,53.1675 286.92,53.1675 289.152,53.1675 291.384,53.1675 293.616,53.1675 295.848,53.1675 298.08,53.1675 300.312,53.1675 302.544,53.1675 304.776,53.1675 307.008,53.1675 309.24,53.1675 311.472,53.1675 313.704,53.1675 315.936,53.1675 318.168,53.1675 320.4,53.1675 322.632,53.1675 324.864,53.1675 327.096,53.1675 329.328,53.1675 331.56,53.1675 333.792,53.1675 336.024,53.1675 338.256,53.1675 340.488,53.1675 342.72,53.1675 344.952,53.1675 347.184,53.1675 349.416,53.1675 351.648,53.1675 353.88,53.1675 356.112,53.1675 358.344,53.1675 360.576,53.1675 362.808,53.1675 365.04,53.1675 367.272,53.1675 369.504,53.1675 371.736,53.1675 373.968,53.1675 376.2,53.1675 378.432,53.1675 380.664,53.1675 382.896,53.1675 385.128,53.1675 387.36,53.1675 389.592,53.1675 391.824,53.1675 394.056,53.1675 396.288,53.1675 398.52,53.1675 400.752,53.1675 402.984,53.1675 405.216,53.1675 407.448,53.1675 409.68,53.1675 411.912,53.1675 414.144,53.1675 416.376,53.1675 418.608,53.1675 420.84,53.1675 423.072,53.1675 425.304,53.1675 427.536,53.1675 429.768,53.1675 432,53.1675 434.232,53.1675 436.464,53.1675 438.696,53.1675 440.928,53.1675 443.16,53.1675 445.392,53.1675 447.624,53.1675 449.856,53.1675 452.088,53.1675 454.32,53.1675 456.552,53.1675 458.784,53.1675 461.016,53.1675 463.248,53.1675 465.48,53.1675 467.712,53.1675 469.944,53.1675 472.176,53.1675 474.408,53.1675 476.64,53.1675 478.872,53.1675 481.104,53.1675 483.336,53.1675 485.568,53.1675 487.8,53.1675 490.032,53.1675 492.264,53.1675 494.496,53.1675 496.728,53.1675 498.96,53.1675 501.192,53.1675 503.424,53.1675 505.656,53.1675 507.888,53.1675 510.12,53.1675 512.352,53.1675 514.584,53.1675 516.816,53.1675 519.048,53.1675 521.28,53.1675"/>
<polyline fill="none" stroke="#00ff00" stroke-width="2" stroke-linecap="butt" stroke-linejoin="miter" points="74.8799,231.197 77.1118,228.401 79.3438,225.607 81.5762,222.82 83.8081,220.04 86.04,217.272 88.272,214.517 90.5039,211.779 92.7358,209.06 94.9678,206.362 97.2002,203.689 99.4321,201.044 101.664,198.428 103.896,195.845 106.128,193.296 108.36,190.785 110.592,188.313 112.824,185.885 115.056,183.5 117.288,181.163 119.52,178.875 121.752,176.639 123.984,174.457 126.216,172.33 128.448,170.262 130.68,168.254 132.912,166.308 135.144,164.426 137.376,162.61 139.608,160.861 141.84,159.182 144.072,157.574 146.304,156.039 148.536,154.578 150.768,153.192 153,151.884 155.232,150.654 157.464,149.503 159.696,148.433 161.928,147.444 164.16,146.539 166.392,145.716 168.624,144.979 170.856,144.326 173.088,143.759 175.32,143.278 177.552,142.884 179.784,142.577 182.016,142.357 184.248,142.226 186.48,142.182 188.712,142.226 190.944,142.357 193.176,142.577 195.408,142.884 197.64,143.278 199.872,143.759 202.104,144.326 204.336,144.979 206.568,145.716 208.8,146.539 211.032,147.444 213.264,148.433 215.496,149.503 217.728,150.654 219.96,151.884 222.192,153.192 224.424,154.578 226.656,156.039 228.888,157.574 231.12,159.182 233.352,160.861 235.584,162.61 237.816,164.426 240.048,166.308 242.28,168.254 244.512,170.262 246.744,172.33 248.976,174.457 251.208,176.639 253.44,178.875 255.672,181.163 257.904,183.5 260.136,185.885 262.368,188.313 264.6,190.785 266.832,193.296 269.064,195.845 271.296,198.428 273.528,201.044 275.76,203.689 277.992,206.362 280.224,209.06 282.456,211.779 284.688,214.517 286.92,217.272 289.152,220.04 291.384,222.82 293.616,225.607 295.848,228.401 298.08,231.197 300.312,233.993 302.544,236.786 304.776,239.574 307.008,242.353 309.24,245.122 311.472,247.876 313.704,250.615 315.936,253.334 318.168,256.031 320.4,258.704 322.632,261.35 324.864,263.965 327.096,266.549 329.328,269.097 331.56,271.608 333.792,274.08 336.024,276.509 338.256,278.893 340.488,281.23 342.72,283.518 344.952,285.754 347.184,287.937 349.416,290.063 351.648,292.131 353.88,294.14 356.112,296.085 358.344,297.968 360.576,299.784 362.808,301.532 365.04,303.211 367.272,304.819 369.504,306.354 371.736,307.815 373.968,309.201 376.2,310.509 378.432,311.74 380.664,312.891 382.896,313.96 385.128,314.949 387.36,315.855 389.592,316.677 391.824,317.415 394.056,318.068 396.288,318.635 398.52,319.116 400.752,319.51 402.984,319.816 405.216,320.036 407.448,320.167 409.68,320.211 411.912,320.167 414.144,320.036 416.376,319.816 418.608,319.51 420.84,319.116 423.072,318.635 425.304,318.068 427.536,317.415 429.768,316.677 432,315.855 434.232,314.949 436.464,313.96 438.696,312.891 440.928,311.74 443.16,310.509 445.392,309.201 447.624,307.815 449.856,306.354 452.088,304.819 454.32,303.211 456.552,301.532 458.784,299.784 461.016,297.968 463.248,296.085 465.48,294.14 467.712,292.131 469.944,290.063 472.176,287.937 474.408,285.754 476.64,283.518 478.872,281.23 481.104,278.893 483.336,276.509 485.568,274.08 487.8,271.608 490.032,269.097 492.264,266.549 494.496,263.965 496.728,261.35 498.96,258.704 501.192,256.031 503.424,253.334 505.656,250.615 507.888,247.876 510.12,245.122 512.352,242.353 514.584,239.574 516.816,236.786 519.048,233.993 521.28,231.197"/>
<polyline fill="none" stroke="#0000ff" stroke-width="2" stroke-linecap="butt" stroke-linejoin="miter" points="74.8799,142.182 77.1118,143.072 79.3438,143.962 81.5762,144.853 83.8081,145.743 86.04,146.633 88.272,147.523 90.5039,148.413 92.7358,149.303 94.9678,150.193 97.2002,151.083 99.4321,151.974 101.664,152.864 103.896,153.754 106.128,154.644 108.36,155.534 110.592,156.424 112.824,157.314 115.056,158.205 117.288,159.095 119.52,159.985 121.752,160.875 123.984,161.765 126.216,162.655 128.448,163.545 130.68,164.436 132.912,165.326 135.144,166.216 137.376,167.106 139.608,167.996 141.84,168.886 144.072,169.776 146.304,170.667 148.536,171.557 150.768,172.447 153,173.337 155.232,174.227 157.464,175.117 159.696,176.008 161.928,176.898 164.16,177.788 166.392,178.678 168.624,179.568 170.856,180.458 173.088,181.349 175.32,182.239 177.552,183.129 179.784,184.019 182.016,184.909 184.248,185.799 186.48,186.689 188.712,187.58 190.944,188.47 193.176,189.36 195.408,190.25 197.64,191.14 199.872,192.03 202.104,192.92 204.336,193.811 206.568,194.701 208.8,195.591 211.032,196.481 213.264,197.371 215.496,198.261 217.728,199.151 219.96,200.042 222.192,200.932 224.424,201.822 226.656,202.712 228.888,203.602 231.12,204.492 233.352,205.382 235.584,206.272 237.816,207.163 240.048,208.053 242.28,208.943 244.512,209.833 246.744,210.723 248.976,211.613 251.208,212.503 253.44,213.394 255.672,214.284 257.904,215.174 260.136,216.064 262.368,216.955 264.6,217.845 266.832,218.735 269.064,219.625 271.296,220.515 273.528,221.405 275.76,222.295 277.992,223.186 280.224,224.076 282.456,224.966 284.688,225.856 286.92,226.746 289.152,227.636 291.384,228.526 293.616,229.417 295.848,230.307 298.08,231.197 300.312,230.307 302.544,229.417 304.776,228.526 307.008,227.636 309.24,226.746 311.472,225.856 313.704,224.966 315.936,224.076 318.168,223.186 320.4,222.295 322.632,221.405 324.864,220.515 327.096,219.625 329.328,218.735 331.56,217.845 333.792,216.955 336.024,216.064 338.256,215.174 340.488,214.284 342.72,213.394 344.952,212.503 347.184,211.613 349.416,210.723 351.648,209.833 353.88,208.943 356.112,208.053 358.344,207.163 360.576,206.272 362.808,205.382 365.04,204.492 367.272,203.602 369.504,202.712 371.736,201.822 373.968,200.932 376.2,200.042 378.432,199.151 380.664,198.261 382.896,197.371 385.128,196.481 387.36,195.591 389.592,194.701 391.824,193.811 394.056,192.92 396.288,192.03 398.52,191.14 400.752,190.25 402.984,189.36 405.216,188.47 407.448,187.58 409.68,186.689 411.912,185.799 414.144,184.909 416.376,184.019 418.608,183.129 420.84,182.239 423.072,181.349 425.304,180.458 427.536,179.568 429.768,178.678 432,177.788 434.232,176.898 436.464,176.008 438.696,175.117 440.928,174.227 443.16,173.337 445.392,172.447 447.624,171.557 449.856,170.667 452.088,169.776 454.32,168.886 456.552,167.996 458.784,167.106 461.016,166.216 463.248,165.326 465.48,164.436 467.712,163.545 469.944,162.655 472.176,161.765 474.408,160.875 476.64,159.985 478.872,159.095 481.104,158.205 483.336,157.314 485.568,156.424 487.8,155.534 490.032,154.644 492.264,153.754 494.496,152.864 496.728,151.974 498.96,151.083 501.192,150.193 503.424,149.303 505.656,148.413 507.888,147.523 510.12,146.633 512.352,145.743 514.584,144.853 516.816,143.962 519.048,143.072 521.28,142.182"/>
<polyline fill="none" stroke="#00ffff" stroke-width="2" stroke-linecap="butt" stroke-linejoin="miter" points="74.8799,231.197 77.1118,230.307 79.3438,229.417 81.5762,228.527 83.8081,227.637 86.04,226.748 88.272,225.859 90.5039,224.971 92.7358,224.083 94.9678,223.196 97.2002,222.31 99.4321,221.425 101.664,220.541 103.896,219.657 106.128,218.775 108.36,217.895 110.592,217.015 112.824,216.137 115.056,215.26 117.288,214.385 119.52,213.512 121.752,212.641 123.984,211.771 126.216,210.903 128.448,210.038 130.68,209.174 132.912,208.313 135.144,207.454 137.376,206.597 139.608,205.743 141.84,204.891 144.072,204.042 146.304,203.196 148.536,202.352 150.768,201.511 153,200.674 155.232,199.839 157.464,199.008 159.696,198.179 161.928,197.354 164.16,196.533 166.392,195.715 168.624,194.9 170.856,194.089 173.088,193.282 175.32,192.479 177.552,191.679 179.784,190.883 182.016,190.092 184.248,189.304 186.48,188.521 188.712,187.742 190.944,186.967 193.176,186.197 195.408,185.431 197.64,184.67 199.872,183.913 202.104,183.162 204.336,182.415 206.568,181.672 208.8,180.935 211.032,180.203 213.264,179.476 215.496,178.754 217.728,178.038 219.96,177.326 222.192,176.62 224.424,175.92 226.656,175.225 228.888,174.536 231.12,173.852 233.352,173.174 235.584,172.502 237.816,171.835 240.048,171.175 242.28,170.521 244.512,169.873 246.744,169.23 248.976,168.594 251.208,167.965 253.44,167.341 255.672,166.725 257.904,166.114 260.136,165.51 262.368,164.913 264.6,164.322 266.832,163.738 269.064,163.16 271.296,162.589 273.528,162.026 275.76,161.469 277.992,160.919 280.224,160.376 282.456,159.841 284.688,159.312 286.92,158.791 289.152,158.276 291.384,157.77 293.616,157.27 295.848,156.778 298.08,156.293 300.312,155.816 302.544,155.347 304.776,154.884 307.008,154.43 309.24,153.983 311.472,153.544 313.704,153.113 315.936,152.689 318.168,152.274 320.4,151.866 322.632,151.466 324.864,151.075 327.096,150.691 329.328,150.315 331.56,149.947 333.792,149.588 336.024,149.236 338.256,148.893 340.488,148.558 342.72,148.231 344.952,147.913 347.184,147.603 349.416,147.301 351.648,147.008 353.88,146.723 356.112,146.447 358.344,146.179 360.576,145.919 362.808,145.668 365.04,145.426 367.272,145.192 369.504,144.967 371.736,144.75 373.968,144.542 376.2,144.343 378.432,144.152 380.664,143.97 382.896,143.797 385.128,143.633 387.36,143.477 389.592,143.33 391.824,143.192 394.056,143.063 396.288,142.942 398.52,142.831 400.752,142.728 402.984,142.634 405.216,142.549 407.448,142.472 409.68,142.405 411.912,142.346 414.144,142.297 416.376,142.256 418.608,142.224 420.84,142.201 423.072,142.187 425.304,142.182 427.536,142.186 429.768,142.198 432,142.22 434.232,142.25 436.464,142.29 438.696,142.338 440.928,142.395 443.16,142.461 445.392,142.536 447.624,142.62 449.856,142.712 452.088,142.813 454.32,142.924 456.552,143.043 458.784,143.171 461.016,143.308 463.248,143.453 465.48,143.607 467.712,143.771 469.944,143.942 472.176,144.123 474.408,144.312 476.64,144.51 478.872,144.716 481.104,144.932 483.336,145.156 485.568,145.388 487.8,145.629 490.032,145.878 492.264,146.137 494.496,146.403 496.728,146.679 498.96,146.962 501.192,147.254 503.424,147.554 505.656,147.863 507.888,148.18 510.12,148.505 512.352,148.839 514.584,149.181 516.816,149.531 519.048,149.89 521.28,150.256"/>
</g>
<clipPath id="cp00576432">
  <polygon points="0,432 576,432 576,0 0,0"/>
</clipPath>
<g clip-path="url(#cp00576432)">
<polygon fill="#ffffff" shape-rendering="crispEdges" points="217.328,429.255 378.833,429.255 378.833,344.22"/>
<polygon fill="#ffffff" shape-rendering="crispEdges" points="217.328,429.255 378.833,344.22 217.328,344.22"/>
<polyline fill="none" stroke="#262626" stroke-width="0.5" stroke-linecap="butt" stroke-linejoin="miter" stroke-dasharray="16,0" points="217.328,429.255 378.833,429.255"/>
<polyline fill="none" stroke="#262626" stroke-width="0.5" stroke-linecap="butt" stroke-linejoin="miter" stroke-dasharray="16,0" points="217.328,344.22 378.833,344.22"/>
<polyline fill="none" stroke="#262626" stroke-width="0.5" stroke-linecap="butt" stroke-linejoin="miter" stroke-dasharray="16,0" points="217.328,429.255 217.328,344.22"/>
<polyline fill="none" stroke="#262626" stroke-width="0.5" stroke-linecap="butt" stroke-linejoin="miter" stroke-dasharray="16,0" points="378.833,429.255 378.833,344.22"/>
<text fill="#000000" x="243.402" y="356.849" font-size="10" text-anchor="start" dy="0" font-family="Helvetica">f</text>
<text fill="#000000" x="247.402" y="362.849" font-size="8" text-anchor="start" dy="0" font-family="Helvetica">0</text>
<text fill="#000000" x="252.402" y="356.849" font-size="10" text-anchor="start" dy="0" font-family="Helvetica">(t) = 1,         T = [0, 2]</text>
<text fill="#000000" x="243.402" y="378.108" font-size="10" text-anchor="start" dy="0" font-family="Helvetica">f</text>
<text fill="#000000" x="247.402" y="384.108" font-size="8" text-anchor="start" dy="0" font-family="Helvetica">1</text>
<text fill="#000000" x="252.402" y="378.108" font-size="10" text-anchor="start" dy="0" font-family="Helvetica">(t) = sin(pi*t), T = [0, 2]</text>
<text fill="#000000" x="243.402" y="399.367" font-size="10" text-anchor="start" dy="0" font-family="Helvetica">f</text>
<text fill="#000000" x="247.402" y="405.367" font-size="8" text-anchor="start" dy="0" font-family="Helvetica">2</text>
<text fill="#000000" x="252.402" y="399.367" font-size="10" text-anchor="start" dy="0" font-family="Helvetica">(t) = abs(t-1),  T = [0, 2]</text>
<text fill="#000000" x="243.402" y="420.626" font-size="10" text-anchor="start" dy="0" font-family="Helvetica">f</text>
<text fill="#000000" x="247.402" y="426.626" font-size="8" text-anchor="start" dy="0" font-family="Helvetica">3</text>
<text fill="#000000" x="252.402" y="420.626" font-size="10" text-anchor="start" dy="0" font-family="Helvetica">(t) = sin(t),    T = [0, 2]</text>
<polyline fill="none" stroke="#ff0000" stroke-width="2" stroke-linecap="butt" stroke-linejoin="miter" points="220.072,354.849 240.657,354.849"/>
<polyline fill="none" stroke="#00ff00" stroke-width="2" stroke-linecap="butt" stroke-linejoin="miter" points="220.072,376.108 240.657,376.108"/>
<polyline fill="none" stroke="#0000ff" stroke-width="2" stroke-linecap="butt" stroke-linejoin="miter" points="220.072,397.367 240.657,397.367"/>
<polyline fill="none" stroke="#00ffff" stroke-width="2" stroke-linecap="butt" stroke-linejoin="miter" points="220.072,418.626 240.657,418.626"/>
</g>
</g>
</svg>
