<?xml version="1.0" encoding="UTF-8" standalone="no"?>
<svg xmlns="http://www.w3.org/2000/svg"
     xmlns:xlink="http://www.w3.org/1999/xlink"
     width="576px" height="432px" viewBox="0 0 576 432">
<title>gl2ps_renderer figure</title>
<desc>
Creator: GL2PS 1.4.0, (C) 1999-2017 C. Geuzaine
For: Octave
CreationDate: Thu Dec  5 01:29:12 2019
</desc>
<defs>
</defs>
<polygon fill="#ffffff" points="0,0 576,0 576,432 0,432"/>
<g>
<polygon fill="#ffffff" points="0,432 576,432 576,0 0,0" shape-rendering="crispEdges"/>
<clipPath id="cp00576432">
  <polygon points="0,432 576,432 576,0 0,0"/>
</clipPath>
<g clip-path="url(#cp00576432)">
<polygon fill="#ffffff" shape-rendering="crispEdges" points="74.8799,384.48 521.28,384.48 521.28,32.3999"/>
<polygon fill="#ffffff" shape-rendering="crispEdges" points="74.8799,384.48 521.28,32.3999 74.8799,32.3999"/>
<polyline fill="none" stroke="#262626" stroke-width="0.5" stroke-linecap="butt" stroke-linejoin="miter" stroke-opacity="0.15" stroke-dasharray="16,0" points="74.8799,384.48 74.8799,32.3999"/>
<polyline fill="none" stroke="#262626" stroke-width="0.5" stroke-linecap="butt" stroke-linejoin="miter" stroke-opacity="0.15" stroke-dasharray="16,0" points="186.48,384.48 186.48,32.3999"/>
<polyline fill="none" stroke="#262626" stroke-width="0.5" stroke-linecap="butt" stroke-linejoin="miter" stroke-opacity="0.15" stroke-dasharray="16,0" points="298.08,384.48 298.08,32.3999"/>
<polyline fill="none" stroke="#262626" stroke-width="0.5" stroke-linecap="butt" stroke-linejoin="miter" stroke-opacity="0.15" stroke-dasharray="16,0" points="409.68,384.48 409.68,32.3999"/>
<polyline fill="none" stroke="#262626" stroke-width="0.5" stroke-linecap="butt" stroke-linejoin="miter" stroke-opacity="0.15" stroke-dasharray="16,0" points="521.28,384.48 521.28,32.3999"/>
<polyline fill="none" stroke="#262626" stroke-width="0.5" stroke-linecap="butt" stroke-linejoin="miter" points="74.8799,384.48 74.8799,380.015"/>
<polyline fill="none" stroke="#262626" stroke-width="0.5" stroke-linecap="butt" stroke-linejoin="miter" points="186.48,384.48 186.48,380.015"/>
<polyline fill="none" stroke="#262626" stroke-width="0.5" stroke-linecap="butt" stroke-linejoin="miter" points="298.08,384.48 298.08,380.015"/>
<polyline fill="none" stroke="#262626" stroke-width="0.5" stroke-linecap="butt" stroke-linejoin="miter" points="409.68,384.48 409.68,380.015"/>
<polyline fill="none" stroke="#262626" stroke-width="0.5" stroke-linecap="butt" stroke-linejoin="miter" points="521.28,384.48 521.28,380.015"/>
<text fill="#262626" x="74.8799" y="389.481" font-size="10" text-anchor="middle" dy="10" font-family="Helvetica">0</text>
<text fill="#262626" x="186.48" y="389.481" font-size="10" text-anchor="middle" dy="10" font-family="Helvetica">0.5</text>
<text fill="#262626" x="298.08" y="389.481" font-size="10" text-anchor="middle" dy="10" font-family="Helvetica">1</text>
<text fill="#262626" x="409.68" y="389.481" font-size="10" text-anchor="middle" dy="10" font-family="Helvetica">1.5</text>
<text fill="#262626" x="521.28" y="389.481" font-size="10" text-anchor="middle" dy="10" font-family="Helvetica">2</text>
<polyline fill="none" stroke="#262626" stroke-width="0.5" stroke-linecap="butt" stroke-linejoin="miter" stroke-opacity="0.15" stroke-dasharray="16,0" points="74.8799,384.48 521.28,384.48"/>
<polyline fill="none" stroke="#262626" stroke-width="0.5" stroke-linecap="butt" stroke-linejoin="miter" stroke-opacity="0.15" stroke-dasharray="16,0" points="74.8799,296.46 521.28,296.46"/>
<polyline fill="none" stroke="#262626" stroke-width="0.5" stroke-linecap="butt" stroke-linejoin="miter" stroke-opacity="0.15" stroke-dasharray="16,0" points="74.8799,208.44 521.28,208.44"/>
<polyline fill="none" stroke="#262626" stroke-width="0.5" stroke-linecap="butt" stroke-linejoin="miter" stroke-opacity="0.15" stroke-dasharray="16,0" points="74.8799,120.42 521.28,120.42"/>
<polyline fill="none" stroke="#262626" stroke-width="0.5" stroke-linecap="butt" stroke-linejoin="miter" stroke-opacity="0.15" stroke-dasharray="16,0" points="74.8799,32.3999 521.28,32.3999"/>
<polyline fill="none" stroke="#262626" stroke-width="0.5" stroke-linecap="butt" stroke-linejoin="miter" points="74.8799,384.48 79.3481,384.48"/>
<polyline fill="none" stroke="#262626" stroke-width="0.5" stroke-linecap="butt" stroke-linejoin="miter" points="74.8799,296.46 79.3481,296.46"/>
<polyline fill="none" stroke="#262626" stroke-width="0.5" stroke-linecap="butt" stroke-linejoin="miter" points="74.8799,208.44 79.3481,208.44"/>
<polyline fill="none" stroke="#262626" stroke-width="0.5" stroke-linecap="butt" stroke-linejoin="miter" points="74.8799,120.42 79.3481,120.42"/>
<polyline fill="none" stroke="#262626" stroke-width="0.5" stroke-linecap="butt" stroke-linejoin="miter" points="74.8799,32.3999 79.3481,32.3999"/>
<text fill="#262626" x="69.8755" y="384.48" font-size="10" text-anchor="end" dy="5" font-family="Helvetica">-0.5</text>
<text fill="#262626" x="69.8755" y="296.46" font-size="10" text-anchor="end" dy="5" font-family="Helvetica">0</text>
<text fill="#262626" x="69.8755" y="208.44" font-size="10" text-anchor="end" dy="5" font-family="Helvetica">0.5</text>
<text fill="#262626" x="69.8755" y="120.42" font-size="10" text-anchor="end" dy="5" font-family="Helvetica">1</text>
<text fill="#262626" x="69.8755" y="32.3999" font-size="10" text-anchor="end" dy="5" font-family="Helvetica">1.5</text>
<polyline fill="none" stroke="#262626" stroke-width="0.5" stroke-linecap="butt" stroke-linejoin="miter" stroke-dasharray="16,0" points="74.8799,384.48 521.28,384.48"/>
<polyline fill="none" stroke="#262626" stroke-width="0.5" stroke-linecap="butt" stroke-linejoin="miter" stroke-dasharray="16,0" points="74.8799,384.48 74.8799,32.3999"/>
<polyline fill="none" stroke="#ff0000" stroke-width="4" stroke-linecap="butt" stroke-linejoin="miter" points="74.8799,296.46 77.1118,294.7 79.3438,292.939 81.5762,291.18 83.8081,289.42 86.04,287.662 88.272,285.904 90.5039,284.147 92.7358,282.392 94.9678,280.638 97.2002,278.885 99.4321,277.135 101.664,275.386 103.896,273.639 106.128,271.895 108.36,270.153 110.592,268.414 112.824,266.677 115.056,264.944 117.288,263.213 119.52,261.486 121.752,259.763 123.984,258.043 126.216,256.327 128.448,254.615 130.68,252.907 132.912,251.204 135.144,249.504 137.376,247.811 139.608,246.121 141.84,244.437 144.072,242.757 146.304,241.083 148.536,239.416 150.768,237.753 153,236.096 155.232,234.446 157.464,232.801 159.696,231.163 161.928,229.532 164.16,227.907 166.392,226.289 168.624,224.678 170.856,223.074 173.088,221.478 175.32,219.889 177.552,218.308 179.784,216.734 182.016,215.168 184.248,213.611 186.48,212.062 188.712,210.521 190.944,208.989 193.176,207.466 195.408,205.952 197.64,204.446 199.872,202.95 202.104,201.463 204.336,199.986 206.568,198.518 208.8,197.061 211.032,195.612 213.264,194.175 215.496,192.747 217.728,191.33 219.96,189.923 222.192,188.527 224.424,187.142 226.656,185.767 228.888,184.404 231.12,183.052 233.352,181.711 235.584,180.382 237.816,179.064 240.048,177.758 242.28,176.464 244.512,175.182 246.744,173.913 248.976,172.655 251.208,171.41 253.44,170.177 255.672,168.957 257.904,167.749 260.136,166.555 262.368,165.373 264.6,164.205 266.832,163.049 269.064,161.908 271.296,160.779 273.528,159.664 275.76,158.563 277.992,157.476 280.224,156.402 282.456,155.343 284.688,154.297 286.92,153.266 289.152,152.25 291.384,151.247 293.616,150.259 295.848,149.286 298.08,148.328 300.312,147.384 302.544,146.455 304.776,145.541 307.008,144.643 309.24,143.759 311.472,142.891 313.704,142.038 315.936,141.2 318.168,140.378 320.4,139.572 322.632,138.781 324.864,138.006 327.096,137.247 329.328,136.504 331.56,135.777 333.792,135.066 336.024,134.371 338.256,133.692 340.488,133.03 342.72,132.384 344.952,131.754 347.184,131.141 349.416,130.544 351.648,129.964 353.88,129.401 356.112,128.854 358.344,128.324 360.576,127.811 362.808,127.314 365.04,126.835 367.272,126.373 369.504,125.927 371.736,125.499 373.968,125.088 376.2,124.694 378.432,124.317 380.664,123.957 382.896,123.615 385.128,123.29 387.36,122.981 389.592,122.691 391.824,122.418 394.056,122.162 396.288,121.924 398.52,121.703 400.752,121.5 402.984,121.313 405.216,121.145 407.448,120.994 409.68,120.861 411.912,120.745 414.144,120.647 416.376,120.566 418.608,120.503 420.84,120.458 423.072,120.43 425.304,120.42 427.536,120.427 429.768,120.453 432,120.495 434.232,120.555 436.464,120.633 438.696,120.729 440.928,120.841 443.16,120.972 445.392,121.12 447.624,121.286 449.856,121.469 452.088,121.669 454.32,121.887 456.552,122.123 458.784,122.376 461.016,122.646 463.248,122.934 465.48,123.239 467.712,123.562 469.944,123.901 472.176,124.258 474.408,124.632 476.64,125.024 478.872,125.433 481.104,125.858 483.336,126.301 485.568,126.76 487.8,127.237 490.032,127.731 492.264,128.241 494.496,128.769 496.728,129.312 498.96,129.874 501.192,130.451 503.424,131.045 505.656,131.655 507.888,132.282 510.12,132.926 512.352,133.586 514.584,134.262 516.816,134.954 519.048,135.663 521.28,136.387"/>
<polyline fill="none" stroke="#00ff00" stroke-width="2" stroke-linecap="butt" stroke-linejoin="miter" points="74.8799,206.397 77.1118,209.792 79.3438,213.126 81.5762,216.391 83.8081,219.578 86.04,222.68 88.272,225.69 90.5039,228.601 92.7358,231.405 94.9678,234.096 97.2002,236.668 99.4321,239.115 101.664,241.432 103.896,243.613 106.128,245.653 108.36,247.549 110.592,249.296 112.824,250.892 115.056,252.332 117.288,253.614 119.52,254.737 121.752,255.698 123.984,256.498 126.216,257.133 128.448,257.605 130.68,257.915 132.912,258.062 135.144,258.048 137.376,257.875 139.608,257.543 141.84,257.058 144.072,256.42 146.304,255.635 148.536,254.704 150.768,253.634 153,252.427 155.232,251.09 157.464,249.626 159.696,248.043 161.928,246.346 164.16,244.541 166.392,242.634 168.624,240.632 170.856,238.541 173.088,236.369 175.32,234.123 177.552,231.809 179.784,229.436 182.016,227.009 184.248,224.538 186.48,222.029 188.712,219.49 190.944,216.928 193.176,214.35 195.408,211.763 197.64,209.174 199.872,206.591 202.104,204.02 204.336,201.467 206.568,198.939 208.8,196.442 211.032,193.982 213.264,191.564 215.496,189.193 217.728,186.875 219.96,184.613 222.192,182.414 224.424,180.278 226.656,178.212 228.888,176.218 231.12,174.298 233.352,172.455 235.584,170.691 237.816,169.008 240.048,167.407 242.28,165.889 244.512,164.454 246.744,163.102 248.976,161.833 251.208,160.646 253.44,159.541 255.672,158.515 257.904,157.567 260.136,156.695 262.368,155.896 264.6,155.169 266.832,154.509 269.064,153.914 271.296,153.379 273.528,152.902 275.76,152.478 277.992,152.103 280.224,151.772 282.456,151.482 284.688,151.228 286.92,151.004 289.152,150.807 291.384,150.63 293.616,150.471 295.848,150.323 298.08,150.183 300.312,150.044 302.544,149.903 304.776,149.755 307.008,149.595 309.24,149.419 311.472,149.224 313.704,149.004 315.936,148.756 318.168,148.478 320.4,148.164 322.632,147.813 324.864,147.422 327.096,146.987 329.328,146.508 331.56,145.982 333.792,145.407 336.024,144.783 338.256,144.108 340.488,143.383 342.72,142.607 344.952,141.78 347.184,140.903 349.416,139.977 351.648,139.003 353.88,137.983 356.112,136.919 358.344,135.814 360.576,134.67 362.808,133.49 365.04,132.278 367.272,131.037 369.504,129.771 371.736,128.485 373.968,127.184 376.2,125.871 378.432,124.552 380.664,123.233 382.896,121.918 385.128,120.614 387.36,119.325 389.592,118.059 391.824,116.819 394.056,115.614 396.288,114.449 398.52,113.33 400.752,112.263 402.984,111.253 405.216,110.309 407.448,109.434 409.68,108.634 411.912,107.917 414.144,107.286 416.376,106.748 418.608,106.308 420.84,105.969 423.072,105.738 425.304,105.619 427.536,105.615 429.768,105.73 432,105.969 434.232,106.333 436.464,106.826 438.696,107.45 440.928,108.207 443.16,109.099 445.392,110.126 447.624,111.29 449.856,112.591 452.088,114.028 454.32,115.601 456.552,117.31 458.784,119.151 461.016,121.125 463.248,123.227 465.48,125.456 467.712,127.808 469.944,130.279 472.176,132.866 474.408,135.563 476.64,138.367 478.872,141.271 481.104,144.27 483.336,147.358 485.568,150.529 487.8,153.776 490.032,157.092 492.264,160.47 494.496,163.902 496.728,167.381 498.96,170.899 501.192,174.448 503.424,178.02 505.656,181.606 507.888,185.198 510.12,188.787 512.352,192.365 514.584,195.924 516.816,199.454 519.048,202.948 521.28,206.397"/>
<polyline fill="none" stroke="#ff00ff" stroke-width="2" stroke-linecap="butt" stroke-linejoin="miter" points="74.8799,210.824 77.1118,217.417 79.3438,223.86 81.5762,230.105 83.8081,236.109 86.04,241.828 88.272,247.225 90.5039,252.262 92.7358,256.908 94.9678,261.134 97.2002,264.917 99.4321,268.235 101.664,271.077 103.896,273.431 106.128,275.292 108.36,276.66 110.592,277.541 112.824,277.944 115.056,277.883 117.288,277.376 119.52,276.446 121.752,275.12 123.984,273.425 126.216,271.394 128.448,269.062 130.68,266.465 132.912,263.642 135.144,260.628 137.376,257.466 139.608,254.192 141.84,250.846 144.072,247.464 146.304,244.081 148.536,240.731 150.768,237.446 153,234.253 155.232,231.178 157.464,228.244 159.696,225.467 161.928,222.864 164.16,220.447 166.392,218.222 168.624,216.194 170.856,214.363 173.088,212.727 175.32,211.279 177.552,210.009 179.784,208.906 182.016,207.955 184.248,207.139 186.48,206.44 188.712,205.838 190.944,205.313 193.176,204.842 195.408,204.404 197.64,203.978 199.872,203.542 202.104,203.077 204.336,202.563 206.568,201.984 208.8,201.325 211.032,200.571 213.264,199.712 215.496,198.739 217.728,197.647 219.96,196.431 222.192,195.09 224.424,193.627 226.656,192.046 228.888,190.352 231.12,188.555 233.352,186.666 235.584,184.696 237.816,182.66 240.048,180.574 242.28,178.454 244.512,176.315 246.744,174.178 248.976,172.057 251.208,169.97 253.44,167.934 255.672,165.964 257.904,164.075 260.136,162.278 262.368,160.586 264.6,159.008 266.832,157.551 269.064,156.22 271.296,155.019 273.528,153.948 275.76,153.005 277.992,152.188 280.224,151.489 282.456,150.902 284.688,150.417 286.92,150.023 289.152,149.707 291.384,149.455 293.616,149.252 295.848,149.083 298.08,148.933 300.312,148.785 302.544,148.623 304.776,148.433 307.008,148.2 309.24,147.912 311.472,147.557 313.704,147.123 315.936,146.604 318.168,145.991 320.4,145.282 322.632,144.473 324.864,143.564 327.096,142.558 329.328,141.458 331.56,140.272 333.792,139.008 336.024,137.675 338.256,136.287 340.488,134.856 342.72,133.397 344.952,131.926 347.184,130.459 349.416,129.015 351.648,127.607 353.88,126.255 356.112,124.975 358.344,123.78 360.576,122.686 362.808,121.705 365.04,120.849 367.272,120.126 369.504,119.544 371.736,119.108 373.968,118.819 376.2,118.679 378.432,118.684 380.664,118.829 382.896,119.106 385.128,119.506 387.36,120.017 389.592,120.625 391.824,121.312 394.056,122.062 396.288,122.856 398.52,123.674 400.752,124.496 402.984,125.299 405.216,126.064 407.448,126.771 409.68,127.401 411.912,127.934 414.144,128.354 416.376,128.648 418.608,128.802 420.84,128.806 423.072,128.654 425.304,128.342 427.536,127.869 429.768,127.236 432,126.452 434.232,125.524 436.464,124.465 438.696,123.292 440.928,122.024 443.16,120.683 445.392,119.294 447.624,117.886 449.856,116.486 452.088,115.128 454.32,113.843 456.552,112.666 458.784,111.63 461.016,110.771 463.248,110.121 465.48,109.713 467.712,109.58 469.944,109.75 472.176,110.249 474.408,111.103 476.64,112.333 478.872,113.954 481.104,115.982 483.336,118.425 485.568,121.288 487.8,124.571 490.032,128.27 492.264,132.375 494.496,136.874 496.728,141.746 498.96,146.97 501.192,152.518 503.424,158.358 505.656,164.456 507.888,170.773 510.12,177.268 512.352,183.897 514.584,190.615 516.816,197.375 519.048,204.127 521.28,210.824"/>
<polyline fill="none" stroke="#000000" stroke-width="2" stroke-linecap="butt" stroke-linejoin="miter" points="74.8799,213.766 77.1118,228.253 79.3438,242.07 81.5762,254.804 83.8081,266.096 86.04,275.654 88.272,283.273 90.5039,288.84 92.7358,292.336 94.9678,293.84 97.2002,293.512 99.4321,291.589 101.664,288.364 103.896,284.166 106.128,279.34 108.36,274.228 110.592,269.145 112.824,264.367 115.056,260.114 117.288,256.542 119.52,253.736 121.752,251.716 123.984,250.436 126.216,249.794 128.448,249.649 130.68,249.829 132.912,250.149 135.144,250.427 137.376,250.499 139.608,250.228 141.84,249.515 144.072,248.304 146.304,246.585 148.536,244.393 150.768,241.796 153,238.899 155.232,235.824 157.464,232.702 159.696,229.664 161.928,226.825 164.16,224.284 166.392,222.104 168.624,220.322 170.856,218.936 173.088,217.911 175.32,217.186 177.552,216.674 179.784,216.276 182.016,215.887 184.248,215.404 186.48,214.738 188.712,213.819 190.944,212.6 193.176,211.063 195.408,209.221 197.64,207.109 199.872,204.788 202.104,202.336 204.336,199.841 206.568,197.393 208.8,195.076 211.032,192.963 213.264,191.107 215.496,189.541 217.728,188.27 219.96,187.275 222.192,186.516 224.424,185.934 226.656,185.454 228.888,184.998 231.12,184.485 233.352,183.845 235.584,183.017 237.816,181.961 240.048,180.659 242.28,179.112 244.512,177.347 246.744,175.409 248.976,173.359 251.208,171.269 253.44,169.212 255.672,167.262 257.904,165.481 260.136,163.918 262.368,162.605 264.6,161.55 266.832,160.742 269.064,160.149 271.296,159.721 273.528,159.396 275.76,159.104 277.992,158.774 280.224,158.34 282.456,157.746 284.688,156.951 286.92,155.935 289.152,154.697 291.384,153.256 293.616,151.654 295.848,149.943 298.08,148.188 300.312,146.461 302.544,144.831 304.776,143.359 307.008,142.095 309.24,141.071 311.472,140.301 313.704,139.776 315.936,139.469 318.168,139.333 320.4,139.309 322.632,139.328 324.864,139.318 327.096,139.212 329.328,138.951 331.56,138.492 333.792,137.809 336.024,136.898 338.256,135.776 340.488,134.481 342.72,133.068 344.952,131.602 347.184,130.156 349.416,128.806 351.648,127.619 353.88,126.65 356.112,125.939 358.344,125.502 360.576,125.336 362.808,125.413 365.04,125.686 367.272,126.09 369.504,126.552 371.736,126.99 373.968,127.327 376.2,127.494 378.432,127.438 380.664,127.125 382.896,126.547 385.128,125.717 387.36,124.675 389.592,123.482 391.824,122.213 394.056,120.957 396.288,119.801 398.52,118.83 400.752,118.115 402.984,117.709 405.216,117.64 407.448,117.909 409.68,118.486 411.912,119.318 414.144,120.329 416.376,121.422 418.608,122.496 420.84,123.447 423.072,124.181 425.304,124.62 427.536,124.711 429.768,124.433 432,123.796 434.232,122.846 436.464,121.658 438.696,120.335 440.928,118.998 443.16,117.776 445.392,116.796 447.624,116.173 449.856,115.997 452.088,116.324 454.32,117.173 456.552,118.517 458.784,120.287 461.016,122.37 463.248,124.624 465.48,126.878 467.712,128.954 469.944,130.675 472.176,131.883 474.408,132.453 476.64,132.305 478.872,131.418 481.104,129.833 483.336,127.657 485.568,125.065 487.8,122.287 490.032,119.602 492.264,117.321 494.496,115.768 496.728,115.263 498.96,116.099 501.192,118.522 503.424,122.716 505.656,128.785 507.888,136.744 510.12,146.515 512.352,157.926 514.584,170.718 516.816,184.558 519.048,199.051 521.28,213.766"/>
</g>
<clipPath id="cp00576432">
  <polygon points="0,432 576,432 576,0 0,0"/>
</clipPath>
<g clip-path="url(#cp00576432)">
<polygon fill="#ffffff" shape-rendering="crispEdges" points="245.099,381.735 351.061,381.735 351.061,317.271"/>
<polygon fill="#ffffff" shape-rendering="crispEdges" points="245.099,381.735 351.061,317.271 245.099,317.271"/>
<polyline fill="none" stroke="#262626" stroke-width="0.5" stroke-linecap="butt" stroke-linejoin="miter" stroke-dasharray="16,0" points="245.099,381.735 351.061,381.735"/>
<polyline fill="none" stroke="#262626" stroke-width="0.5" stroke-linecap="butt" stroke-linejoin="miter" stroke-dasharray="16,0" points="245.099,317.271 351.061,317.271"/>
<polyline fill="none" stroke="#262626" stroke-width="0.5" stroke-linecap="butt" stroke-linejoin="miter" stroke-dasharray="16,0" points="245.099,381.735 245.099,317.271"/>
<polyline fill="none" stroke="#262626" stroke-width="0.5" stroke-linecap="butt" stroke-linejoin="miter" stroke-dasharray="16,0" points="351.061,381.735 351.061,317.271"/>
<text fill="#000000" x="271.173" y="325.329" font-size="10" text-anchor="start" dy="5" font-family="Helvetica">f(t) = sin(t)</text>
<text fill="#000000" x="271.173" y="341.445" font-size="10" text-anchor="start" dy="5" font-family="Helvetica">FT(f(t), N = 3)</text>
<text fill="#000000" x="271.173" y="357.561" font-size="10" text-anchor="start" dy="5" font-family="Helvetica">FT(f(t), N = 5)</text>
<text fill="#000000" x="271.173" y="373.677" font-size="10" text-anchor="start" dy="5" font-family="Helvetica">FT(f(t), N = 10)</text>
<polyline fill="none" stroke="#ff0000" stroke-width="4" stroke-linecap="butt" stroke-linejoin="miter" points="247.844,325.329 268.429,325.329"/>
<polyline fill="none" stroke="#00ff00" stroke-width="2" stroke-linecap="butt" stroke-linejoin="miter" points="247.844,341.445 268.429,341.445"/>
<polyline fill="none" stroke="#ff00ff" stroke-width="2" stroke-linecap="butt" stroke-linejoin="miter" points="247.844,357.561 268.429,357.561"/>
<polyline fill="none" stroke="#000000" stroke-width="2" stroke-linecap="butt" stroke-linejoin="miter" points="247.844,373.677 268.429,373.677"/>
</g>
</g>
</svg>
