<?xml version="1.0" encoding="UTF-8" standalone="no"?>
<svg xmlns="http://www.w3.org/2000/svg"
     xmlns:xlink="http://www.w3.org/1999/xlink"
     width="576px" height="432px" viewBox="0 0 576 432">
<title>gl2ps_renderer figure</title>
<desc>
Creator: GL2PS 1.4.0, (C) 1999-2017 C. Geuzaine
For: Octave
CreationDate: Tue Dec  3 00:08:57 2019
</desc>
<defs>
</defs>
<polygon fill="#ffffff" points="0,0 576,0 576,432 0,432"/>
<g>
<polygon fill="#ffffff" points="0,432 576,432 576,0 0,0" shape-rendering="crispEdges"/>
<clipPath id="cp00576432">
  <polygon points="0,432 576,432 576,0 0,0"/>
</clipPath>
<g clip-path="url(#cp00576432)">
<polygon fill="#ffffff" shape-rendering="crispEdges" points="74.8799,277.693 521.28,277.693 521.28,53.167"/>
<polygon fill="#ffffff" shape-rendering="crispEdges" points="74.8799,277.693 521.28,53.167 74.8799,53.167"/>
<polyline fill="none" stroke="#262626" stroke-width="0.5" stroke-linecap="butt" stroke-linejoin="miter" stroke-opacity="0.15" stroke-dasharray="16,0" points="74.8799,277.693 74.8799,53.167"/>
<polyline fill="none" stroke="#262626" stroke-width="0.5" stroke-linecap="butt" stroke-linejoin="miter" stroke-opacity="0.15" stroke-dasharray="16,0" points="186.48,277.693 186.48,53.167"/>
<polyline fill="none" stroke="#262626" stroke-width="0.5" stroke-linecap="butt" stroke-linejoin="miter" stroke-opacity="0.15" stroke-dasharray="16,0" points="298.08,277.693 298.08,53.167"/>
<polyline fill="none" stroke="#262626" stroke-width="0.5" stroke-linecap="butt" stroke-linejoin="miter" stroke-opacity="0.15" stroke-dasharray="16,0" points="409.68,277.693 409.68,53.167"/>
<polyline fill="none" stroke="#262626" stroke-width="0.5" stroke-linecap="butt" stroke-linejoin="miter" stroke-opacity="0.15" stroke-dasharray="16,0" points="521.28,277.693 521.28,53.167"/>
<polyline fill="none" stroke="#262626" stroke-width="0.5" stroke-linecap="butt" stroke-linejoin="miter" points="74.8799,277.693 74.8799,273.239"/>
<polyline fill="none" stroke="#262626" stroke-width="0.5" stroke-linecap="butt" stroke-linejoin="miter" points="186.48,277.693 186.48,273.239"/>
<polyline fill="none" stroke="#262626" stroke-width="0.5" stroke-linecap="butt" stroke-linejoin="miter" points="298.08,277.693 298.08,273.239"/>
<polyline fill="none" stroke="#262626" stroke-width="0.5" stroke-linecap="butt" stroke-linejoin="miter" points="409.68,277.693 409.68,273.239"/>
<polyline fill="none" stroke="#262626" stroke-width="0.5" stroke-linecap="butt" stroke-linejoin="miter" points="521.28,277.693 521.28,273.239"/>
<text fill="#262626" x="74.8799" y="282.683" font-size="10" text-anchor="middle" dy="10" font-family="Helvetica">0</text>
<text fill="#262626" x="186.48" y="282.683" font-size="10" text-anchor="middle" dy="10" font-family="Helvetica">0.5</text>
<text fill="#262626" x="298.08" y="282.683" font-size="10" text-anchor="middle" dy="10" font-family="Helvetica">1</text>
<text fill="#262626" x="409.68" y="282.683" font-size="10" text-anchor="middle" dy="10" font-family="Helvetica">1.5</text>
<text fill="#262626" x="521.28" y="282.683" font-size="10" text-anchor="middle" dy="10" font-family="Helvetica">2</text>
<polyline fill="none" stroke="#262626" stroke-width="0.5" stroke-linecap="butt" stroke-linejoin="miter" stroke-opacity="0.15" stroke-dasharray="16,0" points="74.8799,277.693 521.28,277.693"/>
<polyline fill="none" stroke="#262626" stroke-width="0.5" stroke-linecap="butt" stroke-linejoin="miter" stroke-opacity="0.15" stroke-dasharray="16,0" points="74.8799,221.562 521.28,221.562"/>
<polyline fill="none" stroke="#262626" stroke-width="0.5" stroke-linecap="butt" stroke-linejoin="miter" stroke-opacity="0.15" stroke-dasharray="16,0" points="74.8799,165.43 521.28,165.43"/>
<polyline fill="none" stroke="#262626" stroke-width="0.5" stroke-linecap="butt" stroke-linejoin="miter" stroke-opacity="0.15" stroke-dasharray="16,0" points="74.8799,109.299 521.28,109.299"/>
<polyline fill="none" stroke="#262626" stroke-width="0.5" stroke-linecap="butt" stroke-linejoin="miter" stroke-opacity="0.15" stroke-dasharray="16,0" points="74.8799,53.167 521.28,53.167"/>
<polyline fill="none" stroke="#262626" stroke-width="0.5" stroke-linecap="butt" stroke-linejoin="miter" points="74.8799,277.693 79.3481,277.693"/>
<polyline fill="none" stroke="#262626" stroke-width="0.5" stroke-linecap="butt" stroke-linejoin="miter" points="74.8799,221.562 79.3481,221.562"/>
<polyline fill="none" stroke="#262626" stroke-width="0.5" stroke-linecap="butt" stroke-linejoin="miter" points="74.8799,165.43 79.3481,165.43"/>
<polyline fill="none" stroke="#262626" stroke-width="0.5" stroke-linecap="butt" stroke-linejoin="miter" points="74.8799,109.299 79.3481,109.299"/>
<polyline fill="none" stroke="#262626" stroke-width="0.5" stroke-linecap="butt" stroke-linejoin="miter" points="74.8799,53.167 79.3481,53.167"/>
<text fill="#262626" x="69.8755" y="277.693" font-size="10" text-anchor="end" dy="5" font-family="Helvetica">-1</text>
<text fill="#262626" x="69.8755" y="221.562" font-size="10" text-anchor="end" dy="5" font-family="Helvetica">-0.5</text>
<text fill="#262626" x="69.8755" y="165.43" font-size="10" text-anchor="end" dy="5" font-family="Helvetica">0</text>
<text fill="#262626" x="69.8755" y="109.299" font-size="10" text-anchor="end" dy="5" font-family="Helvetica">0.5</text>
<text fill="#262626" x="69.8755" y="53.167" font-size="10" text-anchor="end" dy="5" font-family="Helvetica">1</text>
<polyline fill="none" stroke="#262626" stroke-width="0.5" stroke-linecap="butt" stroke-linejoin="miter" stroke-dasharray="16,0" points="74.8799,277.693 521.28,277.693"/>
<polyline fill="none" stroke="#262626" stroke-width="0.5" stroke-linecap="butt" stroke-linejoin="miter" stroke-dasharray="16,0" points="74.8799,277.693 74.8799,53.167"/>
<polyline fill="none" stroke="#ff0000" stroke-width="2" stroke-linecap="butt" stroke-linejoin="miter" points="74.8799,53.167 77.1118,53.167 79.3438,53.167 81.5762,53.167 83.8081,53.167 86.04,53.167 88.272,53.167 90.5039,53.167 92.7358,53.167 94.9678,53.167 97.2002,53.167 99.4321,53.167 101.664,53.167 103.896,53.167 106.128,53.167 108.36,53.167 110.592,53.167 112.824,53.167 115.056,53.167 117.288,53.167 119.52,53.167 121.752,53.167 123.984,53.167 126.216,53.167 128.448,53.167 130.68,53.167 132.912,53.167 135.144,53.167 137.376,53.167 139.608,53.167 141.84,53.167 144.072,53.167 146.304,53.167 148.536,53.167 150.768,53.167 153,53.167 155.232,53.167 157.464,53.167 159.696,53.167 161.928,53.167 164.16,53.167 166.392,53.167 168.624,53.167 170.856,53.167 173.088,53.167 175.32,53.167 177.552,53.167 179.784,53.167 182.016,53.167 184.248,53.167 186.48,53.167 188.712,53.167 190.944,53.167 193.176,53.167 195.408,53.167 197.64,53.167 199.872,53.167 202.104,53.167 204.336,53.167 206.568,53.167 208.8,53.167 211.032,53.167 213.264,53.167 215.496,53.167 217.728,53.167 219.96,53.167 222.192,53.167 224.424,53.167 226.656,53.167 228.888,53.167 231.12,53.167 233.352,53.167 235.584,53.167 237.816,53.167 240.048,53.167 242.28,53.167 244.512,53.167 246.744,53.167 248.976,53.167 251.208,53.167 253.44,53.167 255.672,53.167 257.904,53.167 260.136,53.167 262.368,53.167 264.6,53.167 266.832,53.167 269.064,53.167 271.296,53.167 273.528,53.167 275.76,53.167 277.992,53.167 280.224,53.167 282.456,53.167 284.688,53.167 286.92,53.167 289.152,53.167 291.384,53.167 293.616,53.167 295.848,53.167 298.08,53.167 300.312,53.167 302.544,53.167 304.776,53.167 307.008,53.167 309.24,53.167 311.472,53.167 313.704,53.167 315.936,53.167 318.168,53.167 320.4,53.167 322.632,53.167 324.864,53.167 327.096,53.167 329.328,53.167 331.56,53.167 333.792,53.167 336.024,53.167 338.256,53.167 340.488,53.167 342.72,53.167 344.952,53.167 347.184,53.167 349.416,53.167 351.648,53.167 353.88,53.167 356.112,53.167 358.344,53.167 360.576,53.167 362.808,53.167 365.04,53.167 367.272,53.167 369.504,53.167 371.736,53.167 373.968,53.167 376.2,53.167 378.432,53.167 380.664,53.167 382.896,53.167 385.128,53.167 387.36,53.167 389.592,53.167 391.824,53.167 394.056,53.167 396.288,53.167 398.52,53.167 400.752,53.167 402.984,53.167 405.216,53.167 407.448,53.167 409.68,53.167 411.912,53.167 414.144,53.167 416.376,53.167 418.608,53.167 420.84,53.167 423.072,53.167 425.304,53.167 427.536,53.167 429.768,53.167 432,53.167 434.232,53.167 436.464,53.167 438.696,53.167 440.928,53.167 443.16,53.167 445.392,53.167 447.624,53.167 449.856,53.167 452.088,53.167 454.32,53.167 456.552,53.167 458.784,53.167 461.016,53.167 463.248,53.167 465.48,53.167 467.712,53.167 469.944,53.167 472.176,53.167 474.408,53.167 476.64,53.167 478.872,53.167 481.104,53.167 483.336,53.167 485.568,53.167 487.8,53.167 490.032,53.167 492.264,53.167 494.496,53.167 496.728,53.167 498.96,53.167 501.192,53.167 503.424,53.167 505.656,53.167 507.888,53.167 510.12,53.167 512.352,53.167 514.584,53.167 516.816,53.167 519.048,53.167 521.28,53.167"/>
<polyline fill="none" stroke="#00ff00" stroke-width="2" stroke-linecap="butt" stroke-linejoin="miter" points="74.8799,165.43 77.1118,161.904 79.3438,158.381 81.5762,154.866 83.8081,151.36 86.04,147.869 88.272,144.395 90.5039,140.941 92.7358,137.512 94.9678,134.11 97.2002,130.739 99.4321,127.403 101.664,124.104 103.896,120.845 106.128,117.631 108.36,114.464 110.592,111.347 112.824,108.284 115.056,105.277 117.288,102.329 119.52,99.4438 121.752,96.6235 123.984,93.8711 126.216,91.1895 128.448,88.5811 130.68,86.0483 132.912,83.5942 135.144,81.2207 137.376,78.9302 139.608,76.7251 141.84,74.6074 144.072,72.5796 146.304,70.6436 148.536,68.8008 150.768,67.0532 153,65.4033 155.232,63.8516 157.464,62.4004 159.696,61.0508 161.928,59.8042 164.16,58.6616 166.392,57.625 168.624,56.6943 170.856,55.8711 173.088,55.1558 175.32,54.5493 177.552,54.0522 179.784,53.6655 182.016,53.3887 184.248,53.2227 186.48,53.167 188.712,53.2227 190.944,53.3887 193.176,53.6655 195.408,54.0522 197.64,54.5493 199.872,55.1558 202.104,55.8711 204.336,56.6943 206.568,57.625 208.8,58.6616 211.032,59.8042 213.264,61.0508 215.496,62.4004 217.728,63.8516 219.96,65.4033 222.192,67.0532 224.424,68.8008 226.656,70.6436 228.888,72.5796 231.12,74.6074 233.352,76.7251 235.584,78.9302 237.816,81.2207 240.048,83.5942 242.28,86.0483 244.512,88.5811 246.744,91.1895 248.976,93.8711 251.208,96.6235 253.44,99.4438 255.672,102.329 257.904,105.277 260.136,108.284 262.368,111.347 264.6,114.464 266.832,117.631 269.064,120.845 271.296,124.104 273.528,127.403 275.76,130.739 277.992,134.11 280.224,137.512 282.456,140.941 284.688,144.395 286.92,147.869 289.152,151.36 291.384,154.866 293.616,158.381 295.848,161.904 298.08,165.43 300.312,168.957 302.544,172.479 304.776,175.995 307.008,179.5 309.24,182.992 311.472,186.466 313.704,189.92 315.936,193.349 318.168,196.751 320.4,200.122 322.632,203.458 324.864,206.757 327.096,210.016 329.328,213.229 331.56,216.397 333.792,219.514 336.024,222.577 338.256,225.584 340.488,228.532 342.72,231.417 344.952,234.237 347.184,236.99 349.416,239.671 351.648,242.28 353.88,244.812 356.112,247.267 358.344,249.64 360.576,251.931 362.808,254.136 365.04,256.253 367.272,258.281 369.504,260.217 371.736,262.06 373.968,263.807 376.2,265.458 378.432,267.009 380.664,268.46 382.896,269.81 385.128,271.057 387.36,272.199 389.592,273.236 391.824,274.167 394.056,274.99 396.288,275.705 398.52,276.312 400.752,276.808 402.984,277.195 405.216,277.472 407.448,277.638 409.68,277.693 411.912,277.638 414.144,277.472 416.376,277.195 418.608,276.808 420.84,276.312 423.072,275.705 425.304,274.99 427.536,274.167 429.768,273.236 432,272.199 434.232,271.057 436.464,269.81 438.696,268.46 440.928,267.009 443.16,265.458 445.392,263.807 447.624,262.06 449.856,260.217 452.088,258.281 454.32,256.253 456.552,254.136 458.784,251.931 461.016,249.64 463.248,247.267 465.48,244.812 467.712,242.28 469.944,239.671 472.176,236.99 474.408,234.237 476.64,231.417 478.872,228.532 481.104,225.584 483.336,222.577 485.568,219.514 487.8,216.397 490.032,213.229 492.264,210.016 494.496,206.757 496.728,203.458 498.96,200.122 501.192,196.751 503.424,193.349 505.656,189.92 507.888,186.466 510.12,182.992 512.352,179.5 514.584,175.995 516.816,172.479 519.048,168.957 521.28,165.43"/>
<polyline fill="none" stroke="#0000ff" stroke-width="2" stroke-linecap="butt" stroke-linejoin="miter" points="74.8799,165.43 77.1118,158.381 79.3438,151.36 81.5762,144.395 83.8081,137.512 86.04,130.739 88.272,124.104 90.5039,117.631 92.7358,111.347 94.9678,105.277 97.2002,99.4438 99.4321,93.8711 101.664,88.5811 103.896,83.5942 106.128,78.9302 108.36,74.6074 110.592,70.6436 112.824,67.0532 115.056,63.8516 117.288,61.0508 119.52,58.6616 121.752,56.6943 123.984,55.1558 126.216,54.0522 128.448,53.3887 130.68,53.167 132.912,53.3887 135.144,54.0522 137.376,55.1558 139.608,56.6943 141.84,58.6616 144.072,61.0508 146.304,63.8516 148.536,67.0532 150.768,70.6436 153,74.6074 155.232,78.9302 157.464,83.5942 159.696,88.5811 161.928,93.8711 164.16,99.4438 166.392,105.277 168.624,111.347 170.856,117.631 173.088,124.104 175.32,130.739 177.552,137.512 179.784,144.395 182.016,151.36 184.248,158.381 186.48,165.43 188.712,172.479 190.944,179.5 193.176,186.466 195.408,193.349 197.64,200.122 199.872,206.757 202.104,213.229 204.336,219.514 206.568,225.584 208.8,231.417 211.032,236.99 213.264,242.28 215.496,247.267 217.728,251.931 219.96,256.253 222.192,260.217 224.424,263.807 226.656,267.009 228.888,269.81 231.12,272.199 233.352,274.167 235.584,275.705 237.816,276.808 240.048,277.472 242.28,277.693 244.512,277.472 246.744,276.808 248.976,275.705 251.208,274.167 253.44,272.199 255.672,269.81 257.904,267.009 260.136,263.807 262.368,260.217 264.6,256.253 266.832,251.931 269.064,247.267 271.296,242.28 273.528,236.99 275.76,231.417 277.992,225.584 280.224,219.514 282.456,213.229 284.688,206.757 286.92,200.122 289.152,193.349 291.384,186.466 293.616,179.5 295.848,172.479 298.08,165.43 300.312,158.381 302.544,151.36 304.776,144.395 307.008,137.512 309.24,130.739 311.472,124.104 313.704,117.631 315.936,111.347 318.168,105.277 320.4,99.4438 322.632,93.8711 324.864,88.5811 327.096,83.5942 329.328,78.9302 331.56,74.6074 333.792,70.6436 336.024,67.0532 338.256,63.8516 340.488,61.0508 342.72,58.6616 344.952,56.6943 347.184,55.1558 349.416,54.0522 351.648,53.3887 353.88,53.167 356.112,53.3887 358.344,54.0522 360.576,55.1558 362.808,56.6943 365.04,58.6616 367.272,61.0508 369.504,63.8516 371.736,67.0532 373.968,70.6436 376.2,74.6074 378.432,78.9302 380.664,83.5942 382.896,88.5811 385.128,93.8711 387.36,99.4438 389.592,105.277 391.824,111.347 394.056,117.631 396.288,124.104 398.52,130.739 400.752,137.512 402.984,144.395 405.216,151.36 407.448,158.381 409.68,165.43 411.912,172.479 414.144,179.5 416.376,186.466 418.608,193.349 420.84,200.122 423.072,206.757 425.304,213.229 427.536,219.514 429.768,225.584 432,231.417 434.232,236.99 436.464,242.28 438.696,247.267 440.928,251.931 443.16,256.253 445.392,260.217 447.624,263.807 449.856,267.009 452.088,269.81 454.32,272.199 456.552,274.167 458.784,275.705 461.016,276.808 463.248,277.472 465.48,277.693 467.712,277.472 469.944,276.808 472.176,275.705 474.408,274.167 476.64,272.199 478.872,269.81 481.104,267.009 483.336,263.807 485.568,260.217 487.8,256.253 490.032,251.931 492.264,247.267 494.496,242.28 496.728,236.99 498.96,231.417 501.192,225.584 503.424,219.514 505.656,213.229 507.888,206.757 510.12,200.122 512.352,193.349 514.584,186.466 516.816,179.5 519.048,172.479 521.28,165.43"/>
<polyline fill="none" stroke="#ff00ff" stroke-width="2" stroke-linecap="butt" stroke-linejoin="miter" points="74.8799,165.43 77.1118,154.866 79.3438,144.395 81.5762,134.11 83.8081,124.104 86.04,114.464 88.272,105.277 90.5039,96.6235 92.7358,88.5811 94.9678,81.2207 97.2002,74.6074 99.4321,68.8008 101.664,63.8516 103.896,59.8042 106.128,56.6943 108.36,54.5493 110.592,53.3887 112.824,53.2227 115.056,54.0522 117.288,55.8711 119.52,58.6616 121.752,62.4004 123.984,67.0532 126.216,72.5796 128.448,78.9302 130.68,86.0483 132.912,93.8711 135.144,102.329 137.376,111.347 139.608,120.845 141.84,130.739 144.072,140.941 146.304,151.36 148.536,161.904 150.768,172.479 153,182.992 155.232,193.349 157.464,203.458 159.696,213.229 161.928,222.577 164.16,231.417 166.392,239.671 168.624,247.267 170.856,254.136 173.088,260.217 175.32,265.458 177.552,269.81 179.784,273.236 182.016,275.705 184.248,277.195 186.48,277.693 188.712,277.195 190.944,275.705 193.176,273.236 195.408,269.81 197.64,265.458 199.872,260.217 202.104,254.136 204.336,247.267 206.568,239.671 208.8,231.417 211.032,222.577 213.264,213.229 215.496,203.458 217.728,193.349 219.96,182.992 222.192,172.479 224.424,161.904 226.656,151.36 228.888,140.941 231.12,130.739 233.352,120.845 235.584,111.347 237.816,102.329 240.048,93.8711 242.28,86.0483 244.512,78.9302 246.744,72.5796 248.976,67.0532 251.208,62.4004 253.44,58.6616 255.672,55.8711 257.904,54.0522 260.136,53.2227 262.368,53.3887 264.6,54.5493 266.832,56.6943 269.064,59.8042 271.296,63.8516 273.528,68.8008 275.76,74.6074 277.992,81.2207 280.224,88.5811 282.456,96.6235 284.688,105.277 286.92,114.464 289.152,124.104 291.384,134.11 293.616,144.395 295.848,154.866 298.08,165.43 300.312,175.995 302.544,186.466 304.776,196.751 307.008,206.757 309.24,216.397 311.472,225.584 313.704,234.237 315.936,242.28 318.168,249.64 320.4,256.253 322.632,262.06 324.864,267.009 327.096,271.057 329.328,274.167 331.56,276.312 333.792,277.472 336.024,277.638 338.256,276.808 340.488,274.99 342.72,272.199 344.952,268.46 347.184,263.807 349.416,258.281 351.648,251.931 353.88,244.812 356.112,236.99 358.344,228.532 360.576,219.514 362.808,210.016 365.04,200.122 367.272,189.92 369.504,179.5 371.736,168.957 373.968,158.381 376.2,147.869 378.432,137.512 380.664,127.403 382.896,117.631 385.128,108.284 387.36,99.4438 389.592,91.1895 391.824,83.5942 394.056,76.7251 396.288,70.6436 398.52,65.4033 400.752,61.0508 402.984,57.625 405.216,55.1558 407.448,53.6655 409.68,53.167 411.912,53.6655 414.144,55.1558 416.376,57.625 418.608,61.0508 420.84,65.4033 423.072,70.6436 425.304,76.7251 427.536,83.5942 429.768,91.1895 432,99.4438 434.232,108.284 436.464,117.631 438.696,127.403 440.928,137.512 443.16,147.869 445.392,158.381 447.624,168.957 449.856,179.5 452.088,189.92 454.32,200.122 456.552,210.016 458.784,219.514 461.016,228.532 463.248,236.99 465.48,244.812 467.712,251.931 469.944,258.281 472.176,263.807 474.408,268.46 476.64,272.199 478.872,274.99 481.104,276.808 483.336,277.638 485.568,277.472 487.8,276.312 490.032,274.167 492.264,271.057 494.496,267.009 496.728,262.06 498.96,256.253 501.192,249.64 503.424,242.28 505.656,234.237 507.888,225.584 510.12,216.397 512.352,206.757 514.584,196.751 516.816,186.466 519.048,175.995 521.28,165.43"/>
<polyline fill="none" stroke="#00ffff" stroke-width="2" stroke-linecap="butt" stroke-linejoin="miter" points="74.8799,165.43 77.1118,151.36 79.3438,137.512 81.5762,124.104 83.8081,111.347 86.04,99.4438 88.272,88.5811 90.5039,78.9302 92.7358,70.6436 94.9678,63.8516 97.2002,58.6616 99.4321,55.1558 101.664,53.3887 103.896,53.3887 106.128,55.1558 108.36,58.6616 110.592,63.8516 112.824,70.6436 115.056,78.9302 117.288,88.5811 119.52,99.4438 121.752,111.347 123.984,124.104 126.216,137.512 128.448,151.36 130.68,165.43 132.912,179.5 135.144,193.349 137.376,206.757 139.608,219.514 141.84,231.417 144.072,242.28 146.304,251.931 148.536,260.217 150.768,267.009 153,272.199 155.232,275.705 157.464,277.472 159.696,277.472 161.928,275.705 164.16,272.199 166.392,267.009 168.624,260.217 170.856,251.931 173.088,242.28 175.32,231.417 177.552,219.514 179.784,206.757 182.016,193.349 184.248,179.5 186.48,165.43 188.712,151.36 190.944,137.512 193.176,124.104 195.408,111.347 197.64,99.4438 199.872,88.5811 202.104,78.9302 204.336,70.6436 206.568,63.8516 208.8,58.6616 211.032,55.1558 213.264,53.3887 215.496,53.3887 217.728,55.1558 219.96,58.6616 222.192,63.8516 224.424,70.6436 226.656,78.9302 228.888,88.5811 231.12,99.4438 233.352,111.347 235.584,124.104 237.816,137.512 240.048,151.36 242.28,165.43 244.512,179.5 246.744,193.349 248.976,206.757 251.208,219.514 253.44,231.417 255.672,242.28 257.904,251.931 260.136,260.217 262.368,267.009 264.6,272.199 266.832,275.705 269.064,277.472 271.296,277.472 273.528,275.705 275.76,272.199 277.992,267.009 280.224,260.217 282.456,251.931 284.688,242.28 286.92,231.417 289.152,219.514 291.384,206.757 293.616,193.349 295.848,179.5 298.08,165.43 300.312,151.36 302.544,137.512 304.776,124.104 307.008,111.347 309.24,99.4438 311.472,88.5811 313.704,78.9302 315.936,70.6436 318.168,63.8516 320.4,58.6616 322.632,55.1558 324.864,53.3887 327.096,53.3887 329.328,55.1558 331.56,58.6616 333.792,63.8516 336.024,70.6436 338.256,78.9302 340.488,88.5811 342.72,99.4438 344.952,111.347 347.184,124.104 349.416,137.512 351.648,151.36 353.88,165.43 356.112,179.5 358.344,193.349 360.576,206.757 362.808,219.514 365.04,231.417 367.272,242.28 369.504,251.931 371.736,260.217 373.968,267.009 376.2,272.199 378.432,275.705 380.664,277.472 382.896,277.472 385.128,275.705 387.36,272.199 389.592,267.009 391.824,260.217 394.056,251.931 396.288,242.28 398.52,231.417 400.752,219.514 402.984,206.757 405.216,193.349 407.448,179.5 409.68,165.43 411.912,151.36 414.144,137.512 416.376,124.104 418.608,111.347 420.84,99.4438 423.072,88.5811 425.304,78.9302 427.536,70.6436 429.768,63.8516 432,58.6616 434.232,55.1558 436.464,53.3887 438.696,53.3887 440.928,55.1558 443.16,58.6616 445.392,63.8516 447.624,70.6436 449.856,78.9302 452.088,88.5811 454.32,99.4438 456.552,111.347 458.784,124.104 461.016,137.512 463.248,151.36 465.48,165.43 467.712,179.5 469.944,193.349 472.176,206.757 474.408,219.514 476.64,231.417 478.872,242.28 481.104,251.931 483.336,260.217 485.568,267.009 487.8,272.199 490.032,275.705 492.264,277.472 494.496,277.472 496.728,275.705 498.96,272.199 501.192,267.009 503.424,260.217 505.656,251.931 507.888,242.28 510.12,231.417 512.352,219.514 514.584,206.757 516.816,193.349 519.048,179.5 521.28,165.43"/>
<polyline fill="none" stroke="#000000" stroke-width="2" stroke-linecap="butt" stroke-linejoin="miter" points="74.8799,165.43 77.1118,147.869 79.3438,130.739 81.5762,114.464 83.8081,99.4438 86.04,86.0483 88.272,74.6074 90.5039,65.4033 92.7358,58.6616 94.9678,54.5493 97.2002,53.167 99.4321,54.5493 101.664,58.6616 103.896,65.4033 106.128,74.6074 108.36,86.0483 110.592,99.4438 112.824,114.464 115.056,130.739 117.288,147.869 119.52,165.43 121.752,182.992 123.984,200.122 126.216,216.397 128.448,231.417 130.68,244.812 132.912,256.253 135.144,265.458 137.376,272.199 139.608,276.312 141.84,277.693 144.072,276.312 146.304,272.199 148.536,265.458 150.768,256.253 153,244.812 155.232,231.417 157.464,216.397 159.696,200.122 161.928,182.992 164.16,165.43 166.392,147.869 168.624,130.739 170.856,114.464 173.088,99.4438 175.32,86.0483 177.552,74.6074 179.784,65.4033 182.016,58.6616 184.248,54.5493 186.48,53.167 188.712,54.5493 190.944,58.6616 193.176,65.4033 195.408,74.6074 197.64,86.0483 199.872,99.4438 202.104,114.464 204.336,130.739 206.568,147.869 208.8,165.43 211.032,182.992 213.264,200.122 215.496,216.397 217.728,231.417 219.96,244.812 222.192,256.253 224.424,265.458 226.656,272.199 228.888,276.312 231.12,277.693 233.352,276.312 235.584,272.199 237.816,265.458 240.048,256.253 242.28,244.812 244.512,231.417 246.744,216.397 248.976,200.122 251.208,182.992 253.44,165.43 255.672,147.869 257.904,130.739 260.136,114.464 262.368,99.4438 264.6,86.0483 266.832,74.6074 269.064,65.4033 271.296,58.6616 273.528,54.5493 275.76,53.167 277.992,54.5493 280.224,58.6616 282.456,65.4033 284.688,74.6074 286.92,86.0483 289.152,99.4438 291.384,114.464 293.616,130.739 295.848,147.869 298.08,165.43 300.312,182.992 302.544,200.122 304.776,216.397 307.008,231.417 309.24,244.812 311.472,256.253 313.704,265.458 315.936,272.199 318.168,276.312 320.4,277.693 322.632,276.312 324.864,272.199 327.096,265.458 329.328,256.253 331.56,244.812 333.792,231.417 336.024,216.397 338.256,200.122 340.488,182.992 342.72,165.43 344.952,147.869 347.184,130.739 349.416,114.464 351.648,99.4438 353.88,86.0483 356.112,74.6074 358.344,65.4033 360.576,58.6616 362.808,54.5493 365.04,53.167 367.272,54.5493 369.504,58.6616 371.736,65.4033 373.968,74.6074 376.2,86.0483 378.432,99.4438 380.664,114.464 382.896,130.739 385.128,147.869 387.36,165.43 389.592,182.992 391.824,200.122 394.056,216.397 396.288,231.417 398.52,244.812 400.752,256.253 402.984,265.458 405.216,272.199 407.448,276.312 409.68,277.693 411.912,276.312 414.144,272.199 416.376,265.458 418.608,256.253 420.84,244.812 423.072,231.417 425.304,216.397 427.536,200.122 429.768,182.992 432,165.43 434.232,147.869 436.464,130.739 438.696,114.464 440.928,99.4438 443.16,86.0483 445.392,74.6074 447.624,65.4033 449.856,58.6616 452.088,54.5493 454.32,53.167 456.552,54.5493 458.784,58.6616 461.016,65.4033 463.248,74.6074 465.48,86.0483 467.712,99.4438 469.944,114.464 472.176,130.739 474.408,147.869 476.64,165.43 478.872,182.992 481.104,200.122 483.336,216.397 485.568,231.417 487.8,244.812 490.032,256.253 492.264,265.458 494.496,272.199 496.728,276.312 498.96,277.693 501.192,276.312 503.424,272.199 505.656,265.458 507.888,256.253 510.12,244.812 512.352,231.417 514.584,216.397 516.816,200.122 519.048,182.992 521.28,165.43"/>
</g>
<clipPath id="cp00576432">
  <polygon points="0,432 576,432 576,0 0,0"/>
</clipPath>
<g clip-path="url(#cp00576432)">
<polygon fill="#ffffff" shape-rendering="crispEdges" points="204.471,429.255 391.689,429.255 391.689,301.702"/>
<polygon fill="#ffffff" shape-rendering="crispEdges" points="204.471,429.255 391.689,301.702 204.471,301.702"/>
<polyline fill="none" stroke="#262626" stroke-width="0.5" stroke-linecap="butt" stroke-linejoin="miter" stroke-dasharray="16,0" points="204.471,429.255 391.689,429.255"/>
<polyline fill="none" stroke="#262626" stroke-width="0.5" stroke-linecap="butt" stroke-linejoin="miter" stroke-dasharray="16,0" points="204.471,301.702 391.689,301.702"/>
<polyline fill="none" stroke="#262626" stroke-width="0.5" stroke-linecap="butt" stroke-linejoin="miter" stroke-dasharray="16,0" points="204.471,429.255 204.471,301.702"/>
<polyline fill="none" stroke="#262626" stroke-width="0.5" stroke-linecap="butt" stroke-linejoin="miter" stroke-dasharray="16,0" points="391.689,429.255 391.689,301.702"/>
<text fill="#000000" x="230.545" y="314.331" font-size="10" text-anchor="start" dy="0" font-family="Helvetica">e</text>
<text fill="#000000" x="236.545" y="320.331" font-size="8" text-anchor="start" dy="0" font-family="Helvetica">s</text>
<text fill="#000000" x="240.545" y="314.331" font-size="10" text-anchor="start" dy="0" font-family="Helvetica">0(t) = t*0 + 1,     T = [0, 2]</text>
<text fill="#000000" x="230.545" y="335.59" font-size="10" text-anchor="start" dy="0" font-family="Helvetica">e</text>
<text fill="#000000" x="236.545" y="341.59" font-size="8" text-anchor="start" dy="0" font-family="Helvetica">s</text>
<text fill="#000000" x="240.545" y="335.59" font-size="10" text-anchor="start" dy="0" font-family="Helvetica">1(t) = sin(t*pi*1), T = [0, 2]</text>
<text fill="#000000" x="230.545" y="356.849" font-size="10" text-anchor="start" dy="0" font-family="Helvetica">e</text>
<text fill="#000000" x="236.545" y="362.849" font-size="8" text-anchor="start" dy="0" font-family="Helvetica">s</text>
<text fill="#000000" x="240.545" y="356.849" font-size="10" text-anchor="start" dy="0" font-family="Helvetica">2(t) = sin(t*pi*2), T = [0, 1]</text>
<text fill="#000000" x="230.545" y="378.108" font-size="10" text-anchor="start" dy="0" font-family="Helvetica">e</text>
<text fill="#000000" x="236.545" y="384.108" font-size="8" text-anchor="start" dy="0" font-family="Helvetica">s</text>
<text fill="#000000" x="240.545" y="378.108" font-size="10" text-anchor="start" dy="0" font-family="Helvetica">3(t) = sin(t*pi*3), T = [0, 2/3]</text>
<text fill="#000000" x="230.545" y="399.367" font-size="10" text-anchor="start" dy="0" font-family="Helvetica">e</text>
<text fill="#000000" x="236.545" y="405.367" font-size="8" text-anchor="start" dy="0" font-family="Helvetica">s</text>
<text fill="#000000" x="240.545" y="399.367" font-size="10" text-anchor="start" dy="0" font-family="Helvetica">4(t) = sin(t*pi*4), T = [0, 1/2]</text>
<text fill="#000000" x="230.545" y="420.626" font-size="10" text-anchor="start" dy="0" font-family="Helvetica">e</text>
<text fill="#000000" x="236.545" y="426.626" font-size="8" text-anchor="start" dy="0" font-family="Helvetica">s</text>
<text fill="#000000" x="240.545" y="420.626" font-size="10" text-anchor="start" dy="0" font-family="Helvetica">5(t) = sin(t*pi*5), T = [0, 2/5]</text>
<polyline fill="none" stroke="#ff0000" stroke-width="2" stroke-linecap="butt" stroke-linejoin="miter" points="207.215,312.331 227.8,312.331"/>
<polyline fill="none" stroke="#00ff00" stroke-width="2" stroke-linecap="butt" stroke-linejoin="miter" points="207.215,333.59 227.8,333.59"/>
<polyline fill="none" stroke="#0000ff" stroke-width="2" stroke-linecap="butt" stroke-linejoin="miter" points="207.215,354.849 227.8,354.849"/>
<polyline fill="none" stroke="#ff00ff" stroke-width="2" stroke-linecap="butt" stroke-linejoin="miter" points="207.215,376.108 227.8,376.108"/>
<polyline fill="none" stroke="#00ffff" stroke-width="2" stroke-linecap="butt" stroke-linejoin="miter" points="207.215,397.367 227.8,397.367"/>
<polyline fill="none" stroke="#000000" stroke-width="2" stroke-linecap="butt" stroke-linejoin="miter" points="207.215,418.626 227.8,418.626"/>
</g>
</g>
</svg>
