<?xml version="1.0" encoding="UTF-8" standalone="no"?>
<svg xmlns="http://www.w3.org/2000/svg"
     xmlns:xlink="http://www.w3.org/1999/xlink"
     width="576px" height="432px" viewBox="0 0 576 432">
<title>gl2ps_renderer figure</title>
<desc>
Creator: GL2PS 1.4.0, (C) 1999-2017 C. Geuzaine
For: Octave
CreationDate: Tue Dec  3 00:32:03 2019
</desc>
<defs>
</defs>
<polygon fill="#ffffff" points="0,0 576,0 576,432 0,432"/>
<g>
<polygon fill="#ffffff" points="0,432 576,432 576,0 0,0" shape-rendering="crispEdges"/>
<clipPath id="cp00576432">
  <polygon points="0,432 576,432 576,0 0,0"/>
</clipPath>
<g clip-path="url(#cp00576432)">
<polygon fill="#ffffff" shape-rendering="crispEdges" points="74.8799,362.729 521.28,362.729 521.28,53.1675"/>
<polygon fill="#ffffff" shape-rendering="crispEdges" points="74.8799,362.729 521.28,53.1675 74.8799,53.1675"/>
<polyline fill="none" stroke="#262626" stroke-width="0.5" stroke-linecap="butt" stroke-linejoin="miter" stroke-opacity="0.15" stroke-dasharray="16,0" points="74.8799,362.729 74.8799,53.1675"/>
<polyline fill="none" stroke="#262626" stroke-width="0.5" stroke-linecap="butt" stroke-linejoin="miter" stroke-opacity="0.15" stroke-dasharray="16,0" points="149.28,362.729 149.28,53.1675"/>
<polyline fill="none" stroke="#262626" stroke-width="0.5" stroke-linecap="butt" stroke-linejoin="miter" stroke-opacity="0.15" stroke-dasharray="16,0" points="223.68,362.729 223.68,53.1675"/>
<polyline fill="none" stroke="#262626" stroke-width="0.5" stroke-linecap="butt" stroke-linejoin="miter" stroke-opacity="0.15" stroke-dasharray="16,0" points="298.08,362.729 298.08,53.1675"/>
<polyline fill="none" stroke="#262626" stroke-width="0.5" stroke-linecap="butt" stroke-linejoin="miter" stroke-opacity="0.15" stroke-dasharray="16,0" points="372.48,362.729 372.48,53.1675"/>
<polyline fill="none" stroke="#262626" stroke-width="0.5" stroke-linecap="butt" stroke-linejoin="miter" stroke-opacity="0.15" stroke-dasharray="16,0" points="446.88,362.729 446.88,53.1675"/>
<polyline fill="none" stroke="#262626" stroke-width="0.5" stroke-linecap="butt" stroke-linejoin="miter" stroke-opacity="0.15" stroke-dasharray="16,0" points="521.28,362.729 521.28,53.1675"/>
<polyline fill="none" stroke="#262626" stroke-width="0.5" stroke-linecap="butt" stroke-linejoin="miter" points="74.8799,362.729 74.8799,358.271"/>
<polyline fill="none" stroke="#262626" stroke-width="0.5" stroke-linecap="butt" stroke-linejoin="miter" points="149.28,362.729 149.28,358.271"/>
<polyline fill="none" stroke="#262626" stroke-width="0.5" stroke-linecap="butt" stroke-linejoin="miter" points="223.68,362.729 223.68,358.271"/>
<polyline fill="none" stroke="#262626" stroke-width="0.5" stroke-linecap="butt" stroke-linejoin="miter" points="298.08,362.729 298.08,358.271"/>
<polyline fill="none" stroke="#262626" stroke-width="0.5" stroke-linecap="butt" stroke-linejoin="miter" points="372.48,362.729 372.48,358.271"/>
<polyline fill="none" stroke="#262626" stroke-width="0.5" stroke-linecap="butt" stroke-linejoin="miter" points="446.88,362.729 446.88,358.271"/>
<polyline fill="none" stroke="#262626" stroke-width="0.5" stroke-linecap="butt" stroke-linejoin="miter" points="521.28,362.729 521.28,358.271"/>
<text fill="#262626" x="74.8799" y="367.722" font-size="10" text-anchor="middle" dy="10" font-family="Helvetica">-2</text>
<text fill="#262626" x="149.28" y="367.722" font-size="10" text-anchor="middle" dy="10" font-family="Helvetica">-1</text>
<text fill="#262626" x="223.68" y="367.722" font-size="10" text-anchor="middle" dy="10" font-family="Helvetica">0</text>
<text fill="#262626" x="298.08" y="367.722" font-size="10" text-anchor="middle" dy="10" font-family="Helvetica">1</text>
<text fill="#262626" x="372.48" y="367.722" font-size="10" text-anchor="middle" dy="10" font-family="Helvetica">2</text>
<text fill="#262626" x="446.88" y="367.722" font-size="10" text-anchor="middle" dy="10" font-family="Helvetica">3</text>
<text fill="#262626" x="521.28" y="367.722" font-size="10" text-anchor="middle" dy="10" font-family="Helvetica">4</text>
<polyline fill="none" stroke="#262626" stroke-width="0.5" stroke-linecap="butt" stroke-linejoin="miter" stroke-opacity="0.15" stroke-dasharray="16,0" points="74.8799,362.729 521.28,362.729"/>
<polyline fill="none" stroke="#262626" stroke-width="0.5" stroke-linecap="butt" stroke-linejoin="miter" stroke-opacity="0.15" stroke-dasharray="16,0" points="74.8799,300.817 521.28,300.817"/>
<polyline fill="none" stroke="#262626" stroke-width="0.5" stroke-linecap="butt" stroke-linejoin="miter" stroke-opacity="0.15" stroke-dasharray="16,0" points="74.8799,238.904 521.28,238.904"/>
<polyline fill="none" stroke="#262626" stroke-width="0.5" stroke-linecap="butt" stroke-linejoin="miter" stroke-opacity="0.15" stroke-dasharray="16,0" points="74.8799,176.992 521.28,176.992"/>
<polyline fill="none" stroke="#262626" stroke-width="0.5" stroke-linecap="butt" stroke-linejoin="miter" stroke-opacity="0.15" stroke-dasharray="16,0" points="74.8799,115.08 521.28,115.08"/>
<polyline fill="none" stroke="#262626" stroke-width="0.5" stroke-linecap="butt" stroke-linejoin="miter" stroke-opacity="0.15" stroke-dasharray="16,0" points="74.8799,53.1675 521.28,53.1675"/>
<polyline fill="none" stroke="#262626" stroke-width="0.5" stroke-linecap="butt" stroke-linejoin="miter" points="74.8799,362.729 79.3481,362.729"/>
<polyline fill="none" stroke="#262626" stroke-width="0.5" stroke-linecap="butt" stroke-linejoin="miter" points="74.8799,300.817 79.3481,300.817"/>
<polyline fill="none" stroke="#262626" stroke-width="0.5" stroke-linecap="butt" stroke-linejoin="miter" points="74.8799,238.904 79.3481,238.904"/>
<polyline fill="none" stroke="#262626" stroke-width="0.5" stroke-linecap="butt" stroke-linejoin="miter" points="74.8799,176.992 79.3481,176.992"/>
<polyline fill="none" stroke="#262626" stroke-width="0.5" stroke-linecap="butt" stroke-linejoin="miter" points="74.8799,115.08 79.3481,115.08"/>
<polyline fill="none" stroke="#262626" stroke-width="0.5" stroke-linecap="butt" stroke-linejoin="miter" points="74.8799,53.1675 79.3481,53.1675"/>
<text fill="#262626" x="69.8755" y="362.729" font-size="10" text-anchor="end" dy="5" font-family="Helvetica">0</text>
<text fill="#262626" x="69.8755" y="300.817" font-size="10" text-anchor="end" dy="5" font-family="Helvetica">0.2</text>
<text fill="#262626" x="69.8755" y="238.904" font-size="10" text-anchor="end" dy="5" font-family="Helvetica">0.4</text>
<text fill="#262626" x="69.8755" y="176.992" font-size="10" text-anchor="end" dy="5" font-family="Helvetica">0.6</text>
<text fill="#262626" x="69.8755" y="115.08" font-size="10" text-anchor="end" dy="5" font-family="Helvetica">0.8</text>
<text fill="#262626" x="69.8755" y="53.1675" font-size="10" text-anchor="end" dy="5" font-family="Helvetica">1</text>
<polyline fill="none" stroke="#262626" stroke-width="0.5" stroke-linecap="butt" stroke-linejoin="miter" stroke-dasharray="16,0" points="74.8799,362.729 521.28,362.729"/>
<polyline fill="none" stroke="#262626" stroke-width="0.5" stroke-linecap="butt" stroke-linejoin="miter" stroke-dasharray="16,0" points="74.8799,362.729 74.8799,53.1675"/>
<polyline fill="none" stroke="#000000" stroke-width="2" stroke-linecap="butt" stroke-linejoin="miter" points="74.8799,63.5288 75.624,63.7144 76.3682,64.269 77.1118,65.186 77.856,66.4556 78.6001,68.063 79.3438,69.9897 80.0879,72.2158 80.832,74.7163 81.5762,77.4653 82.3198,80.4341 83.064,83.5938 83.8081,86.9131 84.5518,90.3623 85.2959,93.9111 86.04,97.5298 86.7842,101.191 87.5278,104.868 88.272,108.538 89.0161,112.18 89.7598,115.774 90.5039,119.308 91.248,122.768 91.9922,126.146 92.7358,129.437 93.48,132.64 94.2241,135.755 94.9678,138.788 95.7119,141.743 96.4561,144.631 97.2002,147.462 97.9438,150.248 98.688,153.002 99.4321,155.738 100.176,158.47 100.92,161.21 101.664,163.972 102.408,166.766 103.152,169.604 103.896,172.492 104.64,175.438 105.384,178.446 106.128,181.517 106.872,184.652 107.616,187.849 108.36,191.102 109.104,194.406 109.848,197.752 110.592,201.132 111.336,204.534 112.08,207.948 112.824,211.362 113.568,214.765 114.312,218.145 115.056,221.491 115.8,224.794 116.544,228.048 117.288,231.244 118.032,234.379 118.776,237.451 119.52,240.458 120.264,243.404 121.008,246.293 121.752,249.13 122.496,251.925 123.24,254.687 123.984,257.427 124.728,260.158 125.472,262.894 126.216,265.648 126.96,268.435 127.704,271.266 128.448,274.153 129.192,277.109 129.936,280.141 130.68,283.257 131.424,286.459 132.168,289.751 132.912,293.129 133.656,296.589 134.4,300.122 135.144,303.717 135.888,307.358 136.632,311.028 137.376,314.706 138.12,318.367 138.864,321.986 139.608,325.534 140.352,328.983 141.096,332.303 141.84,335.462 142.584,338.431 143.328,341.18 144.072,343.681 144.816,345.907 145.56,347.833 146.304,349.441 147.048,350.71 147.792,351.627 148.536,352.182 149.28,352.368 150.024,352.182 150.768,351.627 151.512,350.71 152.256,349.441 153,347.833 153.744,345.907 154.488,343.681 155.232,341.18 155.976,338.431 156.72,335.462 157.464,332.303 158.208,328.983 158.952,325.534 159.696,321.986 160.44,318.367 161.184,314.706 161.928,311.028 162.672,307.358 163.416,303.717 164.16,300.122 164.904,296.589 165.648,293.129 166.392,289.751 167.136,286.459 167.88,283.257 168.624,280.141 169.368,277.109 170.112,274.153 170.856,271.266 171.6,268.435 172.344,265.648 173.088,262.894 173.832,260.158 174.576,257.427 175.32,254.687 176.064,251.925 176.808,249.13 177.552,246.293 178.296,243.404 179.04,240.458 179.784,237.451 180.528,234.379 181.272,231.244 182.016,228.048 182.76,224.794 183.504,221.491 184.248,218.145 184.992,214.765 185.736,211.362 186.48,207.948 187.224,204.534 187.968,201.132 188.712,197.752 189.456,194.406 190.2,191.102 190.944,187.849 191.688,184.652 192.432,181.517 193.176,178.446 193.92,175.438 194.664,172.492 195.408,169.604 196.152,166.766 196.896,163.972 197.64,161.21 198.384,158.47 199.128,155.738 199.872,153.002 200.616,150.248 201.36,147.462 202.104,144.631 202.848,141.743 203.592,138.788 204.336,135.755 205.08,132.64 205.824,129.437 206.568,126.146 207.312,122.768 208.056,119.308 208.8,115.774 209.544,112.18 210.288,108.538 211.032,104.868 211.776,101.191 212.52,97.5298 213.264,93.9111 214.008,90.3623 214.752,86.9131 215.496,83.5938 216.24,80.4341 216.984,77.4653 217.728,74.7163 218.472,72.2158 219.216,69.9897 219.96,68.063 220.704,66.4556 221.448,65.186 222.192,64.269 222.936,63.7144 223.68,63.5288 224.424,63.7144 225.168,64.269 225.912,65.186 226.656,66.4556 227.4,68.063 228.144,69.9897 228.888,72.2158 229.632,74.7163 230.376,77.4653 231.12,80.4341 231.864,83.5938 232.608,86.9131 233.352,90.3623 234.096,93.9111 234.84,97.5298 235.584,101.191 236.328,104.868 237.072,108.538 237.816,112.18 238.56,115.774 239.304,119.308 240.048,122.768 240.792,126.146 241.536,129.437 242.28,132.64 243.024,135.755 243.768,138.788 244.512,141.743 245.256,144.631 246,147.462 246.744,150.248 247.488,153.002 248.232,155.738 248.976,158.47 249.72,161.21 250.464,163.972 251.208,166.766 251.952,169.604 252.696,172.492 253.44,175.438 254.184,178.446 254.928,181.517 255.672,184.652 256.416,187.849 257.16,191.102 257.904,194.406 258.648,197.752 259.392,201.132 260.136,204.534 260.88,207.948 261.624,211.362 262.368,214.765 263.112,218.145 263.856,221.491 264.6,224.794 265.344,228.048 266.088,231.244 266.832,234.379 267.576,237.451 268.32,240.458 269.064,243.404 269.808,246.293 270.552,249.13 271.296,251.925 272.04,254.687 272.784,257.427 273.528,260.158 274.272,262.894 275.016,265.648 275.76,268.435 276.504,271.266 277.248,274.153 277.992,277.109 278.736,280.141 279.48,283.257 280.224,286.459 280.968,289.751 281.712,293.129 282.456,296.589 283.2,300.122 283.944,303.717 284.688,307.358 285.432,311.028 286.176,314.706 286.92,318.367 287.664,321.986 288.408,325.534 289.152,328.983 289.896,332.303 290.64,335.462 291.384,338.431 292.128,341.18 292.872,343.681 293.616,345.907 294.36,347.833 295.104,349.441 295.848,350.71 296.592,351.627 297.336,352.182 298.08,352.368 298.824,352.182 299.568,351.627 300.312,350.71 301.056,349.441 301.8,347.833 302.544,345.907 303.288,343.681 304.032,341.18 304.776,338.431 305.52,335.462 306.264,332.303 307.008,328.983 307.752,325.534 308.496,321.986 309.24,318.367 309.984,314.706 310.728,311.028 311.472,307.358 312.216,303.717 312.96,300.122 313.704,296.589 314.448,293.129 315.192,289.751 315.936,286.459 316.68,283.257 317.424,280.141 318.168,277.109 318.912,274.153 319.656,271.266 320.4,268.435 321.144,265.648 321.888,262.894 322.632,260.158 323.376,257.427 324.12,254.687 324.864,251.925 325.608,249.13 326.352,246.293 327.096,243.404 327.84,240.458 328.584,237.451 329.328,234.379 330.072,231.244 330.816,228.048 331.56,224.794 332.304,221.491 333.048,218.145 333.792,214.765 334.536,211.362 335.28,207.948 336.024,204.534 336.768,201.132 337.512,197.752 338.256,194.406 339,191.102 339.744,187.849 340.488,184.652 341.232,181.517 341.976,178.446 342.72,175.438 343.464,172.492 344.208,169.604 344.952,166.766 345.696,163.972 346.44,161.21 347.184,158.47 347.928,155.738 348.672,153.002 349.416,150.248 350.16,147.462 350.904,144.631 351.648,141.743 352.392,138.788 353.136,135.755 353.88,132.64 354.624,129.437 355.368,126.146 356.112,122.768 356.856,119.308 357.6,115.774 358.344,112.18 359.088,108.538 359.832,104.868 360.576,101.191 361.32,97.5298 362.064,93.9111 362.808,90.3623 363.552,86.9131 364.296,83.5938 365.04,80.4341 365.784,77.4653 366.528,74.7163 367.272,72.2158 368.016,69.9897 368.76,68.063 369.504,66.4556 370.248,65.186 370.992,64.269 371.736,63.7144 372.48,63.5288 373.224,63.7144 373.968,64.269 374.712,65.186 375.456,66.4556 376.2,68.063 376.944,69.9897 377.688,72.2158 378.432,74.7163 379.176,77.4653 379.92,80.4341 380.664,83.5938 381.408,86.9131 382.152,90.3623 382.896,93.9111 383.64,97.5298 384.384,101.191 385.128,104.868 385.872,108.538 386.616,112.18 387.36,115.774 388.104,119.308 388.848,122.768 389.592,126.146 390.336,129.437 391.08,132.64 391.824,135.755 392.568,138.788 393.312,141.743 394.056,144.631 394.8,147.462 395.544,150.248 396.288,153.002 397.032,155.738 397.776,158.47 398.52,161.21 399.264,163.972 400.008,166.766 400.752,169.604 401.496,172.492 402.24,175.438 402.984,178.446 403.728,181.517 404.472,184.652 405.216,187.849 405.96,191.102 406.704,194.406 407.448,197.752 408.192,201.132 408.936,204.534 409.68,207.948 410.424,211.362 411.168,214.765 411.912,218.145 412.656,221.491 413.4,224.794 414.144,228.048 414.888,231.244 415.632,234.379 416.376,237.451 417.12,240.458 417.864,243.404 418.608,246.293 419.352,249.13 420.096,251.925 420.84,254.687 421.584,257.427 422.328,260.158 423.072,262.894 423.816,265.648 424.56,268.435 425.304,271.266 426.048,274.153 426.792,277.109 427.536,280.141 428.28,283.257 429.024,286.459 429.768,289.751 430.512,293.129 431.256,296.589 432,300.122 432.744,303.717 433.488,307.358 434.232,311.028 434.976,314.706 435.72,318.367 436.464,321.986 437.208,325.534 437.952,328.983 438.696,332.303 439.44,335.462 440.184,338.431 440.928,341.18 441.672,343.681 442.416,345.907 443.16,347.833 443.904,349.441 444.648,350.71 445.392,351.627 446.136,352.182 446.88,352.368 447.624,352.182 448.368,351.627 449.112,350.71 449.856,349.441 450.6,347.833 451.344,345.907 452.088,343.681 452.832,341.18 453.576,338.431 454.32,335.462 455.064,332.303 455.808,328.983 456.552,325.534 457.296,321.986 458.04,318.367 458.784,314.706 459.528,311.028 460.272,307.358 461.016,303.717 461.76,300.122 462.504,296.589 463.248,293.129 463.992,289.751 464.736,286.459 465.48,283.257 466.224,280.141 466.968,277.109 467.712,274.153 468.456,271.266 469.2,268.435 469.944,265.648 470.688,262.894 471.432,260.158 472.176,257.427 472.92,254.687 473.664,251.925 474.408,249.13 475.152,246.293 475.896,243.404 476.64,240.458 477.384,237.451 478.128,234.379 478.872,231.244 479.616,228.048 480.36,224.794 481.104,221.491 481.848,218.145 482.592,214.765 483.336,211.362 484.08,207.948 484.824,204.534 485.568,201.132 486.312,197.752 487.056,194.406 487.8,191.102 488.544,187.849 489.288,184.652 490.032,181.517 490.776,178.446 491.52,175.438 492.264,172.492 493.008,169.604 493.752,166.766 494.496,163.972 495.24,161.21 495.984,158.47 496.728,155.738 497.472,153.002 498.216,150.248 498.96,147.462 499.704,144.631 500.448,141.743 501.192,138.788 501.936,135.755 502.68,132.64 503.424,129.437 504.168,126.146 504.912,122.768 505.656,119.308 506.4,115.774 507.144,112.18 507.888,108.538 508.632,104.868 509.376,101.191 510.12,97.5298 510.864,93.9111 511.608,90.3623 512.352,86.9131 513.096,83.5938 513.84,80.4341 514.584,77.4653 515.328,74.7163 516.072,72.2158 516.816,69.9897 517.56,68.063 518.304,66.4556 519.048,65.186 519.792,64.269 520.536,63.7144 521.28,63.5288"/>
<polyline fill="none" stroke="#ff0000" stroke-width="4" stroke-linecap="butt" stroke-linejoin="miter" points="223.68,53.1675 224.424,56.2627 225.168,59.3584 225.912,62.4541 226.656,65.5498 227.4,68.6455 228.144,71.7407 228.888,74.8364 229.632,77.9321 230.376,81.0278 231.12,84.1235 231.864,87.2192 232.608,90.3145 233.352,93.4102 234.096,96.5059 234.84,99.6016 235.584,102.697 236.328,105.793 237.072,108.888 237.816,111.984 238.56,115.08 239.304,118.175 240.048,121.271 240.792,124.367 241.536,127.462 242.28,130.558 243.024,133.653 243.768,136.749 244.512,139.845 245.256,142.94 246,146.036 246.744,149.131 247.488,152.227 248.232,155.323 248.976,158.418 249.72,161.514 250.464,164.609 251.208,167.705 251.952,170.801 252.696,173.896 253.44,176.992 254.184,180.088 254.928,183.183 255.672,186.279 256.416,189.375 257.16,192.47 257.904,195.566 258.648,198.662 259.392,201.757 260.136,204.853 260.88,207.948 261.624,211.044 262.368,214.14 263.112,217.235 263.856,220.331 264.6,223.426 265.344,226.522 266.088,229.618 266.832,232.713 267.576,235.809 268.32,238.904 269.064,242 269.808,245.096 270.552,248.191 271.296,251.287 272.04,254.383 272.784,257.478 273.528,260.574 274.272,263.669 275.016,266.765 275.76,269.861 276.504,272.957 277.248,276.052 277.992,279.147 278.736,282.243 279.48,285.339 280.224,288.435 280.968,291.53 281.712,294.625 282.456,297.721 283.2,300.817 283.944,303.913 284.688,307.008 285.432,310.104 286.176,313.199 286.92,316.295 287.664,319.391 288.408,322.486 289.152,325.582 289.896,328.678 290.64,331.773 291.384,334.869 292.128,337.964 292.872,341.06 293.616,344.156 294.36,347.251 295.104,350.347 295.848,353.442 296.592,356.538 297.336,359.634 298.08,362.729 298.824,359.634 299.568,356.538 300.312,353.442 301.056,350.347 301.8,347.251 302.544,344.156 303.288,341.06 304.032,337.964 304.776,334.869 305.52,331.773 306.264,328.678 307.008,325.582 307.752,322.486 308.496,319.391 309.24,316.295 309.984,313.199 310.728,310.104 311.472,307.008 312.216,303.913 312.96,300.817 313.704,297.721 314.448,294.625 315.192,291.53 315.936,288.435 316.68,285.339 317.424,282.243 318.168,279.147 318.912,276.052 319.656,272.957 320.4,269.861 321.144,266.765 321.888,263.669 322.632,260.574 323.376,257.478 324.12,254.383 324.864,251.287 325.608,248.191 326.352,245.096 327.096,242 327.84,238.904 328.584,235.809 329.328,232.713 330.072,229.618 330.816,226.522 331.56,223.426 332.304,220.331 333.048,217.235 333.792,214.14 334.536,211.044 335.28,207.948 336.024,204.853 336.768,201.757 337.512,198.662 338.256,195.566 339,192.47 339.744,189.375 340.488,186.279 341.232,183.183 341.976,180.088 342.72,176.992 343.464,173.896 344.208,170.801 344.952,167.705 345.696,164.609 346.44,161.514 347.184,158.418 347.928,155.323 348.672,152.227 349.416,149.131 350.16,146.036 350.904,142.94 351.648,139.845 352.392,136.749 353.136,133.653 353.88,130.558 354.624,127.462 355.368,124.367 356.112,121.271 356.856,118.175 357.6,115.08 358.344,111.984 359.088,108.888 359.832,105.793 360.576,102.697 361.32,99.6016 362.064,96.5059 362.808,93.4102 363.552,90.3145 364.296,87.2192 365.04,84.1235 365.784,81.0278 366.528,77.9321 367.272,74.8364 368.016,71.7407 368.76,68.6455 369.504,65.5498 370.248,62.4541 370.992,59.3584 371.736,56.2627 372.48,53.1675"/>
</g>
<clipPath id="cp00576432">
  <polygon points="0,432 576,432 576,0 0,0"/>
</clipPath>
<g clip-path="url(#cp00576432)">
<polygon fill="#ffffff" shape-rendering="crispEdges" points="106.756,429.255 489.404,429.255 489.404,386.737"/>
<polygon fill="#ffffff" shape-rendering="crispEdges" points="106.756,429.255 489.404,386.737 106.756,386.737"/>
<polyline fill="none" stroke="#262626" stroke-width="0.5" stroke-linecap="butt" stroke-linejoin="miter" stroke-dasharray="16,0" points="106.756,429.255 489.404,429.255"/>
<polyline fill="none" stroke="#262626" stroke-width="0.5" stroke-linecap="butt" stroke-linejoin="miter" stroke-dasharray="16,0" points="106.756,386.737 489.404,386.737"/>
<polyline fill="none" stroke="#262626" stroke-width="0.5" stroke-linecap="butt" stroke-linejoin="miter" stroke-dasharray="16,0" points="106.756,429.255 106.756,386.737"/>
<polyline fill="none" stroke="#262626" stroke-width="0.5" stroke-linecap="butt" stroke-linejoin="miter" stroke-dasharray="16,0" points="489.404,429.255 489.404,386.737"/>
<text fill="#000000" x="132.831" y="399.367" font-size="10" text-anchor="start" dy="0" font-family="Helvetica">f</text>
<text fill="#000000" x="136.831" y="405.367" font-size="8" text-anchor="start" dy="0" font-family="Helvetica">2</text>
<text fill="#000000" x="141.831" y="399.367" font-size="10" text-anchor="start" dy="0" font-family="Helvetica">(t) = a</text>
<text fill="#000000" x="173.831" y="405.367" font-size="8" text-anchor="start" dy="0" font-family="Helvetica">0</text>
<text fill="#000000" x="178.831" y="399.367" font-size="10" text-anchor="start" dy="0" font-family="Helvetica">/2 + a</text>
<text fill="#000000" x="207.831" y="405.367" font-size="8" text-anchor="start" dy="0" font-family="Helvetica">1</text>
<text fill="#000000" x="212.831" y="399.367" font-size="10" text-anchor="start" dy="0" font-family="Helvetica"> sin(t*pi) + b</text>
<text fill="#000000" x="275.831" y="405.367" font-size="8" text-anchor="start" dy="0" font-family="Helvetica">1</text>
<text fill="#000000" x="280.831" y="399.367" font-size="10" text-anchor="start" dy="0" font-family="Helvetica"> cos(t*pi) + ..., Dziedzina = R, T = [0, 2]</text>
<text fill="#000000" x="132.831" y="420.626" font-size="10" text-anchor="start" dy="0" font-family="Helvetica">f</text>
<text fill="#000000" x="136.831" y="426.626" font-size="8" text-anchor="start" dy="0" font-family="Helvetica">2</text>
<text fill="#000000" x="141.831" y="420.626" font-size="10" text-anchor="start" dy="0" font-family="Helvetica">(t) = |t-1|, Dziedzina = [0, 2], T = [0, 2]</text>
<polyline fill="none" stroke="#000000" stroke-width="2" stroke-linecap="butt" stroke-linejoin="miter" points="109.501,397.367 130.086,397.367"/>
<polyline fill="none" stroke="#ff0000" stroke-width="4" stroke-linecap="butt" stroke-linejoin="miter" points="109.501,418.626 130.086,418.626"/>
</g>
</g>
</svg>
