<?xml version="1.0" encoding="UTF-8" standalone="no"?>
<svg xmlns="http://www.w3.org/2000/svg"
     xmlns:xlink="http://www.w3.org/1999/xlink"
     width="576px" height="432px" viewBox="0 0 576 432">
<title>gl2ps_renderer figure</title>
<desc>
Creator: GL2PS 1.4.0, (C) 1999-2017 C. Geuzaine
For: Octave
CreationDate: Mon Dec  2 22:36:17 2019
</desc>
<defs>
</defs>
<polygon fill="#ffffff" points="0,0 576,0 576,432 0,432"/>
<g>
<polygon fill="#ffffff" points="0,432 576,432 576,0 0,0" shape-rendering="crispEdges"/>
<clipPath id="cp00576432">
  <polygon points="0,432 576,432 576,0 0,0"/>
</clipPath>
<g clip-path="url(#cp00576432)">
<polygon fill="#ffffff" shape-rendering="crispEdges" points="74.8799,308.551 521.28,308.551 521.28,53.167"/>
<polygon fill="#ffffff" shape-rendering="crispEdges" points="74.8799,308.551 521.28,53.167 74.8799,53.167"/>
<polyline fill="none" stroke="#262626" stroke-width="0.5" stroke-linecap="butt" stroke-linejoin="miter" stroke-opacity="0.15" stroke-dasharray="16,0" points="74.8799,308.551 74.8799,53.167"/>
<polyline fill="none" stroke="#262626" stroke-width="0.5" stroke-linecap="butt" stroke-linejoin="miter" stroke-opacity="0.15" stroke-dasharray="16,0" points="138.651,308.551 138.651,53.167"/>
<polyline fill="none" stroke="#262626" stroke-width="0.5" stroke-linecap="butt" stroke-linejoin="miter" stroke-opacity="0.15" stroke-dasharray="16,0" points="202.423,308.551 202.423,53.167"/>
<polyline fill="none" stroke="#262626" stroke-width="0.5" stroke-linecap="butt" stroke-linejoin="miter" stroke-opacity="0.15" stroke-dasharray="16,0" points="266.194,308.551 266.194,53.167"/>
<polyline fill="none" stroke="#262626" stroke-width="0.5" stroke-linecap="butt" stroke-linejoin="miter" stroke-opacity="0.15" stroke-dasharray="16,0" points="329.966,308.551 329.966,53.167"/>
<polyline fill="none" stroke="#262626" stroke-width="0.5" stroke-linecap="butt" stroke-linejoin="miter" stroke-opacity="0.15" stroke-dasharray="16,0" points="393.737,308.551 393.737,53.167"/>
<polyline fill="none" stroke="#262626" stroke-width="0.5" stroke-linecap="butt" stroke-linejoin="miter" stroke-opacity="0.15" stroke-dasharray="16,0" points="457.509,308.551 457.509,53.167"/>
<polyline fill="none" stroke="#262626" stroke-width="0.5" stroke-linecap="butt" stroke-linejoin="miter" stroke-opacity="0.15" stroke-dasharray="16,0" points="521.28,308.551 521.28,53.167"/>
<polyline fill="none" stroke="#262626" stroke-width="0.5" stroke-linecap="butt" stroke-linejoin="miter" points="74.8799,308.551 74.8799,304.08"/>
<polyline fill="none" stroke="#262626" stroke-width="0.5" stroke-linecap="butt" stroke-linejoin="miter" points="138.651,308.551 138.651,304.08"/>
<polyline fill="none" stroke="#262626" stroke-width="0.5" stroke-linecap="butt" stroke-linejoin="miter" points="202.423,308.551 202.423,304.08"/>
<polyline fill="none" stroke="#262626" stroke-width="0.5" stroke-linecap="butt" stroke-linejoin="miter" points="266.194,308.551 266.194,304.08"/>
<polyline fill="none" stroke="#262626" stroke-width="0.5" stroke-linecap="butt" stroke-linejoin="miter" points="329.966,308.551 329.966,304.08"/>
<polyline fill="none" stroke="#262626" stroke-width="0.5" stroke-linecap="butt" stroke-linejoin="miter" points="393.737,308.551 393.737,304.08"/>
<polyline fill="none" stroke="#262626" stroke-width="0.5" stroke-linecap="butt" stroke-linejoin="miter" points="457.509,308.551 457.509,304.08"/>
<polyline fill="none" stroke="#262626" stroke-width="0.5" stroke-linecap="butt" stroke-linejoin="miter" points="521.28,308.551 521.28,304.08"/>
<text fill="#262626" x="74.8799" y="313.558" font-size="10" text-anchor="middle" dy="10" font-family="Helvetica">0</text>
<text fill="#262626" x="138.651" y="313.558" font-size="10" text-anchor="middle" dy="10" font-family="Helvetica">5</text>
<text fill="#262626" x="202.423" y="313.558" font-size="10" text-anchor="middle" dy="10" font-family="Helvetica">10</text>
<text fill="#262626" x="266.194" y="313.558" font-size="10" text-anchor="middle" dy="10" font-family="Helvetica">15</text>
<text fill="#262626" x="329.966" y="313.558" font-size="10" text-anchor="middle" dy="10" font-family="Helvetica">20</text>
<text fill="#262626" x="393.737" y="313.558" font-size="10" text-anchor="middle" dy="10" font-family="Helvetica">25</text>
<text fill="#262626" x="457.509" y="313.558" font-size="10" text-anchor="middle" dy="10" font-family="Helvetica">30</text>
<text fill="#262626" x="521.28" y="313.558" font-size="10" text-anchor="middle" dy="10" font-family="Helvetica">35</text>
<polyline fill="none" stroke="#262626" stroke-width="0.5" stroke-linecap="butt" stroke-linejoin="miter" stroke-opacity="0.15" stroke-dasharray="16,0" points="74.8799,308.551 521.28,308.551"/>
<polyline fill="none" stroke="#262626" stroke-width="0.5" stroke-linecap="butt" stroke-linejoin="miter" stroke-opacity="0.15" stroke-dasharray="16,0" points="74.8799,244.705 521.28,244.705"/>
<polyline fill="none" stroke="#262626" stroke-width="0.5" stroke-linecap="butt" stroke-linejoin="miter" stroke-opacity="0.15" stroke-dasharray="16,0" points="74.8799,180.859 521.28,180.859"/>
<polyline fill="none" stroke="#262626" stroke-width="0.5" stroke-linecap="butt" stroke-linejoin="miter" stroke-opacity="0.15" stroke-dasharray="16,0" points="74.8799,117.013 521.28,117.013"/>
<polyline fill="none" stroke="#262626" stroke-width="0.5" stroke-linecap="butt" stroke-linejoin="miter" stroke-opacity="0.15" stroke-dasharray="16,0" points="74.8799,53.167 521.28,53.167"/>
<polyline fill="none" stroke="#262626" stroke-width="0.5" stroke-linecap="butt" stroke-linejoin="miter" points="74.8799,308.551 79.3481,308.551"/>
<polyline fill="none" stroke="#262626" stroke-width="0.5" stroke-linecap="butt" stroke-linejoin="miter" points="74.8799,244.705 79.3481,244.705"/>
<polyline fill="none" stroke="#262626" stroke-width="0.5" stroke-linecap="butt" stroke-linejoin="miter" points="74.8799,180.859 79.3481,180.859"/>
<polyline fill="none" stroke="#262626" stroke-width="0.5" stroke-linecap="butt" stroke-linejoin="miter" points="74.8799,117.013 79.3481,117.013"/>
<polyline fill="none" stroke="#262626" stroke-width="0.5" stroke-linecap="butt" stroke-linejoin="miter" points="74.8799,53.167 79.3481,53.167"/>
<text fill="#262626" x="69.8755" y="308.551" font-size="10" text-anchor="end" dy="5" font-family="Helvetica">-1</text>
<text fill="#262626" x="69.8755" y="244.705" font-size="10" text-anchor="end" dy="5" font-family="Helvetica">-0.5</text>
<text fill="#262626" x="69.8755" y="180.859" font-size="10" text-anchor="end" dy="5" font-family="Helvetica">0</text>
<text fill="#262626" x="69.8755" y="117.013" font-size="10" text-anchor="end" dy="5" font-family="Helvetica">0.5</text>
<text fill="#262626" x="69.8755" y="53.167" font-size="10" text-anchor="end" dy="5" font-family="Helvetica">1</text>
<polyline fill="none" stroke="#262626" stroke-width="0.5" stroke-linecap="butt" stroke-linejoin="miter" stroke-dasharray="16,0" points="74.8799,308.551 521.28,308.551"/>
<polyline fill="none" stroke="#262626" stroke-width="0.5" stroke-linecap="butt" stroke-linejoin="miter" stroke-dasharray="16,0" points="74.8799,308.551 74.8799,53.167"/>
<polyline fill="none" stroke="#ff0000" stroke-width="2" stroke-linecap="butt" stroke-linejoin="miter" points="74.8799,180.859 78.8867,188.877 82.8936,196.863 86.9004,204.786 90.9077,212.615 94.9146,220.318 98.9214,227.865 102.928,235.228 106.935,242.375 110.942,249.28 114.949,255.914 118.956,262.253 122.962,268.27 126.969,273.942 130.976,279.247 134.983,284.164 138.99,288.673 142.997,292.756 147.004,296.398 151.011,299.583 155.018,302.301 159.024,304.539 163.031,306.289 167.038,307.544 171.045,308.299 175.052,308.551 179.059,308.299 183.065,307.544 187.073,306.289 191.08,304.539 195.086,302.301 199.093,299.583 203.1,296.398 207.107,292.756 211.114,288.673 215.121,284.164 219.127,279.247 223.134,273.942 227.141,268.27 231.148,262.253 235.155,255.914 239.162,249.28 243.169,242.375 247.176,235.228 251.183,227.865 255.189,220.318 259.196,212.615 263.203,204.786 267.21,196.863 271.217,188.877 275.224,180.859 279.231,172.841 283.238,164.855 287.245,156.932 291.251,149.104 295.258,141.4 299.265,133.853 303.272,126.49 307.279,119.343 311.286,112.438 315.292,105.804 319.299,99.4653 323.306,93.4478 327.313,87.7759 331.32,82.4707 335.327,77.5542 339.334,73.0454 343.341,68.9619 347.348,65.3198 351.354,62.1343 355.361,59.417 359.368,57.1787 363.375,55.4292 367.382,54.1743 371.389,53.4194 375.396,53.167 379.403,53.4194 383.41,54.1743 387.417,55.4292 391.423,57.1787 395.43,59.417 399.437,62.1343 403.444,65.3198 407.451,68.9619 411.458,73.0454 415.464,77.5542 419.472,82.4707 423.479,87.7759 427.485,93.4478 431.492,99.4653 435.499,105.804 439.506,112.438 443.513,119.343 447.52,126.49 451.526,133.853 455.533,141.4 459.54,149.104 463.547,156.932 467.554,164.855 471.561,172.841 475.568,180.859"/>
<polyline fill="none" stroke="#007f7f" stroke-width="1.5" stroke-linecap="butt" stroke-linejoin="miter" points="78.0425,180.859 77.4385,182.718 75.8574,183.867 73.9028,183.867 72.3218,182.718 71.7178,180.859 72.3218,179 73.9028,177.852 75.8574,177.852 77.4385,179 78.0425,180.859"/>
<polyline fill="none" stroke="#007f7f" stroke-width="1.5" stroke-linecap="butt" stroke-linejoin="miter" points="158.18,302.301 157.576,304.16 155.995,305.309 154.041,305.309 152.459,304.16 151.855,302.301 152.459,300.442 154.041,299.293 155.995,299.293 157.576,300.442 158.18,302.301"/>
<polyline fill="none" stroke="#007f7f" stroke-width="1.5" stroke-linecap="butt" stroke-linejoin="miter" points="238.317,255.914 237.713,257.773 236.132,258.922 234.178,258.922 232.597,257.773 231.993,255.914 232.597,254.056 234.178,252.907 236.132,252.907 237.713,254.056 238.317,255.914"/>
<polyline fill="none" stroke="#007f7f" stroke-width="1.5" stroke-linecap="butt" stroke-linejoin="miter" points="318.455,105.804 317.851,107.663 316.27,108.811 314.315,108.811 312.734,107.663 312.13,105.804 312.734,103.945 314.315,102.796 316.27,102.796 317.851,103.945 318.455,105.804"/>
<polyline fill="none" stroke="#007f7f" stroke-width="1.5" stroke-linecap="butt" stroke-linejoin="miter" points="398.592,59.417 397.988,61.2759 396.407,62.4243 394.453,62.4243 392.872,61.2759 392.268,59.417 392.872,57.5581 394.453,56.4092 396.407,56.4092 397.988,57.5581 398.592,59.417"/>
<polyline fill="none" stroke="#0000ff" stroke-width="2" stroke-linecap="butt" stroke-linejoin="miter" points="74.8799,180.859 78.8867,196.863 82.8936,212.615 86.9004,227.865 90.9077,242.375 94.9146,255.914 98.9214,268.27 102.928,279.247 106.935,288.673 110.942,296.398 114.949,302.301 118.956,306.289 122.962,308.299 126.969,308.299 130.976,306.289 134.983,302.301 138.99,296.398 142.997,288.673 147.004,279.247 151.011,268.27 155.018,255.914 159.024,242.375 163.031,227.865 167.038,212.615 171.045,196.863 175.052,180.859 179.059,164.855 183.065,149.104 187.073,133.853 191.08,119.343 195.086,105.804 199.093,93.4478 203.1,82.4707 207.107,73.0454 211.114,65.3198 215.121,59.417 219.127,55.4292 223.134,53.4194 227.141,53.4194 231.148,55.4292 235.155,59.417 239.162,65.3198 243.169,73.0454 247.176,82.4707 251.183,93.4478 255.189,105.804 259.196,119.343 263.203,133.853 267.21,149.104 271.217,164.855 275.224,180.859 279.231,196.863 283.238,212.615 287.245,227.865 291.251,242.375 295.258,255.914 299.265,268.27 303.272,279.247 307.279,288.673 311.286,296.398 315.292,302.301 319.299,306.289 323.306,308.299 327.313,308.299 331.32,306.289 335.327,302.301 339.334,296.398 343.341,288.673 347.348,279.247 351.354,268.27 355.361,255.914 359.368,242.375 363.375,227.865 367.382,212.615 371.389,196.863 375.396,180.859 379.403,164.855 383.41,149.104 387.417,133.853 391.423,119.343 395.43,105.804 399.437,93.4478 403.444,82.4707 407.451,73.0454 411.458,65.3198 415.464,59.417 419.472,55.4292 423.479,53.4194 427.485,53.4194 431.492,55.4292 435.499,59.417 439.506,65.3198 443.513,73.0454 447.52,82.4707 451.526,93.4478 455.533,105.804 459.54,119.343 463.547,133.853 467.554,149.104 471.561,164.855 475.568,180.859"/>
<polyline fill="none" stroke="#007f7f" stroke-width="1.5" stroke-linecap="butt" stroke-linejoin="miter" points="78.0425,180.859 77.4385,182.718 75.8574,183.867 73.9028,183.867 72.3218,182.718 71.7178,180.859 72.3218,179 73.9028,177.852 75.8574,177.852 77.4385,179 78.0425,180.859"/>
<polyline fill="none" stroke="#007f7f" stroke-width="1.5" stroke-linecap="butt" stroke-linejoin="miter" points="158.18,255.914 157.576,257.773 155.995,258.922 154.041,258.922 152.459,257.773 151.855,255.914 152.459,254.056 154.041,252.907 155.995,252.907 157.576,254.056 158.18,255.914"/>
<polyline fill="none" stroke="#007f7f" stroke-width="1.5" stroke-linecap="butt" stroke-linejoin="miter" points="238.317,59.417 237.713,61.2759 236.132,62.4243 234.178,62.4243 232.597,61.2759 231.993,59.417 232.597,57.5581 234.178,56.4092 236.132,56.4092 237.713,57.5581 238.317,59.417"/>
<polyline fill="none" stroke="#007f7f" stroke-width="1.5" stroke-linecap="butt" stroke-linejoin="miter" points="318.455,302.301 317.851,304.16 316.27,305.309 314.315,305.309 312.734,304.16 312.13,302.301 312.734,300.442 314.315,299.293 316.27,299.293 317.851,300.442 318.455,302.301"/>
<polyline fill="none" stroke="#007f7f" stroke-width="1.5" stroke-linecap="butt" stroke-linejoin="miter" points="398.592,105.804 397.988,107.663 396.407,108.811 394.453,108.811 392.872,107.663 392.268,105.804 392.872,103.945 394.453,102.796 396.407,102.796 397.988,103.945 398.592,105.804"/>
<polyline fill="none" stroke="#00ff00" stroke-width="2" stroke-linecap="butt" stroke-linejoin="miter" points="74.8799,180.859 78.8867,156.932 82.8936,133.853 86.9004,112.438 90.9077,93.4478 94.9146,77.5542 98.9214,65.3198 102.928,57.1787 106.935,53.4194 110.942,54.1743 114.949,59.417 118.956,68.9619 122.962,82.4707 126.969,99.4653 130.976,119.343 134.983,141.4 138.99,164.855 142.997,188.877 147.004,212.615 151.011,235.228 155.018,255.914 159.024,273.942 163.031,288.673 167.038,299.583 171.045,306.289 175.052,308.551 179.059,306.289 183.065,299.583 187.073,288.673 191.08,273.942 195.086,255.914 199.093,235.228 203.1,212.615 207.107,188.877 211.114,164.855 215.121,141.4 219.127,119.343 223.134,99.4653 227.141,82.4707 231.148,68.9619 235.155,59.417 239.162,54.1743 243.169,53.4194 247.176,57.1787 251.183,65.3198 255.189,77.5542 259.196,93.4478 263.203,112.438 267.21,133.853 271.217,156.932 275.224,180.859 279.231,204.786 283.238,227.865 287.245,249.28 291.251,268.27 295.258,284.164 299.265,296.398 303.272,304.539 307.279,308.299 311.286,307.544 315.292,302.301 319.299,292.756 323.306,279.247 327.313,262.253 331.32,242.375 335.327,220.318 339.334,196.863 343.341,172.841 347.348,149.104 351.354,126.49 355.361,105.804 359.368,87.7759 363.375,73.0454 367.382,62.1343 371.389,55.4292 375.396,53.167 379.403,55.4292 383.41,62.1343 387.417,73.0454 391.423,87.7759 395.43,105.804 399.437,126.49 403.444,149.104 407.451,172.841 411.458,196.863 415.464,220.318 419.472,242.375 423.479,262.253 427.485,279.247 431.492,292.756 435.499,302.301 439.506,307.544 443.513,308.299 447.52,304.539 451.526,296.398 455.533,284.164 459.54,268.27 463.547,249.28 467.554,227.865 471.561,204.786 475.568,180.859"/>
<polyline fill="none" stroke="#007f7f" stroke-width="1.5" stroke-linecap="butt" stroke-linejoin="miter" points="78.0425,180.859 77.4385,182.718 75.8574,183.867 73.9028,183.867 72.3218,182.718 71.7178,180.859 72.3218,179 73.9028,177.852 75.8574,177.852 77.4385,179 78.0425,180.859"/>
<polyline fill="none" stroke="#007f7f" stroke-width="1.5" stroke-linecap="butt" stroke-linejoin="miter" points="158.18,255.914 157.576,257.773 155.995,258.922 154.041,258.922 152.459,257.773 151.855,255.914 152.459,254.056 154.041,252.907 155.995,252.907 157.576,254.056 158.18,255.914"/>
<polyline fill="none" stroke="#007f7f" stroke-width="1.5" stroke-linecap="butt" stroke-linejoin="miter" points="238.317,59.417 237.713,61.2759 236.132,62.4243 234.178,62.4243 232.597,61.2759 231.993,59.417 232.597,57.5581 234.178,56.4092 236.132,56.4092 237.713,57.5581 238.317,59.417"/>
<polyline fill="none" stroke="#007f7f" stroke-width="1.5" stroke-linecap="butt" stroke-linejoin="miter" points="318.455,302.301 317.851,304.16 316.27,305.309 314.315,305.309 312.734,304.16 312.13,302.301 312.734,300.442 314.315,299.293 316.27,299.293 317.851,300.442 318.455,302.301"/>
<polyline fill="none" stroke="#007f7f" stroke-width="1.5" stroke-linecap="butt" stroke-linejoin="miter" points="398.592,105.804 397.988,107.663 396.407,108.811 394.453,108.811 392.872,107.663 392.268,105.804 392.872,103.945 394.453,102.796 396.407,102.796 397.988,103.945 398.592,105.804"/>
<polyline fill="none" stroke="#ff00ff" stroke-width="2" stroke-linecap="butt" stroke-linejoin="miter" points="74.8799,180.859 78.8867,149.104 82.8936,119.343 86.9004,93.4478 90.9077,73.0454 94.9146,59.417 98.9214,53.4194 102.928,55.4292 106.935,65.3198 110.942,82.4707 114.949,105.804 118.956,133.853 122.962,164.855 126.969,196.863 130.976,227.865 134.983,255.914 138.99,279.247 142.997,296.398 147.004,306.289 151.011,308.299 155.018,302.301 159.024,288.673 163.031,268.27 167.038,242.375 171.045,212.615 175.052,180.859 179.059,149.104 183.065,119.343 187.073,93.4478 191.08,73.0454 195.086,59.417 199.093,53.4194 203.1,55.4292 207.107,65.3198 211.114,82.4707 215.121,105.804 219.127,133.853 223.134,164.855 227.141,196.863 231.148,227.865 235.155,255.914 239.162,279.247 243.169,296.398 247.176,306.289 251.183,308.299 255.189,302.301 259.196,288.673 263.203,268.27 267.21,242.375 271.217,212.615 275.224,180.859 279.231,149.104 283.238,119.343 287.245,93.4478 291.251,73.0454 295.258,59.417 299.265,53.4194 303.272,55.4292 307.279,65.3198 311.286,82.4707 315.292,105.804 319.299,133.853 323.306,164.855 327.313,196.863 331.32,227.865 335.327,255.914 339.334,279.247 343.341,296.398 347.348,306.289 351.354,308.299 355.361,302.301 359.368,288.673 363.375,268.27 367.382,242.375 371.389,212.615 375.396,180.859 379.403,149.104 383.41,119.343 387.417,93.4478 391.423,73.0454 395.43,59.417 399.437,53.4194 403.444,55.4292 407.451,65.3198 411.458,82.4707 415.464,105.804 419.472,133.853 423.479,164.855 427.485,196.863 431.492,227.865 435.499,255.914 439.506,279.247 443.513,296.398 447.52,306.289 451.526,308.299 455.533,302.301 459.54,288.673 463.547,268.27 467.554,242.375 471.561,212.615 475.568,180.859"/>
<polyline fill="none" stroke="#007f7f" stroke-width="1.5" stroke-linecap="butt" stroke-linejoin="miter" points="78.0425,180.859 77.4385,182.718 75.8574,183.867 73.9028,183.867 72.3218,182.718 71.7178,180.859 72.3218,179 73.9028,177.852 75.8574,177.852 77.4385,179 78.0425,180.859"/>
<polyline fill="none" stroke="#007f7f" stroke-width="1.5" stroke-linecap="butt" stroke-linejoin="miter" points="158.18,302.301 157.576,304.16 155.995,305.309 154.041,305.309 152.459,304.16 151.855,302.301 152.459,300.442 154.041,299.293 155.995,299.293 157.576,300.442 158.18,302.301"/>
<polyline fill="none" stroke="#007f7f" stroke-width="1.5" stroke-linecap="butt" stroke-linejoin="miter" points="238.317,255.914 237.713,257.773 236.132,258.922 234.178,258.922 232.597,257.773 231.993,255.914 232.597,254.056 234.178,252.907 236.132,252.907 237.713,254.056 238.317,255.914"/>
<polyline fill="none" stroke="#007f7f" stroke-width="1.5" stroke-linecap="butt" stroke-linejoin="miter" points="318.455,105.804 317.851,107.663 316.27,108.811 314.315,108.811 312.734,107.663 312.13,105.804 312.734,103.945 314.315,102.796 316.27,102.796 317.851,103.945 318.455,105.804"/>
<polyline fill="none" stroke="#007f7f" stroke-width="1.5" stroke-linecap="butt" stroke-linejoin="miter" points="398.592,59.417 397.988,61.2759 396.407,62.4243 394.453,62.4243 392.872,61.2759 392.268,59.417 392.872,57.5581 394.453,56.4092 396.407,56.4092 397.988,57.5581 398.592,59.417"/>
<polyline fill="none" stroke="#00ffff" stroke-width="2" stroke-linecap="butt" stroke-linejoin="miter" points="74.8799,180.859 78.8867,141.4 82.8936,105.804 86.9004,77.5542 90.9077,59.417 94.9146,53.167 98.9214,59.417 102.928,77.5542 106.935,105.804 110.942,141.4 114.949,180.859 118.956,220.318 122.962,255.914 126.969,284.164 130.976,302.301 134.983,308.551 138.99,302.301 142.997,284.164 147.004,255.914 151.011,220.318 155.018,180.859 159.024,141.4 163.031,105.804 167.038,77.5542 171.045,59.417 175.052,53.167 179.059,59.417 183.065,77.5542 187.073,105.804 191.08,141.4 195.086,180.859 199.093,220.318 203.1,255.914 207.107,284.164 211.114,302.301 215.121,308.551 219.127,302.301 223.134,284.164 227.141,255.914 231.148,220.318 235.155,180.859 239.162,141.4 243.169,105.804 247.176,77.5542 251.183,59.417 255.189,53.167 259.196,59.417 263.203,77.5542 267.21,105.804 271.217,141.4 275.224,180.859 279.231,220.318 283.238,255.914 287.245,284.164 291.251,302.301 295.258,308.551 299.265,302.301 303.272,284.164 307.279,255.914 311.286,220.318 315.292,180.859 319.299,141.4 323.306,105.804 327.313,77.5542 331.32,59.417 335.327,53.167 339.334,59.417 343.341,77.5542 347.348,105.804 351.354,141.4 355.361,180.859 359.368,220.318 363.375,255.914 367.382,284.164 371.389,302.301 375.396,308.551 379.403,302.301 383.41,284.164 387.417,255.914 391.423,220.318 395.43,180.859 399.437,141.4 403.444,105.804 407.451,77.5542 411.458,59.417 415.464,53.167 419.472,59.417 423.479,77.5542 427.485,105.804 431.492,141.4 435.499,180.859 439.506,220.318 443.513,255.914 447.52,284.164 451.526,302.301 455.533,308.551 459.54,302.301 463.547,284.164 467.554,255.914 471.561,220.318 475.568,180.859"/>
<polyline fill="none" stroke="#007f7f" stroke-width="1.5" stroke-linecap="butt" stroke-linejoin="miter" points="78.0425,180.859 77.4385,182.718 75.8574,183.867 73.9028,183.867 72.3218,182.718 71.7178,180.859 72.3218,179 73.9028,177.852 75.8574,177.852 77.4385,179 78.0425,180.859"/>
<polyline fill="none" stroke="#007f7f" stroke-width="1.5" stroke-linecap="butt" stroke-linejoin="miter" points="158.18,180.859 157.576,182.718 155.995,183.867 154.041,183.867 152.459,182.718 151.855,180.859 152.459,179 154.041,177.852 155.995,177.852 157.576,179 158.18,180.859"/>
<polyline fill="none" stroke="#007f7f" stroke-width="1.5" stroke-linecap="butt" stroke-linejoin="miter" points="238.317,180.859 237.713,182.718 236.132,183.867 234.178,183.867 232.597,182.718 231.993,180.859 232.597,179 234.178,177.852 236.132,177.852 237.713,179 238.317,180.859"/>
<polyline fill="none" stroke="#007f7f" stroke-width="1.5" stroke-linecap="butt" stroke-linejoin="miter" points="318.455,180.859 317.851,182.718 316.27,183.867 314.315,183.867 312.734,182.718 312.13,180.859 312.734,179 314.315,177.852 316.27,177.852 317.851,179 318.455,180.859"/>
<polyline fill="none" stroke="#007f7f" stroke-width="1.5" stroke-linecap="butt" stroke-linejoin="miter" points="398.592,180.859 397.988,182.718 396.407,183.867 394.453,183.867 392.872,182.718 392.268,180.859 392.872,179 394.453,177.852 396.407,177.852 397.988,179 398.592,180.859"/>
<polyline fill="none" stroke="#007f7f" stroke-width="1.5" stroke-linecap="butt" stroke-linejoin="miter" points="78.0425,180.859 77.4385,182.718 75.8574,183.867 73.9028,183.867 72.3218,182.718 71.7178,180.859 72.3218,179 73.9028,177.852 75.8574,177.852 77.4385,179 78.0425,180.859"/>
<polyline fill="none" stroke="#007f7f" stroke-width="1.5" stroke-linecap="butt" stroke-linejoin="miter" points="158.18,180.859 157.576,182.718 155.995,183.867 154.041,183.867 152.459,182.718 151.855,180.859 152.459,179 154.041,177.852 155.995,177.852 157.576,179 158.18,180.859"/>
<polyline fill="none" stroke="#007f7f" stroke-width="1.5" stroke-linecap="butt" stroke-linejoin="miter" points="238.317,180.859 237.713,182.718 236.132,183.867 234.178,183.867 232.597,182.718 231.993,180.859 232.597,179 234.178,177.852 236.132,177.852 237.713,179 238.317,180.859"/>
<polyline fill="none" stroke="#007f7f" stroke-width="1.5" stroke-linecap="butt" stroke-linejoin="miter" points="318.455,180.859 317.851,182.718 316.27,183.867 314.315,183.867 312.734,182.718 312.13,180.859 312.734,179 314.315,177.852 316.27,177.852 317.851,179 318.455,180.859"/>
<polyline fill="none" stroke="#007f7f" stroke-width="1.5" stroke-linecap="butt" stroke-linejoin="miter" points="398.592,180.859 397.988,182.718 396.407,183.867 394.453,183.867 392.872,182.718 392.268,180.859 392.872,179 394.453,177.852 396.407,177.852 397.988,179 398.592,180.859"/>
<polygon fill="#00b2b2" shape-rendering="crispEdges" points="158.18,255.914 157.576,257.773 155.995,258.922"/>
<polygon fill="#00b2b2" shape-rendering="crispEdges" points="158.18,255.914 155.995,258.922 154.041,258.922"/>
<polygon fill="#00b2b2" shape-rendering="crispEdges" points="158.18,255.914 154.041,258.922 152.459,257.773"/>
<polygon fill="#00b2b2" shape-rendering="crispEdges" points="158.18,255.914 152.459,257.773 151.855,255.914"/>
<polygon fill="#00b2b2" shape-rendering="crispEdges" points="158.18,255.914 151.855,255.914 152.459,254.056"/>
<polygon fill="#00b2b2" shape-rendering="crispEdges" points="158.18,255.914 152.459,254.056 154.041,252.907"/>
<polygon fill="#00b2b2" shape-rendering="crispEdges" points="158.18,255.914 154.041,252.907 155.995,252.907"/>
<polygon fill="#00b2b2" shape-rendering="crispEdges" points="158.18,255.914 155.995,252.907 157.576,254.056"/>
<polygon fill="#00b2b2" shape-rendering="crispEdges" points="238.317,59.417 237.713,61.2759 236.132,62.4243"/>
<polygon fill="#00b2b2" shape-rendering="crispEdges" points="238.317,59.417 236.132,62.4243 234.178,62.4243"/>
<polygon fill="#00b2b2" shape-rendering="crispEdges" points="238.317,59.417 234.178,62.4243 232.597,61.2759"/>
<polygon fill="#00b2b2" shape-rendering="crispEdges" points="238.317,59.417 232.597,61.2759 231.993,59.417"/>
<polygon fill="#00b2b2" shape-rendering="crispEdges" points="238.317,59.417 231.993,59.417 232.597,57.5581"/>
<polygon fill="#00b2b2" shape-rendering="crispEdges" points="238.317,59.417 232.597,57.5581 234.178,56.4092"/>
<polygon fill="#00b2b2" shape-rendering="crispEdges" points="238.317,59.417 234.178,56.4092 236.132,56.4092"/>
<polygon fill="#00b2b2" shape-rendering="crispEdges" points="238.317,59.417 236.132,56.4092 237.713,57.5581"/>
<polygon fill="#00b2b2" shape-rendering="crispEdges" points="318.455,302.301 317.851,304.16 316.27,305.309"/>
<polygon fill="#00b2b2" shape-rendering="crispEdges" points="318.455,302.301 316.27,305.309 314.315,305.309"/>
<polygon fill="#00b2b2" shape-rendering="crispEdges" points="318.455,302.301 314.315,305.309 312.734,304.16"/>
<polygon fill="#00b2b2" shape-rendering="crispEdges" points="318.455,302.301 312.734,304.16 312.13,302.301"/>
<polygon fill="#00b2b2" shape-rendering="crispEdges" points="318.455,302.301 312.13,302.301 312.734,300.442"/>
<polygon fill="#00b2b2" shape-rendering="crispEdges" points="318.455,302.301 312.734,300.442 314.315,299.293"/>
<polygon fill="#00b2b2" shape-rendering="crispEdges" points="318.455,302.301 314.315,299.293 316.27,299.293"/>
<polygon fill="#00b2b2" shape-rendering="crispEdges" points="318.455,302.301 316.27,299.293 317.851,300.442"/>
<polygon fill="#00b2b2" shape-rendering="crispEdges" points="398.592,105.804 397.988,107.663 396.407,108.811"/>
<polygon fill="#00b2b2" shape-rendering="crispEdges" points="398.592,105.804 396.407,108.811 394.453,108.811"/>
<polygon fill="#00b2b2" shape-rendering="crispEdges" points="398.592,105.804 394.453,108.811 392.872,107.663"/>
<polygon fill="#00b2b2" shape-rendering="crispEdges" points="398.592,105.804 392.872,107.663 392.268,105.804"/>
<polygon fill="#00b2b2" shape-rendering="crispEdges" points="398.592,105.804 392.268,105.804 392.872,103.945"/>
<polygon fill="#00b2b2" shape-rendering="crispEdges" points="398.592,105.804 392.872,103.945 394.453,102.796"/>
<polygon fill="#00b2b2" shape-rendering="crispEdges" points="398.592,105.804 394.453,102.796 396.407,102.796"/>
<polygon fill="#00b2b2" shape-rendering="crispEdges" points="398.592,105.804 396.407,102.796 397.988,103.945"/>
<polygon fill="#00b2b2" shape-rendering="crispEdges" points="158.18,302.301 157.576,304.16 155.995,305.309"/>
<polygon fill="#00b2b2" shape-rendering="crispEdges" points="158.18,302.301 155.995,305.309 154.041,305.309"/>
<polygon fill="#00b2b2" shape-rendering="crispEdges" points="158.18,302.301 154.041,305.309 152.459,304.16"/>
<polygon fill="#00b2b2" shape-rendering="crispEdges" points="158.18,302.301 152.459,304.16 151.855,302.301"/>
<polygon fill="#00b2b2" shape-rendering="crispEdges" points="158.18,302.301 151.855,302.301 152.459,300.442"/>
<polygon fill="#00b2b2" shape-rendering="crispEdges" points="158.18,302.301 152.459,300.442 154.041,299.293"/>
<polygon fill="#00b2b2" shape-rendering="crispEdges" points="158.18,302.301 154.041,299.293 155.995,299.293"/>
<polygon fill="#00b2b2" shape-rendering="crispEdges" points="158.18,302.301 155.995,299.293 157.576,300.442"/>
<polygon fill="#00b2b2" shape-rendering="crispEdges" points="238.317,255.914 237.713,257.773 236.132,258.922"/>
<polygon fill="#00b2b2" shape-rendering="crispEdges" points="238.317,255.914 236.132,258.922 234.178,258.922"/>
<polygon fill="#00b2b2" shape-rendering="crispEdges" points="238.317,255.914 234.178,258.922 232.597,257.773"/>
<polygon fill="#00b2b2" shape-rendering="crispEdges" points="238.317,255.914 232.597,257.773 231.993,255.914"/>
<polygon fill="#00b2b2" shape-rendering="crispEdges" points="238.317,255.914 231.993,255.914 232.597,254.056"/>
<polygon fill="#00b2b2" shape-rendering="crispEdges" points="238.317,255.914 232.597,254.056 234.178,252.907"/>
<polygon fill="#00b2b2" shape-rendering="crispEdges" points="238.317,255.914 234.178,252.907 236.132,252.907"/>
<polygon fill="#00b2b2" shape-rendering="crispEdges" points="238.317,255.914 236.132,252.907 237.713,254.056"/>
<polygon fill="#00b2b2" shape-rendering="crispEdges" points="318.455,105.804 317.851,107.663 316.27,108.811"/>
<polygon fill="#00b2b2" shape-rendering="crispEdges" points="318.455,105.804 316.27,108.811 314.315,108.811"/>
<polygon fill="#00b2b2" shape-rendering="crispEdges" points="318.455,105.804 314.315,108.811 312.734,107.663"/>
<polygon fill="#00b2b2" shape-rendering="crispEdges" points="318.455,105.804 312.734,107.663 312.13,105.804"/>
<polygon fill="#00b2b2" shape-rendering="crispEdges" points="318.455,105.804 312.13,105.804 312.734,103.945"/>
<polygon fill="#00b2b2" shape-rendering="crispEdges" points="318.455,105.804 312.734,103.945 314.315,102.796"/>
<polygon fill="#00b2b2" shape-rendering="crispEdges" points="318.455,105.804 314.315,102.796 316.27,102.796"/>
<polygon fill="#00b2b2" shape-rendering="crispEdges" points="318.455,105.804 316.27,102.796 317.851,103.945"/>
<polygon fill="#00b2b2" shape-rendering="crispEdges" points="398.592,59.417 397.988,61.2759 396.407,62.4243"/>
<polygon fill="#00b2b2" shape-rendering="crispEdges" points="398.592,59.417 396.407,62.4243 394.453,62.4243"/>
<polygon fill="#00b2b2" shape-rendering="crispEdges" points="398.592,59.417 394.453,62.4243 392.872,61.2759"/>
<polygon fill="#00b2b2" shape-rendering="crispEdges" points="398.592,59.417 392.872,61.2759 392.268,59.417"/>
<polygon fill="#00b2b2" shape-rendering="crispEdges" points="398.592,59.417 392.268,59.417 392.872,57.5581"/>
<polygon fill="#00b2b2" shape-rendering="crispEdges" points="398.592,59.417 392.872,57.5581 394.453,56.4092"/>
<polygon fill="#00b2b2" shape-rendering="crispEdges" points="398.592,59.417 394.453,56.4092 396.407,56.4092"/>
<polygon fill="#00b2b2" shape-rendering="crispEdges" points="398.592,59.417 396.407,56.4092 397.988,57.5581"/>
<polygon fill="#00b2b2" shape-rendering="crispEdges" points="78.0425,180.859 77.4385,182.718 75.8574,183.867"/>
<polygon fill="#00b2b2" shape-rendering="crispEdges" points="78.0425,180.859 75.8574,183.867 73.9028,183.867"/>
<polygon fill="#00b2b2" shape-rendering="crispEdges" points="78.0425,180.859 73.9028,183.867 72.3218,182.718"/>
<polygon fill="#00b2b2" shape-rendering="crispEdges" points="78.0425,180.859 72.3218,182.718 71.7178,180.859"/>
<polygon fill="#00b2b2" shape-rendering="crispEdges" points="78.0425,180.859 71.7178,180.859 72.3218,179"/>
<polygon fill="#00b2b2" shape-rendering="crispEdges" points="78.0425,180.859 72.3218,179 73.9028,177.852"/>
<polygon fill="#00b2b2" shape-rendering="crispEdges" points="78.0425,180.859 73.9028,177.852 75.8574,177.852"/>
<polygon fill="#00b2b2" shape-rendering="crispEdges" points="78.0425,180.859 75.8574,177.852 77.4385,179"/>
<polygon fill="#00b2b2" shape-rendering="crispEdges" points="158.18,180.859 157.576,182.718 155.995,183.867"/>
<polygon fill="#00b2b2" shape-rendering="crispEdges" points="158.18,180.859 155.995,183.867 154.041,183.867"/>
<polygon fill="#00b2b2" shape-rendering="crispEdges" points="158.18,180.859 154.041,183.867 152.459,182.718"/>
<polygon fill="#00b2b2" shape-rendering="crispEdges" points="158.18,180.859 152.459,182.718 151.855,180.859"/>
<polygon fill="#00b2b2" shape-rendering="crispEdges" points="158.18,180.859 151.855,180.859 152.459,179"/>
<polygon fill="#00b2b2" shape-rendering="crispEdges" points="158.18,180.859 152.459,179 154.041,177.852"/>
<polygon fill="#00b2b2" shape-rendering="crispEdges" points="158.18,180.859 154.041,177.852 155.995,177.852"/>
<polygon fill="#00b2b2" shape-rendering="crispEdges" points="158.18,180.859 155.995,177.852 157.576,179"/>
<polygon fill="#00b2b2" shape-rendering="crispEdges" points="238.317,180.859 237.713,182.718 236.132,183.867"/>
<polygon fill="#00b2b2" shape-rendering="crispEdges" points="238.317,180.859 236.132,183.867 234.178,183.867"/>
<polygon fill="#00b2b2" shape-rendering="crispEdges" points="238.317,180.859 234.178,183.867 232.597,182.718"/>
<polygon fill="#00b2b2" shape-rendering="crispEdges" points="238.317,180.859 232.597,182.718 231.993,180.859"/>
<polygon fill="#00b2b2" shape-rendering="crispEdges" points="238.317,180.859 231.993,180.859 232.597,179"/>
<polygon fill="#00b2b2" shape-rendering="crispEdges" points="238.317,180.859 232.597,179 234.178,177.852"/>
<polygon fill="#00b2b2" shape-rendering="crispEdges" points="238.317,180.859 234.178,177.852 236.132,177.852"/>
<polygon fill="#00b2b2" shape-rendering="crispEdges" points="238.317,180.859 236.132,177.852 237.713,179"/>
<polygon fill="#00b2b2" shape-rendering="crispEdges" points="318.455,180.859 317.851,182.718 316.27,183.867"/>
<polygon fill="#00b2b2" shape-rendering="crispEdges" points="318.455,180.859 316.27,183.867 314.315,183.867"/>
<polygon fill="#00b2b2" shape-rendering="crispEdges" points="318.455,180.859 314.315,183.867 312.734,182.718"/>
<polygon fill="#00b2b2" shape-rendering="crispEdges" points="318.455,180.859 312.734,182.718 312.13,180.859"/>
<polygon fill="#00b2b2" shape-rendering="crispEdges" points="318.455,180.859 312.13,180.859 312.734,179"/>
<polygon fill="#00b2b2" shape-rendering="crispEdges" points="318.455,180.859 312.734,179 314.315,177.852"/>
<polygon fill="#00b2b2" shape-rendering="crispEdges" points="318.455,180.859 314.315,177.852 316.27,177.852"/>
<polygon fill="#00b2b2" shape-rendering="crispEdges" points="318.455,180.859 316.27,177.852 317.851,179"/>
<polygon fill="#00b2b2" shape-rendering="crispEdges" points="398.592,180.859 397.988,182.718 396.407,183.867"/>
<polygon fill="#00b2b2" shape-rendering="crispEdges" points="398.592,180.859 396.407,183.867 394.453,183.867"/>
<polygon fill="#00b2b2" shape-rendering="crispEdges" points="398.592,180.859 394.453,183.867 392.872,182.718"/>
<polygon fill="#00b2b2" shape-rendering="crispEdges" points="398.592,180.859 392.872,182.718 392.268,180.859"/>
<polygon fill="#00b2b2" shape-rendering="crispEdges" points="398.592,180.859 392.268,180.859 392.872,179"/>
<polygon fill="#00b2b2" shape-rendering="crispEdges" points="398.592,180.859 392.872,179 394.453,177.852"/>
<polygon fill="#00b2b2" shape-rendering="crispEdges" points="398.592,180.859 394.453,177.852 396.407,177.852"/>
<polygon fill="#00b2b2" shape-rendering="crispEdges" points="398.592,180.859 396.407,177.852 397.988,179"/>
</g>
<clipPath id="cp00576432">
  <polygon points="0,432 576,432 576,0 0,0"/>
</clipPath>
<g clip-path="url(#cp00576432)">
<polygon fill="#ffffff" shape-rendering="crispEdges" points="188.013,429.255 408.146,429.255 408.146,332.559"/>
<polygon fill="#ffffff" shape-rendering="crispEdges" points="188.013,429.255 408.146,332.559 188.013,332.559"/>
<polyline fill="none" stroke="#262626" stroke-width="0.5" stroke-linecap="butt" stroke-linejoin="miter" stroke-dasharray="16,0" points="188.013,429.255 408.146,429.255"/>
<polyline fill="none" stroke="#262626" stroke-width="0.5" stroke-linecap="butt" stroke-linejoin="miter" stroke-dasharray="16,0" points="188.013,332.559 408.146,332.559"/>
<polyline fill="none" stroke="#262626" stroke-width="0.5" stroke-linecap="butt" stroke-linejoin="miter" stroke-dasharray="16,0" points="188.013,429.255 188.013,332.559"/>
<polyline fill="none" stroke="#262626" stroke-width="0.5" stroke-linecap="butt" stroke-linejoin="miter" stroke-dasharray="16,0" points="408.146,429.255 408.146,332.559"/>
<text fill="#000000" x="214.087" y="340.617" font-size="10" text-anchor="start" dy="5" font-family="Helvetica">-sin(t/5*1), T = 10pi = 31.41</text>
<text fill="#000000" x="214.087" y="356.733" font-size="10" text-anchor="start" dy="5" font-family="Helvetica">-sin(t/5*2), T = 8pi  = 25.13</text>
<text fill="#000000" x="214.087" y="372.849" font-size="10" text-anchor="start" dy="5" font-family="Helvetica">-sin(t/5*3), T = 6pi  = 18.85</text>
<text fill="#000000" x="214.087" y="388.965" font-size="10" text-anchor="start" dy="5" font-family="Helvetica"> sin(t/5*4), T = 4pi  = 12.56</text>
<text fill="#000000" x="214.087" y="405.081" font-size="10" text-anchor="start" dy="5" font-family="Helvetica"> sin(t/5*5), T = 2pi  = 6.28</text>
<text fill="#000000" x="214.087" y="421.197" font-size="10" text-anchor="start" dy="5" font-family="Helvetica">Samples at dt = 5*2*pi/5 = 2pi = 6.28</text>
<polyline fill="none" stroke="#ff0000" stroke-width="2" stroke-linecap="butt" stroke-linejoin="miter" points="190.758,340.617 211.343,340.617"/>
<polyline fill="none" stroke="#0000ff" stroke-width="2" stroke-linecap="butt" stroke-linejoin="miter" points="190.758,356.733 211.343,356.733"/>
<polyline fill="none" stroke="#00ff00" stroke-width="2" stroke-linecap="butt" stroke-linejoin="miter" points="190.758,372.849 211.343,372.849"/>
<polyline fill="none" stroke="#ff00ff" stroke-width="2" stroke-linecap="butt" stroke-linejoin="miter" points="190.758,388.965 211.343,388.965"/>
<polyline fill="none" stroke="#00ffff" stroke-width="2" stroke-linecap="butt" stroke-linejoin="miter" points="190.758,405.081 211.343,405.081"/>
<polyline fill="none" stroke="#007f7f" stroke-width="0.5" stroke-linecap="butt" stroke-linejoin="miter" points="204.213,421.197 203.609,423.056 202.028,424.205 200.073,424.205 198.492,423.056 197.888,421.197 198.492,419.338 200.073,418.19 202.028,418.19 203.609,419.338 204.213,421.197"/>
<polygon fill="#00b2b2" shape-rendering="crispEdges" points="204.213,421.197 203.609,423.056 202.028,424.205"/>
<polygon fill="#00b2b2" shape-rendering="crispEdges" points="204.213,421.197 202.028,424.205 200.073,424.205"/>
<polygon fill="#00b2b2" shape-rendering="crispEdges" points="204.213,421.197 200.073,424.205 198.492,423.056"/>
<polygon fill="#00b2b2" shape-rendering="crispEdges" points="204.213,421.197 198.492,423.056 197.888,421.197"/>
<polygon fill="#00b2b2" shape-rendering="crispEdges" points="204.213,421.197 197.888,421.197 198.492,419.338"/>
<polygon fill="#00b2b2" shape-rendering="crispEdges" points="204.213,421.197 198.492,419.338 200.073,418.19"/>
<polygon fill="#00b2b2" shape-rendering="crispEdges" points="204.213,421.197 200.073,418.19 202.028,418.19"/>
<polygon fill="#00b2b2" shape-rendering="crispEdges" points="204.213,421.197 202.028,418.19 203.609,419.338"/>
</g>
</g>
</svg>
