<?xml version="1.0" encoding="UTF-8" standalone="no"?>
<svg xmlns="http://www.w3.org/2000/svg"
     xmlns:xlink="http://www.w3.org/1999/xlink"
     width="576px" height="432px" viewBox="0 0 576 432">
<title>gl2ps_renderer figure</title>
<desc>
Creator: GL2PS 1.4.0, (C) 1999-2017 C. Geuzaine
For: Octave
CreationDate: Mon Dec  2 22:39:23 2019
</desc>
<defs>
</defs>
<polygon fill="#ffffff" points="0,0 576,0 576,432 0,432"/>
<g>
<polygon fill="#ffffff" points="0,432 576,432 576,0 0,0" shape-rendering="crispEdges"/>
<clipPath id="cp00576432">
  <polygon points="0,432 576,432 576,0 0,0"/>
</clipPath>
<g clip-path="url(#cp00576432)">
<polygon fill="#ffffff" shape-rendering="crispEdges" points="74.8799,356.899 521.28,356.899 521.28,53.1675"/>
<polygon fill="#ffffff" shape-rendering="crispEdges" points="74.8799,356.899 521.28,53.1675 74.8799,53.1675"/>
<polyline fill="none" stroke="#262626" stroke-width="0.5" stroke-linecap="butt" stroke-linejoin="miter" stroke-opacity="0.15" stroke-dasharray="16,0" points="74.8799,356.899 74.8799,53.1675"/>
<polyline fill="none" stroke="#262626" stroke-width="0.5" stroke-linecap="butt" stroke-linejoin="miter" stroke-opacity="0.15" stroke-dasharray="16,0" points="138.651,356.899 138.651,53.1675"/>
<polyline fill="none" stroke="#262626" stroke-width="0.5" stroke-linecap="butt" stroke-linejoin="miter" stroke-opacity="0.15" stroke-dasharray="16,0" points="202.423,356.899 202.423,53.1675"/>
<polyline fill="none" stroke="#262626" stroke-width="0.5" stroke-linecap="butt" stroke-linejoin="miter" stroke-opacity="0.15" stroke-dasharray="16,0" points="266.194,356.899 266.194,53.1675"/>
<polyline fill="none" stroke="#262626" stroke-width="0.5" stroke-linecap="butt" stroke-linejoin="miter" stroke-opacity="0.15" stroke-dasharray="16,0" points="329.966,356.899 329.966,53.1675"/>
<polyline fill="none" stroke="#262626" stroke-width="0.5" stroke-linecap="butt" stroke-linejoin="miter" stroke-opacity="0.15" stroke-dasharray="16,0" points="393.737,356.899 393.737,53.1675"/>
<polyline fill="none" stroke="#262626" stroke-width="0.5" stroke-linecap="butt" stroke-linejoin="miter" stroke-opacity="0.15" stroke-dasharray="16,0" points="457.509,356.899 457.509,53.1675"/>
<polyline fill="none" stroke="#262626" stroke-width="0.5" stroke-linecap="butt" stroke-linejoin="miter" stroke-opacity="0.15" stroke-dasharray="16,0" points="521.28,356.899 521.28,53.1675"/>
<polyline fill="none" stroke="#262626" stroke-width="0.5" stroke-linecap="butt" stroke-linejoin="miter" points="74.8799,356.899 74.8799,352.439"/>
<polyline fill="none" stroke="#262626" stroke-width="0.5" stroke-linecap="butt" stroke-linejoin="miter" points="138.651,356.899 138.651,352.439"/>
<polyline fill="none" stroke="#262626" stroke-width="0.5" stroke-linecap="butt" stroke-linejoin="miter" points="202.423,356.899 202.423,352.439"/>
<polyline fill="none" stroke="#262626" stroke-width="0.5" stroke-linecap="butt" stroke-linejoin="miter" points="266.194,356.899 266.194,352.439"/>
<polyline fill="none" stroke="#262626" stroke-width="0.5" stroke-linecap="butt" stroke-linejoin="miter" points="329.966,356.899 329.966,352.439"/>
<polyline fill="none" stroke="#262626" stroke-width="0.5" stroke-linecap="butt" stroke-linejoin="miter" points="393.737,356.899 393.737,352.439"/>
<polyline fill="none" stroke="#262626" stroke-width="0.5" stroke-linecap="butt" stroke-linejoin="miter" points="457.509,356.899 457.509,352.439"/>
<polyline fill="none" stroke="#262626" stroke-width="0.5" stroke-linecap="butt" stroke-linejoin="miter" points="521.28,356.899 521.28,352.439"/>
<text fill="#262626" x="74.8799" y="361.895" font-size="10" text-anchor="middle" dy="10" font-family="Helvetica">0</text>
<text fill="#262626" x="138.651" y="361.895" font-size="10" text-anchor="middle" dy="10" font-family="Helvetica">2</text>
<text fill="#262626" x="202.423" y="361.895" font-size="10" text-anchor="middle" dy="10" font-family="Helvetica">4</text>
<text fill="#262626" x="266.194" y="361.895" font-size="10" text-anchor="middle" dy="10" font-family="Helvetica">6</text>
<text fill="#262626" x="329.966" y="361.895" font-size="10" text-anchor="middle" dy="10" font-family="Helvetica">8</text>
<text fill="#262626" x="393.737" y="361.895" font-size="10" text-anchor="middle" dy="10" font-family="Helvetica">10</text>
<text fill="#262626" x="457.509" y="361.895" font-size="10" text-anchor="middle" dy="10" font-family="Helvetica">12</text>
<text fill="#262626" x="521.28" y="361.895" font-size="10" text-anchor="middle" dy="10" font-family="Helvetica">14</text>
<polyline fill="none" stroke="#262626" stroke-width="0.5" stroke-linecap="butt" stroke-linejoin="miter" stroke-opacity="0.15" stroke-dasharray="16,0" points="74.8799,356.899 521.28,356.899"/>
<polyline fill="none" stroke="#262626" stroke-width="0.5" stroke-linecap="butt" stroke-linejoin="miter" stroke-opacity="0.15" stroke-dasharray="16,0" points="74.8799,280.966 521.28,280.966"/>
<polyline fill="none" stroke="#262626" stroke-width="0.5" stroke-linecap="butt" stroke-linejoin="miter" stroke-opacity="0.15" stroke-dasharray="16,0" points="74.8799,205.033 521.28,205.033"/>
<polyline fill="none" stroke="#262626" stroke-width="0.5" stroke-linecap="butt" stroke-linejoin="miter" stroke-opacity="0.15" stroke-dasharray="16,0" points="74.8799,129.1 521.28,129.1"/>
<polyline fill="none" stroke="#262626" stroke-width="0.5" stroke-linecap="butt" stroke-linejoin="miter" stroke-opacity="0.15" stroke-dasharray="16,0" points="74.8799,53.1675 521.28,53.1675"/>
<polyline fill="none" stroke="#262626" stroke-width="0.5" stroke-linecap="butt" stroke-linejoin="miter" points="74.8799,356.899 79.3481,356.899"/>
<polyline fill="none" stroke="#262626" stroke-width="0.5" stroke-linecap="butt" stroke-linejoin="miter" points="74.8799,280.966 79.3481,280.966"/>
<polyline fill="none" stroke="#262626" stroke-width="0.5" stroke-linecap="butt" stroke-linejoin="miter" points="74.8799,205.033 79.3481,205.033"/>
<polyline fill="none" stroke="#262626" stroke-width="0.5" stroke-linecap="butt" stroke-linejoin="miter" points="74.8799,129.1 79.3481,129.1"/>
<polyline fill="none" stroke="#262626" stroke-width="0.5" stroke-linecap="butt" stroke-linejoin="miter" points="74.8799,53.1675 79.3481,53.1675"/>
<text fill="#262626" x="69.8755" y="356.899" font-size="10" text-anchor="end" dy="5" font-family="Helvetica">-1</text>
<text fill="#262626" x="69.8755" y="280.966" font-size="10" text-anchor="end" dy="5" font-family="Helvetica">-0.5</text>
<text fill="#262626" x="69.8755" y="205.033" font-size="10" text-anchor="end" dy="5" font-family="Helvetica">0</text>
<text fill="#262626" x="69.8755" y="129.1" font-size="10" text-anchor="end" dy="5" font-family="Helvetica">0.5</text>
<text fill="#262626" x="69.8755" y="53.1675" font-size="10" text-anchor="end" dy="5" font-family="Helvetica">1</text>
<polyline fill="none" stroke="#262626" stroke-width="0.5" stroke-linecap="butt" stroke-linejoin="miter" stroke-dasharray="16,0" points="74.8799,356.899 521.28,356.899"/>
<polyline fill="none" stroke="#262626" stroke-width="0.5" stroke-linecap="butt" stroke-linejoin="miter" stroke-dasharray="16,0" points="74.8799,356.899 74.8799,53.1675"/>
<polyline fill="none" stroke="#ff0000" stroke-width="2" stroke-linecap="butt" stroke-linejoin="miter" points="74.8799,205.033 78.8867,214.569 82.8936,224.067 86.9004,233.49 90.9077,242.801 94.9146,251.962 98.9214,260.938 102.928,269.694 106.935,278.195 110.942,286.407 114.949,294.298 118.956,301.836 122.962,308.993 126.969,315.739 130.976,322.048 134.983,327.895 138.99,333.258 142.997,338.114 147.004,342.445 151.011,346.234 155.018,349.466 159.024,352.128 163.031,354.209 167.038,355.702 171.045,356.599 175.052,356.899 179.059,356.599 183.065,355.702 187.073,354.209 191.08,352.128 195.086,349.466 199.093,346.234 203.1,342.445 207.107,338.114 211.114,333.258 215.121,327.895 219.127,322.048 223.134,315.739 227.141,308.993 231.148,301.836 235.155,294.298 239.162,286.407 243.169,278.195 247.176,269.694 251.183,260.938 255.189,251.962 259.196,242.801 263.203,233.49 267.21,224.067 271.217,214.569 275.224,205.033 279.231,195.498 283.238,185.999 287.245,176.576 291.251,167.266 295.258,158.104 299.265,149.127 303.272,140.372 307.279,131.871 311.286,123.659 315.292,115.769 319.299,108.23 323.306,101.074 327.313,94.3276 331.32,88.0186 335.327,82.1709 339.334,76.8086 343.341,71.9521 347.348,67.6206 351.354,63.8315 355.361,60.6001 359.368,57.9385 363.375,55.8574 367.382,54.3647 371.389,53.4668 375.396,53.1675 379.403,53.4668 383.41,54.3647 387.417,55.8574 391.423,57.9385 395.43,60.6001 399.437,63.8315 403.444,67.6206 407.451,71.9521 411.458,76.8086 415.464,82.1709 419.471,88.0186 423.479,94.3276 427.485,101.074 431.492,108.23 435.499,115.769 439.506,123.659 443.513,131.871 447.52,140.372 451.526,149.127 455.533,158.104 459.54,167.266 463.547,176.576 467.554,185.999 471.561,195.498 475.568,205.033"/>
<polyline fill="none" stroke="#007f7f" stroke-width="1.5" stroke-linecap="butt" stroke-linejoin="miter" points="78.0425,205.033 77.4385,206.892 75.8574,208.041 73.9028,208.041 72.3218,206.892 71.7178,205.033 72.3218,203.174 73.9028,202.025 75.8574,202.025 77.4385,203.174 78.0425,205.033"/>
<polyline fill="none" stroke="#007f7f" stroke-width="1.5" stroke-linecap="butt" stroke-linejoin="miter" points="278.386,205.033 277.782,206.892 276.201,208.041 274.247,208.041 272.666,206.892 272.062,205.033 272.666,203.174 274.247,202.025 276.201,202.025 277.782,203.174 278.386,205.033"/>
<polyline fill="none" stroke="#0000ff" stroke-width="2" stroke-linecap="butt" stroke-linejoin="miter" points="74.8799,205.033 78.8867,185.999 82.8936,167.266 86.9004,149.127 90.9077,131.871 94.9146,115.769 98.9214,101.074 102.928,88.0186 106.935,76.8086 110.942,67.6206 114.949,60.6001 118.956,55.8574 122.962,53.4668 126.969,53.4668 130.976,55.8574 134.983,60.6001 138.99,67.6206 142.997,76.8086 147.004,88.0186 151.011,101.074 155.018,115.769 159.024,131.871 163.031,149.127 167.038,167.266 171.045,185.999 175.052,205.033 179.059,224.067 183.065,242.801 187.073,260.938 191.08,278.195 195.086,294.298 199.093,308.993 203.1,322.048 207.107,333.258 211.114,342.445 215.121,349.466 219.127,354.209 223.134,356.599 227.141,356.599 231.148,354.209 235.155,349.466 239.162,342.445 243.169,333.258 247.176,322.048 251.183,308.993 255.189,294.298 259.196,278.195 263.203,260.938 267.21,242.801 271.217,224.067 275.224,205.033 279.231,185.999 283.238,167.266 287.245,149.127 291.251,131.871 295.258,115.769 299.265,101.074 303.272,88.0186 307.279,76.8086 311.286,67.6206 315.292,60.6001 319.299,55.8574 323.306,53.4668 327.313,53.4668 331.32,55.8574 335.327,60.6001 339.334,67.6206 343.341,76.8086 347.348,88.0186 351.354,101.074 355.361,115.769 359.368,131.871 363.375,149.127 367.382,167.266 371.389,185.999 375.396,205.033 379.403,224.067 383.41,242.801 387.417,260.938 391.423,278.195 395.43,294.298 399.437,308.993 403.444,322.048 407.451,333.258 411.458,342.445 415.464,349.466 419.471,354.209 423.479,356.599 427.485,356.599 431.492,354.209 435.499,349.466 439.506,342.445 443.513,333.258 447.52,322.048 451.526,308.993 455.533,294.298 459.54,278.195 463.547,260.938 467.554,242.801 471.561,224.067 475.568,205.033"/>
<polyline fill="none" stroke="#007f7f" stroke-width="1.5" stroke-linecap="butt" stroke-linejoin="miter" points="78.0425,205.033 77.4385,206.892 75.8574,208.041 73.9028,208.041 72.3218,206.892 71.7178,205.033 72.3218,203.174 73.9028,202.025 75.8574,202.025 77.4385,203.174 78.0425,205.033"/>
<polyline fill="none" stroke="#007f7f" stroke-width="1.5" stroke-linecap="butt" stroke-linejoin="miter" points="278.386,205.033 277.782,206.892 276.201,208.041 274.247,208.041 272.666,206.892 272.062,205.033 272.666,203.174 274.247,202.025 276.201,202.025 277.782,203.174 278.386,205.033"/>
<polyline fill="none" stroke="#007f7f" stroke-width="1.5" stroke-linecap="butt" stroke-linejoin="miter" points="78.0425,205.033 77.4385,206.892 75.8574,208.041 73.9028,208.041 72.3218,206.892 71.7178,205.033 72.3218,203.174 73.9028,202.025 75.8574,202.025 77.4385,203.174 78.0425,205.033"/>
<polyline fill="none" stroke="#007f7f" stroke-width="1.5" stroke-linecap="butt" stroke-linejoin="miter" points="278.386,205.033 277.782,206.892 276.201,208.041 274.247,208.041 272.666,206.892 272.062,205.033 272.666,203.174 274.247,202.025 276.201,202.025 277.782,203.174 278.386,205.033"/>
<polygon fill="#00b2b2" shape-rendering="crispEdges" points="78.0425,205.033 77.4385,206.892 75.8574,208.041"/>
<polygon fill="#00b2b2" shape-rendering="crispEdges" points="78.0425,205.033 75.8574,208.041 73.9028,208.041"/>
<polygon fill="#00b2b2" shape-rendering="crispEdges" points="78.0425,205.033 73.9028,208.041 72.3218,206.892"/>
<polygon fill="#00b2b2" shape-rendering="crispEdges" points="78.0425,205.033 72.3218,206.892 71.7178,205.033"/>
<polygon fill="#00b2b2" shape-rendering="crispEdges" points="78.0425,205.033 71.7178,205.033 72.3218,203.174"/>
<polygon fill="#00b2b2" shape-rendering="crispEdges" points="78.0425,205.033 72.3218,203.174 73.9028,202.025"/>
<polygon fill="#00b2b2" shape-rendering="crispEdges" points="78.0425,205.033 73.9028,202.025 75.8574,202.025"/>
<polygon fill="#00b2b2" shape-rendering="crispEdges" points="78.0425,205.033 75.8574,202.025 77.4385,203.174"/>
<polygon fill="#00b2b2" shape-rendering="crispEdges" points="278.386,205.033 277.782,206.892 276.201,208.041"/>
<polygon fill="#00b2b2" shape-rendering="crispEdges" points="278.386,205.033 276.201,208.041 274.247,208.041"/>
<polygon fill="#00b2b2" shape-rendering="crispEdges" points="278.386,205.033 274.247,208.041 272.666,206.892"/>
<polygon fill="#00b2b2" shape-rendering="crispEdges" points="278.386,205.033 272.666,206.892 272.062,205.033"/>
<polygon fill="#00b2b2" shape-rendering="crispEdges" points="278.386,205.033 272.062,205.033 272.666,203.174"/>
<polygon fill="#00b2b2" shape-rendering="crispEdges" points="278.386,205.033 272.666,203.174 274.247,202.025"/>
<polygon fill="#00b2b2" shape-rendering="crispEdges" points="278.386,205.033 274.247,202.025 276.201,202.025"/>
<polygon fill="#00b2b2" shape-rendering="crispEdges" points="278.386,205.033 276.201,202.025 277.782,203.174"/>
</g>
<clipPath id="cp00576432">
  <polygon points="0,432 576,432 576,0 0,0"/>
</clipPath>
<g clip-path="url(#cp00576432)">
<polygon fill="#ffffff" shape-rendering="crispEdges" points="196.242,429.255 399.918,429.255 399.918,380.907"/>
<polygon fill="#ffffff" shape-rendering="crispEdges" points="196.242,429.255 399.918,380.907 196.242,380.907"/>
<polyline fill="none" stroke="#262626" stroke-width="0.5" stroke-linecap="butt" stroke-linejoin="miter" stroke-dasharray="16,0" points="196.242,429.255 399.918,429.255"/>
<polyline fill="none" stroke="#262626" stroke-width="0.5" stroke-linecap="butt" stroke-linejoin="miter" stroke-dasharray="16,0" points="196.242,380.907 399.918,380.907"/>
<polyline fill="none" stroke="#262626" stroke-width="0.5" stroke-linecap="butt" stroke-linejoin="miter" stroke-dasharray="16,0" points="196.242,429.255 196.242,380.907"/>
<polyline fill="none" stroke="#262626" stroke-width="0.5" stroke-linecap="butt" stroke-linejoin="miter" stroke-dasharray="16,0" points="399.918,429.255 399.918,380.907"/>
<text fill="#000000" x="222.316" y="388.965" font-size="10" text-anchor="start" dy="5" font-family="Helvetica">-sin(t/2*1), T = 6pi = 18.85</text>
<text fill="#000000" x="222.316" y="405.081" font-size="10" text-anchor="start" dy="5" font-family="Helvetica"> sin(t/2*2), T = 6pi = 9.42</text>
<text fill="#000000" x="222.316" y="421.197" font-size="10" text-anchor="start" dy="5" font-family="Helvetica">Samples at dt = 4pi/2 = 2pi = 6.28</text>
<polyline fill="none" stroke="#ff0000" stroke-width="2" stroke-linecap="butt" stroke-linejoin="miter" points="198.987,388.965 219.572,388.965"/>
<polyline fill="none" stroke="#0000ff" stroke-width="2" stroke-linecap="butt" stroke-linejoin="miter" points="198.987,405.081 219.572,405.081"/>
<polyline fill="none" stroke="#007f7f" stroke-width="0.5" stroke-linecap="butt" stroke-linejoin="miter" points="212.441,421.197 211.837,423.056 210.256,424.205 208.302,424.205 206.721,423.056 206.117,421.197 206.721,419.338 208.302,418.19 210.256,418.19 211.837,419.338 212.441,421.197"/>
<polygon fill="#00b2b2" shape-rendering="crispEdges" points="212.441,421.197 211.837,423.056 210.256,424.205"/>
<polygon fill="#00b2b2" shape-rendering="crispEdges" points="212.441,421.197 210.256,424.205 208.302,424.205"/>
<polygon fill="#00b2b2" shape-rendering="crispEdges" points="212.441,421.197 208.302,424.205 206.721,423.056"/>
<polygon fill="#00b2b2" shape-rendering="crispEdges" points="212.441,421.197 206.721,423.056 206.117,421.197"/>
<polygon fill="#00b2b2" shape-rendering="crispEdges" points="212.441,421.197 206.117,421.197 206.721,419.338"/>
<polygon fill="#00b2b2" shape-rendering="crispEdges" points="212.441,421.197 206.721,419.338 208.302,418.19"/>
<polygon fill="#00b2b2" shape-rendering="crispEdges" points="212.441,421.197 208.302,418.19 210.256,418.19"/>
<polygon fill="#00b2b2" shape-rendering="crispEdges" points="212.441,421.197 210.256,418.19 211.837,419.338"/>
</g>
</g>
</svg>
