<?xml version="1.0" encoding="UTF-8" standalone="no"?>
<svg xmlns="http://www.w3.org/2000/svg"
     xmlns:xlink="http://www.w3.org/1999/xlink"
     width="576px" height="432px" viewBox="0 0 576 432">
<title>gl2ps_renderer figure</title>
<desc>
Creator: GL2PS 1.4.0, (C) 1999-2017 C. Geuzaine
For: Octave
CreationDate: Sat Nov  2 15:24:52 2019
</desc>
<defs>
</defs>
<polygon fill="#ffffff" points="0,0 576,0 576,432 0,432"/>
<g>
<polygon fill="#ffffff" points="0,432 576,432 576,0 0,0" shape-rendering="crispEdges"/>
<clipPath id="cp00576432">
  <polygon points="0,432 576,432 576,0 0,0"/>
</clipPath>
<g clip-path="url(#cp00576432)">
<polygon fill="#ffffff" shape-rendering="crispEdges" points="74.8799,384.48 521.28,384.48 521.28,32.3999"/>
<polygon fill="#ffffff" shape-rendering="crispEdges" points="74.8799,384.48 521.28,32.3999 74.8799,32.3999"/>
<polyline fill="none" stroke="#262626" stroke-width="0.5" stroke-linecap="butt" stroke-linejoin="miter" stroke-opacity="0.15" stroke-dasharray="16,0" points="74.8799,384.48 74.8799,32.3999"/>
<polyline fill="none" stroke="#262626" stroke-width="0.5" stroke-linecap="butt" stroke-linejoin="miter" stroke-opacity="0.15" stroke-dasharray="16,0" points="149.28,384.48 149.28,32.3999"/>
<polyline fill="none" stroke="#262626" stroke-width="0.5" stroke-linecap="butt" stroke-linejoin="miter" stroke-opacity="0.15" stroke-dasharray="16,0" points="223.68,384.48 223.68,32.3999"/>
<polyline fill="none" stroke="#262626" stroke-width="0.5" stroke-linecap="butt" stroke-linejoin="miter" stroke-opacity="0.15" stroke-dasharray="16,0" points="298.08,384.48 298.08,32.3999"/>
<polyline fill="none" stroke="#262626" stroke-width="0.5" stroke-linecap="butt" stroke-linejoin="miter" stroke-opacity="0.15" stroke-dasharray="16,0" points="372.48,384.48 372.48,32.3999"/>
<polyline fill="none" stroke="#262626" stroke-width="0.5" stroke-linecap="butt" stroke-linejoin="miter" stroke-opacity="0.15" stroke-dasharray="16,0" points="446.88,384.48 446.88,32.3999"/>
<polyline fill="none" stroke="#262626" stroke-width="0.5" stroke-linecap="butt" stroke-linejoin="miter" stroke-opacity="0.15" stroke-dasharray="16,0" points="521.28,384.48 521.28,32.3999"/>
<polyline fill="none" stroke="#262626" stroke-width="0.5" stroke-linecap="butt" stroke-linejoin="miter" points="74.8799,384.48 74.8799,380.015"/>
<polyline fill="none" stroke="#262626" stroke-width="0.5" stroke-linecap="butt" stroke-linejoin="miter" points="74.8799,32.3999 74.8799,36.8652"/>
<polyline fill="none" stroke="#262626" stroke-width="0.5" stroke-linecap="butt" stroke-linejoin="miter" points="149.28,384.48 149.28,380.015"/>
<polyline fill="none" stroke="#262626" stroke-width="0.5" stroke-linecap="butt" stroke-linejoin="miter" points="149.28,32.3999 149.28,36.8652"/>
<polyline fill="none" stroke="#262626" stroke-width="0.5" stroke-linecap="butt" stroke-linejoin="miter" points="223.68,384.48 223.68,380.015"/>
<polyline fill="none" stroke="#262626" stroke-width="0.5" stroke-linecap="butt" stroke-linejoin="miter" points="223.68,32.3999 223.68,36.8652"/>
<polyline fill="none" stroke="#262626" stroke-width="0.5" stroke-linecap="butt" stroke-linejoin="miter" points="298.08,384.48 298.08,380.015"/>
<polyline fill="none" stroke="#262626" stroke-width="0.5" stroke-linecap="butt" stroke-linejoin="miter" points="298.08,32.3999 298.08,36.8652"/>
<polyline fill="none" stroke="#262626" stroke-width="0.5" stroke-linecap="butt" stroke-linejoin="miter" points="372.48,384.48 372.48,380.015"/>
<polyline fill="none" stroke="#262626" stroke-width="0.5" stroke-linecap="butt" stroke-linejoin="miter" points="372.48,32.3999 372.48,36.8652"/>
<polyline fill="none" stroke="#262626" stroke-width="0.5" stroke-linecap="butt" stroke-linejoin="miter" points="446.88,384.48 446.88,380.015"/>
<polyline fill="none" stroke="#262626" stroke-width="0.5" stroke-linecap="butt" stroke-linejoin="miter" points="446.88,32.3999 446.88,36.8652"/>
<polyline fill="none" stroke="#262626" stroke-width="0.5" stroke-linecap="butt" stroke-linejoin="miter" points="521.28,384.48 521.28,380.015"/>
<polyline fill="none" stroke="#262626" stroke-width="0.5" stroke-linecap="butt" stroke-linejoin="miter" points="521.28,32.3999 521.28,36.8652"/>
<text fill="#262626" x="74.8799" y="389.481" font-size="10" text-anchor="middle" dy="10" font-family="Helvetica">-6</text>
<text fill="#262626" x="149.28" y="389.481" font-size="10" text-anchor="middle" dy="10" font-family="Helvetica">-4</text>
<text fill="#262626" x="223.68" y="389.481" font-size="10" text-anchor="middle" dy="10" font-family="Helvetica">-2</text>
<text fill="#262626" x="298.08" y="389.481" font-size="10" text-anchor="middle" dy="10" font-family="Helvetica">0</text>
<text fill="#262626" x="372.48" y="389.481" font-size="10" text-anchor="middle" dy="10" font-family="Helvetica">2</text>
<text fill="#262626" x="446.88" y="389.481" font-size="10" text-anchor="middle" dy="10" font-family="Helvetica">4</text>
<text fill="#262626" x="521.28" y="389.481" font-size="10" text-anchor="middle" dy="10" font-family="Helvetica">6</text>
<polyline fill="none" stroke="#262626" stroke-width="0.5" stroke-linecap="butt" stroke-linejoin="miter" stroke-opacity="0.15" stroke-dasharray="16,0" points="74.8799,384.48 521.28,384.48"/>
<polyline fill="none" stroke="#262626" stroke-width="0.5" stroke-linecap="butt" stroke-linejoin="miter" stroke-opacity="0.15" stroke-dasharray="16,0" points="74.8799,325.8 521.28,325.8"/>
<polyline fill="none" stroke="#262626" stroke-width="0.5" stroke-linecap="butt" stroke-linejoin="miter" stroke-opacity="0.15" stroke-dasharray="16,0" points="74.8799,267.12 521.28,267.12"/>
<polyline fill="none" stroke="#262626" stroke-width="0.5" stroke-linecap="butt" stroke-linejoin="miter" stroke-opacity="0.15" stroke-dasharray="16,0" points="74.8799,208.44 521.28,208.44"/>
<polyline fill="none" stroke="#262626" stroke-width="0.5" stroke-linecap="butt" stroke-linejoin="miter" stroke-opacity="0.15" stroke-dasharray="16,0" points="74.8799,149.76 521.28,149.76"/>
<polyline fill="none" stroke="#262626" stroke-width="0.5" stroke-linecap="butt" stroke-linejoin="miter" stroke-opacity="0.15" stroke-dasharray="16,0" points="74.8799,91.0801 521.28,91.0801"/>
<polyline fill="none" stroke="#262626" stroke-width="0.5" stroke-linecap="butt" stroke-linejoin="miter" stroke-opacity="0.15" stroke-dasharray="16,0" points="74.8799,32.3999 521.28,32.3999"/>
<polyline fill="none" stroke="#262626" stroke-width="0.5" stroke-linecap="butt" stroke-linejoin="miter" points="74.8799,384.48 79.3481,384.48"/>
<polyline fill="none" stroke="#262626" stroke-width="0.5" stroke-linecap="butt" stroke-linejoin="miter" points="521.28,384.48 516.812,384.48"/>
<polyline fill="none" stroke="#262626" stroke-width="0.5" stroke-linecap="butt" stroke-linejoin="miter" points="74.8799,325.8 79.3481,325.8"/>
<polyline fill="none" stroke="#262626" stroke-width="0.5" stroke-linecap="butt" stroke-linejoin="miter" points="521.28,325.8 516.812,325.8"/>
<polyline fill="none" stroke="#262626" stroke-width="0.5" stroke-linecap="butt" stroke-linejoin="miter" points="74.8799,267.12 79.3481,267.12"/>
<polyline fill="none" stroke="#262626" stroke-width="0.5" stroke-linecap="butt" stroke-linejoin="miter" points="521.28,267.12 516.812,267.12"/>
<polyline fill="none" stroke="#262626" stroke-width="0.5" stroke-linecap="butt" stroke-linejoin="miter" points="74.8799,208.44 79.3481,208.44"/>
<polyline fill="none" stroke="#262626" stroke-width="0.5" stroke-linecap="butt" stroke-linejoin="miter" points="521.28,208.44 516.812,208.44"/>
<polyline fill="none" stroke="#262626" stroke-width="0.5" stroke-linecap="butt" stroke-linejoin="miter" points="74.8799,149.76 79.3481,149.76"/>
<polyline fill="none" stroke="#262626" stroke-width="0.5" stroke-linecap="butt" stroke-linejoin="miter" points="521.28,149.76 516.812,149.76"/>
<polyline fill="none" stroke="#262626" stroke-width="0.5" stroke-linecap="butt" stroke-linejoin="miter" points="74.8799,91.0801 79.3481,91.0801"/>
<polyline fill="none" stroke="#262626" stroke-width="0.5" stroke-linecap="butt" stroke-linejoin="miter" points="521.28,91.0801 516.812,91.0801"/>
<polyline fill="none" stroke="#262626" stroke-width="0.5" stroke-linecap="butt" stroke-linejoin="miter" points="74.8799,32.3999 79.3481,32.3999"/>
<polyline fill="none" stroke="#262626" stroke-width="0.5" stroke-linecap="butt" stroke-linejoin="miter" points="521.28,32.3999 516.812,32.3999"/>
<text fill="#262626" x="69.8755" y="384.48" font-size="10" text-anchor="end" dy="5" font-family="Helvetica">-5</text>
<text fill="#262626" x="69.8755" y="325.8" font-size="10" text-anchor="end" dy="5" font-family="Helvetica">0</text>
<text fill="#262626" x="69.8755" y="267.12" font-size="10" text-anchor="end" dy="5" font-family="Helvetica">5</text>
<text fill="#262626" x="69.8755" y="208.44" font-size="10" text-anchor="end" dy="5" font-family="Helvetica">10</text>
<text fill="#262626" x="69.8755" y="149.76" font-size="10" text-anchor="end" dy="5" font-family="Helvetica">15</text>
<text fill="#262626" x="69.8755" y="91.0801" font-size="10" text-anchor="end" dy="5" font-family="Helvetica">20</text>
<text fill="#262626" x="69.8755" y="32.3999" font-size="10" text-anchor="end" dy="5" font-family="Helvetica">25</text>
<polyline fill="none" stroke="#262626" stroke-width="0.5" stroke-linecap="butt" stroke-linejoin="miter" stroke-dasharray="16,0" points="74.8799,384.48 521.28,384.48"/>
<polyline fill="none" stroke="#262626" stroke-width="0.5" stroke-linecap="butt" stroke-linejoin="miter" stroke-dasharray="16,0" points="74.8799,32.3999 521.28,32.3999"/>
<polyline fill="none" stroke="#262626" stroke-width="0.5" stroke-linecap="butt" stroke-linejoin="miter" stroke-dasharray="16,0" points="74.8799,384.48 74.8799,32.3999"/>
<polyline fill="none" stroke="#262626" stroke-width="0.5" stroke-linecap="butt" stroke-linejoin="miter" stroke-dasharray="16,0" points="521.28,384.48 521.28,32.3999"/>
<text fill="#262626" x="298.08" y="402.481" font-size="11" text-anchor="middle" dy="11" font-family="Helvetica">x</text>
<text fill="#262626" x="53.8755" y="208.44" font-size="11" transform="rotate(-90, 53.8755, 208.44)" text-anchor="middle" dy="0" font-family="Helvetica">y</text>
<polyline fill="none" stroke="#ff0000" stroke-width="2" stroke-linecap="butt" stroke-linejoin="miter" points="112.08,32.3999 115.8,44.0186 119.52,55.4023 123.24,66.5518 126.96,77.4663 130.68,88.146 134.4,98.5908 138.12,108.801 141.84,118.777 145.56,128.518 149.28,138.024 153,147.295 156.72,156.332 160.44,165.134 164.16,173.702 167.88,182.034 171.6,190.132 175.32,197.995 179.04,205.624 182.76,213.017 186.48,220.176 190.2,227.1 193.92,233.79 197.64,240.245 201.36,246.465 205.08,252.45 208.8,258.201 212.52,263.717 216.24,268.998 219.96,274.044 223.68,278.856 227.4,283.433 231.12,287.775 234.84,291.883 238.56,295.756 242.28,299.394 246,302.797 249.72,305.966 253.44,308.9 257.16,311.6 260.88,314.064 264.6,316.294 268.32,318.289 272.04,320.049 275.76,321.575 279.48,322.866 283.2,323.922 286.92,324.744 290.64,325.331 294.36,325.683 298.08,325.8 301.8,325.683 305.52,325.331 309.24,324.744 312.96,323.922 316.68,322.866 320.4,321.575 324.12,320.049 327.84,318.289 331.56,316.294 335.28,314.064 339,311.6 342.72,308.9 346.44,305.966 350.16,302.797 353.88,299.394 357.6,295.756 361.32,291.883 365.04,287.775 368.76,283.433 372.48,278.856 376.2,274.044 379.92,268.998 383.64,263.717 387.36,258.201 391.08,252.45 394.8,246.465 398.52,240.245 402.24,233.79 405.96,227.1 409.68,220.176 413.4,213.017 417.12,205.624 420.84,197.995 424.56,190.132 428.28,182.034 432,173.702 435.72,165.134 439.44,156.332 443.16,147.295 446.88,138.024 450.6,128.518 454.32,118.777 458.04,108.801 461.76,98.5908 465.48,88.146 469.2,77.4663 472.92,66.5518 476.64,55.4023 480.36,44.0186 484.08,32.3999"/>
<polyline fill="none" stroke="#ff0000" stroke-width="2" stroke-linecap="butt" stroke-linejoin="miter" points="115.08,32.3999 114.507,34.1636 113.007,35.2529 111.153,35.2529 109.653,34.1636 109.08,32.3999 109.653,30.6367 111.153,29.5469 113.007,29.5469 114.507,30.6367 115.08,32.3999"/>
<polyline fill="none" stroke="#ff0000" stroke-width="2" stroke-linecap="butt" stroke-linejoin="miter" points="118.8,44.0186 118.227,45.7822 116.727,46.8716 114.873,46.8716 113.373,45.7822 112.8,44.0186 113.373,42.2554 114.873,41.1655 116.727,41.1655 118.227,42.2554 118.8,44.0186"/>
<polyline fill="none" stroke="#ff0000" stroke-width="2" stroke-linecap="butt" stroke-linejoin="miter" points="122.52,55.4023 121.947,57.166 120.447,58.2559 118.593,58.2559 117.093,57.166 116.52,55.4023 117.093,53.6392 118.593,52.5493 120.447,52.5493 121.947,53.6392 122.52,55.4023"/>
<polyline fill="none" stroke="#ff0000" stroke-width="2" stroke-linecap="butt" stroke-linejoin="miter" points="126.24,66.5518 125.667,68.3149 124.167,69.4048 122.313,69.4048 120.813,68.3149 120.24,66.5518 120.813,64.7886 122.313,63.6987 124.167,63.6987 125.667,64.7886 126.24,66.5518"/>
<polyline fill="none" stroke="#ff0000" stroke-width="2" stroke-linecap="butt" stroke-linejoin="miter" points="129.96,77.4663 129.387,79.2295 127.887,80.3193 126.033,80.3193 124.533,79.2295 123.96,77.4663 124.533,75.7026 126.033,74.6133 127.887,74.6133 129.387,75.7026 129.96,77.4663"/>
<polyline fill="none" stroke="#ff0000" stroke-width="2" stroke-linecap="butt" stroke-linejoin="miter" points="133.68,88.146 133.107,89.9092 131.607,90.999 129.753,90.999 128.253,89.9092 127.68,88.146 128.253,86.3828 129.753,85.293 131.607,85.293 133.107,86.3828 133.68,88.146"/>
<polyline fill="none" stroke="#ff0000" stroke-width="2" stroke-linecap="butt" stroke-linejoin="miter" points="137.4,98.5908 136.827,100.354 135.327,101.444 133.473,101.444 131.973,100.354 131.4,98.5908 131.973,96.8276 133.473,95.7378 135.327,95.7378 136.827,96.8276 137.4,98.5908"/>
<polyline fill="none" stroke="#ff0000" stroke-width="2" stroke-linecap="butt" stroke-linejoin="miter" points="141.12,108.801 140.547,110.565 139.047,111.654 137.193,111.654 135.693,110.565 135.12,108.801 135.693,107.038 137.193,105.948 139.047,105.948 140.547,107.038 141.12,108.801"/>
<polyline fill="none" stroke="#ff0000" stroke-width="2" stroke-linecap="butt" stroke-linejoin="miter" points="144.84,118.777 144.267,120.541 142.767,121.63 140.913,121.63 139.413,120.541 138.84,118.777 139.413,117.014 140.913,115.924 142.767,115.924 144.267,117.014 144.84,118.777"/>
<polyline fill="none" stroke="#ff0000" stroke-width="2" stroke-linecap="butt" stroke-linejoin="miter" points="148.56,128.518 147.987,130.281 146.487,131.371 144.633,131.371 143.133,130.281 142.56,128.518 143.133,126.754 144.633,125.665 146.487,125.665 147.987,126.754 148.56,128.518"/>
<polyline fill="none" stroke="#ff0000" stroke-width="2" stroke-linecap="butt" stroke-linejoin="miter" points="152.28,138.024 151.707,139.788 150.207,140.877 148.353,140.877 146.853,139.788 146.28,138.024 146.853,136.261 148.353,135.171 150.207,135.171 151.707,136.261 152.28,138.024"/>
<polyline fill="none" stroke="#ff0000" stroke-width="2" stroke-linecap="butt" stroke-linejoin="miter" points="156,147.295 155.427,149.059 153.927,150.148 152.073,150.148 150.573,149.059 150,147.295 150.573,145.532 152.073,144.442 153.927,144.442 155.427,145.532 156,147.295"/>
<polyline fill="none" stroke="#ff0000" stroke-width="2" stroke-linecap="butt" stroke-linejoin="miter" points="159.72,156.332 159.147,158.096 157.647,159.186 155.793,159.186 154.293,158.096 153.72,156.332 154.293,154.569 155.793,153.479 157.647,153.479 159.147,154.569 159.72,156.332"/>
<polyline fill="none" stroke="#ff0000" stroke-width="2" stroke-linecap="butt" stroke-linejoin="miter" points="163.44,165.134 162.867,166.897 161.367,167.987 159.513,167.987 158.013,166.897 157.44,165.134 158.013,163.371 159.513,162.281 161.367,162.281 162.867,163.371 163.44,165.134"/>
<polyline fill="none" stroke="#ff0000" stroke-width="2" stroke-linecap="butt" stroke-linejoin="miter" points="167.16,173.702 166.587,175.465 165.087,176.555 163.233,176.555 161.733,175.465 161.16,173.702 161.733,171.938 163.233,170.848 165.087,170.848 166.587,171.938 167.16,173.702"/>
<polyline fill="none" stroke="#ff0000" stroke-width="2" stroke-linecap="butt" stroke-linejoin="miter" points="170.88,182.034 170.307,183.797 168.807,184.887 166.953,184.887 165.453,183.797 164.88,182.034 165.453,180.271 166.953,179.181 168.807,179.181 170.307,180.271 170.88,182.034"/>
<polyline fill="none" stroke="#ff0000" stroke-width="2" stroke-linecap="butt" stroke-linejoin="miter" points="174.6,190.132 174.027,191.895 172.527,192.985 170.673,192.985 169.173,191.895 168.6,190.132 169.173,188.369 170.673,187.279 172.527,187.279 174.027,188.369 174.6,190.132"/>
<polyline fill="none" stroke="#ff0000" stroke-width="2" stroke-linecap="butt" stroke-linejoin="miter" points="178.32,197.995 177.747,199.758 176.247,200.848 174.393,200.848 172.893,199.758 172.32,197.995 172.893,196.231 174.393,195.142 176.247,195.142 177.747,196.231 178.32,197.995"/>
<polyline fill="none" stroke="#ff0000" stroke-width="2" stroke-linecap="butt" stroke-linejoin="miter" points="182.04,205.624 181.467,207.387 179.967,208.477 178.113,208.477 176.613,207.387 176.04,205.624 176.613,203.86 178.113,202.77 179.967,202.77 181.467,203.86 182.04,205.624"/>
<polyline fill="none" stroke="#ff0000" stroke-width="2" stroke-linecap="butt" stroke-linejoin="miter" points="185.76,213.017 185.187,214.78 183.687,215.87 181.833,215.87 180.333,214.78 179.76,213.017 180.333,211.254 181.833,210.164 183.687,210.164 185.187,211.254 185.76,213.017"/>
<polyline fill="none" stroke="#ff0000" stroke-width="2" stroke-linecap="butt" stroke-linejoin="miter" points="189.48,220.176 188.907,221.939 187.407,223.029 185.553,223.029 184.053,221.939 183.48,220.176 184.053,218.413 185.553,217.323 187.407,217.323 188.907,218.413 189.48,220.176"/>
<polyline fill="none" stroke="#ff0000" stroke-width="2" stroke-linecap="butt" stroke-linejoin="miter" points="193.2,227.1 192.627,228.864 191.127,229.954 189.273,229.954 187.773,228.864 187.2,227.1 187.773,225.337 189.273,224.247 191.127,224.247 192.627,225.337 193.2,227.1"/>
<polyline fill="none" stroke="#ff0000" stroke-width="2" stroke-linecap="butt" stroke-linejoin="miter" points="196.92,233.79 196.347,235.553 194.847,236.643 192.993,236.643 191.493,235.553 190.92,233.79 191.493,232.026 192.993,230.937 194.847,230.937 196.347,232.026 196.92,233.79"/>
<polyline fill="none" stroke="#ff0000" stroke-width="2" stroke-linecap="butt" stroke-linejoin="miter" points="200.64,240.245 200.067,242.008 198.567,243.098 196.713,243.098 195.213,242.008 194.64,240.245 195.213,238.481 196.713,237.392 198.567,237.392 200.067,238.481 200.64,240.245"/>
<polyline fill="none" stroke="#ff0000" stroke-width="2" stroke-linecap="butt" stroke-linejoin="miter" points="204.36,246.465 203.787,248.228 202.287,249.318 200.433,249.318 198.933,248.228 198.36,246.465 198.933,244.701 200.433,243.611 202.287,243.611 203.787,244.701 204.36,246.465"/>
<polyline fill="none" stroke="#ff0000" stroke-width="2" stroke-linecap="butt" stroke-linejoin="miter" points="208.08,252.45 207.507,254.213 206.007,255.303 204.153,255.303 202.653,254.213 202.08,252.45 202.653,250.687 204.153,249.597 206.007,249.597 207.507,250.687 208.08,252.45"/>
<polyline fill="none" stroke="#ff0000" stroke-width="2" stroke-linecap="butt" stroke-linejoin="miter" points="211.8,258.201 211.227,259.964 209.727,261.054 207.873,261.054 206.373,259.964 205.8,258.201 206.373,256.438 207.873,255.348 209.727,255.348 211.227,256.438 211.8,258.201"/>
<polyline fill="none" stroke="#ff0000" stroke-width="2" stroke-linecap="butt" stroke-linejoin="miter" points="215.52,263.716 214.947,265.48 213.447,266.57 211.593,266.57 210.093,265.48 209.52,263.716 210.093,261.953 211.593,260.863 213.447,260.863 214.947,261.953 215.52,263.716"/>
<polyline fill="none" stroke="#ff0000" stroke-width="2" stroke-linecap="butt" stroke-linejoin="miter" points="219.24,268.998 218.667,270.761 217.167,271.851 215.313,271.851 213.813,270.761 213.24,268.998 213.813,267.234 215.313,266.145 217.167,266.145 218.667,267.234 219.24,268.998"/>
<polyline fill="none" stroke="#ff0000" stroke-width="2" stroke-linecap="butt" stroke-linejoin="miter" points="222.96,274.044 222.387,275.808 220.887,276.897 219.033,276.897 217.533,275.808 216.96,274.044 217.533,272.281 219.033,271.191 220.887,271.191 222.387,272.281 222.96,274.044"/>
<polyline fill="none" stroke="#ff0000" stroke-width="2" stroke-linecap="butt" stroke-linejoin="miter" points="226.68,278.856 226.107,280.619 224.607,281.709 222.753,281.709 221.253,280.619 220.68,278.856 221.253,277.093 222.753,276.003 224.607,276.003 226.107,277.093 226.68,278.856"/>
<polyline fill="none" stroke="#ff0000" stroke-width="2" stroke-linecap="butt" stroke-linejoin="miter" points="230.4,283.433 229.827,285.196 228.327,286.286 226.473,286.286 224.973,285.196 224.4,283.433 224.973,281.67 226.473,280.58 228.327,280.58 229.827,281.67 230.4,283.433"/>
<polyline fill="none" stroke="#ff0000" stroke-width="2" stroke-linecap="butt" stroke-linejoin="miter" points="234.12,287.775 233.547,289.539 232.047,290.628 230.193,290.628 228.693,289.539 228.12,287.775 228.693,286.012 230.193,284.922 232.047,284.922 233.547,286.012 234.12,287.775"/>
<polyline fill="none" stroke="#ff0000" stroke-width="2" stroke-linecap="butt" stroke-linejoin="miter" points="237.84,291.883 237.267,293.646 235.767,294.736 233.913,294.736 232.413,293.646 231.84,291.883 232.413,290.12 233.913,289.03 235.767,289.03 237.267,290.12 237.84,291.883"/>
<polyline fill="none" stroke="#ff0000" stroke-width="2" stroke-linecap="butt" stroke-linejoin="miter" points="241.56,295.756 240.987,297.519 239.487,298.609 237.633,298.609 236.133,297.519 235.56,295.756 236.133,293.993 237.633,292.903 239.487,292.903 240.987,293.993 241.56,295.756"/>
<polyline fill="none" stroke="#ff0000" stroke-width="2" stroke-linecap="butt" stroke-linejoin="miter" points="245.28,299.394 244.707,301.157 243.207,302.247 241.353,302.247 239.853,301.157 239.28,299.394 239.853,297.631 241.353,296.541 243.207,296.541 244.707,297.631 245.28,299.394"/>
<polyline fill="none" stroke="#ff0000" stroke-width="2" stroke-linecap="butt" stroke-linejoin="miter" points="249,302.797 248.427,304.561 246.927,305.65 245.073,305.65 243.573,304.561 243,302.797 243.573,301.034 245.073,299.944 246.927,299.944 248.427,301.034 249,302.797"/>
<polyline fill="none" stroke="#ff0000" stroke-width="2" stroke-linecap="butt" stroke-linejoin="miter" points="252.72,305.966 252.147,307.729 250.647,308.819 248.793,308.819 247.293,307.729 246.72,305.966 247.293,304.203 248.793,303.113 250.647,303.113 252.147,304.203 252.72,305.966"/>
<polyline fill="none" stroke="#ff0000" stroke-width="2" stroke-linecap="butt" stroke-linejoin="miter" points="256.44,308.9 255.867,310.664 254.367,311.753 252.513,311.753 251.013,310.664 250.44,308.9 251.013,307.137 252.513,306.047 254.367,306.047 255.867,307.137 256.44,308.9"/>
<polyline fill="none" stroke="#ff0000" stroke-width="2" stroke-linecap="butt" stroke-linejoin="miter" points="260.16,311.6 259.587,313.363 258.087,314.453 256.233,314.453 254.733,313.363 254.16,311.6 254.733,309.836 256.233,308.746 258.087,308.746 259.587,309.836 260.16,311.6"/>
<polyline fill="none" stroke="#ff0000" stroke-width="2" stroke-linecap="butt" stroke-linejoin="miter" points="263.88,314.064 263.307,315.827 261.807,316.917 259.953,316.917 258.453,315.827 257.88,314.064 258.453,312.301 259.953,311.211 261.807,311.211 263.307,312.301 263.88,314.064"/>
<polyline fill="none" stroke="#ff0000" stroke-width="2" stroke-linecap="butt" stroke-linejoin="miter" points="267.6,316.294 267.027,318.057 265.527,319.147 263.673,319.147 262.173,318.057 261.6,316.294 262.173,314.53 263.673,313.441 265.527,313.441 267.027,314.53 267.6,316.294"/>
<polyline fill="none" stroke="#ff0000" stroke-width="2" stroke-linecap="butt" stroke-linejoin="miter" points="271.32,318.289 270.747,320.052 269.247,321.142 267.393,321.142 265.893,320.052 265.32,318.289 265.893,316.525 267.393,315.436 269.247,315.436 270.747,316.525 271.32,318.289"/>
<polyline fill="none" stroke="#ff0000" stroke-width="2" stroke-linecap="butt" stroke-linejoin="miter" points="275.04,320.049 274.467,321.812 272.967,322.902 271.113,322.902 269.613,321.812 269.04,320.049 269.613,318.286 271.113,317.196 272.967,317.196 274.467,318.286 275.04,320.049"/>
<polyline fill="none" stroke="#ff0000" stroke-width="2" stroke-linecap="butt" stroke-linejoin="miter" points="278.76,321.575 278.187,323.338 276.687,324.428 274.833,324.428 273.333,323.338 272.76,321.575 273.333,319.812 274.833,318.722 276.687,318.722 278.187,319.812 278.76,321.575"/>
<polyline fill="none" stroke="#ff0000" stroke-width="2" stroke-linecap="butt" stroke-linejoin="miter" points="282.48,322.866 281.907,324.629 280.407,325.719 278.553,325.719 277.053,324.629 276.48,322.866 277.053,321.103 278.553,320.013 280.407,320.013 281.907,321.103 282.48,322.866"/>
<polyline fill="none" stroke="#ff0000" stroke-width="2" stroke-linecap="butt" stroke-linejoin="miter" points="286.2,323.922 285.627,325.686 284.127,326.775 282.273,326.775 280.773,325.686 280.2,323.922 280.773,322.159 282.273,321.069 284.127,321.069 285.627,322.159 286.2,323.922"/>
<polyline fill="none" stroke="#ff0000" stroke-width="2" stroke-linecap="butt" stroke-linejoin="miter" points="289.92,324.744 289.347,326.507 287.847,327.597 285.993,327.597 284.493,326.507 283.92,324.744 284.493,322.98 285.993,321.891 287.847,321.891 289.347,322.98 289.92,324.744"/>
<polyline fill="none" stroke="#ff0000" stroke-width="2" stroke-linecap="butt" stroke-linejoin="miter" points="293.64,325.331 293.067,327.094 291.567,328.184 289.713,328.184 288.213,327.094 287.64,325.331 288.213,323.567 289.713,322.478 291.567,322.478 293.067,323.567 293.64,325.331"/>
<polyline fill="none" stroke="#ff0000" stroke-width="2" stroke-linecap="butt" stroke-linejoin="miter" points="297.36,325.683 296.787,327.446 295.287,328.536 293.433,328.536 291.933,327.446 291.36,325.683 291.933,323.919 293.433,322.83 295.287,322.83 296.787,323.919 297.36,325.683"/>
<polyline fill="none" stroke="#ff0000" stroke-width="2" stroke-linecap="butt" stroke-linejoin="miter" points="301.08,325.8 300.507,327.563 299.007,328.653 297.153,328.653 295.653,327.563 295.08,325.8 295.653,324.037 297.153,322.947 299.007,322.947 300.507,324.037 301.08,325.8"/>
<polyline fill="none" stroke="#ff0000" stroke-width="2" stroke-linecap="butt" stroke-linejoin="miter" points="304.8,325.683 304.227,327.446 302.727,328.536 300.873,328.536 299.373,327.446 298.8,325.683 299.373,323.919 300.873,322.83 302.727,322.83 304.227,323.919 304.8,325.683"/>
<polyline fill="none" stroke="#ff0000" stroke-width="2" stroke-linecap="butt" stroke-linejoin="miter" points="308.52,325.331 307.947,327.094 306.447,328.184 304.593,328.184 303.093,327.094 302.52,325.331 303.093,323.567 304.593,322.478 306.447,322.478 307.947,323.567 308.52,325.331"/>
<polyline fill="none" stroke="#ff0000" stroke-width="2" stroke-linecap="butt" stroke-linejoin="miter" points="312.24,324.744 311.667,326.507 310.167,327.597 308.313,327.597 306.813,326.507 306.24,324.744 306.813,322.98 308.313,321.891 310.167,321.891 311.667,322.98 312.24,324.744"/>
<polyline fill="none" stroke="#ff0000" stroke-width="2" stroke-linecap="butt" stroke-linejoin="miter" points="315.96,323.922 315.387,325.686 313.887,326.775 312.033,326.775 310.533,325.686 309.96,323.922 310.533,322.159 312.033,321.069 313.887,321.069 315.387,322.159 315.96,323.922"/>
<polyline fill="none" stroke="#ff0000" stroke-width="2" stroke-linecap="butt" stroke-linejoin="miter" points="319.68,322.866 319.107,324.629 317.607,325.719 315.753,325.719 314.253,324.629 313.68,322.866 314.253,321.103 315.753,320.013 317.607,320.013 319.107,321.103 319.68,322.866"/>
<polyline fill="none" stroke="#ff0000" stroke-width="2" stroke-linecap="butt" stroke-linejoin="miter" points="323.4,321.575 322.827,323.338 321.327,324.428 319.473,324.428 317.973,323.338 317.4,321.575 317.973,319.812 319.473,318.722 321.327,318.722 322.827,319.812 323.4,321.575"/>
<polyline fill="none" stroke="#ff0000" stroke-width="2" stroke-linecap="butt" stroke-linejoin="miter" points="327.12,320.049 326.547,321.812 325.047,322.902 323.193,322.902 321.693,321.812 321.12,320.049 321.693,318.286 323.193,317.196 325.047,317.196 326.547,318.286 327.12,320.049"/>
<polyline fill="none" stroke="#ff0000" stroke-width="2" stroke-linecap="butt" stroke-linejoin="miter" points="330.84,318.289 330.267,320.052 328.767,321.142 326.913,321.142 325.413,320.052 324.84,318.289 325.413,316.525 326.913,315.436 328.767,315.436 330.267,316.525 330.84,318.289"/>
<polyline fill="none" stroke="#ff0000" stroke-width="2" stroke-linecap="butt" stroke-linejoin="miter" points="334.56,316.294 333.987,318.057 332.487,319.147 330.633,319.147 329.133,318.057 328.56,316.294 329.133,314.53 330.633,313.441 332.487,313.441 333.987,314.53 334.56,316.294"/>
<polyline fill="none" stroke="#ff0000" stroke-width="2" stroke-linecap="butt" stroke-linejoin="miter" points="338.28,314.064 337.707,315.827 336.207,316.917 334.353,316.917 332.853,315.827 332.28,314.064 332.853,312.301 334.353,311.211 336.207,311.211 337.707,312.301 338.28,314.064"/>
<polyline fill="none" stroke="#ff0000" stroke-width="2" stroke-linecap="butt" stroke-linejoin="miter" points="342,311.6 341.427,313.363 339.927,314.453 338.073,314.453 336.573,313.363 336,311.6 336.573,309.836 338.073,308.746 339.927,308.746 341.427,309.836 342,311.6"/>
<polyline fill="none" stroke="#ff0000" stroke-width="2" stroke-linecap="butt" stroke-linejoin="miter" points="345.72,308.9 345.147,310.664 343.647,311.753 341.793,311.753 340.293,310.664 339.72,308.9 340.293,307.137 341.793,306.047 343.647,306.047 345.147,307.137 345.72,308.9"/>
<polyline fill="none" stroke="#ff0000" stroke-width="2" stroke-linecap="butt" stroke-linejoin="miter" points="349.44,305.966 348.867,307.729 347.367,308.819 345.513,308.819 344.013,307.729 343.44,305.966 344.013,304.203 345.513,303.113 347.367,303.113 348.867,304.203 349.44,305.966"/>
<polyline fill="none" stroke="#ff0000" stroke-width="2" stroke-linecap="butt" stroke-linejoin="miter" points="353.16,302.797 352.587,304.561 351.087,305.65 349.233,305.65 347.733,304.561 347.16,302.797 347.733,301.034 349.233,299.944 351.087,299.944 352.587,301.034 353.16,302.797"/>
<polyline fill="none" stroke="#ff0000" stroke-width="2" stroke-linecap="butt" stroke-linejoin="miter" points="356.88,299.394 356.307,301.157 354.807,302.247 352.953,302.247 351.453,301.157 350.88,299.394 351.453,297.631 352.953,296.541 354.807,296.541 356.307,297.631 356.88,299.394"/>
<polyline fill="none" stroke="#ff0000" stroke-width="2" stroke-linecap="butt" stroke-linejoin="miter" points="360.6,295.756 360.027,297.519 358.527,298.609 356.673,298.609 355.173,297.519 354.6,295.756 355.173,293.993 356.673,292.903 358.527,292.903 360.027,293.993 360.6,295.756"/>
<polyline fill="none" stroke="#ff0000" stroke-width="2" stroke-linecap="butt" stroke-linejoin="miter" points="364.32,291.883 363.747,293.646 362.247,294.736 360.393,294.736 358.893,293.646 358.32,291.883 358.893,290.12 360.393,289.03 362.247,289.03 363.747,290.12 364.32,291.883"/>
<polyline fill="none" stroke="#ff0000" stroke-width="2" stroke-linecap="butt" stroke-linejoin="miter" points="368.04,287.775 367.467,289.539 365.967,290.628 364.113,290.628 362.613,289.539 362.04,287.775 362.613,286.012 364.113,284.922 365.967,284.922 367.467,286.012 368.04,287.775"/>
<polyline fill="none" stroke="#ff0000" stroke-width="2" stroke-linecap="butt" stroke-linejoin="miter" points="371.76,283.433 371.187,285.196 369.687,286.286 367.833,286.286 366.333,285.196 365.76,283.433 366.333,281.67 367.833,280.58 369.687,280.58 371.187,281.67 371.76,283.433"/>
<polyline fill="none" stroke="#ff0000" stroke-width="2" stroke-linecap="butt" stroke-linejoin="miter" points="375.48,278.856 374.907,280.619 373.407,281.709 371.553,281.709 370.053,280.619 369.48,278.856 370.053,277.093 371.553,276.003 373.407,276.003 374.907,277.093 375.48,278.856"/>
<polyline fill="none" stroke="#ff0000" stroke-width="2" stroke-linecap="butt" stroke-linejoin="miter" points="379.2,274.044 378.627,275.808 377.127,276.897 375.273,276.897 373.773,275.808 373.2,274.044 373.773,272.281 375.273,271.191 377.127,271.191 378.627,272.281 379.2,274.044"/>
<polyline fill="none" stroke="#ff0000" stroke-width="2" stroke-linecap="butt" stroke-linejoin="miter" points="382.92,268.998 382.347,270.761 380.847,271.851 378.993,271.851 377.493,270.761 376.92,268.998 377.493,267.234 378.993,266.145 380.847,266.145 382.347,267.234 382.92,268.998"/>
<polyline fill="none" stroke="#ff0000" stroke-width="2" stroke-linecap="butt" stroke-linejoin="miter" points="386.64,263.716 386.067,265.48 384.567,266.57 382.713,266.57 381.213,265.48 380.64,263.716 381.213,261.953 382.713,260.863 384.567,260.863 386.067,261.953 386.64,263.716"/>
<polyline fill="none" stroke="#ff0000" stroke-width="2" stroke-linecap="butt" stroke-linejoin="miter" points="390.36,258.201 389.787,259.964 388.287,261.054 386.433,261.054 384.933,259.964 384.36,258.201 384.933,256.438 386.433,255.348 388.287,255.348 389.787,256.438 390.36,258.201"/>
<polyline fill="none" stroke="#ff0000" stroke-width="2" stroke-linecap="butt" stroke-linejoin="miter" points="394.08,252.45 393.507,254.213 392.007,255.303 390.153,255.303 388.653,254.213 388.08,252.45 388.653,250.687 390.153,249.597 392.007,249.597 393.507,250.687 394.08,252.45"/>
<polyline fill="none" stroke="#ff0000" stroke-width="2" stroke-linecap="butt" stroke-linejoin="miter" points="397.8,246.465 397.227,248.228 395.727,249.318 393.873,249.318 392.373,248.228 391.8,246.465 392.373,244.701 393.873,243.611 395.727,243.611 397.227,244.701 397.8,246.465"/>
<polyline fill="none" stroke="#ff0000" stroke-width="2" stroke-linecap="butt" stroke-linejoin="miter" points="401.52,240.245 400.947,242.008 399.447,243.098 397.593,243.098 396.093,242.008 395.52,240.245 396.093,238.481 397.593,237.392 399.447,237.392 400.947,238.481 401.52,240.245"/>
<polyline fill="none" stroke="#ff0000" stroke-width="2" stroke-linecap="butt" stroke-linejoin="miter" points="405.24,233.79 404.667,235.553 403.167,236.643 401.313,236.643 399.813,235.553 399.24,233.79 399.813,232.026 401.313,230.937 403.167,230.937 404.667,232.026 405.24,233.79"/>
<polyline fill="none" stroke="#ff0000" stroke-width="2" stroke-linecap="butt" stroke-linejoin="miter" points="408.96,227.1 408.387,228.864 406.887,229.954 405.033,229.954 403.533,228.864 402.96,227.1 403.533,225.337 405.033,224.247 406.887,224.247 408.387,225.337 408.96,227.1"/>
<polyline fill="none" stroke="#ff0000" stroke-width="2" stroke-linecap="butt" stroke-linejoin="miter" points="412.68,220.176 412.107,221.939 410.607,223.029 408.753,223.029 407.253,221.939 406.68,220.176 407.253,218.413 408.753,217.323 410.607,217.323 412.107,218.413 412.68,220.176"/>
<polyline fill="none" stroke="#ff0000" stroke-width="2" stroke-linecap="butt" stroke-linejoin="miter" points="416.4,213.017 415.827,214.78 414.327,215.87 412.473,215.87 410.973,214.78 410.4,213.017 410.973,211.254 412.473,210.164 414.327,210.164 415.827,211.254 416.4,213.017"/>
<polyline fill="none" stroke="#ff0000" stroke-width="2" stroke-linecap="butt" stroke-linejoin="miter" points="420.12,205.624 419.547,207.387 418.047,208.477 416.193,208.477 414.693,207.387 414.12,205.624 414.693,203.86 416.193,202.77 418.047,202.77 419.547,203.86 420.12,205.624"/>
<polyline fill="none" stroke="#ff0000" stroke-width="2" stroke-linecap="butt" stroke-linejoin="miter" points="423.84,197.995 423.267,199.758 421.767,200.848 419.913,200.848 418.413,199.758 417.84,197.995 418.413,196.231 419.913,195.142 421.767,195.142 423.267,196.231 423.84,197.995"/>
<polyline fill="none" stroke="#ff0000" stroke-width="2" stroke-linecap="butt" stroke-linejoin="miter" points="427.56,190.132 426.987,191.895 425.487,192.985 423.633,192.985 422.133,191.895 421.56,190.132 422.133,188.369 423.633,187.279 425.487,187.279 426.987,188.369 427.56,190.132"/>
<polyline fill="none" stroke="#ff0000" stroke-width="2" stroke-linecap="butt" stroke-linejoin="miter" points="431.28,182.034 430.707,183.797 429.207,184.887 427.353,184.887 425.853,183.797 425.28,182.034 425.853,180.271 427.353,179.181 429.207,179.181 430.707,180.271 431.28,182.034"/>
<polyline fill="none" stroke="#ff0000" stroke-width="2" stroke-linecap="butt" stroke-linejoin="miter" points="435,173.702 434.427,175.465 432.927,176.555 431.073,176.555 429.573,175.465 429,173.702 429.573,171.938 431.073,170.848 432.927,170.848 434.427,171.938 435,173.702"/>
<polyline fill="none" stroke="#ff0000" stroke-width="2" stroke-linecap="butt" stroke-linejoin="miter" points="438.72,165.134 438.147,166.897 436.647,167.987 434.793,167.987 433.293,166.897 432.72,165.134 433.293,163.371 434.793,162.281 436.647,162.281 438.147,163.371 438.72,165.134"/>
<polyline fill="none" stroke="#ff0000" stroke-width="2" stroke-linecap="butt" stroke-linejoin="miter" points="442.44,156.332 441.867,158.096 440.367,159.186 438.513,159.186 437.013,158.096 436.44,156.332 437.013,154.569 438.513,153.479 440.367,153.479 441.867,154.569 442.44,156.332"/>
<polyline fill="none" stroke="#ff0000" stroke-width="2" stroke-linecap="butt" stroke-linejoin="miter" points="446.16,147.295 445.587,149.059 444.087,150.148 442.233,150.148 440.733,149.059 440.16,147.295 440.733,145.532 442.233,144.442 444.087,144.442 445.587,145.532 446.16,147.295"/>
<polyline fill="none" stroke="#ff0000" stroke-width="2" stroke-linecap="butt" stroke-linejoin="miter" points="449.88,138.024 449.307,139.788 447.807,140.877 445.953,140.877 444.453,139.788 443.88,138.024 444.453,136.261 445.953,135.171 447.807,135.171 449.307,136.261 449.88,138.024"/>
<polyline fill="none" stroke="#ff0000" stroke-width="2" stroke-linecap="butt" stroke-linejoin="miter" points="453.6,128.518 453.027,130.281 451.527,131.371 449.673,131.371 448.173,130.281 447.6,128.518 448.173,126.754 449.673,125.665 451.527,125.665 453.027,126.754 453.6,128.518"/>
<polyline fill="none" stroke="#ff0000" stroke-width="2" stroke-linecap="butt" stroke-linejoin="miter" points="457.32,118.777 456.747,120.541 455.247,121.63 453.393,121.63 451.893,120.541 451.32,118.777 451.893,117.014 453.393,115.924 455.247,115.924 456.747,117.014 457.32,118.777"/>
<polyline fill="none" stroke="#ff0000" stroke-width="2" stroke-linecap="butt" stroke-linejoin="miter" points="461.04,108.801 460.467,110.565 458.967,111.654 457.113,111.654 455.613,110.565 455.04,108.801 455.613,107.038 457.113,105.948 458.967,105.948 460.467,107.038 461.04,108.801"/>
<polyline fill="none" stroke="#ff0000" stroke-width="2" stroke-linecap="butt" stroke-linejoin="miter" points="464.76,98.5908 464.187,100.354 462.687,101.444 460.833,101.444 459.333,100.354 458.76,98.5908 459.333,96.8276 460.833,95.7378 462.687,95.7378 464.187,96.8276 464.76,98.5908"/>
<polyline fill="none" stroke="#ff0000" stroke-width="2" stroke-linecap="butt" stroke-linejoin="miter" points="468.48,88.146 467.907,89.9092 466.407,90.999 464.553,90.999 463.053,89.9092 462.48,88.146 463.053,86.3828 464.553,85.293 466.407,85.293 467.907,86.3828 468.48,88.146"/>
<polyline fill="none" stroke="#ff0000" stroke-width="2" stroke-linecap="butt" stroke-linejoin="miter" points="472.2,77.4663 471.627,79.2295 470.127,80.3193 468.273,80.3193 466.773,79.2295 466.2,77.4663 466.773,75.7026 468.273,74.6133 470.127,74.6133 471.627,75.7026 472.2,77.4663"/>
<polyline fill="none" stroke="#ff0000" stroke-width="2" stroke-linecap="butt" stroke-linejoin="miter" points="475.92,66.5518 475.347,68.3149 473.847,69.4048 471.993,69.4048 470.493,68.3149 469.92,66.5518 470.493,64.7886 471.993,63.6987 473.847,63.6987 475.347,64.7886 475.92,66.5518"/>
<polyline fill="none" stroke="#ff0000" stroke-width="2" stroke-linecap="butt" stroke-linejoin="miter" points="479.64,55.4023 479.067,57.166 477.567,58.2559 475.713,58.2559 474.213,57.166 473.64,55.4023 474.213,53.6392 475.713,52.5493 477.567,52.5493 479.067,53.6392 479.64,55.4023"/>
<polyline fill="none" stroke="#ff0000" stroke-width="2" stroke-linecap="butt" stroke-linejoin="miter" points="483.36,44.0186 482.787,45.7822 481.287,46.8716 479.433,46.8716 477.933,45.7822 477.36,44.0186 477.933,42.2554 479.433,41.1655 481.287,41.1655 482.787,42.2554 483.36,44.0186"/>
<polyline fill="none" stroke="#ff0000" stroke-width="2" stroke-linecap="butt" stroke-linejoin="miter" points="487.08,32.3999 486.507,34.1636 485.007,35.2529 483.153,35.2529 481.653,34.1636 481.08,32.3999 481.653,30.6367 483.153,29.5469 485.007,29.5469 486.507,30.6367 487.08,32.3999"/>
<polyline fill="none" stroke="#0000ff" stroke-width="2" stroke-linecap="butt" stroke-linejoin="miter" points="112.08,343.404 115.8,342.817 119.52,342.23 123.24,341.644 126.96,341.057 130.68,340.47 134.4,339.883 138.12,339.296 141.84,338.709 145.56,338.123 149.28,337.536 153,336.949 156.72,336.362 160.44,335.775 164.16,335.189 167.88,334.602 171.6,334.015 175.32,333.428 179.04,332.842 182.76,332.255 186.48,331.668 190.2,331.081 193.92,330.495 197.64,329.908 201.36,329.321 205.08,328.734 208.8,328.147 212.52,327.561 216.24,326.974 219.96,326.387 223.68,325.8 227.4,325.213 231.12,324.626 234.84,324.04 238.56,323.453 242.28,322.866 246,322.279 249.72,321.692 253.44,321.105 257.16,320.519 260.88,319.932 264.6,319.345 268.32,318.758 272.04,318.171 275.76,317.585 279.48,316.998 283.2,316.411 286.92,315.824 290.64,315.238 294.36,314.651 298.08,314.064 301.8,313.477 305.52,312.891 309.24,312.304 312.96,311.717 316.68,311.13 320.4,310.543 324.12,309.957 327.84,309.37 331.56,308.783 335.28,308.196 339,307.609 342.72,307.022 346.44,306.436 350.16,305.849 353.88,305.262 357.6,304.675 361.32,304.088 365.04,303.501 368.76,302.915 372.48,302.328 376.2,301.741 379.92,301.154 383.64,300.567 387.36,299.981 391.08,299.394 394.8,298.807 398.52,298.22 402.24,297.634 405.96,297.047 409.68,296.46 413.4,295.873 417.12,295.287 420.84,294.7 424.56,294.113 428.28,293.526 432,292.939 435.72,292.353 439.44,291.766 443.16,291.179 446.88,290.592 450.6,290.005 454.32,289.418 458.04,288.832 461.76,288.245 465.48,287.658 469.2,287.071 472.92,286.484 476.64,285.897 480.36,285.311 484.08,284.724"/>
<polyline fill="none" stroke="#0000ff" stroke-width="2" stroke-linecap="butt" stroke-linejoin="miter" points="115.08,343.404 114.507,345.167 113.007,346.257 111.153,346.257 109.653,345.167 109.08,343.404 109.653,341.641 111.153,340.551 113.007,340.551 114.507,341.641 115.08,343.404"/>
<polyline fill="none" stroke="#0000ff" stroke-width="2" stroke-linecap="butt" stroke-linejoin="miter" points="118.8,342.817 118.227,344.581 116.727,345.67 114.873,345.67 113.373,344.581 112.8,342.817 113.373,341.054 114.873,339.964 116.727,339.964 118.227,341.054 118.8,342.817"/>
<polyline fill="none" stroke="#0000ff" stroke-width="2" stroke-linecap="butt" stroke-linejoin="miter" points="122.52,342.23 121.947,343.994 120.447,345.083 118.593,345.083 117.093,343.994 116.52,342.23 117.093,340.467 118.593,339.377 120.447,339.377 121.947,340.467 122.52,342.23"/>
<polyline fill="none" stroke="#0000ff" stroke-width="2" stroke-linecap="butt" stroke-linejoin="miter" points="126.24,341.644 125.667,343.407 124.167,344.497 122.313,344.497 120.813,343.407 120.24,341.644 120.813,339.88 122.313,338.791 124.167,338.791 125.667,339.88 126.24,341.644"/>
<polyline fill="none" stroke="#0000ff" stroke-width="2" stroke-linecap="butt" stroke-linejoin="miter" points="129.96,341.057 129.387,342.82 127.887,343.91 126.033,343.91 124.533,342.82 123.96,341.057 124.533,339.293 126.033,338.204 127.887,338.204 129.387,339.293 129.96,341.057"/>
<polyline fill="none" stroke="#0000ff" stroke-width="2" stroke-linecap="butt" stroke-linejoin="miter" points="133.68,340.47 133.107,342.233 131.607,343.323 129.753,343.323 128.253,342.233 127.68,340.47 128.253,338.707 129.753,337.617 131.607,337.617 133.107,338.707 133.68,340.47"/>
<polyline fill="none" stroke="#0000ff" stroke-width="2" stroke-linecap="butt" stroke-linejoin="miter" points="137.4,339.883 136.827,341.646 135.327,342.736 133.473,342.736 131.973,341.646 131.4,339.883 131.973,338.12 133.473,337.03 135.327,337.03 136.827,338.12 137.4,339.883"/>
<polyline fill="none" stroke="#0000ff" stroke-width="2" stroke-linecap="butt" stroke-linejoin="miter" points="141.12,339.296 140.547,341.06 139.047,342.149 137.193,342.149 135.693,341.06 135.12,339.296 135.693,337.533 137.193,336.443 139.047,336.443 140.547,337.533 141.12,339.296"/>
<polyline fill="none" stroke="#0000ff" stroke-width="2" stroke-linecap="butt" stroke-linejoin="miter" points="144.84,338.709 144.267,340.473 142.767,341.563 140.913,341.563 139.413,340.473 138.84,338.709 139.413,336.946 140.913,335.856 142.767,335.856 144.267,336.946 144.84,338.709"/>
<polyline fill="none" stroke="#0000ff" stroke-width="2" stroke-linecap="butt" stroke-linejoin="miter" points="148.56,338.123 147.987,339.886 146.487,340.976 144.633,340.976 143.133,339.886 142.56,338.123 143.133,336.359 144.633,335.27 146.487,335.27 147.987,336.359 148.56,338.123"/>
<polyline fill="none" stroke="#0000ff" stroke-width="2" stroke-linecap="butt" stroke-linejoin="miter" points="152.28,337.536 151.707,339.299 150.207,340.389 148.353,340.389 146.853,339.299 146.28,337.536 146.853,335.772 148.353,334.683 150.207,334.683 151.707,335.772 152.28,337.536"/>
<polyline fill="none" stroke="#0000ff" stroke-width="2" stroke-linecap="butt" stroke-linejoin="miter" points="156,336.949 155.427,338.712 153.927,339.802 152.073,339.802 150.573,338.712 150,336.949 150.573,335.186 152.073,334.096 153.927,334.096 155.427,335.186 156,336.949"/>
<polyline fill="none" stroke="#0000ff" stroke-width="2" stroke-linecap="butt" stroke-linejoin="miter" points="159.72,336.362 159.147,338.126 157.647,339.215 155.793,339.215 154.293,338.126 153.72,336.362 154.293,334.599 155.793,333.509 157.647,333.509 159.147,334.599 159.72,336.362"/>
<polyline fill="none" stroke="#0000ff" stroke-width="2" stroke-linecap="butt" stroke-linejoin="miter" points="163.44,335.775 162.867,337.539 161.367,338.629 159.513,338.629 158.013,337.539 157.44,335.775 158.013,334.012 159.513,332.922 161.367,332.922 162.867,334.012 163.44,335.775"/>
<polyline fill="none" stroke="#0000ff" stroke-width="2" stroke-linecap="butt" stroke-linejoin="miter" points="167.16,335.189 166.587,336.952 165.087,338.042 163.233,338.042 161.733,336.952 161.16,335.189 161.733,333.425 163.233,332.335 165.087,332.335 166.587,333.425 167.16,335.189"/>
<polyline fill="none" stroke="#0000ff" stroke-width="2" stroke-linecap="butt" stroke-linejoin="miter" points="170.88,334.602 170.307,336.365 168.807,337.455 166.953,337.455 165.453,336.365 164.88,334.602 165.453,332.839 166.953,331.749 168.807,331.749 170.307,332.839 170.88,334.602"/>
<polyline fill="none" stroke="#0000ff" stroke-width="2" stroke-linecap="butt" stroke-linejoin="miter" points="174.6,334.015 174.027,335.779 172.527,336.868 170.673,336.868 169.173,335.779 168.6,334.015 169.173,332.252 170.673,331.162 172.527,331.162 174.027,332.252 174.6,334.015"/>
<polyline fill="none" stroke="#0000ff" stroke-width="2" stroke-linecap="butt" stroke-linejoin="miter" points="178.32,333.428 177.747,335.192 176.247,336.282 174.393,336.282 172.893,335.192 172.32,333.428 172.893,331.665 174.393,330.575 176.247,330.575 177.747,331.665 178.32,333.428"/>
<polyline fill="none" stroke="#0000ff" stroke-width="2" stroke-linecap="butt" stroke-linejoin="miter" points="182.04,332.842 181.467,334.605 179.967,335.695 178.113,335.695 176.613,334.605 176.04,332.842 176.613,331.078 178.113,329.988 179.967,329.988 181.467,331.078 182.04,332.842"/>
<polyline fill="none" stroke="#0000ff" stroke-width="2" stroke-linecap="butt" stroke-linejoin="miter" points="185.76,332.255 185.187,334.018 183.687,335.108 181.833,335.108 180.333,334.018 179.76,332.255 180.333,330.491 181.833,329.402 183.687,329.402 185.187,330.491 185.76,332.255"/>
<polyline fill="none" stroke="#0000ff" stroke-width="2" stroke-linecap="butt" stroke-linejoin="miter" points="189.48,331.668 188.907,333.431 187.407,334.521 185.553,334.521 184.053,333.431 183.48,331.668 184.053,329.905 185.553,328.815 187.407,328.815 188.907,329.905 189.48,331.668"/>
<polyline fill="none" stroke="#0000ff" stroke-width="2" stroke-linecap="butt" stroke-linejoin="miter" points="193.2,331.081 192.627,332.845 191.127,333.935 189.273,333.935 187.773,332.845 187.2,331.081 187.773,329.318 189.273,328.228 191.127,328.228 192.627,329.318 193.2,331.081"/>
<polyline fill="none" stroke="#0000ff" stroke-width="2" stroke-linecap="butt" stroke-linejoin="miter" points="196.92,330.495 196.347,332.258 194.847,333.348 192.993,333.348 191.493,332.258 190.92,330.495 191.493,328.731 192.993,327.641 194.847,327.641 196.347,328.731 196.92,330.495"/>
<polyline fill="none" stroke="#0000ff" stroke-width="2" stroke-linecap="butt" stroke-linejoin="miter" points="200.64,329.908 200.067,331.671 198.567,332.761 196.713,332.761 195.213,331.671 194.64,329.908 195.213,328.144 196.713,327.054 198.567,327.054 200.067,328.144 200.64,329.908"/>
<polyline fill="none" stroke="#0000ff" stroke-width="2" stroke-linecap="butt" stroke-linejoin="miter" points="204.36,329.321 203.787,331.084 202.287,332.174 200.433,332.174 198.933,331.084 198.36,329.321 198.933,327.558 200.433,326.468 202.287,326.468 203.787,327.558 204.36,329.321"/>
<polyline fill="none" stroke="#0000ff" stroke-width="2" stroke-linecap="butt" stroke-linejoin="miter" points="208.08,328.734 207.507,330.498 206.007,331.587 204.153,331.587 202.653,330.498 202.08,328.734 202.653,326.971 204.153,325.881 206.007,325.881 207.507,326.971 208.08,328.734"/>
<polyline fill="none" stroke="#0000ff" stroke-width="2" stroke-linecap="butt" stroke-linejoin="miter" points="211.8,328.147 211.227,329.911 209.727,331 207.873,331 206.373,329.911 205.8,328.147 206.373,326.384 207.873,325.294 209.727,325.294 211.227,326.384 211.8,328.147"/>
<polyline fill="none" stroke="#0000ff" stroke-width="2" stroke-linecap="butt" stroke-linejoin="miter" points="215.52,327.561 214.947,329.324 213.447,330.414 211.593,330.414 210.093,329.324 209.52,327.561 210.093,325.797 211.593,324.707 213.447,324.707 214.947,325.797 215.52,327.561"/>
<polyline fill="none" stroke="#0000ff" stroke-width="2" stroke-linecap="butt" stroke-linejoin="miter" points="219.24,326.974 218.667,328.737 217.167,329.827 215.313,329.827 213.813,328.737 213.24,326.974 213.813,325.21 215.313,324.121 217.167,324.121 218.667,325.21 219.24,326.974"/>
<polyline fill="none" stroke="#0000ff" stroke-width="2" stroke-linecap="butt" stroke-linejoin="miter" points="222.96,326.387 222.387,328.15 220.887,329.24 219.033,329.24 217.533,328.15 216.96,326.387 217.533,324.624 219.033,323.534 220.887,323.534 222.387,324.624 222.96,326.387"/>
<polyline fill="none" stroke="#0000ff" stroke-width="2" stroke-linecap="butt" stroke-linejoin="miter" points="226.68,325.8 226.107,327.563 224.607,328.653 222.753,328.653 221.253,327.563 220.68,325.8 221.253,324.037 222.753,322.947 224.607,322.947 226.107,324.037 226.68,325.8"/>
<polyline fill="none" stroke="#0000ff" stroke-width="2" stroke-linecap="butt" stroke-linejoin="miter" points="230.4,325.213 229.827,326.977 228.327,328.066 226.473,328.066 224.973,326.977 224.4,325.213 224.973,323.45 226.473,322.36 228.327,322.36 229.827,323.45 230.4,325.213"/>
<polyline fill="none" stroke="#0000ff" stroke-width="2" stroke-linecap="butt" stroke-linejoin="miter" points="234.12,324.626 233.547,326.39 232.047,327.479 230.193,327.479 228.693,326.39 228.12,324.626 228.693,322.863 230.193,321.773 232.047,321.773 233.547,322.863 234.12,324.626"/>
<polyline fill="none" stroke="#0000ff" stroke-width="2" stroke-linecap="butt" stroke-linejoin="miter" points="237.84,324.04 237.267,325.803 235.767,326.893 233.913,326.893 232.413,325.803 231.84,324.04 232.413,322.276 233.913,321.187 235.767,321.187 237.267,322.276 237.84,324.04"/>
<polyline fill="none" stroke="#0000ff" stroke-width="2" stroke-linecap="butt" stroke-linejoin="miter" points="241.56,323.453 240.987,325.216 239.487,326.306 237.633,326.306 236.133,325.216 235.56,323.453 236.133,321.689 237.633,320.6 239.487,320.6 240.987,321.689 241.56,323.453"/>
<polyline fill="none" stroke="#0000ff" stroke-width="2" stroke-linecap="butt" stroke-linejoin="miter" points="245.28,322.866 244.707,324.629 243.207,325.719 241.353,325.719 239.853,324.629 239.28,322.866 239.853,321.103 241.353,320.013 243.207,320.013 244.707,321.103 245.28,322.866"/>
<polyline fill="none" stroke="#0000ff" stroke-width="2" stroke-linecap="butt" stroke-linejoin="miter" points="249,322.279 248.427,324.042 246.927,325.132 245.073,325.132 243.573,324.042 243,322.279 243.573,320.516 245.073,319.426 246.927,319.426 248.427,320.516 249,322.279"/>
<polyline fill="none" stroke="#0000ff" stroke-width="2" stroke-linecap="butt" stroke-linejoin="miter" points="252.72,321.692 252.147,323.456 250.647,324.545 248.793,324.545 247.293,323.456 246.72,321.692 247.293,319.929 248.793,318.839 250.647,318.839 252.147,319.929 252.72,321.692"/>
<polyline fill="none" stroke="#0000ff" stroke-width="2" stroke-linecap="butt" stroke-linejoin="miter" points="256.44,321.105 255.867,322.869 254.367,323.959 252.513,323.959 251.013,322.869 250.44,321.105 251.013,319.342 252.513,318.252 254.367,318.252 255.867,319.342 256.44,321.105"/>
<polyline fill="none" stroke="#0000ff" stroke-width="2" stroke-linecap="butt" stroke-linejoin="miter" points="260.16,320.519 259.587,322.282 258.087,323.372 256.233,323.372 254.733,322.282 254.16,320.519 254.733,318.755 256.233,317.666 258.087,317.666 259.587,318.755 260.16,320.519"/>
<polyline fill="none" stroke="#0000ff" stroke-width="2" stroke-linecap="butt" stroke-linejoin="miter" points="263.88,319.932 263.307,321.695 261.807,322.785 259.953,322.785 258.453,321.695 257.88,319.932 258.453,318.168 259.953,317.079 261.807,317.079 263.307,318.168 263.88,319.932"/>
<polyline fill="none" stroke="#0000ff" stroke-width="2" stroke-linecap="butt" stroke-linejoin="miter" points="267.6,319.345 267.027,321.108 265.527,322.198 263.673,322.198 262.173,321.108 261.6,319.345 262.173,317.582 263.673,316.492 265.527,316.492 267.027,317.582 267.6,319.345"/>
<polyline fill="none" stroke="#0000ff" stroke-width="2" stroke-linecap="butt" stroke-linejoin="miter" points="271.32,318.758 270.747,320.522 269.247,321.611 267.393,321.611 265.893,320.522 265.32,318.758 265.893,316.995 267.393,315.905 269.247,315.905 270.747,316.995 271.32,318.758"/>
<polyline fill="none" stroke="#0000ff" stroke-width="2" stroke-linecap="butt" stroke-linejoin="miter" points="275.04,318.171 274.467,319.935 272.967,321.025 271.113,321.025 269.613,319.935 269.04,318.171 269.613,316.408 271.113,315.318 272.967,315.318 274.467,316.408 275.04,318.171"/>
<polyline fill="none" stroke="#0000ff" stroke-width="2" stroke-linecap="butt" stroke-linejoin="miter" points="278.76,317.585 278.187,319.348 276.687,320.438 274.833,320.438 273.333,319.348 272.76,317.585 273.333,315.821 274.833,314.731 276.687,314.731 278.187,315.821 278.76,317.585"/>
<polyline fill="none" stroke="#0000ff" stroke-width="2" stroke-linecap="butt" stroke-linejoin="miter" points="282.48,316.998 281.907,318.761 280.407,319.851 278.553,319.851 277.053,318.761 276.48,316.998 277.053,315.235 278.553,314.145 280.407,314.145 281.907,315.235 282.48,316.998"/>
<polyline fill="none" stroke="#0000ff" stroke-width="2" stroke-linecap="butt" stroke-linejoin="miter" points="286.2,316.411 285.627,318.174 284.127,319.264 282.273,319.264 280.773,318.174 280.2,316.411 280.773,314.648 282.273,313.558 284.127,313.558 285.627,314.648 286.2,316.411"/>
<polyline fill="none" stroke="#0000ff" stroke-width="2" stroke-linecap="butt" stroke-linejoin="miter" points="289.92,315.824 289.347,317.588 287.847,318.678 285.993,318.678 284.493,317.588 283.92,315.824 284.493,314.061 285.993,312.971 287.847,312.971 289.347,314.061 289.92,315.824"/>
<polyline fill="none" stroke="#0000ff" stroke-width="2" stroke-linecap="butt" stroke-linejoin="miter" points="293.64,315.238 293.067,317.001 291.567,318.091 289.713,318.091 288.213,317.001 287.64,315.238 288.213,313.474 289.713,312.384 291.567,312.384 293.067,313.474 293.64,315.238"/>
<polyline fill="none" stroke="#0000ff" stroke-width="2" stroke-linecap="butt" stroke-linejoin="miter" points="297.36,314.651 296.787,316.414 295.287,317.504 293.433,317.504 291.933,316.414 291.36,314.651 291.933,312.887 293.433,311.798 295.287,311.798 296.787,312.887 297.36,314.651"/>
<polyline fill="none" stroke="#0000ff" stroke-width="2" stroke-linecap="butt" stroke-linejoin="miter" points="301.08,314.064 300.507,315.827 299.007,316.917 297.153,316.917 295.653,315.827 295.08,314.064 295.653,312.301 297.153,311.211 299.007,311.211 300.507,312.301 301.08,314.064"/>
<polyline fill="none" stroke="#0000ff" stroke-width="2" stroke-linecap="butt" stroke-linejoin="miter" points="304.8,313.477 304.227,315.241 302.727,316.331 300.873,316.331 299.373,315.241 298.8,313.477 299.373,311.714 300.873,310.624 302.727,310.624 304.227,311.714 304.8,313.477"/>
<polyline fill="none" stroke="#0000ff" stroke-width="2" stroke-linecap="butt" stroke-linejoin="miter" points="308.52,312.891 307.947,314.654 306.447,315.744 304.593,315.744 303.093,314.654 302.52,312.891 303.093,311.127 304.593,310.037 306.447,310.037 307.947,311.127 308.52,312.891"/>
<polyline fill="none" stroke="#0000ff" stroke-width="2" stroke-linecap="butt" stroke-linejoin="miter" points="312.24,312.304 311.667,314.067 310.167,315.157 308.313,315.157 306.813,314.067 306.24,312.304 306.813,310.54 308.313,309.451 310.167,309.451 311.667,310.54 312.24,312.304"/>
<polyline fill="none" stroke="#0000ff" stroke-width="2" stroke-linecap="butt" stroke-linejoin="miter" points="315.96,311.717 315.387,313.48 313.887,314.57 312.033,314.57 310.533,313.48 309.96,311.717 310.533,309.954 312.033,308.864 313.887,308.864 315.387,309.954 315.96,311.717"/>
<polyline fill="none" stroke="#0000ff" stroke-width="2" stroke-linecap="butt" stroke-linejoin="miter" points="319.68,311.13 319.107,312.894 317.607,313.983 315.753,313.983 314.253,312.894 313.68,311.13 314.253,309.367 315.753,308.277 317.607,308.277 319.107,309.367 319.68,311.13"/>
<polyline fill="none" stroke="#0000ff" stroke-width="2" stroke-linecap="butt" stroke-linejoin="miter" points="323.4,310.543 322.827,312.307 321.327,313.396 319.473,313.396 317.973,312.307 317.4,310.543 317.973,308.78 319.473,307.69 321.327,307.69 322.827,308.78 323.4,310.543"/>
<polyline fill="none" stroke="#0000ff" stroke-width="2" stroke-linecap="butt" stroke-linejoin="miter" points="327.12,309.957 326.547,311.72 325.047,312.81 323.193,312.81 321.693,311.72 321.12,309.957 321.693,308.193 323.193,307.103 325.047,307.103 326.547,308.193 327.12,309.957"/>
<polyline fill="none" stroke="#0000ff" stroke-width="2" stroke-linecap="butt" stroke-linejoin="miter" points="330.84,309.37 330.267,311.133 328.767,312.223 326.913,312.223 325.413,311.133 324.84,309.37 325.413,307.606 326.913,306.517 328.767,306.517 330.267,307.606 330.84,309.37"/>
<polyline fill="none" stroke="#0000ff" stroke-width="2" stroke-linecap="butt" stroke-linejoin="miter" points="334.56,308.783 333.987,310.546 332.487,311.636 330.633,311.636 329.133,310.546 328.56,308.783 329.133,307.02 330.633,305.93 332.487,305.93 333.987,307.02 334.56,308.783"/>
<polyline fill="none" stroke="#0000ff" stroke-width="2" stroke-linecap="butt" stroke-linejoin="miter" points="338.28,308.196 337.707,309.959 336.207,311.049 334.353,311.049 332.853,309.959 332.28,308.196 332.853,306.433 334.353,305.343 336.207,305.343 337.707,306.433 338.28,308.196"/>
<polyline fill="none" stroke="#0000ff" stroke-width="2" stroke-linecap="butt" stroke-linejoin="miter" points="342,307.609 341.427,309.373 339.927,310.462 338.073,310.462 336.573,309.373 336,307.609 336.573,305.846 338.073,304.756 339.927,304.756 341.427,305.846 342,307.609"/>
<polyline fill="none" stroke="#0000ff" stroke-width="2" stroke-linecap="butt" stroke-linejoin="miter" points="345.72,307.022 345.147,308.786 343.647,309.875 341.793,309.875 340.293,308.786 339.72,307.022 340.293,305.259 341.793,304.169 343.647,304.169 345.147,305.259 345.72,307.022"/>
<polyline fill="none" stroke="#0000ff" stroke-width="2" stroke-linecap="butt" stroke-linejoin="miter" points="349.44,306.436 348.867,308.199 347.367,309.289 345.513,309.289 344.013,308.199 343.44,306.436 344.013,304.672 345.513,303.583 347.367,303.583 348.867,304.672 349.44,306.436"/>
<polyline fill="none" stroke="#0000ff" stroke-width="2" stroke-linecap="butt" stroke-linejoin="miter" points="353.16,305.849 352.587,307.612 351.087,308.702 349.233,308.702 347.733,307.612 347.16,305.849 347.733,304.085 349.233,302.996 351.087,302.996 352.587,304.085 353.16,305.849"/>
<polyline fill="none" stroke="#0000ff" stroke-width="2" stroke-linecap="butt" stroke-linejoin="miter" points="356.88,305.262 356.307,307.025 354.807,308.115 352.953,308.115 351.453,307.025 350.88,305.262 351.453,303.499 352.953,302.409 354.807,302.409 356.307,303.499 356.88,305.262"/>
<polyline fill="none" stroke="#0000ff" stroke-width="2" stroke-linecap="butt" stroke-linejoin="miter" points="360.6,304.675 360.027,306.438 358.527,307.528 356.673,307.528 355.173,306.438 354.6,304.675 355.173,302.912 356.673,301.822 358.527,301.822 360.027,302.912 360.6,304.675"/>
<polyline fill="none" stroke="#0000ff" stroke-width="2" stroke-linecap="butt" stroke-linejoin="miter" points="364.32,304.088 363.747,305.852 362.247,306.941 360.393,306.941 358.893,305.852 358.32,304.088 358.893,302.325 360.393,301.235 362.247,301.235 363.747,302.325 364.32,304.088"/>
<polyline fill="none" stroke="#0000ff" stroke-width="2" stroke-linecap="butt" stroke-linejoin="miter" points="368.04,303.501 367.467,305.265 365.967,306.355 364.113,306.355 362.613,305.265 362.04,303.501 362.613,301.738 364.113,300.648 365.967,300.648 367.467,301.738 368.04,303.501"/>
<polyline fill="none" stroke="#0000ff" stroke-width="2" stroke-linecap="butt" stroke-linejoin="miter" points="371.76,302.915 371.187,304.678 369.687,305.768 367.833,305.768 366.333,304.678 365.76,302.915 366.333,301.151 367.833,300.062 369.687,300.062 371.187,301.151 371.76,302.915"/>
<polyline fill="none" stroke="#0000ff" stroke-width="2" stroke-linecap="butt" stroke-linejoin="miter" points="375.48,302.328 374.907,304.091 373.407,305.181 371.553,305.181 370.053,304.091 369.48,302.328 370.053,300.564 371.553,299.475 373.407,299.475 374.907,300.564 375.48,302.328"/>
<polyline fill="none" stroke="#0000ff" stroke-width="2" stroke-linecap="butt" stroke-linejoin="miter" points="379.2,301.741 378.627,303.504 377.127,304.594 375.273,304.594 373.773,303.504 373.2,301.741 373.773,299.978 375.273,298.888 377.127,298.888 378.627,299.978 379.2,301.741"/>
<polyline fill="none" stroke="#0000ff" stroke-width="2" stroke-linecap="butt" stroke-linejoin="miter" points="382.92,301.154 382.347,302.918 380.847,304.007 378.993,304.007 377.493,302.918 376.92,301.154 377.493,299.391 378.993,298.301 380.847,298.301 382.347,299.391 382.92,301.154"/>
<polyline fill="none" stroke="#0000ff" stroke-width="2" stroke-linecap="butt" stroke-linejoin="miter" points="386.64,300.567 386.067,302.331 384.567,303.421 382.713,303.421 381.213,302.331 380.64,300.567 381.213,298.804 382.713,297.714 384.567,297.714 386.067,298.804 386.64,300.567"/>
<polyline fill="none" stroke="#0000ff" stroke-width="2" stroke-linecap="butt" stroke-linejoin="miter" points="390.36,299.981 389.787,301.744 388.287,302.834 386.433,302.834 384.933,301.744 384.36,299.981 384.933,298.217 386.433,297.127 388.287,297.127 389.787,298.217 390.36,299.981"/>
<polyline fill="none" stroke="#0000ff" stroke-width="2" stroke-linecap="butt" stroke-linejoin="miter" points="394.08,299.394 393.507,301.157 392.007,302.247 390.153,302.247 388.653,301.157 388.08,299.394 388.653,297.631 390.153,296.541 392.007,296.541 393.507,297.631 394.08,299.394"/>
<polyline fill="none" stroke="#0000ff" stroke-width="2" stroke-linecap="butt" stroke-linejoin="miter" points="397.8,298.807 397.227,300.57 395.727,301.66 393.873,301.66 392.373,300.57 391.8,298.807 392.373,297.044 393.873,295.954 395.727,295.954 397.227,297.044 397.8,298.807"/>
<polyline fill="none" stroke="#0000ff" stroke-width="2" stroke-linecap="butt" stroke-linejoin="miter" points="401.52,298.22 400.947,299.984 399.447,301.074 397.593,301.074 396.093,299.984 395.52,298.22 396.093,296.457 397.593,295.367 399.447,295.367 400.947,296.457 401.52,298.22"/>
<polyline fill="none" stroke="#0000ff" stroke-width="2" stroke-linecap="butt" stroke-linejoin="miter" points="405.24,297.634 404.667,299.397 403.167,300.487 401.313,300.487 399.813,299.397 399.24,297.634 399.813,295.87 401.313,294.78 403.167,294.78 404.667,295.87 405.24,297.634"/>
<polyline fill="none" stroke="#0000ff" stroke-width="2" stroke-linecap="butt" stroke-linejoin="miter" points="408.96,297.047 408.387,298.81 406.887,299.9 405.033,299.9 403.533,298.81 402.96,297.047 403.533,295.284 405.033,294.194 406.887,294.194 408.387,295.284 408.96,297.047"/>
<polyline fill="none" stroke="#0000ff" stroke-width="2" stroke-linecap="butt" stroke-linejoin="miter" points="412.68,296.46 412.107,298.223 410.607,299.313 408.753,299.313 407.253,298.223 406.68,296.46 407.253,294.697 408.753,293.607 410.607,293.607 412.107,294.697 412.68,296.46"/>
<polyline fill="none" stroke="#0000ff" stroke-width="2" stroke-linecap="butt" stroke-linejoin="miter" points="416.4,295.873 415.827,297.637 414.327,298.727 412.473,298.727 410.973,297.637 410.4,295.873 410.973,294.11 412.473,293.02 414.327,293.02 415.827,294.11 416.4,295.873"/>
<polyline fill="none" stroke="#0000ff" stroke-width="2" stroke-linecap="butt" stroke-linejoin="miter" points="420.12,295.287 419.547,297.05 418.047,298.14 416.193,298.14 414.693,297.05 414.12,295.287 414.693,293.523 416.193,292.433 418.047,292.433 419.547,293.523 420.12,295.287"/>
<polyline fill="none" stroke="#0000ff" stroke-width="2" stroke-linecap="butt" stroke-linejoin="miter" points="423.84,294.7 423.267,296.463 421.767,297.553 419.913,297.553 418.413,296.463 417.84,294.7 418.413,292.936 419.913,291.846 421.767,291.846 423.267,292.936 423.84,294.7"/>
<polyline fill="none" stroke="#0000ff" stroke-width="2" stroke-linecap="butt" stroke-linejoin="miter" points="427.56,294.113 426.987,295.876 425.487,296.966 423.633,296.966 422.133,295.876 421.56,294.113 422.133,292.35 423.633,291.26 425.487,291.26 426.987,292.35 427.56,294.113"/>
<polyline fill="none" stroke="#0000ff" stroke-width="2" stroke-linecap="butt" stroke-linejoin="miter" points="431.28,293.526 430.707,295.29 429.207,296.379 427.353,296.379 425.853,295.29 425.28,293.526 425.853,291.763 427.353,290.673 429.207,290.673 430.707,291.763 431.28,293.526"/>
<polyline fill="none" stroke="#0000ff" stroke-width="2" stroke-linecap="butt" stroke-linejoin="miter" points="435,292.939 434.427,294.703 432.927,295.792 431.073,295.792 429.573,294.703 429,292.939 429.573,291.176 431.073,290.086 432.927,290.086 434.427,291.176 435,292.939"/>
<polyline fill="none" stroke="#0000ff" stroke-width="2" stroke-linecap="butt" stroke-linejoin="miter" points="438.72,292.353 438.147,294.116 436.647,295.206 434.793,295.206 433.293,294.116 432.72,292.353 433.293,290.589 434.793,289.499 436.647,289.499 438.147,290.589 438.72,292.353"/>
<polyline fill="none" stroke="#0000ff" stroke-width="2" stroke-linecap="butt" stroke-linejoin="miter" points="442.44,291.766 441.867,293.529 440.367,294.619 438.513,294.619 437.013,293.529 436.44,291.766 437.013,290.002 438.513,288.913 440.367,288.913 441.867,290.002 442.44,291.766"/>
<polyline fill="none" stroke="#0000ff" stroke-width="2" stroke-linecap="butt" stroke-linejoin="miter" points="446.16,291.179 445.587,292.942 444.087,294.032 442.233,294.032 440.733,292.942 440.16,291.179 440.733,289.416 442.233,288.326 444.087,288.326 445.587,289.416 446.16,291.179"/>
<polyline fill="none" stroke="#0000ff" stroke-width="2" stroke-linecap="butt" stroke-linejoin="miter" points="449.88,290.592 449.307,292.355 447.807,293.445 445.953,293.445 444.453,292.355 443.88,290.592 444.453,288.829 445.953,287.739 447.807,287.739 449.307,288.829 449.88,290.592"/>
<polyline fill="none" stroke="#0000ff" stroke-width="2" stroke-linecap="butt" stroke-linejoin="miter" points="453.6,290.005 453.027,291.769 451.527,292.858 449.673,292.858 448.173,291.769 447.6,290.005 448.173,288.242 449.673,287.152 451.527,287.152 453.027,288.242 453.6,290.005"/>
<polyline fill="none" stroke="#0000ff" stroke-width="2" stroke-linecap="butt" stroke-linejoin="miter" points="457.32,289.418 456.747,291.182 455.247,292.271 453.393,292.271 451.893,291.182 451.32,289.418 451.893,287.655 453.393,286.565 455.247,286.565 456.747,287.655 457.32,289.418"/>
<polyline fill="none" stroke="#0000ff" stroke-width="2" stroke-linecap="butt" stroke-linejoin="miter" points="461.04,288.832 460.467,290.595 458.967,291.685 457.113,291.685 455.613,290.595 455.04,288.832 455.613,287.068 457.113,285.979 458.967,285.979 460.467,287.068 461.04,288.832"/>
<polyline fill="none" stroke="#0000ff" stroke-width="2" stroke-linecap="butt" stroke-linejoin="miter" points="464.76,288.245 464.187,290.008 462.687,291.098 460.833,291.098 459.333,290.008 458.76,288.245 459.333,286.481 460.833,285.392 462.687,285.392 464.187,286.481 464.76,288.245"/>
<polyline fill="none" stroke="#0000ff" stroke-width="2" stroke-linecap="butt" stroke-linejoin="miter" points="468.48,287.658 467.907,289.421 466.407,290.511 464.553,290.511 463.053,289.421 462.48,287.658 463.053,285.895 464.553,284.805 466.407,284.805 467.907,285.895 468.48,287.658"/>
<polyline fill="none" stroke="#0000ff" stroke-width="2" stroke-linecap="butt" stroke-linejoin="miter" points="472.2,287.071 471.627,288.834 470.127,289.924 468.273,289.924 466.773,288.834 466.2,287.071 466.773,285.308 468.273,284.218 470.127,284.218 471.627,285.308 472.2,287.071"/>
<polyline fill="none" stroke="#0000ff" stroke-width="2" stroke-linecap="butt" stroke-linejoin="miter" points="475.92,286.484 475.347,288.248 473.847,289.337 471.993,289.337 470.493,288.248 469.92,286.484 470.493,284.721 471.993,283.631 473.847,283.631 475.347,284.721 475.92,286.484"/>
<polyline fill="none" stroke="#0000ff" stroke-width="2" stroke-linecap="butt" stroke-linejoin="miter" points="479.64,285.897 479.067,287.661 477.567,288.751 475.713,288.751 474.213,287.661 473.64,285.897 474.213,284.134 475.713,283.044 477.567,283.044 479.067,284.134 479.64,285.897"/>
<polyline fill="none" stroke="#0000ff" stroke-width="2" stroke-linecap="butt" stroke-linejoin="miter" points="483.36,285.311 482.787,287.074 481.287,288.164 479.433,288.164 477.933,287.074 477.36,285.311 477.933,283.547 479.433,282.458 481.287,282.458 482.787,283.547 483.36,285.311"/>
<polyline fill="none" stroke="#0000ff" stroke-width="2" stroke-linecap="butt" stroke-linejoin="miter" points="487.08,284.724 486.507,286.487 485.007,287.577 483.153,287.577 481.653,286.487 481.08,284.724 481.653,282.96 483.153,281.871 485.007,281.871 486.507,282.96 487.08,284.724"/>
<text fill="#000000" x="298.08" y="22.3999" font-size="11" text-anchor="middle" dy="0" font-family="Helvetica" font-weight="bold">Cz wsplna zbiorw</text>
</g>
<clipPath id="cp00576432">
  <polygon points="0,432 576,432 576,0 0,0"/>
</clipPath>
<g clip-path="url(#cp00576432)">
<polygon fill="#ffffff" shape-rendering="crispEdges" points="444.459,75.6055 518.535,75.6055 518.535,35.1445"/>
<polygon fill="#ffffff" shape-rendering="crispEdges" points="444.459,75.6055 518.535,35.1445 444.459,35.1445"/>
<polyline fill="none" stroke="#262626" stroke-width="0.5" stroke-linecap="butt" stroke-linejoin="miter" stroke-dasharray="16,0" points="444.459,75.6055 518.535,75.6055"/>
<polyline fill="none" stroke="#262626" stroke-width="0.5" stroke-linecap="butt" stroke-linejoin="miter" stroke-dasharray="16,0" points="444.459,35.1445 518.535,35.1445"/>
<polyline fill="none" stroke="#262626" stroke-width="0.5" stroke-linecap="butt" stroke-linejoin="miter" stroke-dasharray="16,0" points="444.459,75.6055 444.459,35.1445"/>
<polyline fill="none" stroke="#262626" stroke-width="0.5" stroke-linecap="butt" stroke-linejoin="miter" stroke-dasharray="16,0" points="518.535,75.6055 518.535,35.1445"/>
<text fill="#000000" x="470.534" y="51.7598" font-size="10" text-anchor="start" dy="0" font-family="Helvetica">x</text>
<text fill="#000000" x="476.534" y="45.7598" font-size="8" text-anchor="start" dy="0" font-family="Helvetica">2</text>
<text fill="#000000" x="470.534" y="65.4902" font-size="10" text-anchor="start" dy="5" font-family="Helvetica">0.5 x + 1</text>
<polyline fill="none" stroke="#ff0000" stroke-width="2" stroke-linecap="butt" stroke-linejoin="miter" points="447.204,45.2598 467.789,45.2598"/>
<polyline fill="none" stroke="#ff0000" stroke-width="2" stroke-linecap="butt" stroke-linejoin="miter" points="460.497,45.2598 459.923,47.0229 458.423,48.1128 456.569,48.1128 455.069,47.0229 454.497,45.2598 455.069,43.4966 456.569,42.4067 458.423,42.4067 459.923,43.4966 460.497,45.2598"/>
<polyline fill="none" stroke="#0000ff" stroke-width="2" stroke-linecap="butt" stroke-linejoin="miter" points="447.204,65.4902 467.789,65.4902"/>
<polyline fill="none" stroke="#0000ff" stroke-width="2" stroke-linecap="butt" stroke-linejoin="miter" points="460.497,65.4902 459.923,67.2534 458.423,68.3433 456.569,68.3433 455.069,67.2534 454.497,65.4902 455.069,63.7271 456.569,62.6372 458.423,62.6372 459.923,63.7271 460.497,65.4902"/>
</g>
</g>
</svg>
