<?xml version="1.0" encoding="UTF-8" standalone="no"?>
<svg xmlns="http://www.w3.org/2000/svg"
     xmlns:xlink="http://www.w3.org/1999/xlink"
     width="576px" height="432px" viewBox="0 0 576 432">
<title>gl2ps_renderer figure</title>
<desc>
Creator: GL2PS 1.4.0, (C) 1999-2017 C. Geuzaine
For: Octave
CreationDate: Sat Nov  2 11:12:41 2019
</desc>
<defs>
</defs>
<polygon fill="#ffffff" points="0,0 576,0 576,432 0,432"/>
<g>
<polygon fill="#ffffff" points="0,432 576,432 576,0 0,0" shape-rendering="crispEdges"/>
<clipPath id="cp00576432">
  <polygon points="0,432 576,432 576,0 0,0"/>
</clipPath>
<g clip-path="url(#cp00576432)">
<polygon fill="#ffffff" shape-rendering="crispEdges" points="74.8799,384.48 521.28,384.48 521.28,32.3999"/>
<polygon fill="#ffffff" shape-rendering="crispEdges" points="74.8799,384.48 521.28,32.3999 74.8799,32.3999"/>
<polyline fill="none" stroke="#262626" stroke-width="0.5" stroke-linecap="butt" stroke-linejoin="miter" points="74.8799,384.48 74.8799,380.015"/>
<polyline fill="none" stroke="#262626" stroke-width="0.5" stroke-linecap="butt" stroke-linejoin="miter" points="74.8799,32.3999 74.8799,36.8652"/>
<polyline fill="none" stroke="#262626" stroke-width="0.5" stroke-linecap="butt" stroke-linejoin="miter" points="186.48,384.48 186.48,380.015"/>
<polyline fill="none" stroke="#262626" stroke-width="0.5" stroke-linecap="butt" stroke-linejoin="miter" points="186.48,32.3999 186.48,36.8652"/>
<polyline fill="none" stroke="#262626" stroke-width="0.5" stroke-linecap="butt" stroke-linejoin="miter" points="298.08,384.48 298.08,380.015"/>
<polyline fill="none" stroke="#262626" stroke-width="0.5" stroke-linecap="butt" stroke-linejoin="miter" points="298.08,32.3999 298.08,36.8652"/>
<polyline fill="none" stroke="#262626" stroke-width="0.5" stroke-linecap="butt" stroke-linejoin="miter" points="409.68,384.48 409.68,380.015"/>
<polyline fill="none" stroke="#262626" stroke-width="0.5" stroke-linecap="butt" stroke-linejoin="miter" points="409.68,32.3999 409.68,36.8652"/>
<polyline fill="none" stroke="#262626" stroke-width="0.5" stroke-linecap="butt" stroke-linejoin="miter" points="521.28,384.48 521.28,380.015"/>
<polyline fill="none" stroke="#262626" stroke-width="0.5" stroke-linecap="butt" stroke-linejoin="miter" points="521.28,32.3999 521.28,36.8652"/>
<text fill="#262626" x="74.8799" y="389.481" font-size="10" text-anchor="middle" dy="10" font-family="Helvetica">-2</text>
<text fill="#262626" x="186.48" y="389.481" font-size="10" text-anchor="middle" dy="10" font-family="Helvetica">-1</text>
<text fill="#262626" x="298.08" y="389.481" font-size="10" text-anchor="middle" dy="10" font-family="Helvetica">0</text>
<text fill="#262626" x="409.68" y="389.481" font-size="10" text-anchor="middle" dy="10" font-family="Helvetica">1</text>
<text fill="#262626" x="521.28" y="389.481" font-size="10" text-anchor="middle" dy="10" font-family="Helvetica">2</text>
<polyline fill="none" stroke="#262626" stroke-width="0.5" stroke-linecap="butt" stroke-linejoin="miter" points="74.8799,384.48 79.3481,384.48"/>
<polyline fill="none" stroke="#262626" stroke-width="0.5" stroke-linecap="butt" stroke-linejoin="miter" points="521.28,384.48 516.812,384.48"/>
<polyline fill="none" stroke="#262626" stroke-width="0.5" stroke-linecap="butt" stroke-linejoin="miter" points="74.8799,296.46 79.3481,296.46"/>
<polyline fill="none" stroke="#262626" stroke-width="0.5" stroke-linecap="butt" stroke-linejoin="miter" points="521.28,296.46 516.812,296.46"/>
<polyline fill="none" stroke="#262626" stroke-width="0.5" stroke-linecap="butt" stroke-linejoin="miter" points="74.8799,208.44 79.3481,208.44"/>
<polyline fill="none" stroke="#262626" stroke-width="0.5" stroke-linecap="butt" stroke-linejoin="miter" points="521.28,208.44 516.812,208.44"/>
<polyline fill="none" stroke="#262626" stroke-width="0.5" stroke-linecap="butt" stroke-linejoin="miter" points="74.8799,120.42 79.3481,120.42"/>
<polyline fill="none" stroke="#262626" stroke-width="0.5" stroke-linecap="butt" stroke-linejoin="miter" points="521.28,120.42 516.812,120.42"/>
<polyline fill="none" stroke="#262626" stroke-width="0.5" stroke-linecap="butt" stroke-linejoin="miter" points="74.8799,32.3999 79.3481,32.3999"/>
<polyline fill="none" stroke="#262626" stroke-width="0.5" stroke-linecap="butt" stroke-linejoin="miter" points="521.28,32.3999 516.812,32.3999"/>
<text fill="#262626" x="69.8755" y="384.48" font-size="10" text-anchor="end" dy="5" font-family="Helvetica">-2</text>
<text fill="#262626" x="69.8755" y="296.46" font-size="10" text-anchor="end" dy="5" font-family="Helvetica">-1</text>
<text fill="#262626" x="69.8755" y="208.44" font-size="10" text-anchor="end" dy="5" font-family="Helvetica">0</text>
<text fill="#262626" x="69.8755" y="120.42" font-size="10" text-anchor="end" dy="5" font-family="Helvetica">1</text>
<text fill="#262626" x="69.8755" y="32.3999" font-size="10" text-anchor="end" dy="5" font-family="Helvetica">2</text>
<polyline fill="none" stroke="#262626" stroke-width="0.5" stroke-linecap="butt" stroke-linejoin="miter" stroke-dasharray="16,0" points="74.8799,384.48 521.28,384.48"/>
<polyline fill="none" stroke="#262626" stroke-width="0.5" stroke-linecap="butt" stroke-linejoin="miter" stroke-dasharray="16,0" points="74.8799,32.3999 521.28,32.3999"/>
<polyline fill="none" stroke="#262626" stroke-width="0.5" stroke-linecap="butt" stroke-linejoin="miter" stroke-dasharray="16,0" points="74.8799,384.48 74.8799,32.3999"/>
<polyline fill="none" stroke="#262626" stroke-width="0.5" stroke-linecap="butt" stroke-linejoin="miter" stroke-dasharray="16,0" points="521.28,384.48 521.28,32.3999"/>
<text fill="#262626" x="298.08" y="402.481" font-size="11" text-anchor="middle" dy="11" font-family="Helvetica">x</text>
<text fill="#262626" x="55.8755" y="208.44" font-size="11" transform="rotate(-90, 55.8755, 208.44)" text-anchor="middle" dy="0" font-family="Helvetica">y</text>
<polyline fill="none" stroke="#0071bc" stroke-width="0.5" stroke-linecap="butt" stroke-linejoin="miter" points="74.8799,360.89 75.1978,360.61 81.7207,354.643 82.4463,353.951 88.1797,348.675 90.0122,346.916 94.5571,342.708 97.5781,339.783 100.843,336.74 105.145,332.54 107.026,330.773 112.71,325.169 113.095,324.806 119.084,318.838 120.276,317.584 124.954,312.871 127.843,309.788 130.669,306.903 135.409,301.763 136.208,300.936 141.612,294.968 142.975,293.356 146.841,289 150.541,284.511 151.823,283.033 156.602,277.066 158.107,275.015 161.142,271.098 165.345,265.131 165.673,264.613 169.331,259.164 172.892,253.196 173.239,252.53 176.18,247.229 179.018,241.261 180.806,236.748 181.42,235.293 183.438,229.326 184.951,223.359 185.96,217.391 186.464,211.424 186.464,205.456 185.96,199.489 184.951,193.521 183.438,187.554 181.42,181.586 180.806,180.132 179.018,175.619 176.18,169.651 173.239,164.35 172.892,163.684 169.331,157.717 165.673,152.267 165.345,151.749 161.142,145.782 158.107,141.866 156.602,139.814 151.823,133.847 150.541,132.369 146.841,127.879 142.975,123.523 141.612,121.912 136.208,115.944 135.409,115.117 130.669,109.977 127.843,107.092 124.954,104.009 120.276,99.2954 119.084,98.042 113.095,92.0747 112.71,91.7109 107.026,86.1069 105.145,84.3398 100.843,80.1396 97.5781,77.0967 94.5571,74.1724 90.0122,69.9644 88.1797,68.2046 82.4463,62.9287 81.7207,62.2373 75.1978,56.27 74.8799,55.9902"/>
<polyline fill="none" stroke="#0071bc" stroke-width="0.5" stroke-linecap="butt" stroke-linejoin="miter" points="521.28,360.89 520.962,360.61 514.439,354.643 513.714,353.951 507.98,348.675 506.148,346.916 501.603,342.708 498.582,339.783 495.317,336.74 491.016,332.54 489.133,330.773 483.45,325.169 483.065,324.806 477.075,318.838 475.883,317.584 471.206,312.871 468.317,309.788 465.491,306.903 460.751,301.763 459.952,300.936 454.547,294.968 453.185,293.356 449.319,289 445.619,284.511 444.337,283.033 439.559,277.066 438.053,275.015 435.019,271.098 430.815,265.131 430.487,264.613 426.829,259.164 423.269,253.196 422.921,252.53 419.98,247.229 417.143,241.261 415.354,236.748 414.74,235.293 412.722,229.326 411.209,223.359 410.2,217.391 409.696,211.424 409.696,205.456 410.2,199.489 411.209,193.521 412.722,187.554 414.74,181.586 415.354,180.132 417.143,175.619 419.98,169.651 422.921,164.35 423.269,163.684 426.829,157.717 430.487,152.267 430.815,151.749 435.019,145.782 438.053,141.866 439.559,139.814 444.337,133.847 445.619,132.369 449.319,127.879 453.185,123.523 454.547,121.912 459.952,115.944 460.751,115.117 465.491,109.977 468.317,107.092 471.206,104.009 475.883,99.2954 477.075,98.042 483.065,92.0747 483.45,91.7109 489.133,86.1069 491.016,84.3398 495.317,80.1396 498.582,77.0967 501.603,74.1724 506.148,69.9644 507.98,68.2046 513.714,62.9287 514.439,62.2373 520.962,56.27 521.28,55.9902"/>
<text fill="#000000" x="255.58" y="20.3999" font-size="11" text-anchor="start" dy="0" font-family="Helvetica" font-weight="bold">x</text>
<text fill="#000000" x="262.58" y="13.3999" font-size="9" text-anchor="start" dy="0" font-family="Helvetica" font-weight="bold">2</text>
<text fill="#000000" x="268.58" y="20.3999" font-size="11" text-anchor="start" dy="0" font-family="Helvetica" font-weight="bold"> - y</text>
<text fill="#000000" x="288.58" y="13.3999" font-size="9" text-anchor="start" dy="0" font-family="Helvetica" font-weight="bold">2</text>
<text fill="#000000" x="294.58" y="20.3999" font-size="11" text-anchor="start" dy="0" font-family="Helvetica" font-weight="bold"> - 1 = 0</text>
</g>
</g>
</svg>
