<?xml version="1.0" encoding="UTF-8" standalone="no"?>
<svg xmlns="http://www.w3.org/2000/svg"
     xmlns:xlink="http://www.w3.org/1999/xlink"
     width="576px" height="432px" viewBox="0 0 576 432">
<title>gl2ps_renderer figure</title>
<desc>
Creator: GL2PS 1.4.0, (C) 1999-2017 C. Geuzaine
For: Octave
CreationDate: Sat Nov  2 20:05:47 2019
</desc>
<defs>
</defs>
<polygon fill="#ffffff" points="0,0 576,0 576,432 0,432"/>
<g>
<polygon fill="#ffffff" points="0,432 576,432 576,0 0,0" shape-rendering="crispEdges"/>
<clipPath id="cp00576432">
  <polygon points="0,432 576,432 576,0 0,0"/>
</clipPath>
<g clip-path="url(#cp00576432)">
<polygon fill="#ffffff" shape-rendering="crispEdges" points="74.8799,384.48 521.28,384.48 521.28,32.3999"/>
<polygon fill="#ffffff" shape-rendering="crispEdges" points="74.8799,384.48 521.28,32.3999 74.8799,32.3999"/>
<polyline fill="none" stroke="#262626" stroke-width="0.5" stroke-linecap="butt" stroke-linejoin="miter" stroke-opacity="0.15" stroke-dasharray="16,0" points="74.8799,384.48 74.8799,32.3999"/>
<polyline fill="none" stroke="#262626" stroke-width="0.5" stroke-linecap="butt" stroke-linejoin="miter" stroke-opacity="0.15" stroke-dasharray="16,0" points="164.16,384.48 164.16,32.3999"/>
<polyline fill="none" stroke="#262626" stroke-width="0.5" stroke-linecap="butt" stroke-linejoin="miter" stroke-opacity="0.15" stroke-dasharray="16,0" points="253.44,384.48 253.44,32.3999"/>
<polyline fill="none" stroke="#262626" stroke-width="0.5" stroke-linecap="butt" stroke-linejoin="miter" stroke-opacity="0.15" stroke-dasharray="16,0" points="342.72,384.48 342.72,32.3999"/>
<polyline fill="none" stroke="#262626" stroke-width="0.5" stroke-linecap="butt" stroke-linejoin="miter" stroke-opacity="0.15" stroke-dasharray="16,0" points="432,384.48 432,32.3999"/>
<polyline fill="none" stroke="#262626" stroke-width="0.5" stroke-linecap="butt" stroke-linejoin="miter" stroke-opacity="0.15" stroke-dasharray="16,0" points="521.28,384.48 521.28,32.3999"/>
<polyline fill="none" stroke="#262626" stroke-width="0.5" stroke-linecap="butt" stroke-linejoin="miter" points="74.8799,384.48 74.8799,380.015"/>
<polyline fill="none" stroke="#262626" stroke-width="0.5" stroke-linecap="butt" stroke-linejoin="miter" points="74.8799,32.3999 74.8799,36.8652"/>
<polyline fill="none" stroke="#262626" stroke-width="0.5" stroke-linecap="butt" stroke-linejoin="miter" points="164.16,384.48 164.16,380.015"/>
<polyline fill="none" stroke="#262626" stroke-width="0.5" stroke-linecap="butt" stroke-linejoin="miter" points="164.16,32.3999 164.16,36.8652"/>
<polyline fill="none" stroke="#262626" stroke-width="0.5" stroke-linecap="butt" stroke-linejoin="miter" points="253.44,384.48 253.44,380.015"/>
<polyline fill="none" stroke="#262626" stroke-width="0.5" stroke-linecap="butt" stroke-linejoin="miter" points="253.44,32.3999 253.44,36.8652"/>
<polyline fill="none" stroke="#262626" stroke-width="0.5" stroke-linecap="butt" stroke-linejoin="miter" points="342.72,384.48 342.72,380.015"/>
<polyline fill="none" stroke="#262626" stroke-width="0.5" stroke-linecap="butt" stroke-linejoin="miter" points="342.72,32.3999 342.72,36.8652"/>
<polyline fill="none" stroke="#262626" stroke-width="0.5" stroke-linecap="butt" stroke-linejoin="miter" points="432,384.48 432,380.015"/>
<polyline fill="none" stroke="#262626" stroke-width="0.5" stroke-linecap="butt" stroke-linejoin="miter" points="432,32.3999 432,36.8652"/>
<polyline fill="none" stroke="#262626" stroke-width="0.5" stroke-linecap="butt" stroke-linejoin="miter" points="521.28,384.48 521.28,380.015"/>
<polyline fill="none" stroke="#262626" stroke-width="0.5" stroke-linecap="butt" stroke-linejoin="miter" points="521.28,32.3999 521.28,36.8652"/>
<text fill="#262626" x="74.8799" y="389.481" font-size="10" text-anchor="middle" dy="10" font-family="Helvetica">-1.5</text>
<text fill="#262626" x="164.16" y="389.481" font-size="10" text-anchor="middle" dy="10" font-family="Helvetica">-1</text>
<text fill="#262626" x="253.44" y="389.481" font-size="10" text-anchor="middle" dy="10" font-family="Helvetica">-0.5</text>
<text fill="#262626" x="342.72" y="389.481" font-size="10" text-anchor="middle" dy="10" font-family="Helvetica">0</text>
<text fill="#262626" x="432" y="389.481" font-size="10" text-anchor="middle" dy="10" font-family="Helvetica">0.5</text>
<text fill="#262626" x="521.28" y="389.481" font-size="10" text-anchor="middle" dy="10" font-family="Helvetica">1</text>
<polyline fill="none" stroke="#262626" stroke-width="0.5" stroke-linecap="butt" stroke-linejoin="miter" stroke-opacity="0.15" stroke-dasharray="16,0" points="74.8799,384.48 521.28,384.48"/>
<polyline fill="none" stroke="#262626" stroke-width="0.5" stroke-linecap="butt" stroke-linejoin="miter" stroke-opacity="0.15" stroke-dasharray="16,0" points="74.8799,325.8 521.28,325.8"/>
<polyline fill="none" stroke="#262626" stroke-width="0.5" stroke-linecap="butt" stroke-linejoin="miter" stroke-opacity="0.15" stroke-dasharray="16,0" points="74.8799,267.12 521.28,267.12"/>
<polyline fill="none" stroke="#262626" stroke-width="0.5" stroke-linecap="butt" stroke-linejoin="miter" stroke-opacity="0.15" stroke-dasharray="16,0" points="74.8799,208.44 521.28,208.44"/>
<polyline fill="none" stroke="#262626" stroke-width="0.5" stroke-linecap="butt" stroke-linejoin="miter" stroke-opacity="0.15" stroke-dasharray="16,0" points="74.8799,149.76 521.28,149.76"/>
<polyline fill="none" stroke="#262626" stroke-width="0.5" stroke-linecap="butt" stroke-linejoin="miter" stroke-opacity="0.15" stroke-dasharray="16,0" points="74.8799,91.0801 521.28,91.0801"/>
<polyline fill="none" stroke="#262626" stroke-width="0.5" stroke-linecap="butt" stroke-linejoin="miter" stroke-opacity="0.15" stroke-dasharray="16,0" points="74.8799,32.3999 521.28,32.3999"/>
<polyline fill="none" stroke="#262626" stroke-width="0.5" stroke-linecap="butt" stroke-linejoin="miter" points="74.8799,384.48 79.3481,384.48"/>
<polyline fill="none" stroke="#262626" stroke-width="0.5" stroke-linecap="butt" stroke-linejoin="miter" points="521.28,384.48 516.812,384.48"/>
<polyline fill="none" stroke="#262626" stroke-width="0.5" stroke-linecap="butt" stroke-linejoin="miter" points="74.8799,325.8 79.3481,325.8"/>
<polyline fill="none" stroke="#262626" stroke-width="0.5" stroke-linecap="butt" stroke-linejoin="miter" points="521.28,325.8 516.812,325.8"/>
<polyline fill="none" stroke="#262626" stroke-width="0.5" stroke-linecap="butt" stroke-linejoin="miter" points="74.8799,267.12 79.3481,267.12"/>
<polyline fill="none" stroke="#262626" stroke-width="0.5" stroke-linecap="butt" stroke-linejoin="miter" points="521.28,267.12 516.812,267.12"/>
<polyline fill="none" stroke="#262626" stroke-width="0.5" stroke-linecap="butt" stroke-linejoin="miter" points="74.8799,208.44 79.3481,208.44"/>
<polyline fill="none" stroke="#262626" stroke-width="0.5" stroke-linecap="butt" stroke-linejoin="miter" points="521.28,208.44 516.812,208.44"/>
<polyline fill="none" stroke="#262626" stroke-width="0.5" stroke-linecap="butt" stroke-linejoin="miter" points="74.8799,149.76 79.3481,149.76"/>
<polyline fill="none" stroke="#262626" stroke-width="0.5" stroke-linecap="butt" stroke-linejoin="miter" points="521.28,149.76 516.812,149.76"/>
<polyline fill="none" stroke="#262626" stroke-width="0.5" stroke-linecap="butt" stroke-linejoin="miter" points="74.8799,91.0801 79.3481,91.0801"/>
<polyline fill="none" stroke="#262626" stroke-width="0.5" stroke-linecap="butt" stroke-linejoin="miter" points="521.28,91.0801 516.812,91.0801"/>
<polyline fill="none" stroke="#262626" stroke-width="0.5" stroke-linecap="butt" stroke-linejoin="miter" points="74.8799,32.3999 79.3481,32.3999"/>
<polyline fill="none" stroke="#262626" stroke-width="0.5" stroke-linecap="butt" stroke-linejoin="miter" points="521.28,32.3999 516.812,32.3999"/>
<text fill="#262626" x="69.8755" y="384.48" font-size="10" text-anchor="end" dy="5" font-family="Helvetica">-6</text>
<text fill="#262626" x="69.8755" y="325.8" font-size="10" text-anchor="end" dy="5" font-family="Helvetica">-4</text>
<text fill="#262626" x="69.8755" y="267.12" font-size="10" text-anchor="end" dy="5" font-family="Helvetica">-2</text>
<text fill="#262626" x="69.8755" y="208.44" font-size="10" text-anchor="end" dy="5" font-family="Helvetica">0</text>
<text fill="#262626" x="69.8755" y="149.76" font-size="10" text-anchor="end" dy="5" font-family="Helvetica">2</text>
<text fill="#262626" x="69.8755" y="91.0801" font-size="10" text-anchor="end" dy="5" font-family="Helvetica">4</text>
<text fill="#262626" x="69.8755" y="32.3999" font-size="10" text-anchor="end" dy="5" font-family="Helvetica">6</text>
<polyline fill="none" stroke="#262626" stroke-width="0.5" stroke-linecap="butt" stroke-linejoin="miter" stroke-dasharray="16,0" points="74.8799,384.48 521.28,384.48"/>
<polyline fill="none" stroke="#262626" stroke-width="0.5" stroke-linecap="butt" stroke-linejoin="miter" stroke-dasharray="16,0" points="74.8799,32.3999 521.28,32.3999"/>
<polyline fill="none" stroke="#262626" stroke-width="0.5" stroke-linecap="butt" stroke-linejoin="miter" stroke-dasharray="16,0" points="74.8799,384.48 74.8799,32.3999"/>
<polyline fill="none" stroke="#262626" stroke-width="0.5" stroke-linecap="butt" stroke-linejoin="miter" stroke-dasharray="16,0" points="521.28,384.48 521.28,32.3999"/>
<text fill="#262626" x="298.08" y="402.481" font-size="11" text-anchor="middle" dy="11" font-family="Helvetica">x</text>
<text fill="#262626" x="55.8755" y="208.44" font-size="11" transform="rotate(-90, 55.8755, 208.44)" text-anchor="middle" dy="0" font-family="Helvetica">y</text>
<polyline fill="none" stroke="#ff0000" stroke-width="2" stroke-linecap="butt" stroke-linejoin="miter" points="74.8799,330.384 83.8081,307.766 92.7358,288.264 101.664,271.533 110.592,257.257 119.52,245.144 128.448,234.926 137.376,226.359 146.304,219.22 155.232,213.308 164.16,208.44 173.088,204.454 182.016,201.205 190.944,198.562 199.872,196.413 208.8,194.658 217.728,193.211 226.656,192 235.584,190.958 244.512,190.035 253.44,189.186 262.368,188.374 271.296,187.569 280.224,186.747 289.152,185.887 298.08,184.974 307.008,183.992 315.936,182.927 324.864,181.767 333.792,180.497 342.72,179.1 351.648,177.556 360.576,175.84 369.504,173.923 378.432,171.768 387.36,169.33 396.288,166.556 405.216,163.384 414.144,159.74 423.072,155.538 432,150.677 440.928,145.045 449.856,138.512 458.784,130.934 467.712,122.146 476.64,111.968 485.568,100.196 494.496,86.6104 503.424,70.9648 512.352,52.9917 521.28,32.3999"/>
<polyline fill="none" stroke="#ff0000" stroke-width="2" stroke-linecap="butt" stroke-linejoin="miter" points="77.8799,330.384 77.3071,332.148 75.8071,333.237 73.9531,333.237 72.4531,332.148 71.8799,330.384 72.4531,328.621 73.9531,327.531 75.8071,327.531 77.3071,328.621 77.8799,330.384"/>
<polyline fill="none" stroke="#ff0000" stroke-width="2" stroke-linecap="butt" stroke-linejoin="miter" points="86.8081,307.766 86.2349,309.53 84.7349,310.62 82.8809,310.62 81.3809,309.53 80.8081,307.766 81.3809,306.003 82.8809,304.913 84.7349,304.913 86.2349,306.003 86.8081,307.766"/>
<polyline fill="none" stroke="#ff0000" stroke-width="2" stroke-linecap="butt" stroke-linejoin="miter" points="95.7358,288.264 95.1631,290.027 93.6631,291.117 91.8091,291.117 90.3091,290.027 89.7358,288.264 90.3091,286.5 91.8091,285.411 93.6631,285.411 95.1631,286.5 95.7358,288.264"/>
<polyline fill="none" stroke="#ff0000" stroke-width="2" stroke-linecap="butt" stroke-linejoin="miter" points="104.664,271.533 104.091,273.296 102.591,274.386 100.737,274.386 99.2368,273.296 98.6641,271.533 99.2368,269.77 100.737,268.68 102.591,268.68 104.091,269.77 104.664,271.533"/>
<polyline fill="none" stroke="#ff0000" stroke-width="2" stroke-linecap="butt" stroke-linejoin="miter" points="113.592,257.257 113.019,259.02 111.519,260.11 109.665,260.11 108.165,259.02 107.592,257.257 108.165,255.494 109.665,254.404 111.519,254.404 113.019,255.494 113.592,257.257"/>
<polyline fill="none" stroke="#ff0000" stroke-width="2" stroke-linecap="butt" stroke-linejoin="miter" points="122.52,245.144 121.947,246.907 120.447,247.997 118.593,247.997 117.093,246.907 116.52,245.144 117.093,243.38 118.593,242.291 120.447,242.291 121.947,243.38 122.52,245.144"/>
<polyline fill="none" stroke="#ff0000" stroke-width="2" stroke-linecap="butt" stroke-linejoin="miter" points="131.448,234.926 130.875,236.689 129.375,237.779 127.521,237.779 126.021,236.689 125.448,234.926 126.021,233.163 127.521,232.073 129.375,232.073 130.875,233.163 131.448,234.926"/>
<polyline fill="none" stroke="#ff0000" stroke-width="2" stroke-linecap="butt" stroke-linejoin="miter" points="140.376,226.359 139.803,228.122 138.303,229.212 136.449,229.212 134.949,228.122 134.376,226.359 134.949,224.595 136.449,223.505 138.303,223.505 139.803,224.595 140.376,226.359"/>
<polyline fill="none" stroke="#ff0000" stroke-width="2" stroke-linecap="butt" stroke-linejoin="miter" points="149.304,219.22 148.731,220.983 147.231,222.073 145.377,222.073 143.877,220.983 143.304,219.22 143.877,217.457 145.377,216.367 147.231,216.367 148.731,217.457 149.304,219.22"/>
<polyline fill="none" stroke="#ff0000" stroke-width="2" stroke-linecap="butt" stroke-linejoin="miter" points="158.232,213.308 157.659,215.071 156.159,216.161 154.305,216.161 152.805,215.071 152.232,213.308 152.805,211.544 154.305,210.454 156.159,210.454 157.659,211.544 158.232,213.308"/>
<polyline fill="none" stroke="#ff0000" stroke-width="2" stroke-linecap="butt" stroke-linejoin="miter" points="167.16,208.44 166.587,210.203 165.087,211.293 163.233,211.293 161.733,210.203 161.16,208.44 161.733,206.677 163.233,205.587 165.087,205.587 166.587,206.677 167.16,208.44"/>
<polyline fill="none" stroke="#ff0000" stroke-width="2" stroke-linecap="butt" stroke-linejoin="miter" points="176.088,204.454 175.515,206.217 174.015,207.307 172.161,207.307 170.661,206.217 170.088,204.454 170.661,202.691 172.161,201.601 174.015,201.601 175.515,202.691 176.088,204.454"/>
<polyline fill="none" stroke="#ff0000" stroke-width="2" stroke-linecap="butt" stroke-linejoin="miter" points="185.016,201.205 184.443,202.968 182.943,204.058 181.089,204.058 179.589,202.968 179.016,201.205 179.589,199.441 181.089,198.351 182.943,198.351 184.443,199.441 185.016,201.205"/>
<polyline fill="none" stroke="#ff0000" stroke-width="2" stroke-linecap="butt" stroke-linejoin="miter" points="193.944,198.562 193.371,200.325 191.871,201.415 190.017,201.415 188.517,200.325 187.944,198.562 188.517,196.799 190.017,195.709 191.871,195.709 193.371,196.799 193.944,198.562"/>
<polyline fill="none" stroke="#ff0000" stroke-width="2" stroke-linecap="butt" stroke-linejoin="miter" points="202.872,196.413 202.299,198.176 200.799,199.266 198.945,199.266 197.445,198.176 196.872,196.413 197.445,194.649 198.945,193.56 200.799,193.56 202.299,194.649 202.872,196.413"/>
<polyline fill="none" stroke="#ff0000" stroke-width="2" stroke-linecap="butt" stroke-linejoin="miter" points="211.8,194.658 211.227,196.421 209.727,197.511 207.873,197.511 206.373,196.421 205.8,194.658 206.373,192.895 207.873,191.805 209.727,191.805 211.227,192.895 211.8,194.658"/>
<polyline fill="none" stroke="#ff0000" stroke-width="2" stroke-linecap="butt" stroke-linejoin="miter" points="220.728,193.211 220.155,194.975 218.655,196.065 216.801,196.065 215.301,194.975 214.728,193.211 215.301,191.448 216.801,190.358 218.655,190.358 220.155,191.448 220.728,193.211"/>
<polyline fill="none" stroke="#ff0000" stroke-width="2" stroke-linecap="butt" stroke-linejoin="miter" points="229.656,192 229.083,193.763 227.583,194.853 225.729,194.853 224.229,193.763 223.656,192 224.229,190.236 225.729,189.146 227.583,189.146 229.083,190.236 229.656,192"/>
<polyline fill="none" stroke="#ff0000" stroke-width="2" stroke-linecap="butt" stroke-linejoin="miter" points="238.584,190.958 238.011,192.721 236.511,193.811 234.657,193.811 233.157,192.721 232.584,190.958 233.157,189.195 234.657,188.105 236.511,188.105 238.011,189.195 238.584,190.958"/>
<polyline fill="none" stroke="#ff0000" stroke-width="2" stroke-linecap="butt" stroke-linejoin="miter" points="247.512,190.035 246.939,191.798 245.439,192.888 243.585,192.888 242.085,191.798 241.512,190.035 242.085,188.271 243.585,187.182 245.439,187.182 246.939,188.271 247.512,190.035"/>
<polyline fill="none" stroke="#ff0000" stroke-width="2" stroke-linecap="butt" stroke-linejoin="miter" points="256.44,189.186 255.867,190.949 254.367,192.039 252.513,192.039 251.013,190.949 250.44,189.186 251.013,187.422 252.513,186.333 254.367,186.333 255.867,187.422 256.44,189.186"/>
<polyline fill="none" stroke="#ff0000" stroke-width="2" stroke-linecap="butt" stroke-linejoin="miter" points="265.368,188.374 264.795,190.137 263.295,191.227 261.441,191.227 259.941,190.137 259.368,188.374 259.941,186.61 261.441,185.521 263.295,185.521 264.795,186.61 265.368,188.374"/>
<polyline fill="none" stroke="#ff0000" stroke-width="2" stroke-linecap="butt" stroke-linejoin="miter" points="274.296,187.569 273.723,189.332 272.223,190.422 270.369,190.422 268.869,189.332 268.296,187.569 268.869,185.805 270.369,184.715 272.223,184.715 273.723,185.805 274.296,187.569"/>
<polyline fill="none" stroke="#ff0000" stroke-width="2" stroke-linecap="butt" stroke-linejoin="miter" points="283.224,186.747 282.651,188.51 281.151,189.6 279.297,189.6 277.797,188.51 277.224,186.747 277.797,184.983 279.297,183.894 281.151,183.894 282.651,184.983 283.224,186.747"/>
<polyline fill="none" stroke="#ff0000" stroke-width="2" stroke-linecap="butt" stroke-linejoin="miter" points="292.152,185.887 291.579,187.65 290.079,188.74 288.225,188.74 286.725,187.65 286.152,185.887 286.725,184.124 288.225,183.034 290.079,183.034 291.579,184.124 292.152,185.887"/>
<polyline fill="none" stroke="#ff0000" stroke-width="2" stroke-linecap="butt" stroke-linejoin="miter" points="301.08,184.974 300.507,186.737 299.007,187.827 297.153,187.827 295.653,186.737 295.08,184.974 295.653,183.21 297.153,182.121 299.007,182.121 300.507,183.21 301.08,184.974"/>
<polyline fill="none" stroke="#ff0000" stroke-width="2" stroke-linecap="butt" stroke-linejoin="miter" points="310.008,183.992 309.435,185.755 307.935,186.845 306.081,186.845 304.581,185.755 304.008,183.992 304.581,182.228 306.081,181.138 307.935,181.138 309.435,182.228 310.008,183.992"/>
<polyline fill="none" stroke="#ff0000" stroke-width="2" stroke-linecap="butt" stroke-linejoin="miter" points="318.936,182.927 318.363,184.69 316.863,185.78 315.009,185.78 313.509,184.69 312.936,182.927 313.509,181.164 315.009,180.074 316.863,180.074 318.363,181.164 318.936,182.927"/>
<polyline fill="none" stroke="#ff0000" stroke-width="2" stroke-linecap="butt" stroke-linejoin="miter" points="327.864,181.767 327.291,183.531 325.791,184.621 323.937,184.621 322.437,183.531 321.864,181.767 322.437,180.004 323.937,178.914 325.791,178.914 327.291,180.004 327.864,181.767"/>
<polyline fill="none" stroke="#ff0000" stroke-width="2" stroke-linecap="butt" stroke-linejoin="miter" points="336.792,180.497 336.219,182.261 334.719,183.35 332.865,183.35 331.365,182.261 330.792,180.497 331.365,178.734 332.865,177.644 334.719,177.644 336.219,178.734 336.792,180.497"/>
<polyline fill="none" stroke="#ff0000" stroke-width="2" stroke-linecap="butt" stroke-linejoin="miter" points="345.72,179.1 345.147,180.863 343.647,181.953 341.793,181.953 340.293,180.863 339.72,179.1 340.293,177.336 341.793,176.247 343.647,176.247 345.147,177.336 345.72,179.1"/>
<polyline fill="none" stroke="#ff0000" stroke-width="2" stroke-linecap="butt" stroke-linejoin="miter" points="354.648,177.556 354.075,179.319 352.575,180.409 350.721,180.409 349.221,179.319 348.648,177.556 349.221,175.792 350.721,174.703 352.575,174.703 354.075,175.792 354.648,177.556"/>
<polyline fill="none" stroke="#ff0000" stroke-width="2" stroke-linecap="butt" stroke-linejoin="miter" points="363.576,175.84 363.003,177.604 361.503,178.693 359.649,178.693 358.149,177.604 357.576,175.84 358.149,174.077 359.649,172.987 361.503,172.987 363.003,174.077 363.576,175.84"/>
<polyline fill="none" stroke="#ff0000" stroke-width="2" stroke-linecap="butt" stroke-linejoin="miter" points="372.504,173.923 371.931,175.686 370.431,176.776 368.577,176.776 367.077,175.686 366.504,173.923 367.077,172.159 368.577,171.069 370.431,171.069 371.931,172.159 372.504,173.923"/>
<polyline fill="none" stroke="#ff0000" stroke-width="2" stroke-linecap="butt" stroke-linejoin="miter" points="381.432,171.768 380.859,173.531 379.359,174.621 377.505,174.621 376.005,173.531 375.432,171.768 376.005,170.004 377.505,168.914 379.359,168.914 380.859,170.004 381.432,171.768"/>
<polyline fill="none" stroke="#ff0000" stroke-width="2" stroke-linecap="butt" stroke-linejoin="miter" points="390.36,169.33 389.787,171.093 388.287,172.183 386.433,172.183 384.933,171.093 384.36,169.33 384.933,167.566 386.433,166.477 388.287,166.477 389.787,167.566 390.36,169.33"/>
<polyline fill="none" stroke="#ff0000" stroke-width="2" stroke-linecap="butt" stroke-linejoin="miter" points="399.288,166.556 398.715,168.32 397.215,169.41 395.361,169.41 393.861,168.32 393.288,166.556 393.861,164.793 395.361,163.703 397.215,163.703 398.715,164.793 399.288,166.556"/>
<polyline fill="none" stroke="#ff0000" stroke-width="2" stroke-linecap="butt" stroke-linejoin="miter" points="408.216,163.384 407.643,165.148 406.143,166.238 404.289,166.238 402.789,165.148 402.216,163.384 402.789,161.621 404.289,160.531 406.143,160.531 407.643,161.621 408.216,163.384"/>
<polyline fill="none" stroke="#ff0000" stroke-width="2" stroke-linecap="butt" stroke-linejoin="miter" points="417.144,159.74 416.571,161.503 415.071,162.593 413.217,162.593 411.717,161.503 411.144,159.74 411.717,157.977 413.217,156.887 415.071,156.887 416.571,157.977 417.144,159.74"/>
<polyline fill="none" stroke="#ff0000" stroke-width="2" stroke-linecap="butt" stroke-linejoin="miter" points="426.072,155.538 425.499,157.301 423.999,158.391 422.145,158.391 420.645,157.301 420.072,155.538 420.645,153.774 422.145,152.685 423.999,152.685 425.499,153.774 426.072,155.538"/>
<polyline fill="none" stroke="#ff0000" stroke-width="2" stroke-linecap="butt" stroke-linejoin="miter" points="435,150.677 434.427,152.44 432.927,153.53 431.073,153.53 429.573,152.44 429,150.677 429.573,148.914 431.073,147.824 432.927,147.824 434.427,148.914 435,150.677"/>
<polyline fill="none" stroke="#ff0000" stroke-width="2" stroke-linecap="butt" stroke-linejoin="miter" points="443.928,145.045 443.355,146.808 441.855,147.898 440.001,147.898 438.501,146.808 437.928,145.045 438.501,143.281 440.001,142.191 441.855,142.191 443.355,143.281 443.928,145.045"/>
<polyline fill="none" stroke="#ff0000" stroke-width="2" stroke-linecap="butt" stroke-linejoin="miter" points="452.856,138.512 452.283,140.275 450.783,141.365 448.929,141.365 447.429,140.275 446.856,138.512 447.429,136.749 448.929,135.659 450.783,135.659 452.283,136.749 452.856,138.512"/>
<polyline fill="none" stroke="#ff0000" stroke-width="2" stroke-linecap="butt" stroke-linejoin="miter" points="461.784,130.934 461.211,132.697 459.711,133.787 457.857,133.787 456.357,132.697 455.784,130.934 456.357,129.17 457.857,128.081 459.711,128.081 461.211,129.17 461.784,130.934"/>
<polyline fill="none" stroke="#ff0000" stroke-width="2" stroke-linecap="butt" stroke-linejoin="miter" points="470.712,122.146 470.139,123.91 468.639,124.999 466.785,124.999 465.285,123.91 464.712,122.146 465.285,120.383 466.785,119.293 468.639,119.293 470.139,120.383 470.712,122.146"/>
<polyline fill="none" stroke="#ff0000" stroke-width="2" stroke-linecap="butt" stroke-linejoin="miter" points="479.64,111.968 479.067,113.731 477.567,114.821 475.713,114.821 474.213,113.731 473.64,111.968 474.213,110.204 475.713,109.114 477.567,109.114 479.067,110.204 479.64,111.968"/>
<polyline fill="none" stroke="#ff0000" stroke-width="2" stroke-linecap="butt" stroke-linejoin="miter" points="488.568,100.196 487.995,101.96 486.495,103.05 484.641,103.05 483.141,101.96 482.568,100.196 483.141,98.4331 484.641,97.3433 486.495,97.3433 487.995,98.4331 488.568,100.196"/>
<polyline fill="none" stroke="#ff0000" stroke-width="2" stroke-linecap="butt" stroke-linejoin="miter" points="497.496,86.6104 496.923,88.374 495.423,89.4634 493.569,89.4634 492.069,88.374 491.496,86.6104 492.069,84.8472 493.569,83.7573 495.423,83.7573 496.923,84.8472 497.496,86.6104"/>
<polyline fill="none" stroke="#ff0000" stroke-width="2" stroke-linecap="butt" stroke-linejoin="miter" points="506.424,70.9648 505.851,72.728 504.351,73.8179 502.497,73.8179 500.997,72.728 500.424,70.9648 500.997,69.2017 502.497,68.1118 504.351,68.1118 505.851,69.2017 506.424,70.9648"/>
<polyline fill="none" stroke="#ff0000" stroke-width="2" stroke-linecap="butt" stroke-linejoin="miter" points="515.352,52.9917 514.779,54.7554 513.279,55.8452 511.425,55.8452 509.925,54.7554 509.352,52.9917 509.925,51.2285 511.425,50.1387 513.279,50.1387 514.779,51.2285 515.352,52.9917"/>
<polyline fill="none" stroke="#ff0000" stroke-width="2" stroke-linecap="butt" stroke-linejoin="miter" points="524.28,32.3999 523.707,34.1636 522.207,35.2529 520.353,35.2529 518.853,34.1636 518.28,32.3999 518.853,30.6367 520.353,29.5469 522.207,29.5469 523.707,30.6367 524.28,32.3999"/>
<text fill="#000000" x="298.08" y="22.3999" font-size="11" text-anchor="middle" dy="0" font-family="Helvetica" font-weight="bold">Funkcja bez odwrotności operatora w postaci algebraicznej</text>
</g>
<clipPath id="cp00576432">
  <polygon points="0,432 576,432 576,0 0,0"/>
</clipPath>
<g clip-path="url(#cp00576432)">
<polygon fill="#ffffff" shape-rendering="crispEdges" points="385.831,55.375 518.535,55.375 518.535,35.1445"/>
<polygon fill="#ffffff" shape-rendering="crispEdges" points="385.831,55.375 518.535,35.1445 385.831,35.1445"/>
<polyline fill="none" stroke="#262626" stroke-width="0.5" stroke-linecap="butt" stroke-linejoin="miter" stroke-dasharray="16,0" points="385.831,55.375 518.535,55.375"/>
<polyline fill="none" stroke="#262626" stroke-width="0.5" stroke-linecap="butt" stroke-linejoin="miter" stroke-dasharray="16,0" points="385.831,35.1445 518.535,35.1445"/>
<polyline fill="none" stroke="#262626" stroke-width="0.5" stroke-linecap="butt" stroke-linejoin="miter" stroke-dasharray="16,0" points="385.831,55.375 385.831,35.1445"/>
<polyline fill="none" stroke="#262626" stroke-width="0.5" stroke-linecap="butt" stroke-linejoin="miter" stroke-dasharray="16,0" points="518.535,55.375 518.535,35.1445"/>
<text fill="#000000" x="411.905" y="51.7598" font-size="10" text-anchor="start" dy="0" font-family="Helvetica">x</text>
<text fill="#000000" x="417.905" y="45.7598" font-size="8" text-anchor="start" dy="0" font-family="Helvetica">5</text>
<text fill="#000000" x="422.905" y="51.7598" font-size="10" text-anchor="start" dy="0" font-family="Helvetica">+x</text>
<text fill="#000000" x="436.905" y="45.7598" font-size="8" text-anchor="start" dy="0" font-family="Helvetica">4</text>
<text fill="#000000" x="441.905" y="51.7598" font-size="10" text-anchor="start" dy="0" font-family="Helvetica">+x</text>
<text fill="#000000" x="455.905" y="45.7598" font-size="8" text-anchor="start" dy="0" font-family="Helvetica">3</text>
<text fill="#000000" x="460.905" y="51.7598" font-size="10" text-anchor="start" dy="0" font-family="Helvetica">+x</text>
<text fill="#000000" x="474.905" y="45.7598" font-size="8" text-anchor="start" dy="0" font-family="Helvetica">2</text>
<text fill="#000000" x="479.905" y="51.7598" font-size="10" text-anchor="start" dy="0" font-family="Helvetica">+x</text>
<text fill="#000000" x="493.905" y="45.7598" font-size="8" text-anchor="start" dy="0" font-family="Helvetica">1</text>
<text fill="#000000" x="498.905" y="51.7598" font-size="10" text-anchor="start" dy="0" font-family="Helvetica">+1</text>
<polyline fill="none" stroke="#ff0000" stroke-width="2" stroke-linecap="butt" stroke-linejoin="miter" points="388.575,45.2598 409.16,45.2598"/>
<polyline fill="none" stroke="#ff0000" stroke-width="2" stroke-linecap="butt" stroke-linejoin="miter" points="401.868,45.2598 401.295,47.0229 399.795,48.1128 397.941,48.1128 396.441,47.0229 395.868,45.2598 396.441,43.4966 397.941,42.4067 399.795,42.4067 401.295,43.4966 401.868,45.2598"/>
</g>
</g>
</svg>
