<?xml version="1.0" encoding="UTF-8" standalone="no"?>
<svg xmlns="http://www.w3.org/2000/svg"
     xmlns:xlink="http://www.w3.org/1999/xlink"
     width="576px" height="432px" viewBox="0 0 576 432">
<title>gl2ps_renderer figure</title>
<desc>
Creator: GL2PS 1.4.0, (C) 1999-2017 C. Geuzaine
For: Octave
CreationDate: Mon Nov  4 00:52:10 2019
</desc>
<defs>
</defs>
<polygon fill="#ffffff" points="0,0 576,0 576,432 0,432"/>
<g>
<polygon fill="#ffffff" points="0,432 576,432 576,0 0,0" shape-rendering="crispEdges"/>
<clipPath id="cp00576432">
  <polygon points="0,432 576,432 576,0 0,0"/>
</clipPath>
<g clip-path="url(#cp00576432)">
<polygon fill="#ffffff" shape-rendering="crispEdges" points="74.8799,384.48 521.28,384.48 521.28,32.3999"/>
<polygon fill="#ffffff" shape-rendering="crispEdges" points="74.8799,384.48 521.28,32.3999 74.8799,32.3999"/>
<polyline fill="none" stroke="#262626" stroke-width="0.5" stroke-linecap="butt" stroke-linejoin="miter" stroke-opacity="0.15" stroke-dasharray="16,0" points="74.8799,384.48 74.8799,32.3999"/>
<polyline fill="none" stroke="#262626" stroke-width="0.5" stroke-linecap="butt" stroke-linejoin="miter" stroke-opacity="0.15" stroke-dasharray="16,0" points="134.4,384.48 134.4,32.3999"/>
<polyline fill="none" stroke="#262626" stroke-width="0.5" stroke-linecap="butt" stroke-linejoin="miter" stroke-opacity="0.15" stroke-dasharray="16,0" points="193.92,384.48 193.92,32.3999"/>
<polyline fill="none" stroke="#262626" stroke-width="0.5" stroke-linecap="butt" stroke-linejoin="miter" stroke-opacity="0.15" stroke-dasharray="16,0" points="253.44,384.48 253.44,32.3999"/>
<polyline fill="none" stroke="#262626" stroke-width="0.5" stroke-linecap="butt" stroke-linejoin="miter" stroke-opacity="0.15" stroke-dasharray="16,0" points="312.96,384.48 312.96,32.3999"/>
<polyline fill="none" stroke="#262626" stroke-width="0.5" stroke-linecap="butt" stroke-linejoin="miter" stroke-opacity="0.15" stroke-dasharray="16,0" points="372.48,384.48 372.48,32.3999"/>
<polyline fill="none" stroke="#262626" stroke-width="0.5" stroke-linecap="butt" stroke-linejoin="miter" stroke-opacity="0.15" stroke-dasharray="16,0" points="432,384.48 432,32.3999"/>
<polyline fill="none" stroke="#262626" stroke-width="0.5" stroke-linecap="butt" stroke-linejoin="miter" stroke-opacity="0.15" stroke-dasharray="16,0" points="491.52,384.48 491.52,32.3999"/>
<polyline fill="none" stroke="#262626" stroke-width="0.5" stroke-linecap="butt" stroke-linejoin="miter" points="74.8799,384.48 74.8799,380.015"/>
<polyline fill="none" stroke="#262626" stroke-width="0.5" stroke-linecap="butt" stroke-linejoin="miter" points="134.4,384.48 134.4,380.015"/>
<polyline fill="none" stroke="#262626" stroke-width="0.5" stroke-linecap="butt" stroke-linejoin="miter" points="193.92,384.48 193.92,380.015"/>
<polyline fill="none" stroke="#262626" stroke-width="0.5" stroke-linecap="butt" stroke-linejoin="miter" points="253.44,384.48 253.44,380.015"/>
<polyline fill="none" stroke="#262626" stroke-width="0.5" stroke-linecap="butt" stroke-linejoin="miter" points="312.96,384.48 312.96,380.015"/>
<polyline fill="none" stroke="#262626" stroke-width="0.5" stroke-linecap="butt" stroke-linejoin="miter" points="372.48,384.48 372.48,380.015"/>
<polyline fill="none" stroke="#262626" stroke-width="0.5" stroke-linecap="butt" stroke-linejoin="miter" points="432,384.48 432,380.015"/>
<polyline fill="none" stroke="#262626" stroke-width="0.5" stroke-linecap="butt" stroke-linejoin="miter" points="491.52,384.48 491.52,380.015"/>
<text fill="#262626" x="74.8799" y="389.481" font-size="10" text-anchor="middle" dy="10" font-family="Helvetica">-1</text>
<text fill="#262626" x="134.4" y="389.481" font-size="10" text-anchor="middle" dy="10" font-family="Helvetica">-0.8</text>
<text fill="#262626" x="193.92" y="389.481" font-size="10" text-anchor="middle" dy="10" font-family="Helvetica">-0.6</text>
<text fill="#262626" x="253.44" y="389.481" font-size="10" text-anchor="middle" dy="10" font-family="Helvetica">-0.4</text>
<text fill="#262626" x="312.96" y="389.481" font-size="10" text-anchor="middle" dy="10" font-family="Helvetica">-0.2</text>
<text fill="#262626" x="372.48" y="389.481" font-size="10" text-anchor="middle" dy="10" font-family="Helvetica">0</text>
<text fill="#262626" x="432" y="389.481" font-size="10" text-anchor="middle" dy="10" font-family="Helvetica">0.2</text>
<text fill="#262626" x="491.52" y="389.481" font-size="10" text-anchor="middle" dy="10" font-family="Helvetica">0.4</text>
<polyline fill="none" stroke="#262626" stroke-width="0.5" stroke-linecap="butt" stroke-linejoin="miter" stroke-opacity="0.15" stroke-dasharray="16,0" points="74.8799,384.48 521.28,384.48"/>
<polyline fill="none" stroke="#262626" stroke-width="0.5" stroke-linecap="butt" stroke-linejoin="miter" stroke-opacity="0.15" stroke-dasharray="16,0" points="74.8799,325.8 521.28,325.8"/>
<polyline fill="none" stroke="#262626" stroke-width="0.5" stroke-linecap="butt" stroke-linejoin="miter" stroke-opacity="0.15" stroke-dasharray="16,0" points="74.8799,267.12 521.28,267.12"/>
<polyline fill="none" stroke="#262626" stroke-width="0.5" stroke-linecap="butt" stroke-linejoin="miter" stroke-opacity="0.15" stroke-dasharray="16,0" points="74.8799,208.44 521.28,208.44"/>
<polyline fill="none" stroke="#262626" stroke-width="0.5" stroke-linecap="butt" stroke-linejoin="miter" stroke-opacity="0.15" stroke-dasharray="16,0" points="74.8799,149.76 521.28,149.76"/>
<polyline fill="none" stroke="#262626" stroke-width="0.5" stroke-linecap="butt" stroke-linejoin="miter" stroke-opacity="0.15" stroke-dasharray="16,0" points="74.8799,91.0801 521.28,91.0801"/>
<polyline fill="none" stroke="#262626" stroke-width="0.5" stroke-linecap="butt" stroke-linejoin="miter" stroke-opacity="0.15" stroke-dasharray="16,0" points="74.8799,32.3999 521.28,32.3999"/>
<polyline fill="none" stroke="#262626" stroke-width="0.5" stroke-linecap="butt" stroke-linejoin="miter" points="74.8799,384.48 79.3481,384.48"/>
<polyline fill="none" stroke="#262626" stroke-width="0.5" stroke-linecap="butt" stroke-linejoin="miter" points="74.8799,325.8 79.3481,325.8"/>
<polyline fill="none" stroke="#262626" stroke-width="0.5" stroke-linecap="butt" stroke-linejoin="miter" points="74.8799,267.12 79.3481,267.12"/>
<polyline fill="none" stroke="#262626" stroke-width="0.5" stroke-linecap="butt" stroke-linejoin="miter" points="74.8799,208.44 79.3481,208.44"/>
<polyline fill="none" stroke="#262626" stroke-width="0.5" stroke-linecap="butt" stroke-linejoin="miter" points="74.8799,149.76 79.3481,149.76"/>
<polyline fill="none" stroke="#262626" stroke-width="0.5" stroke-linecap="butt" stroke-linejoin="miter" points="74.8799,91.0801 79.3481,91.0801"/>
<polyline fill="none" stroke="#262626" stroke-width="0.5" stroke-linecap="butt" stroke-linejoin="miter" points="74.8799,32.3999 79.3481,32.3999"/>
<text fill="#262626" x="69.8755" y="384.48" font-size="10" text-anchor="end" dy="5" font-family="Helvetica">-1</text>
<text fill="#262626" x="69.8755" y="325.8" font-size="10" text-anchor="end" dy="5" font-family="Helvetica">0</text>
<text fill="#262626" x="69.8755" y="267.12" font-size="10" text-anchor="end" dy="5" font-family="Helvetica">1</text>
<text fill="#262626" x="69.8755" y="208.44" font-size="10" text-anchor="end" dy="5" font-family="Helvetica">2</text>
<text fill="#262626" x="69.8755" y="149.76" font-size="10" text-anchor="end" dy="5" font-family="Helvetica">3</text>
<text fill="#262626" x="69.8755" y="91.0801" font-size="10" text-anchor="end" dy="5" font-family="Helvetica">4</text>
<text fill="#262626" x="69.8755" y="32.3999" font-size="10" text-anchor="end" dy="5" font-family="Helvetica">5</text>
<polyline fill="none" stroke="#262626" stroke-width="0.5" stroke-linecap="butt" stroke-linejoin="miter" stroke-dasharray="16,0" points="74.8799,384.48 521.28,384.48"/>
<polyline fill="none" stroke="#262626" stroke-width="0.5" stroke-linecap="butt" stroke-linejoin="miter" stroke-dasharray="16,0" points="74.8799,384.48 74.8799,32.3999"/>
<text fill="#262626" x="298.08" y="402.481" font-size="11" text-anchor="middle" dy="11" font-family="Helvetica">x</text>
<text fill="#262626" x="55.8755" y="208.44" font-size="11" transform="rotate(-90, 55.8755, 208.44)" text-anchor="middle" dy="0" font-family="Helvetica">y</text>
<polyline fill="none" stroke="#0000ff" stroke-width="2" stroke-linecap="butt" stroke-linejoin="miter" points="74.8799,61.7397 104.64,120.42 134.4,173.232 164.16,220.176 193.92,261.252 223.68,296.46 253.44,325.8 283.2,349.272 312.96,366.876 342.72,378.612 372.48,384.48 402.24,384.48 432,378.612 461.76,366.876 491.52,349.272 521.28,325.8"/>
<polyline fill="none" stroke="#0000ff" stroke-width="2" stroke-linecap="butt" stroke-linejoin="miter" points="77.8799,61.7402 77.3071,63.5034 75.8071,64.5933 73.9531,64.5933 72.4531,63.5034 71.8799,61.7402 72.4531,59.9766 73.9531,58.8867 75.8071,58.8867 77.3071,59.9766 77.8799,61.7402"/>
<polyline fill="none" stroke="#0000ff" stroke-width="2" stroke-linecap="butt" stroke-linejoin="miter" points="107.64,120.42 107.067,122.184 105.567,123.273 103.713,123.273 102.213,122.184 101.64,120.42 102.213,118.657 103.713,117.567 105.567,117.567 107.067,118.657 107.64,120.42"/>
<polyline fill="none" stroke="#0000ff" stroke-width="2" stroke-linecap="butt" stroke-linejoin="miter" points="137.4,173.232 136.827,174.995 135.327,176.085 133.473,176.085 131.973,174.995 131.4,173.232 131.973,171.469 133.473,170.379 135.327,170.379 136.827,171.469 137.4,173.232"/>
<polyline fill="none" stroke="#0000ff" stroke-width="2" stroke-linecap="butt" stroke-linejoin="miter" points="167.16,220.176 166.587,221.939 165.087,223.029 163.233,223.029 161.733,221.939 161.16,220.176 161.733,218.413 163.233,217.323 165.087,217.323 166.587,218.413 167.16,220.176"/>
<polyline fill="none" stroke="#0000ff" stroke-width="2" stroke-linecap="butt" stroke-linejoin="miter" points="196.92,261.252 196.347,263.015 194.847,264.105 192.993,264.105 191.493,263.015 190.92,261.252 191.493,259.489 192.993,258.399 194.847,258.399 196.347,259.489 196.92,261.252"/>
<polyline fill="none" stroke="#0000ff" stroke-width="2" stroke-linecap="butt" stroke-linejoin="miter" points="226.68,296.46 226.107,298.223 224.607,299.313 222.753,299.313 221.253,298.223 220.68,296.46 221.253,294.697 222.753,293.607 224.607,293.607 226.107,294.697 226.68,296.46"/>
<polyline fill="none" stroke="#0000ff" stroke-width="2" stroke-linecap="butt" stroke-linejoin="miter" points="256.44,325.8 255.867,327.563 254.367,328.653 252.513,328.653 251.013,327.563 250.44,325.8 251.013,324.037 252.513,322.947 254.367,322.947 255.867,324.037 256.44,325.8"/>
<polyline fill="none" stroke="#0000ff" stroke-width="2" stroke-linecap="butt" stroke-linejoin="miter" points="286.2,349.272 285.627,351.035 284.127,352.125 282.273,352.125 280.773,351.035 280.2,349.272 280.773,347.509 282.273,346.419 284.127,346.419 285.627,347.509 286.2,349.272"/>
<polyline fill="none" stroke="#0000ff" stroke-width="2" stroke-linecap="butt" stroke-linejoin="miter" points="315.96,366.876 315.387,368.639 313.887,369.729 312.033,369.729 310.533,368.639 309.96,366.876 310.533,365.113 312.033,364.023 313.887,364.023 315.387,365.113 315.96,366.876"/>
<polyline fill="none" stroke="#0000ff" stroke-width="2" stroke-linecap="butt" stroke-linejoin="miter" points="345.72,378.612 345.147,380.375 343.647,381.465 341.793,381.465 340.293,380.375 339.72,378.612 340.293,376.849 341.793,375.759 343.647,375.759 345.147,376.849 345.72,378.612"/>
<polyline fill="none" stroke="#0000ff" stroke-width="2" stroke-linecap="butt" stroke-linejoin="miter" points="375.48,384.48 374.907,386.243 373.407,387.333 371.553,387.333 370.053,386.243 369.48,384.48 370.053,382.717 371.553,381.627 373.407,381.627 374.907,382.717 375.48,384.48"/>
<polyline fill="none" stroke="#0000ff" stroke-width="2" stroke-linecap="butt" stroke-linejoin="miter" points="405.24,384.48 404.667,386.243 403.167,387.333 401.313,387.333 399.813,386.243 399.24,384.48 399.813,382.717 401.313,381.627 403.167,381.627 404.667,382.717 405.24,384.48"/>
<polyline fill="none" stroke="#0000ff" stroke-width="2" stroke-linecap="butt" stroke-linejoin="miter" points="435,378.612 434.427,380.375 432.927,381.465 431.073,381.465 429.573,380.375 429,378.612 429.573,376.849 431.073,375.759 432.927,375.759 434.427,376.849 435,378.612"/>
<polyline fill="none" stroke="#0000ff" stroke-width="2" stroke-linecap="butt" stroke-linejoin="miter" points="464.76,366.876 464.187,368.639 462.687,369.729 460.833,369.729 459.333,368.639 458.76,366.876 459.333,365.113 460.833,364.023 462.687,364.023 464.187,365.113 464.76,366.876"/>
<polyline fill="none" stroke="#0000ff" stroke-width="2" stroke-linecap="butt" stroke-linejoin="miter" points="494.52,349.272 493.947,351.035 492.447,352.125 490.593,352.125 489.093,351.035 488.52,349.272 489.093,347.509 490.593,346.419 492.447,346.419 493.947,347.509 494.52,349.272"/>
<polyline fill="none" stroke="#0000ff" stroke-width="2" stroke-linecap="butt" stroke-linejoin="miter" points="524.28,325.8 523.707,327.563 522.207,328.653 520.353,328.653 518.853,327.563 518.28,325.8 518.853,324.037 520.353,322.947 522.207,322.947 523.707,324.037 524.28,325.8"/>
<polyline fill="none" stroke="#000000" stroke-width="2" stroke-linecap="butt" stroke-linejoin="miter" points="74.8799,325.8 104.64,325.8 134.4,325.8 164.16,325.8 193.92,325.8 223.68,325.8 253.44,325.8 283.2,325.8 312.96,325.8 342.72,325.8 372.48,325.8 402.24,325.8 432,325.8 461.76,325.8 491.52,325.8 521.28,325.8"/>
<polyline fill="none" stroke="#ff0000" stroke-width="3" stroke-linecap="butt" stroke-linejoin="miter" points="74.8799,61.7397 104.64,94.0142 134.4,126.288 164.16,158.562 193.92,190.836 223.68,223.11 253.44,255.384 283.2,287.658 312.96,319.932 342.72,352.206 372.48,384.48 372.805,384.832"/>
<polyline fill="none" stroke="#ff0000" stroke-width="3" stroke-linecap="butt" stroke-linejoin="miter" points="74.8799,301.794 104.64,310.063 134.4,318.332 164.16,326.6 193.92,334.869 223.68,343.137 253.44,351.406 283.2,359.674 312.96,367.943 342.72,376.211 372.48,384.48 373.747,384.832"/>
<polyline fill="none" stroke="#ff0000" stroke-width="3" stroke-linecap="butt" stroke-linejoin="miter" points="74.8799,131.433 104.64,160.524 134.4,189.614 164.16,218.705 193.92,247.795 223.68,276.886 253.44,305.976 283.2,335.066 312.96,364.157 334.111,384.832"/>
<polyline fill="none" stroke="#ff0000" stroke-width="3" stroke-linecap="butt" stroke-linejoin="miter" points="74.8799,118.653 104.64,152.146 134.4,185.638 164.16,219.131 193.92,252.623 223.68,286.116 253.44,319.608 283.2,353.101 311.395,384.832"/>
<text fill="#000000" x="298.08" y="22.3999" font-size="11" text-anchor="middle" dy="0" font-family="Helvetica" font-weight="bold">Algorytm siecznych</text>
</g>
<clipPath id="cp00576432">
  <polygon points="0,432 576,432 576,0 0,0"/>
</clipPath>
<g clip-path="url(#cp00576432)">
<polygon fill="#ffffff" shape-rendering="crispEdges" points="426.974,75.6055 518.535,75.6055 518.535,35.1445"/>
<polygon fill="#ffffff" shape-rendering="crispEdges" points="426.974,75.6055 518.535,35.1445 426.974,35.1445"/>
<polyline fill="none" stroke="#262626" stroke-width="0.5" stroke-linecap="butt" stroke-linejoin="miter" stroke-dasharray="16,0" points="426.974,75.6055 518.535,75.6055"/>
<polyline fill="none" stroke="#262626" stroke-width="0.5" stroke-linecap="butt" stroke-linejoin="miter" stroke-dasharray="16,0" points="426.974,35.1445 518.535,35.1445"/>
<polyline fill="none" stroke="#262626" stroke-width="0.5" stroke-linecap="butt" stroke-linejoin="miter" stroke-dasharray="16,0" points="426.974,75.6055 426.974,35.1445"/>
<polyline fill="none" stroke="#262626" stroke-width="0.5" stroke-linecap="butt" stroke-linejoin="miter" stroke-dasharray="16,0" points="518.535,75.6055 518.535,35.1445"/>
<text fill="#000000" x="453.048" y="51.7598" font-size="10" text-anchor="start" dy="0" font-family="Helvetica">5x</text>
<text fill="#000000" x="465.048" y="45.7598" font-size="8" text-anchor="start" dy="0" font-family="Helvetica">2</text>
<text fill="#000000" x="470.048" y="51.7598" font-size="10" text-anchor="start" dy="0" font-family="Helvetica">-0.5 x - 1</text>
<text fill="#000000" x="453.048" y="65.4902" font-size="10" text-anchor="start" dy="5" font-family="Helvetica">0</text>
<polyline fill="none" stroke="#0000ff" stroke-width="2" stroke-linecap="butt" stroke-linejoin="miter" points="429.718,45.2598 450.303,45.2598"/>
<polyline fill="none" stroke="#0000ff" stroke-width="2" stroke-linecap="butt" stroke-linejoin="miter" points="443.011,45.2598 442.438,47.0229 440.938,48.1128 439.083,48.1128 437.583,47.0229 437.011,45.2598 437.583,43.4966 439.083,42.4067 440.938,42.4067 442.438,43.4966 443.011,45.2598"/>
<polyline fill="none" stroke="#000000" stroke-width="2" stroke-linecap="butt" stroke-linejoin="miter" points="429.718,65.4902 450.303,65.4902"/>
</g>
</g>
</svg>
