<?xml version="1.0" encoding="UTF-8" standalone="no"?>
<svg xmlns="http://www.w3.org/2000/svg"
     xmlns:xlink="http://www.w3.org/1999/xlink"
     width="576px" height="432px" viewBox="0 0 576 432">
<title>gl2ps_renderer figure</title>
<desc>
Creator: GL2PS 1.4.0, (C) 1999-2017 C. Geuzaine
For: Octave
CreationDate: Sun Nov  3 18:47:46 2019
</desc>
<defs>
</defs>
<polygon fill="#ffffff" points="0,0 576,0 576,432 0,432"/>
<g>
<polygon fill="#ffffff" points="0,432 576,432 576,0 0,0" shape-rendering="crispEdges"/>
<clipPath id="cp00576432">
  <polygon points="0,432 576,432 576,0 0,0"/>
</clipPath>
<g clip-path="url(#cp00576432)">
<polygon fill="#ffffff" shape-rendering="crispEdges" points="74.8799,384.48 521.28,384.48 521.28,32.3999"/>
<polygon fill="#ffffff" shape-rendering="crispEdges" points="74.8799,384.48 521.28,32.3999 74.8799,32.3999"/>
<polyline fill="none" stroke="#262626" stroke-width="0.5" stroke-linecap="butt" stroke-linejoin="miter" stroke-opacity="0.15" stroke-dasharray="16,0" points="74.8799,384.48 74.8799,32.3999"/>
<polyline fill="none" stroke="#262626" stroke-width="0.5" stroke-linecap="butt" stroke-linejoin="miter" stroke-opacity="0.15" stroke-dasharray="16,0" points="186.48,384.48 186.48,32.3999"/>
<polyline fill="none" stroke="#262626" stroke-width="0.5" stroke-linecap="butt" stroke-linejoin="miter" stroke-opacity="0.15" stroke-dasharray="16,0" points="298.08,384.48 298.08,32.3999"/>
<polyline fill="none" stroke="#262626" stroke-width="0.5" stroke-linecap="butt" stroke-linejoin="miter" stroke-opacity="0.15" stroke-dasharray="16,0" points="409.68,384.48 409.68,32.3999"/>
<polyline fill="none" stroke="#262626" stroke-width="0.5" stroke-linecap="butt" stroke-linejoin="miter" stroke-opacity="0.15" stroke-dasharray="16,0" points="521.28,384.48 521.28,32.3999"/>
<polyline fill="none" stroke="#262626" stroke-width="0.5" stroke-linecap="butt" stroke-linejoin="miter" points="74.8799,384.48 74.8799,380.015"/>
<polyline fill="none" stroke="#262626" stroke-width="0.5" stroke-linecap="butt" stroke-linejoin="miter" points="186.48,384.48 186.48,380.015"/>
<polyline fill="none" stroke="#262626" stroke-width="0.5" stroke-linecap="butt" stroke-linejoin="miter" points="298.08,384.48 298.08,380.015"/>
<polyline fill="none" stroke="#262626" stroke-width="0.5" stroke-linecap="butt" stroke-linejoin="miter" points="409.68,384.48 409.68,380.015"/>
<polyline fill="none" stroke="#262626" stroke-width="0.5" stroke-linecap="butt" stroke-linejoin="miter" points="521.28,384.48 521.28,380.015"/>
<text fill="#262626" x="74.8799" y="389.481" font-size="10" text-anchor="middle" dy="10" font-family="Helvetica">-2</text>
<text fill="#262626" x="186.48" y="389.481" font-size="10" text-anchor="middle" dy="10" font-family="Helvetica">-1</text>
<text fill="#262626" x="298.08" y="389.481" font-size="10" text-anchor="middle" dy="10" font-family="Helvetica">0</text>
<text fill="#262626" x="409.68" y="389.481" font-size="10" text-anchor="middle" dy="10" font-family="Helvetica">1</text>
<text fill="#262626" x="521.28" y="389.481" font-size="10" text-anchor="middle" dy="10" font-family="Helvetica">2</text>
<polyline fill="none" stroke="#262626" stroke-width="0.5" stroke-linecap="butt" stroke-linejoin="miter" stroke-opacity="0.15" stroke-dasharray="16,0" points="74.8799,384.48 521.28,384.48"/>
<polyline fill="none" stroke="#262626" stroke-width="0.5" stroke-linecap="butt" stroke-linejoin="miter" stroke-opacity="0.15" stroke-dasharray="16,0" points="74.8799,325.8 521.28,325.8"/>
<polyline fill="none" stroke="#262626" stroke-width="0.5" stroke-linecap="butt" stroke-linejoin="miter" stroke-opacity="0.15" stroke-dasharray="16,0" points="74.8799,267.12 521.28,267.12"/>
<polyline fill="none" stroke="#262626" stroke-width="0.5" stroke-linecap="butt" stroke-linejoin="miter" stroke-opacity="0.15" stroke-dasharray="16,0" points="74.8799,208.44 521.28,208.44"/>
<polyline fill="none" stroke="#262626" stroke-width="0.5" stroke-linecap="butt" stroke-linejoin="miter" stroke-opacity="0.15" stroke-dasharray="16,0" points="74.8799,149.76 521.28,149.76"/>
<polyline fill="none" stroke="#262626" stroke-width="0.5" stroke-linecap="butt" stroke-linejoin="miter" stroke-opacity="0.15" stroke-dasharray="16,0" points="74.8799,91.0801 521.28,91.0801"/>
<polyline fill="none" stroke="#262626" stroke-width="0.5" stroke-linecap="butt" stroke-linejoin="miter" stroke-opacity="0.15" stroke-dasharray="16,0" points="74.8799,32.3999 521.28,32.3999"/>
<polyline fill="none" stroke="#262626" stroke-width="0.5" stroke-linecap="butt" stroke-linejoin="miter" points="74.8799,384.48 79.3481,384.48"/>
<polyline fill="none" stroke="#262626" stroke-width="0.5" stroke-linecap="butt" stroke-linejoin="miter" points="74.8799,325.8 79.3481,325.8"/>
<polyline fill="none" stroke="#262626" stroke-width="0.5" stroke-linecap="butt" stroke-linejoin="miter" points="74.8799,267.12 79.3481,267.12"/>
<polyline fill="none" stroke="#262626" stroke-width="0.5" stroke-linecap="butt" stroke-linejoin="miter" points="74.8799,208.44 79.3481,208.44"/>
<polyline fill="none" stroke="#262626" stroke-width="0.5" stroke-linecap="butt" stroke-linejoin="miter" points="74.8799,149.76 79.3481,149.76"/>
<polyline fill="none" stroke="#262626" stroke-width="0.5" stroke-linecap="butt" stroke-linejoin="miter" points="74.8799,91.0801 79.3481,91.0801"/>
<polyline fill="none" stroke="#262626" stroke-width="0.5" stroke-linecap="butt" stroke-linejoin="miter" points="74.8799,32.3999 79.3481,32.3999"/>
<text fill="#262626" x="69.8755" y="384.48" font-size="10" text-anchor="end" dy="5" font-family="Helvetica">-2</text>
<text fill="#262626" x="69.8755" y="325.8" font-size="10" text-anchor="end" dy="5" font-family="Helvetica">-1</text>
<text fill="#262626" x="69.8755" y="267.12" font-size="10" text-anchor="end" dy="5" font-family="Helvetica">0</text>
<text fill="#262626" x="69.8755" y="208.44" font-size="10" text-anchor="end" dy="5" font-family="Helvetica">1</text>
<text fill="#262626" x="69.8755" y="149.76" font-size="10" text-anchor="end" dy="5" font-family="Helvetica">2</text>
<text fill="#262626" x="69.8755" y="91.0801" font-size="10" text-anchor="end" dy="5" font-family="Helvetica">3</text>
<text fill="#262626" x="69.8755" y="32.3999" font-size="10" text-anchor="end" dy="5" font-family="Helvetica">4</text>
<polyline fill="none" stroke="#262626" stroke-width="0.5" stroke-linecap="butt" stroke-linejoin="miter" stroke-dasharray="16,0" points="74.8799,384.48 521.28,384.48"/>
<polyline fill="none" stroke="#262626" stroke-width="0.5" stroke-linecap="butt" stroke-linejoin="miter" stroke-dasharray="16,0" points="74.8799,384.48 74.8799,32.3999"/>
<text fill="#262626" x="298.08" y="402.481" font-size="11" text-anchor="middle" dy="11" font-family="Helvetica">x</text>
<text fill="#262626" x="55.8755" y="208.44" font-size="11" transform="rotate(-90, 55.8755, 208.44)" text-anchor="middle" dy="0" font-family="Helvetica">y</text>
<polyline fill="none" stroke="#0000ff" stroke-width="2" stroke-linecap="butt" stroke-linejoin="miter" points="74.8799,32.3999 80.46,45.4565 86.04,58.2192 91.6201,70.6885 97.2002,82.8647 102.78,94.7476 108.36,106.337 113.94,117.633 119.52,128.635 125.1,139.344 130.68,149.76 136.26,159.882 141.84,169.711 147.42,179.247 153,188.489 158.58,197.438 164.16,206.093 169.74,214.455 175.32,222.523 180.9,230.298 186.48,237.78 192.06,244.968 197.64,251.863 203.22,258.465 208.8,264.773 214.38,270.788 219.96,276.509 225.54,281.937 231.12,287.071 236.7,291.912 242.28,296.46 247.86,300.714 253.44,304.675 259.02,308.343 264.6,311.717 270.18,314.797 275.76,317.585 281.34,320.079 286.92,322.279 292.5,324.187 298.08,325.8 303.66,327.12 309.24,328.147 314.82,328.881 320.4,329.321 325.98,329.467 331.56,329.321 337.14,328.881 342.72,328.147 348.3,327.12 353.88,325.8 359.46,324.187 365.04,322.279 370.62,320.079 376.2,317.585 381.78,314.797 387.36,311.717 392.94,308.343 398.52,304.675 404.1,300.714 409.68,296.46 415.26,291.912 420.84,287.071 426.42,281.937 432,276.509 437.58,270.788 443.16,264.773 448.74,258.465 454.32,251.863 459.9,244.968 465.48,237.78 471.06,230.298 476.64,222.523 482.22,214.455 487.8,206.093 493.38,197.438 498.96,188.489 504.54,179.247 510.12,169.711 515.7,159.882 521.28,149.76"/>
<polyline fill="none" stroke="#0000ff" stroke-width="2" stroke-linecap="butt" stroke-linejoin="miter" points="77.8799,32.3999 77.3071,34.1636 75.8071,35.2529 73.9531,35.2529 72.4531,34.1636 71.8799,32.3999 72.4531,30.6367 73.9531,29.5469 75.8071,29.5469 77.3071,30.6367 77.8799,32.3999"/>
<polyline fill="none" stroke="#0000ff" stroke-width="2" stroke-linecap="butt" stroke-linejoin="miter" points="83.46,45.4565 82.8872,47.2197 81.3872,48.3096 79.5327,48.3096 78.0327,47.2197 77.46,45.4565 78.0327,43.6929 79.5327,42.603 81.3872,42.603 82.8872,43.6929 83.46,45.4565"/>
<polyline fill="none" stroke="#0000ff" stroke-width="2" stroke-linecap="butt" stroke-linejoin="miter" points="89.04,58.2192 88.4673,59.9824 86.9673,61.0723 85.1128,61.0723 83.6128,59.9824 83.04,58.2192 83.6128,56.4561 85.1128,55.3662 86.9673,55.3662 88.4673,56.4561 89.04,58.2192"/>
<polyline fill="none" stroke="#0000ff" stroke-width="2" stroke-linecap="butt" stroke-linejoin="miter" points="94.6201,70.6885 94.0469,72.4521 92.5469,73.542 90.6929,73.542 89.1929,72.4521 88.6201,70.6885 89.1929,68.9253 90.6929,67.8354 92.5469,67.8354 94.0469,68.9253 94.6201,70.6885"/>
<polyline fill="none" stroke="#0000ff" stroke-width="2" stroke-linecap="butt" stroke-linejoin="miter" points="100.2,82.8647 99.627,84.6284 98.127,85.7178 96.2729,85.7178 94.7729,84.6284 94.2002,82.8647 94.7729,81.1016 96.2729,80.0117 98.127,80.0117 99.627,81.1016 100.2,82.8647"/>
<polyline fill="none" stroke="#0000ff" stroke-width="2" stroke-linecap="butt" stroke-linejoin="miter" points="105.78,94.7476 105.207,96.5107 103.707,97.6006 101.853,97.6006 100.353,96.5107 99.7798,94.7476 100.353,92.9844 101.853,91.8945 103.707,91.8945 105.207,92.9844 105.78,94.7476"/>
<polyline fill="none" stroke="#0000ff" stroke-width="2" stroke-linecap="butt" stroke-linejoin="miter" points="111.36,106.337 110.787,108.1 109.287,109.19 107.433,109.19 105.933,108.1 105.36,106.337 105.933,104.573 107.433,103.484 109.287,103.484 110.787,104.573 111.36,106.337"/>
<polyline fill="none" stroke="#0000ff" stroke-width="2" stroke-linecap="butt" stroke-linejoin="miter" points="116.94,117.633 116.367,119.396 114.867,120.486 113.013,120.486 111.513,119.396 110.94,117.633 111.513,115.869 113.013,114.779 114.867,114.779 116.367,115.869 116.94,117.633"/>
<polyline fill="none" stroke="#0000ff" stroke-width="2" stroke-linecap="butt" stroke-linejoin="miter" points="122.52,128.635 121.947,130.398 120.447,131.488 118.593,131.488 117.093,130.398 116.52,128.635 117.093,126.872 118.593,125.782 120.447,125.782 121.947,126.872 122.52,128.635"/>
<polyline fill="none" stroke="#0000ff" stroke-width="2" stroke-linecap="butt" stroke-linejoin="miter" points="128.1,139.344 127.527,141.107 126.027,142.197 124.173,142.197 122.673,141.107 122.1,139.344 122.673,137.581 124.173,136.491 126.027,136.491 127.527,137.581 128.1,139.344"/>
<polyline fill="none" stroke="#0000ff" stroke-width="2" stroke-linecap="butt" stroke-linejoin="miter" points="133.68,149.76 133.107,151.523 131.607,152.613 129.753,152.613 128.253,151.523 127.68,149.76 128.253,147.997 129.753,146.907 131.607,146.907 133.107,147.997 133.68,149.76"/>
<polyline fill="none" stroke="#0000ff" stroke-width="2" stroke-linecap="butt" stroke-linejoin="miter" points="139.26,159.882 138.687,161.646 137.187,162.735 135.333,162.735 133.833,161.646 133.26,159.882 133.833,158.119 135.333,157.029 137.187,157.029 138.687,158.119 139.26,159.882"/>
<polyline fill="none" stroke="#0000ff" stroke-width="2" stroke-linecap="butt" stroke-linejoin="miter" points="144.84,169.711 144.267,171.475 142.767,172.564 140.913,172.564 139.413,171.475 138.84,169.711 139.413,167.948 140.913,166.858 142.767,166.858 144.267,167.948 144.84,169.711"/>
<polyline fill="none" stroke="#0000ff" stroke-width="2" stroke-linecap="butt" stroke-linejoin="miter" points="150.42,179.247 149.847,181.01 148.347,182.1 146.493,182.1 144.993,181.01 144.42,179.247 144.993,177.483 146.493,176.394 148.347,176.394 149.847,177.483 150.42,179.247"/>
<polyline fill="none" stroke="#0000ff" stroke-width="2" stroke-linecap="butt" stroke-linejoin="miter" points="156,188.489 155.427,190.252 153.927,191.342 152.073,191.342 150.573,190.252 150,188.489 150.573,186.726 152.073,185.636 153.927,185.636 155.427,186.726 156,188.489"/>
<polyline fill="none" stroke="#0000ff" stroke-width="2" stroke-linecap="butt" stroke-linejoin="miter" points="161.58,197.438 161.007,199.201 159.507,200.291 157.653,200.291 156.153,199.201 155.58,197.438 156.153,195.674 157.653,194.584 159.507,194.584 161.007,195.674 161.58,197.438"/>
<polyline fill="none" stroke="#0000ff" stroke-width="2" stroke-linecap="butt" stroke-linejoin="miter" points="167.16,206.093 166.587,207.856 165.087,208.946 163.233,208.946 161.733,207.856 161.16,206.093 161.733,204.33 163.233,203.24 165.087,203.24 166.587,204.33 167.16,206.093"/>
<polyline fill="none" stroke="#0000ff" stroke-width="2" stroke-linecap="butt" stroke-linejoin="miter" points="172.74,214.455 172.167,216.218 170.667,217.308 168.813,217.308 167.313,216.218 166.74,214.455 167.313,212.691 168.813,211.602 170.667,211.602 172.167,212.691 172.74,214.455"/>
<polyline fill="none" stroke="#0000ff" stroke-width="2" stroke-linecap="butt" stroke-linejoin="miter" points="178.32,222.523 177.747,224.287 176.247,225.376 174.393,225.376 172.893,224.287 172.32,222.523 172.893,220.76 174.393,219.67 176.247,219.67 177.747,220.76 178.32,222.523"/>
<polyline fill="none" stroke="#0000ff" stroke-width="2" stroke-linecap="butt" stroke-linejoin="miter" points="183.9,230.298 183.327,232.062 181.827,233.151 179.973,233.151 178.473,232.062 177.9,230.298 178.473,228.535 179.973,227.445 181.827,227.445 183.327,228.535 183.9,230.298"/>
<polyline fill="none" stroke="#0000ff" stroke-width="2" stroke-linecap="butt" stroke-linejoin="miter" points="189.48,237.78 188.907,239.543 187.407,240.633 185.553,240.633 184.053,239.543 183.48,237.78 184.053,236.017 185.553,234.927 187.407,234.927 188.907,236.017 189.48,237.78"/>
<polyline fill="none" stroke="#0000ff" stroke-width="2" stroke-linecap="butt" stroke-linejoin="miter" points="195.06,244.968 194.487,246.731 192.987,247.821 191.133,247.821 189.633,246.731 189.06,244.968 189.633,243.205 191.133,242.115 192.987,242.115 194.487,243.205 195.06,244.968"/>
<polyline fill="none" stroke="#0000ff" stroke-width="2" stroke-linecap="butt" stroke-linejoin="miter" points="200.64,251.863 200.067,253.626 198.567,254.716 196.713,254.716 195.213,253.626 194.64,251.863 195.213,250.1 196.713,249.01 198.567,249.01 200.067,250.1 200.64,251.863"/>
<polyline fill="none" stroke="#0000ff" stroke-width="2" stroke-linecap="butt" stroke-linejoin="miter" points="206.22,258.465 205.647,260.228 204.147,261.318 202.293,261.318 200.793,260.228 200.22,258.465 200.793,256.701 202.293,255.611 204.147,255.611 205.647,256.701 206.22,258.465"/>
<polyline fill="none" stroke="#0000ff" stroke-width="2" stroke-linecap="butt" stroke-linejoin="miter" points="211.8,264.773 211.227,266.536 209.727,267.626 207.873,267.626 206.373,266.536 205.8,264.773 206.373,263.009 207.873,261.919 209.727,261.919 211.227,263.009 211.8,264.773"/>
<polyline fill="none" stroke="#0000ff" stroke-width="2" stroke-linecap="butt" stroke-linejoin="miter" points="217.38,270.788 216.807,272.551 215.307,273.641 213.453,273.641 211.953,272.551 211.38,270.788 211.953,269.024 213.453,267.935 215.307,267.935 216.807,269.024 217.38,270.788"/>
<polyline fill="none" stroke="#0000ff" stroke-width="2" stroke-linecap="butt" stroke-linejoin="miter" points="222.96,276.509 222.387,278.272 220.887,279.362 219.033,279.362 217.533,278.272 216.96,276.509 217.533,274.746 219.033,273.656 220.887,273.656 222.387,274.746 222.96,276.509"/>
<polyline fill="none" stroke="#0000ff" stroke-width="2" stroke-linecap="butt" stroke-linejoin="miter" points="228.54,281.937 227.967,283.7 226.467,284.79 224.613,284.79 223.113,283.7 222.54,281.937 223.113,280.173 224.613,279.083 226.467,279.083 227.967,280.173 228.54,281.937"/>
<polyline fill="none" stroke="#0000ff" stroke-width="2" stroke-linecap="butt" stroke-linejoin="miter" points="234.12,287.071 233.547,288.834 232.047,289.924 230.193,289.924 228.693,288.834 228.12,287.071 228.693,285.308 230.193,284.218 232.047,284.218 233.547,285.308 234.12,287.071"/>
<polyline fill="none" stroke="#0000ff" stroke-width="2" stroke-linecap="butt" stroke-linejoin="miter" points="239.7,291.912 239.127,293.676 237.627,294.766 235.773,294.766 234.273,293.676 233.7,291.912 234.273,290.149 235.773,289.059 237.627,289.059 239.127,290.149 239.7,291.912"/>
<polyline fill="none" stroke="#0000ff" stroke-width="2" stroke-linecap="butt" stroke-linejoin="miter" points="245.28,296.46 244.707,298.223 243.207,299.313 241.353,299.313 239.853,298.223 239.28,296.46 239.853,294.697 241.353,293.607 243.207,293.607 244.707,294.697 245.28,296.46"/>
<polyline fill="none" stroke="#0000ff" stroke-width="2" stroke-linecap="butt" stroke-linejoin="miter" points="250.86,300.714 250.287,302.478 248.787,303.567 246.933,303.567 245.433,302.478 244.86,300.714 245.433,298.951 246.933,297.861 248.787,297.861 250.287,298.951 250.86,300.714"/>
<polyline fill="none" stroke="#0000ff" stroke-width="2" stroke-linecap="butt" stroke-linejoin="miter" points="256.44,304.675 255.867,306.438 254.367,307.528 252.513,307.528 251.013,306.438 250.44,304.675 251.013,302.912 252.513,301.822 254.367,301.822 255.867,302.912 256.44,304.675"/>
<polyline fill="none" stroke="#0000ff" stroke-width="2" stroke-linecap="butt" stroke-linejoin="miter" points="262.02,308.343 261.447,310.106 259.947,311.196 258.093,311.196 256.593,310.106 256.02,308.343 256.593,306.58 258.093,305.49 259.947,305.49 261.447,306.58 262.02,308.343"/>
<polyline fill="none" stroke="#0000ff" stroke-width="2" stroke-linecap="butt" stroke-linejoin="miter" points="267.6,311.717 267.027,313.48 265.527,314.57 263.673,314.57 262.173,313.48 261.6,311.717 262.173,309.954 263.673,308.864 265.527,308.864 267.027,309.954 267.6,311.717"/>
<polyline fill="none" stroke="#0000ff" stroke-width="2" stroke-linecap="butt" stroke-linejoin="miter" points="273.18,314.797 272.607,316.561 271.107,317.651 269.253,317.651 267.753,316.561 267.18,314.797 267.753,313.034 269.253,311.944 271.107,311.944 272.607,313.034 273.18,314.797"/>
<polyline fill="none" stroke="#0000ff" stroke-width="2" stroke-linecap="butt" stroke-linejoin="miter" points="278.76,317.585 278.187,319.348 276.687,320.438 274.833,320.438 273.333,319.348 272.76,317.585 273.333,315.821 274.833,314.731 276.687,314.731 278.187,315.821 278.76,317.585"/>
<polyline fill="none" stroke="#0000ff" stroke-width="2" stroke-linecap="butt" stroke-linejoin="miter" points="284.34,320.079 283.767,321.842 282.267,322.932 280.413,322.932 278.913,321.842 278.34,320.079 278.913,318.315 280.413,317.226 282.267,317.226 283.767,318.315 284.34,320.079"/>
<polyline fill="none" stroke="#0000ff" stroke-width="2" stroke-linecap="butt" stroke-linejoin="miter" points="289.92,322.279 289.347,324.042 287.847,325.132 285.993,325.132 284.493,324.042 283.92,322.279 284.493,320.516 285.993,319.426 287.847,319.426 289.347,320.516 289.92,322.279"/>
<polyline fill="none" stroke="#0000ff" stroke-width="2" stroke-linecap="butt" stroke-linejoin="miter" points="295.5,324.187 294.927,325.95 293.427,327.04 291.573,327.04 290.073,325.95 289.5,324.187 290.073,322.423 291.573,321.333 293.427,321.333 294.927,322.423 295.5,324.187"/>
<polyline fill="none" stroke="#0000ff" stroke-width="2" stroke-linecap="butt" stroke-linejoin="miter" points="301.08,325.8 300.507,327.563 299.007,328.653 297.153,328.653 295.653,327.563 295.08,325.8 295.653,324.037 297.153,322.947 299.007,322.947 300.507,324.037 301.08,325.8"/>
<polyline fill="none" stroke="#0000ff" stroke-width="2" stroke-linecap="butt" stroke-linejoin="miter" points="306.66,327.12 306.087,328.884 304.587,329.974 302.733,329.974 301.233,328.884 300.66,327.12 301.233,325.357 302.733,324.267 304.587,324.267 306.087,325.357 306.66,327.12"/>
<polyline fill="none" stroke="#0000ff" stroke-width="2" stroke-linecap="butt" stroke-linejoin="miter" points="312.24,328.147 311.667,329.911 310.167,331 308.313,331 306.813,329.911 306.24,328.147 306.813,326.384 308.313,325.294 310.167,325.294 311.667,326.384 312.24,328.147"/>
<polyline fill="none" stroke="#0000ff" stroke-width="2" stroke-linecap="butt" stroke-linejoin="miter" points="317.82,328.881 317.247,330.644 315.747,331.734 313.893,331.734 312.393,330.644 311.82,328.881 312.393,327.117 313.893,326.027 315.747,326.027 317.247,327.117 317.82,328.881"/>
<polyline fill="none" stroke="#0000ff" stroke-width="2" stroke-linecap="butt" stroke-linejoin="miter" points="323.4,329.321 322.827,331.084 321.327,332.174 319.473,332.174 317.973,331.084 317.4,329.321 317.973,327.558 319.473,326.468 321.327,326.468 322.827,327.558 323.4,329.321"/>
<polyline fill="none" stroke="#0000ff" stroke-width="2" stroke-linecap="butt" stroke-linejoin="miter" points="328.98,329.467 328.407,331.231 326.907,332.321 325.053,332.321 323.553,331.231 322.98,329.467 323.553,327.704 325.053,326.614 326.907,326.614 328.407,327.704 328.98,329.467"/>
<polyline fill="none" stroke="#0000ff" stroke-width="2" stroke-linecap="butt" stroke-linejoin="miter" points="334.56,329.321 333.987,331.084 332.487,332.174 330.633,332.174 329.133,331.084 328.56,329.321 329.133,327.558 330.633,326.468 332.487,326.468 333.987,327.558 334.56,329.321"/>
<polyline fill="none" stroke="#0000ff" stroke-width="2" stroke-linecap="butt" stroke-linejoin="miter" points="340.14,328.881 339.567,330.644 338.067,331.734 336.213,331.734 334.713,330.644 334.14,328.881 334.713,327.117 336.213,326.027 338.067,326.027 339.567,327.117 340.14,328.881"/>
<polyline fill="none" stroke="#0000ff" stroke-width="2" stroke-linecap="butt" stroke-linejoin="miter" points="345.72,328.147 345.147,329.911 343.647,331 341.793,331 340.293,329.911 339.72,328.147 340.293,326.384 341.793,325.294 343.647,325.294 345.147,326.384 345.72,328.147"/>
<polyline fill="none" stroke="#0000ff" stroke-width="2" stroke-linecap="butt" stroke-linejoin="miter" points="351.3,327.12 350.727,328.884 349.227,329.974 347.373,329.974 345.873,328.884 345.3,327.12 345.873,325.357 347.373,324.267 349.227,324.267 350.727,325.357 351.3,327.12"/>
<polyline fill="none" stroke="#0000ff" stroke-width="2" stroke-linecap="butt" stroke-linejoin="miter" points="356.88,325.8 356.307,327.563 354.807,328.653 352.953,328.653 351.453,327.563 350.88,325.8 351.453,324.037 352.953,322.947 354.807,322.947 356.307,324.037 356.88,325.8"/>
<polyline fill="none" stroke="#0000ff" stroke-width="2" stroke-linecap="butt" stroke-linejoin="miter" points="362.46,324.187 361.887,325.95 360.387,327.04 358.533,327.04 357.033,325.95 356.46,324.187 357.033,322.423 358.533,321.333 360.387,321.333 361.887,322.423 362.46,324.187"/>
<polyline fill="none" stroke="#0000ff" stroke-width="2" stroke-linecap="butt" stroke-linejoin="miter" points="368.04,322.279 367.467,324.042 365.967,325.132 364.113,325.132 362.613,324.042 362.04,322.279 362.613,320.516 364.113,319.426 365.967,319.426 367.467,320.516 368.04,322.279"/>
<polyline fill="none" stroke="#0000ff" stroke-width="2" stroke-linecap="butt" stroke-linejoin="miter" points="373.62,320.079 373.047,321.842 371.547,322.932 369.693,322.932 368.193,321.842 367.62,320.079 368.193,318.315 369.693,317.226 371.547,317.226 373.047,318.315 373.62,320.079"/>
<polyline fill="none" stroke="#0000ff" stroke-width="2" stroke-linecap="butt" stroke-linejoin="miter" points="379.2,317.585 378.627,319.348 377.127,320.438 375.273,320.438 373.773,319.348 373.2,317.585 373.773,315.821 375.273,314.731 377.127,314.731 378.627,315.821 379.2,317.585"/>
<polyline fill="none" stroke="#0000ff" stroke-width="2" stroke-linecap="butt" stroke-linejoin="miter" points="384.78,314.797 384.207,316.561 382.707,317.651 380.853,317.651 379.353,316.561 378.78,314.797 379.353,313.034 380.853,311.944 382.707,311.944 384.207,313.034 384.78,314.797"/>
<polyline fill="none" stroke="#0000ff" stroke-width="2" stroke-linecap="butt" stroke-linejoin="miter" points="390.36,311.717 389.787,313.48 388.287,314.57 386.433,314.57 384.933,313.48 384.36,311.717 384.933,309.954 386.433,308.864 388.287,308.864 389.787,309.954 390.36,311.717"/>
<polyline fill="none" stroke="#0000ff" stroke-width="2" stroke-linecap="butt" stroke-linejoin="miter" points="395.94,308.343 395.367,310.106 393.867,311.196 392.013,311.196 390.513,310.106 389.94,308.343 390.513,306.58 392.013,305.49 393.867,305.49 395.367,306.58 395.94,308.343"/>
<polyline fill="none" stroke="#0000ff" stroke-width="2" stroke-linecap="butt" stroke-linejoin="miter" points="401.52,304.675 400.947,306.438 399.447,307.528 397.593,307.528 396.093,306.438 395.52,304.675 396.093,302.912 397.593,301.822 399.447,301.822 400.947,302.912 401.52,304.675"/>
<polyline fill="none" stroke="#0000ff" stroke-width="2" stroke-linecap="butt" stroke-linejoin="miter" points="407.1,300.714 406.527,302.478 405.027,303.567 403.173,303.567 401.673,302.478 401.1,300.714 401.673,298.951 403.173,297.861 405.027,297.861 406.527,298.951 407.1,300.714"/>
<polyline fill="none" stroke="#0000ff" stroke-width="2" stroke-linecap="butt" stroke-linejoin="miter" points="412.68,296.46 412.107,298.223 410.607,299.313 408.753,299.313 407.253,298.223 406.68,296.46 407.253,294.697 408.753,293.607 410.607,293.607 412.107,294.697 412.68,296.46"/>
<polyline fill="none" stroke="#0000ff" stroke-width="2" stroke-linecap="butt" stroke-linejoin="miter" points="418.26,291.912 417.687,293.676 416.187,294.766 414.333,294.766 412.833,293.676 412.26,291.912 412.833,290.149 414.333,289.059 416.187,289.059 417.687,290.149 418.26,291.912"/>
<polyline fill="none" stroke="#0000ff" stroke-width="2" stroke-linecap="butt" stroke-linejoin="miter" points="423.84,287.071 423.267,288.834 421.767,289.924 419.913,289.924 418.413,288.834 417.84,287.071 418.413,285.308 419.913,284.218 421.767,284.218 423.267,285.308 423.84,287.071"/>
<polyline fill="none" stroke="#0000ff" stroke-width="2" stroke-linecap="butt" stroke-linejoin="miter" points="429.42,281.937 428.847,283.7 427.347,284.79 425.493,284.79 423.993,283.7 423.42,281.937 423.993,280.173 425.493,279.083 427.347,279.083 428.847,280.173 429.42,281.937"/>
<polyline fill="none" stroke="#0000ff" stroke-width="2" stroke-linecap="butt" stroke-linejoin="miter" points="435,276.509 434.427,278.272 432.927,279.362 431.073,279.362 429.573,278.272 429,276.509 429.573,274.746 431.073,273.656 432.927,273.656 434.427,274.746 435,276.509"/>
<polyline fill="none" stroke="#0000ff" stroke-width="2" stroke-linecap="butt" stroke-linejoin="miter" points="440.58,270.788 440.007,272.551 438.507,273.641 436.653,273.641 435.153,272.551 434.58,270.788 435.153,269.024 436.653,267.935 438.507,267.935 440.007,269.024 440.58,270.788"/>
<polyline fill="none" stroke="#0000ff" stroke-width="2" stroke-linecap="butt" stroke-linejoin="miter" points="446.16,264.773 445.587,266.536 444.087,267.626 442.233,267.626 440.733,266.536 440.16,264.773 440.733,263.009 442.233,261.919 444.087,261.919 445.587,263.009 446.16,264.773"/>
<polyline fill="none" stroke="#0000ff" stroke-width="2" stroke-linecap="butt" stroke-linejoin="miter" points="451.74,258.465 451.167,260.228 449.667,261.318 447.813,261.318 446.313,260.228 445.74,258.465 446.313,256.701 447.813,255.611 449.667,255.611 451.167,256.701 451.74,258.465"/>
<polyline fill="none" stroke="#0000ff" stroke-width="2" stroke-linecap="butt" stroke-linejoin="miter" points="457.32,251.863 456.747,253.626 455.247,254.716 453.393,254.716 451.893,253.626 451.32,251.863 451.893,250.1 453.393,249.01 455.247,249.01 456.747,250.1 457.32,251.863"/>
<polyline fill="none" stroke="#0000ff" stroke-width="2" stroke-linecap="butt" stroke-linejoin="miter" points="462.9,244.968 462.327,246.731 460.827,247.821 458.973,247.821 457.473,246.731 456.9,244.968 457.473,243.205 458.973,242.115 460.827,242.115 462.327,243.205 462.9,244.968"/>
<polyline fill="none" stroke="#0000ff" stroke-width="2" stroke-linecap="butt" stroke-linejoin="miter" points="468.48,237.78 467.907,239.543 466.407,240.633 464.553,240.633 463.053,239.543 462.48,237.78 463.053,236.017 464.553,234.927 466.407,234.927 467.907,236.017 468.48,237.78"/>
<polyline fill="none" stroke="#0000ff" stroke-width="2" stroke-linecap="butt" stroke-linejoin="miter" points="474.06,230.298 473.487,232.062 471.987,233.151 470.133,233.151 468.633,232.062 468.06,230.298 468.633,228.535 470.133,227.445 471.987,227.445 473.487,228.535 474.06,230.298"/>
<polyline fill="none" stroke="#0000ff" stroke-width="2" stroke-linecap="butt" stroke-linejoin="miter" points="479.64,222.523 479.067,224.287 477.567,225.376 475.713,225.376 474.213,224.287 473.64,222.523 474.213,220.76 475.713,219.67 477.567,219.67 479.067,220.76 479.64,222.523"/>
<polyline fill="none" stroke="#0000ff" stroke-width="2" stroke-linecap="butt" stroke-linejoin="miter" points="485.22,214.455 484.647,216.218 483.147,217.308 481.293,217.308 479.793,216.218 479.22,214.455 479.793,212.691 481.293,211.602 483.147,211.602 484.647,212.691 485.22,214.455"/>
<polyline fill="none" stroke="#0000ff" stroke-width="2" stroke-linecap="butt" stroke-linejoin="miter" points="490.8,206.093 490.227,207.856 488.727,208.946 486.873,208.946 485.373,207.856 484.8,206.093 485.373,204.33 486.873,203.24 488.727,203.24 490.227,204.33 490.8,206.093"/>
<polyline fill="none" stroke="#0000ff" stroke-width="2" stroke-linecap="butt" stroke-linejoin="miter" points="496.38,197.438 495.807,199.201 494.307,200.291 492.453,200.291 490.953,199.201 490.38,197.438 490.953,195.674 492.453,194.584 494.307,194.584 495.807,195.674 496.38,197.438"/>
<polyline fill="none" stroke="#0000ff" stroke-width="2" stroke-linecap="butt" stroke-linejoin="miter" points="501.96,188.489 501.387,190.252 499.887,191.342 498.033,191.342 496.533,190.252 495.96,188.489 496.533,186.726 498.033,185.636 499.887,185.636 501.387,186.726 501.96,188.489"/>
<polyline fill="none" stroke="#0000ff" stroke-width="2" stroke-linecap="butt" stroke-linejoin="miter" points="507.54,179.247 506.967,181.01 505.467,182.1 503.613,182.1 502.113,181.01 501.54,179.247 502.113,177.483 503.613,176.394 505.467,176.394 506.967,177.483 507.54,179.247"/>
<polyline fill="none" stroke="#0000ff" stroke-width="2" stroke-linecap="butt" stroke-linejoin="miter" points="513.12,169.711 512.547,171.475 511.047,172.564 509.193,172.564 507.693,171.475 507.12,169.711 507.693,167.948 509.193,166.858 511.047,166.858 512.547,167.948 513.12,169.711"/>
<polyline fill="none" stroke="#0000ff" stroke-width="2" stroke-linecap="butt" stroke-linejoin="miter" points="518.7,159.882 518.127,161.646 516.627,162.735 514.773,162.735 513.273,161.646 512.7,159.882 513.273,158.119 514.773,157.029 516.627,157.029 518.127,158.119 518.7,159.882"/>
<polyline fill="none" stroke="#0000ff" stroke-width="2" stroke-linecap="butt" stroke-linejoin="miter" points="524.28,149.76 523.707,151.523 522.207,152.613 520.353,152.613 518.853,151.523 518.28,149.76 518.853,147.997 520.353,146.907 522.207,146.907 523.707,147.997 524.28,149.76"/>
<polyline fill="none" stroke="#000000" stroke-width="2" stroke-linecap="butt" stroke-linejoin="miter" points="74.8799,267.12 80.46,267.12 86.04,267.12 91.6201,267.12 97.2002,267.12 102.78,267.12 108.36,267.12 113.94,267.12 119.52,267.12 125.1,267.12 130.68,267.12 136.26,267.12 141.84,267.12 147.42,267.12 153,267.12 158.58,267.12 164.16,267.12 169.74,267.12 175.32,267.12 180.9,267.12 186.48,267.12 192.06,267.12 197.64,267.12 203.22,267.12 208.8,267.12 214.38,267.12 219.96,267.12 225.54,267.12 231.12,267.12 236.7,267.12 242.28,267.12 247.86,267.12 253.44,267.12 259.02,267.12 264.6,267.12 270.18,267.12 275.76,267.12 281.34,267.12 286.92,267.12 292.5,267.12 298.08,267.12 303.66,267.12 309.24,267.12 314.82,267.12 320.4,267.12 325.98,267.12 331.56,267.12 337.14,267.12 342.72,267.12 348.3,267.12 353.88,267.12 359.46,267.12 365.04,267.12 370.62,267.12 376.2,267.12 381.78,267.12 387.36,267.12 392.94,267.12 398.52,267.12 404.1,267.12 409.68,267.12 415.26,267.12 420.84,267.12 426.42,267.12 432,267.12 437.58,267.12 443.16,267.12 448.74,267.12 454.32,267.12 459.9,267.12 465.48,267.12 471.06,267.12 476.64,267.12 482.22,267.12 487.8,267.12 493.38,267.12 498.96,267.12 504.54,267.12 510.12,267.12 515.7,267.12 521.28,267.12"/>
<text fill="#000000" x="298.08" y="22.3999" font-size="11" text-anchor="middle" dy="0" font-family="Helvetica" font-weight="bold">Część wspólna z 0</text>
</g>
<clipPath id="cp00576432">
  <polygon points="0,432 576,432 576,0 0,0"/>
</clipPath>
<g clip-path="url(#cp00576432)">
<polygon fill="#ffffff" shape-rendering="crispEdges" points="433.145,75.6055 518.535,75.6055 518.535,35.1445"/>
<polygon fill="#ffffff" shape-rendering="crispEdges" points="433.145,75.6055 518.535,35.1445 433.145,35.1445"/>
<polyline fill="none" stroke="#262626" stroke-width="0.5" stroke-linecap="butt" stroke-linejoin="miter" stroke-dasharray="16,0" points="433.145,75.6055 518.535,75.6055"/>
<polyline fill="none" stroke="#262626" stroke-width="0.5" stroke-linecap="butt" stroke-linejoin="miter" stroke-dasharray="16,0" points="433.145,35.1445 518.535,35.1445"/>
<polyline fill="none" stroke="#262626" stroke-width="0.5" stroke-linecap="butt" stroke-linejoin="miter" stroke-dasharray="16,0" points="433.145,75.6055 433.145,35.1445"/>
<polyline fill="none" stroke="#262626" stroke-width="0.5" stroke-linecap="butt" stroke-linejoin="miter" stroke-dasharray="16,0" points="518.535,75.6055 518.535,35.1445"/>
<text fill="#000000" x="459.219" y="51.7598" font-size="10" text-anchor="start" dy="0" font-family="Helvetica">x</text>
<text fill="#000000" x="465.219" y="45.7598" font-size="8" text-anchor="start" dy="0" font-family="Helvetica">2</text>
<text fill="#000000" x="470.219" y="51.7598" font-size="10" text-anchor="start" dy="0" font-family="Helvetica">-0.5 x - 1</text>
<text fill="#000000" x="459.219" y="65.4902" font-size="10" text-anchor="start" dy="5" font-family="Helvetica">0</text>
<polyline fill="none" stroke="#0000ff" stroke-width="2" stroke-linecap="butt" stroke-linejoin="miter" points="435.89,45.2598 456.475,45.2598"/>
<polyline fill="none" stroke="#0000ff" stroke-width="2" stroke-linecap="butt" stroke-linejoin="miter" points="449.182,45.2598 448.609,47.0229 447.109,48.1128 445.255,48.1128 443.755,47.0229 443.182,45.2598 443.755,43.4966 445.255,42.4067 447.109,42.4067 448.609,43.4966 449.182,45.2598"/>
<polyline fill="none" stroke="#000000" stroke-width="2" stroke-linecap="butt" stroke-linejoin="miter" points="435.89,65.4902 456.475,65.4902"/>
</g>
</g>
</svg>
