<?xml version="1.0" encoding="UTF-8" standalone="no"?>
<svg xmlns="http://www.w3.org/2000/svg"
     xmlns:xlink="http://www.w3.org/1999/xlink"
     width="576px" height="432px" viewBox="0 0 576 432">
<title>gl2ps_renderer figure</title>
<desc>
Creator: GL2PS 1.4.0, (C) 1999-2017 C. Geuzaine
For: Octave
CreationDate: Sun Nov  3 17:49:41 2019
</desc>
<defs>
</defs>
<polygon fill="#ffffff" points="0,0 576,0 576,432 0,432"/>
<g>
<polygon fill="#ffffff" points="0,432 576,432 576,0 0,0" shape-rendering="crispEdges"/>
<clipPath id="cp00576432">
  <polygon points="0,432 576,432 576,0 0,0"/>
</clipPath>
<g clip-path="url(#cp00576432)">
<polygon fill="#ffffff" shape-rendering="crispEdges" points="74.8799,384.48 521.28,384.48 521.28,32.3999"/>
<polygon fill="#ffffff" shape-rendering="crispEdges" points="74.8799,384.48 521.28,32.3999 74.8799,32.3999"/>
<polyline fill="none" stroke="#262626" stroke-width="0.5" stroke-linecap="butt" stroke-linejoin="miter" stroke-opacity="0.15" stroke-dasharray="16,0" points="74.8799,384.48 74.8799,32.3999"/>
<polyline fill="none" stroke="#262626" stroke-width="0.5" stroke-linecap="butt" stroke-linejoin="miter" stroke-opacity="0.15" stroke-dasharray="16,0" points="149.28,384.48 149.28,32.3999"/>
<polyline fill="none" stroke="#262626" stroke-width="0.5" stroke-linecap="butt" stroke-linejoin="miter" stroke-opacity="0.15" stroke-dasharray="16,0" points="223.68,384.48 223.68,32.3999"/>
<polyline fill="none" stroke="#262626" stroke-width="0.5" stroke-linecap="butt" stroke-linejoin="miter" stroke-opacity="0.15" stroke-dasharray="16,0" points="298.08,384.48 298.08,32.3999"/>
<polyline fill="none" stroke="#262626" stroke-width="0.5" stroke-linecap="butt" stroke-linejoin="miter" stroke-opacity="0.15" stroke-dasharray="16,0" points="372.48,384.48 372.48,32.3999"/>
<polyline fill="none" stroke="#262626" stroke-width="0.5" stroke-linecap="butt" stroke-linejoin="miter" stroke-opacity="0.15" stroke-dasharray="16,0" points="446.88,384.48 446.88,32.3999"/>
<polyline fill="none" stroke="#262626" stroke-width="0.5" stroke-linecap="butt" stroke-linejoin="miter" stroke-opacity="0.15" stroke-dasharray="16,0" points="521.28,384.48 521.28,32.3999"/>
<polyline fill="none" stroke="#262626" stroke-width="0.5" stroke-linecap="butt" stroke-linejoin="miter" points="74.8799,384.48 74.8799,380.015"/>
<polyline fill="none" stroke="#262626" stroke-width="0.5" stroke-linecap="butt" stroke-linejoin="miter" points="149.28,384.48 149.28,380.015"/>
<polyline fill="none" stroke="#262626" stroke-width="0.5" stroke-linecap="butt" stroke-linejoin="miter" points="223.68,384.48 223.68,380.015"/>
<polyline fill="none" stroke="#262626" stroke-width="0.5" stroke-linecap="butt" stroke-linejoin="miter" points="298.08,384.48 298.08,380.015"/>
<polyline fill="none" stroke="#262626" stroke-width="0.5" stroke-linecap="butt" stroke-linejoin="miter" points="372.48,384.48 372.48,380.015"/>
<polyline fill="none" stroke="#262626" stroke-width="0.5" stroke-linecap="butt" stroke-linejoin="miter" points="446.88,384.48 446.88,380.015"/>
<polyline fill="none" stroke="#262626" stroke-width="0.5" stroke-linecap="butt" stroke-linejoin="miter" points="521.28,384.48 521.28,380.015"/>
<text fill="#262626" x="74.8799" y="389.481" font-size="10" text-anchor="middle" dy="10" font-family="Helvetica">-0.5</text>
<text fill="#262626" x="149.28" y="389.481" font-size="10" text-anchor="middle" dy="10" font-family="Helvetica">0</text>
<text fill="#262626" x="223.68" y="389.481" font-size="10" text-anchor="middle" dy="10" font-family="Helvetica">0.5</text>
<text fill="#262626" x="298.08" y="389.481" font-size="10" text-anchor="middle" dy="10" font-family="Helvetica">1</text>
<text fill="#262626" x="372.48" y="389.481" font-size="10" text-anchor="middle" dy="10" font-family="Helvetica">1.5</text>
<text fill="#262626" x="446.88" y="389.481" font-size="10" text-anchor="middle" dy="10" font-family="Helvetica">2</text>
<text fill="#262626" x="521.28" y="389.481" font-size="10" text-anchor="middle" dy="10" font-family="Helvetica">2.5</text>
<polyline fill="none" stroke="#262626" stroke-width="0.5" stroke-linecap="butt" stroke-linejoin="miter" stroke-opacity="0.15" stroke-dasharray="16,0" points="74.8799,384.48 521.28,384.48"/>
<polyline fill="none" stroke="#262626" stroke-width="0.5" stroke-linecap="butt" stroke-linejoin="miter" stroke-opacity="0.15" stroke-dasharray="16,0" points="74.8799,325.8 521.28,325.8"/>
<polyline fill="none" stroke="#262626" stroke-width="0.5" stroke-linecap="butt" stroke-linejoin="miter" stroke-opacity="0.15" stroke-dasharray="16,0" points="74.8799,267.12 521.28,267.12"/>
<polyline fill="none" stroke="#262626" stroke-width="0.5" stroke-linecap="butt" stroke-linejoin="miter" stroke-opacity="0.15" stroke-dasharray="16,0" points="74.8799,208.44 521.28,208.44"/>
<polyline fill="none" stroke="#262626" stroke-width="0.5" stroke-linecap="butt" stroke-linejoin="miter" stroke-opacity="0.15" stroke-dasharray="16,0" points="74.8799,149.76 521.28,149.76"/>
<polyline fill="none" stroke="#262626" stroke-width="0.5" stroke-linecap="butt" stroke-linejoin="miter" stroke-opacity="0.15" stroke-dasharray="16,0" points="74.8799,91.0801 521.28,91.0801"/>
<polyline fill="none" stroke="#262626" stroke-width="0.5" stroke-linecap="butt" stroke-linejoin="miter" stroke-opacity="0.15" stroke-dasharray="16,0" points="74.8799,32.3999 521.28,32.3999"/>
<polyline fill="none" stroke="#262626" stroke-width="0.5" stroke-linecap="butt" stroke-linejoin="miter" points="74.8799,384.48 79.3481,384.48"/>
<polyline fill="none" stroke="#262626" stroke-width="0.5" stroke-linecap="butt" stroke-linejoin="miter" points="74.8799,325.8 79.3481,325.8"/>
<polyline fill="none" stroke="#262626" stroke-width="0.5" stroke-linecap="butt" stroke-linejoin="miter" points="74.8799,267.12 79.3481,267.12"/>
<polyline fill="none" stroke="#262626" stroke-width="0.5" stroke-linecap="butt" stroke-linejoin="miter" points="74.8799,208.44 79.3481,208.44"/>
<polyline fill="none" stroke="#262626" stroke-width="0.5" stroke-linecap="butt" stroke-linejoin="miter" points="74.8799,149.76 79.3481,149.76"/>
<polyline fill="none" stroke="#262626" stroke-width="0.5" stroke-linecap="butt" stroke-linejoin="miter" points="74.8799,91.0801 79.3481,91.0801"/>
<polyline fill="none" stroke="#262626" stroke-width="0.5" stroke-linecap="butt" stroke-linejoin="miter" points="74.8799,32.3999 79.3481,32.3999"/>
<text fill="#262626" x="69.8755" y="384.48" font-size="10" text-anchor="end" dy="5" font-family="Helvetica">-1</text>
<text fill="#262626" x="69.8755" y="325.8" font-size="10" text-anchor="end" dy="5" font-family="Helvetica">0</text>
<text fill="#262626" x="69.8755" y="267.12" font-size="10" text-anchor="end" dy="5" font-family="Helvetica">1</text>
<text fill="#262626" x="69.8755" y="208.44" font-size="10" text-anchor="end" dy="5" font-family="Helvetica">2</text>
<text fill="#262626" x="69.8755" y="149.76" font-size="10" text-anchor="end" dy="5" font-family="Helvetica">3</text>
<text fill="#262626" x="69.8755" y="91.0801" font-size="10" text-anchor="end" dy="5" font-family="Helvetica">4</text>
<text fill="#262626" x="69.8755" y="32.3999" font-size="10" text-anchor="end" dy="5" font-family="Helvetica">5</text>
<polyline fill="none" stroke="#262626" stroke-width="0.5" stroke-linecap="butt" stroke-linejoin="miter" stroke-dasharray="16,0" points="74.8799,384.48 521.28,384.48"/>
<polyline fill="none" stroke="#262626" stroke-width="0.5" stroke-linecap="butt" stroke-linejoin="miter" stroke-dasharray="16,0" points="74.8799,384.48 74.8799,32.3999"/>
<text fill="#262626" x="298.08" y="402.481" font-size="11" text-anchor="middle" dy="11" font-family="Helvetica">x</text>
<text fill="#262626" x="55.8755" y="208.44" font-size="11" transform="rotate(-90, 55.8755, 208.44)" text-anchor="middle" dy="0" font-family="Helvetica">y</text>
<polyline fill="none" stroke="#ff0000" stroke-width="2" stroke-linecap="butt" stroke-linejoin="miter" points="74.8799,311.13 89.7598,316.411 104.64,320.519 119.52,323.453 134.4,325.213 149.28,325.8 164.16,325.213 179.04,323.453 193.92,320.519 208.8,316.411 223.68,311.13 238.56,304.675 253.44,297.047 268.32,288.245 283.2,278.269 298.08,267.12 312.96,254.797 327.84,241.301 342.72,226.631 357.6,210.787 372.48,193.77 387.36,175.579 402.24,156.215 417.12,135.677 432,113.965 446.88,91.0801 461.76,67.021 476.64,41.7886 482.129,32.0479"/>
<polyline fill="none" stroke="#ff0000" stroke-width="2" stroke-linecap="butt" stroke-linejoin="miter" points="77.8799,311.13 77.3071,312.894 75.8071,313.983 73.9531,313.983 72.4531,312.894 71.8799,311.13 72.4531,309.367 73.9531,308.277 75.8071,308.277 77.3071,309.367 77.8799,311.13"/>
<polyline fill="none" stroke="#ff0000" stroke-width="2" stroke-linecap="butt" stroke-linejoin="miter" points="92.7598,316.411 92.187,318.174 90.687,319.264 88.833,319.264 87.333,318.174 86.7598,316.411 87.333,314.648 88.833,313.558 90.687,313.558 92.187,314.648 92.7598,316.411"/>
<polyline fill="none" stroke="#ff0000" stroke-width="2" stroke-linecap="butt" stroke-linejoin="miter" points="107.64,320.519 107.067,322.282 105.567,323.372 103.713,323.372 102.213,322.282 101.64,320.519 102.213,318.755 103.713,317.666 105.567,317.666 107.067,318.755 107.64,320.519"/>
<polyline fill="none" stroke="#ff0000" stroke-width="2" stroke-linecap="butt" stroke-linejoin="miter" points="122.52,323.453 121.947,325.216 120.447,326.306 118.593,326.306 117.093,325.216 116.52,323.453 117.093,321.689 118.593,320.6 120.447,320.6 121.947,321.689 122.52,323.453"/>
<polyline fill="none" stroke="#ff0000" stroke-width="2" stroke-linecap="butt" stroke-linejoin="miter" points="137.4,325.213 136.827,326.977 135.327,328.066 133.473,328.066 131.973,326.977 131.4,325.213 131.973,323.45 133.473,322.36 135.327,322.36 136.827,323.45 137.4,325.213"/>
<polyline fill="none" stroke="#ff0000" stroke-width="2" stroke-linecap="butt" stroke-linejoin="miter" points="152.28,325.8 151.707,327.563 150.207,328.653 148.353,328.653 146.853,327.563 146.28,325.8 146.853,324.037 148.353,322.947 150.207,322.947 151.707,324.037 152.28,325.8"/>
<polyline fill="none" stroke="#ff0000" stroke-width="2" stroke-linecap="butt" stroke-linejoin="miter" points="167.16,325.213 166.587,326.977 165.087,328.066 163.233,328.066 161.733,326.977 161.16,325.213 161.733,323.45 163.233,322.36 165.087,322.36 166.587,323.45 167.16,325.213"/>
<polyline fill="none" stroke="#ff0000" stroke-width="2" stroke-linecap="butt" stroke-linejoin="miter" points="182.04,323.453 181.467,325.216 179.967,326.306 178.113,326.306 176.613,325.216 176.04,323.453 176.613,321.689 178.113,320.6 179.967,320.6 181.467,321.689 182.04,323.453"/>
<polyline fill="none" stroke="#ff0000" stroke-width="2" stroke-linecap="butt" stroke-linejoin="miter" points="196.92,320.519 196.347,322.282 194.847,323.372 192.993,323.372 191.493,322.282 190.92,320.519 191.493,318.755 192.993,317.666 194.847,317.666 196.347,318.755 196.92,320.519"/>
<polyline fill="none" stroke="#ff0000" stroke-width="2" stroke-linecap="butt" stroke-linejoin="miter" points="211.8,316.411 211.227,318.174 209.727,319.264 207.873,319.264 206.373,318.174 205.8,316.411 206.373,314.648 207.873,313.558 209.727,313.558 211.227,314.648 211.8,316.411"/>
<polyline fill="none" stroke="#ff0000" stroke-width="2" stroke-linecap="butt" stroke-linejoin="miter" points="226.68,311.13 226.107,312.894 224.607,313.983 222.753,313.983 221.253,312.894 220.68,311.13 221.253,309.367 222.753,308.277 224.607,308.277 226.107,309.367 226.68,311.13"/>
<polyline fill="none" stroke="#ff0000" stroke-width="2" stroke-linecap="butt" stroke-linejoin="miter" points="241.56,304.675 240.987,306.438 239.487,307.528 237.633,307.528 236.133,306.438 235.56,304.675 236.133,302.912 237.633,301.822 239.487,301.822 240.987,302.912 241.56,304.675"/>
<polyline fill="none" stroke="#ff0000" stroke-width="2" stroke-linecap="butt" stroke-linejoin="miter" points="256.44,297.047 255.867,298.81 254.367,299.9 252.513,299.9 251.013,298.81 250.44,297.047 251.013,295.284 252.513,294.194 254.367,294.194 255.867,295.284 256.44,297.047"/>
<polyline fill="none" stroke="#ff0000" stroke-width="2" stroke-linecap="butt" stroke-linejoin="miter" points="271.32,288.245 270.747,290.008 269.247,291.098 267.393,291.098 265.893,290.008 265.32,288.245 265.893,286.481 267.393,285.392 269.247,285.392 270.747,286.481 271.32,288.245"/>
<polyline fill="none" stroke="#ff0000" stroke-width="2" stroke-linecap="butt" stroke-linejoin="miter" points="286.2,278.269 285.627,280.033 284.127,281.123 282.273,281.123 280.773,280.033 280.2,278.269 280.773,276.506 282.273,275.416 284.127,275.416 285.627,276.506 286.2,278.269"/>
<polyline fill="none" stroke="#ff0000" stroke-width="2" stroke-linecap="butt" stroke-linejoin="miter" points="301.08,267.12 300.507,268.883 299.007,269.973 297.153,269.973 295.653,268.883 295.08,267.12 295.653,265.356 297.153,264.267 299.007,264.267 300.507,265.356 301.08,267.12"/>
<polyline fill="none" stroke="#ff0000" stroke-width="2" stroke-linecap="butt" stroke-linejoin="miter" points="315.96,254.797 315.387,256.561 313.887,257.65 312.033,257.65 310.533,256.561 309.96,254.797 310.533,253.034 312.033,251.944 313.887,251.944 315.387,253.034 315.96,254.797"/>
<polyline fill="none" stroke="#ff0000" stroke-width="2" stroke-linecap="butt" stroke-linejoin="miter" points="330.84,241.301 330.267,243.064 328.767,244.154 326.913,244.154 325.413,243.064 324.84,241.301 325.413,239.538 326.913,238.448 328.767,238.448 330.267,239.538 330.84,241.301"/>
<polyline fill="none" stroke="#ff0000" stroke-width="2" stroke-linecap="butt" stroke-linejoin="miter" points="345.72,226.631 345.147,228.394 343.647,229.484 341.793,229.484 340.293,228.394 339.72,226.631 340.293,224.868 341.793,223.778 343.647,223.778 345.147,224.868 345.72,226.631"/>
<polyline fill="none" stroke="#ff0000" stroke-width="2" stroke-linecap="butt" stroke-linejoin="miter" points="360.6,210.787 360.027,212.551 358.527,213.64 356.673,213.64 355.173,212.551 354.6,210.787 355.173,209.024 356.673,207.934 358.527,207.934 360.027,209.024 360.6,210.787"/>
<polyline fill="none" stroke="#ff0000" stroke-width="2" stroke-linecap="butt" stroke-linejoin="miter" points="375.48,193.77 374.907,195.533 373.407,196.623 371.553,196.623 370.053,195.533 369.48,193.77 370.053,192.007 371.553,190.917 373.407,190.917 374.907,192.007 375.48,193.77"/>
<polyline fill="none" stroke="#ff0000" stroke-width="2" stroke-linecap="butt" stroke-linejoin="miter" points="390.36,175.579 389.787,177.343 388.287,178.432 386.433,178.432 384.933,177.343 384.36,175.579 384.933,173.816 386.433,172.726 388.287,172.726 389.787,173.816 390.36,175.579"/>
<polyline fill="none" stroke="#ff0000" stroke-width="2" stroke-linecap="butt" stroke-linejoin="miter" points="405.24,156.215 404.667,157.978 403.167,159.068 401.313,159.068 399.813,157.978 399.24,156.215 399.813,154.452 401.313,153.362 403.167,153.362 404.667,154.452 405.24,156.215"/>
<polyline fill="none" stroke="#ff0000" stroke-width="2" stroke-linecap="butt" stroke-linejoin="miter" points="420.12,135.677 419.547,137.44 418.047,138.53 416.193,138.53 414.693,137.44 414.12,135.677 414.693,133.914 416.193,132.824 418.047,132.824 419.547,133.914 420.12,135.677"/>
<polyline fill="none" stroke="#ff0000" stroke-width="2" stroke-linecap="butt" stroke-linejoin="miter" points="435,113.965 434.427,115.729 432.927,116.818 431.073,116.818 429.573,115.729 429,113.965 429.573,112.202 431.073,111.112 432.927,111.112 434.427,112.202 435,113.965"/>
<polyline fill="none" stroke="#ff0000" stroke-width="2" stroke-linecap="butt" stroke-linejoin="miter" points="449.88,91.0801 449.307,92.8433 447.807,93.9331 445.953,93.9331 444.453,92.8433 443.88,91.0801 444.453,89.3164 445.953,88.2271 447.807,88.2271 449.307,89.3164 449.88,91.0801"/>
<polyline fill="none" stroke="#ff0000" stroke-width="2" stroke-linecap="butt" stroke-linejoin="miter" points="464.76,67.021 464.187,68.7847 462.687,69.8745 460.833,69.8745 459.333,68.7847 458.76,67.021 459.333,65.2578 460.833,64.168 462.687,64.168 464.187,65.2578 464.76,67.021"/>
<polyline fill="none" stroke="#ff0000" stroke-width="2" stroke-linecap="butt" stroke-linejoin="miter" points="479.64,41.7886 479.067,43.5522 477.567,44.6421 475.713,44.6421 474.213,43.5522 473.64,41.7886 474.213,40.0254 475.713,38.9355 477.567,38.9355 479.067,40.0254 479.64,41.7886"/>
<polyline fill="none" stroke="#0000ff" stroke-width="2" stroke-linecap="butt" stroke-linejoin="miter" points="74.8799,281.79 89.7598,278.856 104.64,275.922 119.52,272.988 134.4,270.054 149.28,267.12 164.16,264.186 179.04,261.252 193.92,258.318 208.8,255.384 223.68,252.45 238.56,249.516 253.44,246.582 268.32,243.648 283.2,240.714 298.08,237.78 312.96,234.846 327.84,231.912 342.72,228.978 357.6,226.044 372.48,223.11 387.36,220.176 402.24,217.242 417.12,214.308 432,211.374 446.88,208.44 461.76,205.506 476.64,202.572 491.52,199.638 506.4,196.704 521.28,193.77"/>
<polyline fill="none" stroke="#0000ff" stroke-width="2" stroke-linecap="butt" stroke-linejoin="miter" points="77.8799,281.79 77.3071,283.553 75.8071,284.643 73.9531,284.643 72.4531,283.553 71.8799,281.79 72.4531,280.027 73.9531,278.937 75.8071,278.937 77.3071,280.027 77.8799,281.79"/>
<polyline fill="none" stroke="#0000ff" stroke-width="2" stroke-linecap="butt" stroke-linejoin="miter" points="92.7598,278.856 92.187,280.619 90.687,281.709 88.833,281.709 87.333,280.619 86.7598,278.856 87.333,277.093 88.833,276.003 90.687,276.003 92.187,277.093 92.7598,278.856"/>
<polyline fill="none" stroke="#0000ff" stroke-width="2" stroke-linecap="butt" stroke-linejoin="miter" points="107.64,275.922 107.067,277.686 105.567,278.775 103.713,278.775 102.213,277.686 101.64,275.922 102.213,274.159 103.713,273.069 105.567,273.069 107.067,274.159 107.64,275.922"/>
<polyline fill="none" stroke="#0000ff" stroke-width="2" stroke-linecap="butt" stroke-linejoin="miter" points="122.52,272.988 121.947,274.751 120.447,275.841 118.593,275.841 117.093,274.751 116.52,272.988 117.093,271.225 118.593,270.135 120.447,270.135 121.947,271.225 122.52,272.988"/>
<polyline fill="none" stroke="#0000ff" stroke-width="2" stroke-linecap="butt" stroke-linejoin="miter" points="137.4,270.054 136.827,271.817 135.327,272.907 133.473,272.907 131.973,271.817 131.4,270.054 131.973,268.291 133.473,267.201 135.327,267.201 136.827,268.291 137.4,270.054"/>
<polyline fill="none" stroke="#0000ff" stroke-width="2" stroke-linecap="butt" stroke-linejoin="miter" points="152.28,267.12 151.707,268.883 150.207,269.973 148.353,269.973 146.853,268.883 146.28,267.12 146.853,265.356 148.353,264.267 150.207,264.267 151.707,265.356 152.28,267.12"/>
<polyline fill="none" stroke="#0000ff" stroke-width="2" stroke-linecap="butt" stroke-linejoin="miter" points="167.16,264.186 166.587,265.949 165.087,267.039 163.233,267.039 161.733,265.949 161.16,264.186 161.733,262.423 163.233,261.333 165.087,261.333 166.587,262.423 167.16,264.186"/>
<polyline fill="none" stroke="#0000ff" stroke-width="2" stroke-linecap="butt" stroke-linejoin="miter" points="182.04,261.252 181.467,263.015 179.967,264.105 178.113,264.105 176.613,263.015 176.04,261.252 176.613,259.489 178.113,258.399 179.967,258.399 181.467,259.489 182.04,261.252"/>
<polyline fill="none" stroke="#0000ff" stroke-width="2" stroke-linecap="butt" stroke-linejoin="miter" points="196.92,258.318 196.347,260.082 194.847,261.171 192.993,261.171 191.493,260.082 190.92,258.318 191.493,256.555 192.993,255.465 194.847,255.465 196.347,256.555 196.92,258.318"/>
<polyline fill="none" stroke="#0000ff" stroke-width="2" stroke-linecap="butt" stroke-linejoin="miter" points="211.8,255.384 211.227,257.147 209.727,258.237 207.873,258.237 206.373,257.147 205.8,255.384 206.373,253.621 207.873,252.531 209.727,252.531 211.227,253.621 211.8,255.384"/>
<polyline fill="none" stroke="#0000ff" stroke-width="2" stroke-linecap="butt" stroke-linejoin="miter" points="226.68,252.45 226.107,254.213 224.607,255.303 222.753,255.303 221.253,254.213 220.68,252.45 221.253,250.687 222.753,249.597 224.607,249.597 226.107,250.687 226.68,252.45"/>
<polyline fill="none" stroke="#0000ff" stroke-width="2" stroke-linecap="butt" stroke-linejoin="miter" points="241.56,249.516 240.987,251.279 239.487,252.369 237.633,252.369 236.133,251.279 235.56,249.516 236.133,247.752 237.633,246.663 239.487,246.663 240.987,247.752 241.56,249.516"/>
<polyline fill="none" stroke="#0000ff" stroke-width="2" stroke-linecap="butt" stroke-linejoin="miter" points="256.44,246.582 255.867,248.345 254.367,249.435 252.513,249.435 251.013,248.345 250.44,246.582 251.013,244.819 252.513,243.729 254.367,243.729 255.867,244.819 256.44,246.582"/>
<polyline fill="none" stroke="#0000ff" stroke-width="2" stroke-linecap="butt" stroke-linejoin="miter" points="271.32,243.648 270.747,245.411 269.247,246.501 267.393,246.501 265.893,245.411 265.32,243.648 265.893,241.885 267.393,240.795 269.247,240.795 270.747,241.885 271.32,243.648"/>
<polyline fill="none" stroke="#0000ff" stroke-width="2" stroke-linecap="butt" stroke-linejoin="miter" points="286.2,240.714 285.627,242.478 284.127,243.567 282.273,243.567 280.773,242.478 280.2,240.714 280.773,238.951 282.273,237.861 284.127,237.861 285.627,238.951 286.2,240.714"/>
<polyline fill="none" stroke="#0000ff" stroke-width="2" stroke-linecap="butt" stroke-linejoin="miter" points="301.08,237.78 300.507,239.543 299.007,240.633 297.153,240.633 295.653,239.543 295.08,237.78 295.653,236.017 297.153,234.927 299.007,234.927 300.507,236.017 301.08,237.78"/>
<polyline fill="none" stroke="#0000ff" stroke-width="2" stroke-linecap="butt" stroke-linejoin="miter" points="315.96,234.846 315.387,236.609 313.887,237.699 312.033,237.699 310.533,236.609 309.96,234.846 310.533,233.083 312.033,231.993 313.887,231.993 315.387,233.083 315.96,234.846"/>
<polyline fill="none" stroke="#0000ff" stroke-width="2" stroke-linecap="butt" stroke-linejoin="miter" points="330.84,231.912 330.267,233.675 328.767,234.765 326.913,234.765 325.413,233.675 324.84,231.912 325.413,230.148 326.913,229.059 328.767,229.059 330.267,230.148 330.84,231.912"/>
<polyline fill="none" stroke="#0000ff" stroke-width="2" stroke-linecap="butt" stroke-linejoin="miter" points="345.72,228.978 345.147,230.741 343.647,231.831 341.793,231.831 340.293,230.741 339.72,228.978 340.293,227.215 341.793,226.125 343.647,226.125 345.147,227.215 345.72,228.978"/>
<polyline fill="none" stroke="#0000ff" stroke-width="2" stroke-linecap="butt" stroke-linejoin="miter" points="360.6,226.044 360.027,227.808 358.527,228.897 356.673,228.897 355.173,227.808 354.6,226.044 355.173,224.281 356.673,223.191 358.527,223.191 360.027,224.281 360.6,226.044"/>
<polyline fill="none" stroke="#0000ff" stroke-width="2" stroke-linecap="butt" stroke-linejoin="miter" points="375.48,223.11 374.907,224.874 373.407,225.963 371.553,225.963 370.053,224.874 369.48,223.11 370.053,221.347 371.553,220.257 373.407,220.257 374.907,221.347 375.48,223.11"/>
<polyline fill="none" stroke="#0000ff" stroke-width="2" stroke-linecap="butt" stroke-linejoin="miter" points="390.36,220.176 389.787,221.939 388.287,223.029 386.433,223.029 384.933,221.939 384.36,220.176 384.933,218.413 386.433,217.323 388.287,217.323 389.787,218.413 390.36,220.176"/>
<polyline fill="none" stroke="#0000ff" stroke-width="2" stroke-linecap="butt" stroke-linejoin="miter" points="405.24,217.242 404.667,219.005 403.167,220.095 401.313,220.095 399.813,219.005 399.24,217.242 399.813,215.479 401.313,214.389 403.167,214.389 404.667,215.479 405.24,217.242"/>
<polyline fill="none" stroke="#0000ff" stroke-width="2" stroke-linecap="butt" stroke-linejoin="miter" points="420.12,214.308 419.547,216.071 418.047,217.161 416.193,217.161 414.693,216.071 414.12,214.308 414.693,212.544 416.193,211.455 418.047,211.455 419.547,212.544 420.12,214.308"/>
<polyline fill="none" stroke="#0000ff" stroke-width="2" stroke-linecap="butt" stroke-linejoin="miter" points="435,211.374 434.427,213.137 432.927,214.227 431.073,214.227 429.573,213.137 429,211.374 429.573,209.611 431.073,208.521 432.927,208.521 434.427,209.611 435,211.374"/>
<polyline fill="none" stroke="#0000ff" stroke-width="2" stroke-linecap="butt" stroke-linejoin="miter" points="449.88,208.44 449.307,210.203 447.807,211.293 445.953,211.293 444.453,210.203 443.88,208.44 444.453,206.677 445.953,205.587 447.807,205.587 449.307,206.677 449.88,208.44"/>
<polyline fill="none" stroke="#0000ff" stroke-width="2" stroke-linecap="butt" stroke-linejoin="miter" points="464.76,205.506 464.187,207.27 462.687,208.359 460.833,208.359 459.333,207.27 458.76,205.506 459.333,203.743 460.833,202.653 462.687,202.653 464.187,203.743 464.76,205.506"/>
<polyline fill="none" stroke="#0000ff" stroke-width="2" stroke-linecap="butt" stroke-linejoin="miter" points="479.64,202.572 479.067,204.335 477.567,205.425 475.713,205.425 474.213,204.335 473.64,202.572 474.213,200.809 475.713,199.719 477.567,199.719 479.067,200.809 479.64,202.572"/>
<polyline fill="none" stroke="#0000ff" stroke-width="2" stroke-linecap="butt" stroke-linejoin="miter" points="494.52,199.638 493.947,201.401 492.447,202.491 490.593,202.491 489.093,201.401 488.52,199.638 489.093,197.875 490.593,196.785 492.447,196.785 493.947,197.875 494.52,199.638"/>
<polyline fill="none" stroke="#0000ff" stroke-width="2" stroke-linecap="butt" stroke-linejoin="miter" points="509.4,196.704 508.827,198.467 507.327,199.557 505.473,199.557 503.973,198.467 503.4,196.704 503.973,194.94 505.473,193.851 507.327,193.851 508.827,194.94 509.4,196.704"/>
<polyline fill="none" stroke="#0000ff" stroke-width="2" stroke-linecap="butt" stroke-linejoin="miter" points="524.28,193.77 523.707,195.533 522.207,196.623 520.353,196.623 518.853,195.533 518.28,193.77 518.853,192.007 520.353,190.917 522.207,190.917 523.707,192.007 524.28,193.77"/>
<polyline fill="none" stroke="#000000" stroke-width="2" stroke-linecap="butt" stroke-linejoin="miter" points="149.28,384.48 149.28,91.0801"/>
<text fill="#000000" x="149.28" y="296.46" font-size="10" text-anchor="start" dy="5" font-family="Helvetica">(0.000, 0.000)</text>
<text fill="#000000" x="149.28" y="237.78" font-size="10" text-anchor="start" dy="5" font-family="Helvetica">(0.000, 1.000)</text>
<polyline fill="none" stroke="#000000" stroke-width="2" stroke-linecap="butt" stroke-linejoin="miter" points="409.68,384.48 409.68,91.0801"/>
<text fill="#000000" x="409.68" y="116.752" font-size="10" text-anchor="start" dy="5" font-family="Helvetica">(1.750, 3.062)</text>
<text fill="#000000" x="409.68" y="186.435" font-size="10" text-anchor="start" dy="5" font-family="Helvetica">(1.750, 1.875)</text>
<text fill="#000000" x="298.08" y="22.3999" font-size="11" text-anchor="middle" dy="0" font-family="Helvetica" font-weight="bold">Część wspólna zbiorów</text>
</g>
<clipPath id="cp00576432">
  <polygon points="0,432 576,432 576,0 0,0"/>
</clipPath>
<g clip-path="url(#cp00576432)">
<polygon fill="#ffffff" shape-rendering="crispEdges" points="444.459,75.6055 518.535,75.6055 518.535,35.1445"/>
<polygon fill="#ffffff" shape-rendering="crispEdges" points="444.459,75.6055 518.535,35.1445 444.459,35.1445"/>
<polyline fill="none" stroke="#262626" stroke-width="0.5" stroke-linecap="butt" stroke-linejoin="miter" stroke-dasharray="16,0" points="444.459,75.6055 518.535,75.6055"/>
<polyline fill="none" stroke="#262626" stroke-width="0.5" stroke-linecap="butt" stroke-linejoin="miter" stroke-dasharray="16,0" points="444.459,35.1445 518.535,35.1445"/>
<polyline fill="none" stroke="#262626" stroke-width="0.5" stroke-linecap="butt" stroke-linejoin="miter" stroke-dasharray="16,0" points="444.459,75.6055 444.459,35.1445"/>
<polyline fill="none" stroke="#262626" stroke-width="0.5" stroke-linecap="butt" stroke-linejoin="miter" stroke-dasharray="16,0" points="518.535,75.6055 518.535,35.1445"/>
<text fill="#000000" x="470.534" y="51.7598" font-size="10" text-anchor="start" dy="0" font-family="Helvetica">x</text>
<text fill="#000000" x="476.534" y="45.7598" font-size="8" text-anchor="start" dy="0" font-family="Helvetica">2</text>
<text fill="#000000" x="470.534" y="65.4902" font-size="10" text-anchor="start" dy="5" font-family="Helvetica">0.5 x + 1</text>
<polyline fill="none" stroke="#ff0000" stroke-width="2" stroke-linecap="butt" stroke-linejoin="miter" points="447.204,45.2598 467.789,45.2598"/>
<polyline fill="none" stroke="#ff0000" stroke-width="2" stroke-linecap="butt" stroke-linejoin="miter" points="460.497,45.2598 459.923,47.0229 458.423,48.1128 456.569,48.1128 455.069,47.0229 454.497,45.2598 455.069,43.4966 456.569,42.4067 458.423,42.4067 459.923,43.4966 460.497,45.2598"/>
<polyline fill="none" stroke="#0000ff" stroke-width="2" stroke-linecap="butt" stroke-linejoin="miter" points="447.204,65.4902 467.789,65.4902"/>
<polyline fill="none" stroke="#0000ff" stroke-width="2" stroke-linecap="butt" stroke-linejoin="miter" points="460.497,65.4902 459.923,67.2534 458.423,68.3433 456.569,68.3433 455.069,67.2534 454.497,65.4902 455.069,63.7271 456.569,62.6372 458.423,62.6372 459.923,63.7271 460.497,65.4902"/>
</g>
</g>
</svg>
